<svg xmlns="http://www.w3.org/2000/svg" xmlns:xlink="http://www.w3.org/1999/xlink" viewBox="0 0 473.41 510.77"><defs><style>.cls-1{fill:#fbfcf5;stroke:#3c3f2d;stroke-miterlimit:10;stroke-width:5.45px;}.cls-2{fill:#ccc;}.cls-3{fill:#a6120d;}.cls-4{fill:#b3b3b3;}.cls-5{fill:#dd1b16;}.cls-6{fill:#f2f2f2;}.cls-7{fill:#563d7c;}.cls-8{fill:#fff;}.cls-9{fill:#1a1918;}.cls-10{fill:#21609b;}.cls-11{fill:url(#linear-gradient);}.cls-12{fill:url(#linear-gradient-2);}.cls-13{fill:#63a714;}.cls-14{fill:#89ce17;}.cls-15{fill:#eaeaea;}.cls-16{fill:#fefefe;}.cls-17{fill:#e34d26;}.cls-18{fill:#f06529;}.cls-19{fill:#0070b9;}.cls-20{fill:#29a7df;}</style><linearGradient id="linear-gradient" x1="-208.74" y1="-3874.65" x2="-208.72" y2="-3874.67" gradientTransform="matrix(1849.27, 0, 0, -1853.39, 386055.2, -7181049.8)" gradientUnits="userSpaceOnUse"><stop offset="0" stop-color="#387eb8"/><stop offset="1" stop-color="#366994"/></linearGradient><linearGradient id="linear-gradient-2" x1="-209.08" y1="-3874.33" x2="-209.05" y2="-3874.35" gradientTransform="matrix(1849.27, 0, 0, -1853.39, 386699.61, -7180423.01)" gradientUnits="userSpaceOnUse"><stop offset="0" stop-color="#ffe052"/><stop offset="1" stop-color="#ffc331"/></linearGradient></defs><title>skills-languages-portrait</title><g id="Layer_2" data-name="Layer 2"><g id="Skills"><g id="skills-languages"><g id="speech-bubble"><path class="cls-1" d="M403.13,3.37C299.26,2.06,171.45,2.82,67.56,5c-42.37.91-63.76,21.54-64.25,65C1.74,210.46,3.68,225,5.11,366.19c.45,43.75,28.14,59.25,63.79,64.67,10.89,1.66,34.34.67,46.54,2.56a160,160,0,0,0,10,22c12.32,22.77,20.06,31.44,39.74,47.29-6.71-19.53-8.41-29.56-7.19-49.26.82-13.22,1.27-18,10.92-25.7,71.87,7.6,167.32,3.15,237.91-.15,40.57-1.9,63.64-21.81,63.74-65.12.33-139.75.12-155.09-2.42-294.66C467.35,24.6,445.48,3.91,403.13,3.37Z"/></g><g id="AngularJS"><path class="cls-2" d="M138.83,379.19V337.76h5.37l25.42,33.41V337.76h5v41.43h-5.25L144,345.52v33.67h-5.16Zm77-1.6a29.7,29.7,0,0,1-10.78,1.92q-22.53,0-22.53-21.61,0-20.44,21.74-20.44c4.16,0,11.74,1.74,11.74,1.74v4.64s-7.39-2-11.16-2q-17,0-17,16.09,0,17.27,16.7,17.26a28.46,28.46,0,0,0,5.94-.7V360.33h5.31v17.26Zm8.55-14.36V337.76h5.32v25.46q0,11.94,11.92,11.95t11.93-11.95V337.76h5.32v25.47q0,16.31-17.25,16.3t-17.24-16.3Zm49.48-25.47v37.07h21.76v4.36H268.58V337.76Zm29.42,41.43h-5.56l20.62-47,20.62,47h-5.94l-5.37-13.06H314l1.48-4.35H325.9L318.15,343l-14.83,36.22Zm41.34,0V337.76h17.67q11.82,0,11.82,9.94,0,8.08-11.56,12l14.22,19.53h-7l-13.21-18.67V357q11.91-1.89,11.9-9.15,0-5.75-6.61-5.75H350v37.08h-5.32Zm52.22-41.42v29.52q0,12-14,12v-4.35q8.7,0,8.7-7.6V337.76Zm9.67,40.13v-5a41.4,41.4,0,0,0,14.08,2.34q10.69,0,10.7-7.89c0-4.47-2.63-6.72-7.89-6.72h-5.33q-13,0-13-11.39,0-12,16.66-12A50,50,0,0,1,435.24,339v5a38.07,38.07,0,0,0-13.48-2.34q-11.29,0-11.3,7.6,0,6.72,7.65,6.72h5.33q13.24,0,13.25,11.39,0,12.27-16.06,12.27a54,54,0,0,1-14.08-1.75Z"/><path d="M140.28,377.86V336.47h5.81l25,33.24V336.47h5v41.27h-5.34l-25.44-33.58V377.9h-5Zm77.05-1.62a30.65,30.65,0,0,1-10.89,1.91q-22.53,0-22.53-21.6,0-20.44,21.75-20.45c4.16,0,11.5,1.75,11.5,1.75v4.66a30.46,30.46,0,0,0-10.93-2q-16.83,0-16.83,16.09,0,17.26,16.58,17.26a27.69,27.69,0,0,0,5.87-.7V359h5.48Zm8.54-14.31V336.47h5.32v25.46q0,12,11.93,11.95T255,361.93V336.47h5.32v25.46q0,16.31-17.25,16.3T225.87,361.93Zm49.32-25.46v37.07H297v4.36H269.87V336.47Zm29.49,41.43h-5.57l20.63-47,20.62,47h-5.95l-5.36-13.06H315.33l1.48-4.35h10.44l-7.74-18.8L304.68,377.9Zm41.43,0V336.47h17.54q11.73,0,11.72,9.94,0,8.08-11.46,12L378,377.9h-6.69L358,359.23v-3.51q12-1.89,12-9.15,0-5.74-6.67-5.74H351.43V377.9Z"/><path class="cls-3" d="M398.33,336.31v29.52q0,12-14,11.95v-4.35q8.7,0,8.7-7.6V336.31Zm9.51,40.28v-5A41.4,41.4,0,0,0,421.92,374q10.69,0,10.7-7.88,0-6.72-7.89-6.72H419.4q-13,0-13-11.39,0-12,16.66-12a50,50,0,0,1,13.48,1.75v5a38.07,38.07,0,0,0-13.48-2.34q-11.3,0-11.3,7.59,0,6.72,7.65,6.72h5.33q13.25,0,13.25,11.39,0,12.26-16.06,12.26a54.47,54.47,0,0,1-14.08-1.75Z"/><path class="cls-4" d="M83.86,304.46l-48.43,17L43.08,385l40.83,22.44,41-22.74,7.65-63.45L83.86,304.46Z"/><path class="cls-3" d="M127.73,324.87l-44-15V402l36.89-20.42,7.13-56.74Z"/><path class="cls-5" d="M40.84,325.14l6.55,56.74L83.71,402V309.86L40.84,325.14Z"/><path class="cls-6" d="M95.86,358.85l-12.11,5.67H71l-6,15-11.17.2,30-66.61ZM94.69,356,83.83,334.51l-8.92,21.14h8.84l10.94.37Z"/><path class="cls-4" d="M83.71,313.26v21.3l10.23,21.09H83.87v9H97.81l6.57,15.14,10.69.2L83.75,313.26Z"/></g><g id="Bootstrap"><path class="cls-7" d="M345.43,140.89a13.27,13.27,0,0,0,13.27,13.27h76.39a13.28,13.28,0,0,0,13.28-13.27V64.5a13.28,13.28,0,0,0-13.28-13.27H358.7A13.27,13.27,0,0,0,345.43,64.5v76.39Z"/><path class="cls-8" d="M388.13,96.76V82.19H401a20.25,20.25,0,0,1,3.53.3,8.77,8.77,0,0,1,3,1.1,5.72,5.72,0,0,1,2.1,2.18,7.28,7.28,0,0,1,.78,3.58c0,2.61-.78,4.51-2.35,5.67a9.87,9.87,0,0,1-6,1.74ZM374.42,71.53v62.33h30.21a31.82,31.82,0,0,0,8.16-1.05,21.56,21.56,0,0,0,7.07-3.23,15.79,15.79,0,0,0,4.93-5.63,17.06,17.06,0,0,0,1.84-8.16,17.31,17.31,0,0,0-2.84-10,15,15,0,0,0-8.6-5.8,15.64,15.64,0,0,0,6.33-5.15A13.65,13.65,0,0,0,423.66,87a16.76,16.76,0,0,0-1.44-7.34,12,12,0,0,0-4.06-4.75,17.36,17.36,0,0,0-6.29-2.58,39.06,39.06,0,0,0-8.12-.78Zm13.71,51.71V106.11h14.94a11.64,11.64,0,0,1,7.17,2c1.8,1.37,2.71,3.66,2.71,6.86a8.57,8.57,0,0,1-.83,4,6.76,6.76,0,0,1-2.23,2.5,9.59,9.59,0,0,1-3.24,1.31,18.38,18.38,0,0,1-3.84.39Z"/></g><g id="jQuery"><path class="cls-9" d="M442,225.64l13.2.07-26.61,36a15.62,15.62,0,0,0-2.14,3,67.6,67.6,0,0,0-2.58,9.45l-12.08.06s1.89-6.77,1.81-10.38c-.07-3.14-1.68-6.29-2.58-9.45S408.9,245,408.9,245h12.44l1.72,6.86L442,225.62"/><path class="cls-9" d="M417,232.62c2.44,1.47,3.94,9.59,3.94,9.59l-19.71.12h-6l-7.29,31.75H376.76s6.93-34.45,8.57-40.7c.53-2,3.63-1.67,8.87-1.67h8.38c5.41,0,11.73-.69,14.38.91m-51.9,15.51a6.67,6.67,0,0,0-1.17-4.39c-1.31-2-2.51-2.48-5.94-2.59-9.69-.3-9.5,6.87-9.5,6.87Zm10.57-8.26c1.42,5.12-1.28,17.15-1.28,17.15s-14.13-.23-21.87,0c-2.41.07-5.29-.26-6,.86-1,1.57.37,4,1.54,5,1.34,1.18,4,1.31,4.9,1.43,6.28.8,19.42.21,19.42.21l-2.27,10.08s-18.58.93-27.87-1.29a9.4,9.4,0,0,1-4.72-2.57,14.56,14.56,0,0,1-.89-1.21,11,11,0,0,1-1.25-2.22c-2.13-5.65.25-16.49,2.57-22.29.27-.68.61-1.53,1-2.26.45-.9.83-1.92,1.18-2.46.24-.37.54-.61.79-1a14.06,14.06,0,0,1,.93-1.17,17.84,17.84,0,0,1,3-2.58c3.87-2.9,10.88-5.15,19.29-4.29,3.17.33,8,1.46,10.3,4.72a14.58,14.58,0,0,1,1.28,3.86Zm-51.22-8.16,10.84-.07s-6,28.61-9.1,42.57H313.74c-8.71,0-16.46,1.07-19.76-5.16-3.2-6.05-.15-16,1.29-22.77,1-4.79,3.15-14.57,3.15-14.57l11.2-.1s-3.16,15.2-4.48,22.79c-.47,2.71-1.44,5.27-.43,7.28s2.32,2.05,6.44,2.15c1.3,0,5.57,0,5.57,0l7.72-32.16m-50.6,20.6c1.13-4,2.78-8.38,2.57-12-.22-3.87-3.47-7.4-5.57-8.14a14.29,14.29,0,0,0-14.58,3.43c-3,3.29-4.07,7.14-5.14,12.43-.8,3.93-1.46,8.08,0,11.15,2.58,5.42,10.63,4.24,19.29,4.29,1.29-3.45,2.35-7.32,3.43-11.15Zm15-15.86c1.23,9-3.5,18.88-6.77,27.5,3.33.3,6.25,0,6.46.2s-2.23,10.29-3.09,10.32c-2.64.06-11.39.14-15,.14-11.91,0-23.05.77-28.73-5.15A18.64,18.64,0,0,1,237.4,260a39.94,39.94,0,0,1,1.28-14.58A44.23,44.23,0,0,1,243,234.26c5-8.73,13.71-15.22,28.3-13.72a27.15,27.15,0,0,1,9.43,3c.18.1.79.59.93.68,3.43,2.18,6.56,7.39,7.22,12.19Zm-52.72-4.65c-.71,3.26-1.43,7-2.19,10.19H222c.93-3.57,1.64-7.13,2.56-10.24,3.83,0,11.57,0,11.57,0M221.58,245h11.53c-1.52,8.38-4.51,21.89-6.86,31.3-1.47,5.89-2.46,10.18-6.43,13.29-.36.28-.57.15-.86.43-.74.7-4.13,1.51-6,1.72a86,86,0,0,1-10.26,0c1-3.59,2.09-7.9,3-11.11,9.14,1.1,9.37-7.54,11.14-15.87,1-4.81,4.13-17.79,4.72-19.72"/><path class="cls-10" d="M194.52,266.85l-.25.64c-4.23,8.23-11.72,13.29-22.41,13.51A31.44,31.44,0,0,1,159,278.43a33.25,33.25,0,0,1-15.43-14.58c-4.43-8.57-5.22-20.48,4-29.37.14,0-1.11,1.93-1,1.93l-.26.82c-6.62,20.74,13.79,38.51,33.63,36.48a26.07,26.07,0,0,0,14.58-6.86"/><path class="cls-10" d="M182.51,258.27a19,19,0,0,0,13.29-5.57c-2.7,6.86-10.52,11.26-21,9.86-8.78-1.17-17.14-10-18-18.87-.63-6.44,1.61-10.29,5.31-14.95a15.52,15.52,0,0,0-1.88,5.52c-1.41,13.94,11.13,23.94,22.29,24"/><path class="cls-10" d="M195.3,241c-.77,1.78-5.24,5.14-7.21,5.56-7.82,1.66-12.82-2-15.44-6.26a19.24,19.24,0,0,1-1.24-2.78c-1-3.46-.55-8.69,2.48-11.39a14.26,14.26,0,0,0-.56,7.5,16.79,16.79,0,0,0,2.06,4.52,12,12,0,0,0,4.72,4.17,12.52,12.52,0,0,0,2.37,1.13c2,.58,6.12,2.11,12.82-2.45"/></g><g id="Python"><path class="cls-11" d="M68.23,182.33c-23.05,0-21.61,10-21.61,10l0,10.36h22v3.1H37.92s-14.75-1.68-14.75,21.58S36,249.8,36,249.8h7.71V239s-.42-12.87,12.66-12.87H78.2s12.25.19,12.25-11.85V194.38S92.32,182.33,68.23,182.33Zm-8.17,10.92h0a4,4,0,0,1-4,3.95h0a4,4,0,0,1-4-4h0a3.93,3.93,0,0,1,3.94-3.94h0A4,4,0,0,1,60.06,193.25Z"/><path class="cls-12" d="M68.88,272.66c23.05,0,21.61-10,21.61-10l0-10.36h-22v-3.13H99.21S114,250.85,114,227.6s-12.88-22.43-12.88-22.43H93.4V216s.42,12.87-12.67,12.87H58.92s-12.26-.2-12.26,11.84v19.9s-1.86,12.05,22.23,12.05Zm12.15-7a4,4,0,0,1-4-3.95h0a4,4,0,0,1,4-4h0a4,4,0,0,1,3.95,4h0A3.94,3.94,0,0,1,81,265.67Z"/></g><g id="JavaScript"><path class="cls-13" d="M313.26,63.62a23.47,23.47,0,0,0-.7,5.6c-.87,9.11-1.66,18.23-2.47,27.34Q309,108.44,308,120.31c-.69,7.79-1.4,15.58-2.06,23.37a1.66,1.66,0,0,1-1.48,1.7q-15.51,4.25-31,8.59a4.69,4.69,0,0,1-2.65,0q-15.56-4.35-31.11-8.64c-.75-.2-1.14-.46-1.22-1.37-1.35-15.46-2.76-30.91-4.13-46.36-1.05-11.73-2.05-23.46-3.13-35.18-.1-1.11.18-1.28,1.21-1.28q39.66,0,79.33,0c.5,0,1,0,1.49,0ZM272,125.6c-3.7-.74-7.3-1.92-11-2.79-.56-.13-.53-.54-.57-1-.17-2-.38-4.06-.51-6.09-.06-.93-.3-1.38-1.39-1.34-2.66.08-5.32,0-8,0-.76,0-1.1.11-1,1q.65,7.2,1.15,14.41a1.11,1.11,0,0,0,1,1.15q3,.76,5.89,1.58,7.2,2,14.39,4c0,3.16,0,6.33,0,9.49,0,.73.12,1.1,1,.86q12.83-3.58,25.66-7.11c.52-.14.78-.33.83-.88.23-2.77.51-5.53.74-8.29.28-3.3.49-6.61.78-9.91.38-4.16.84-8.31,1.21-12.47.3-3.38.49-6.78.79-10.16.46-5.07,1-10.12,1.46-15.19.39-4.62.7-9.25,1.25-13.85.11-.85-.07-1.27-1.09-1.27q-15.75.06-31.49,0c-.86,0-1.16.24-1.15,1.13.05,3,0,6.08,0,9.12-.5,0-1,.05-1.5.05-7.7,0-15.4,0-23.1,0-.95,0-1.22.23-1.13,1.18.29,3,.5,6,.75,9.07.42.4.95.22,1.43.22,7.32,0,14.65,0,22,0,1.23,0,1.62.25,1.61,1.56C272,102,272,113.78,272,125.6Z"/><path d="M281.49,44.09c2,1.57,3.67,2.95,5.42,4.25a1.94,1.94,0,0,1,.88,1.87,27.06,27.06,0,0,0,0,3.12c0,.61-.2.77-.79.76q-6.56,0-13.11,0c-.55,0-.85-.09-.83-.74,0-1.2.05-2.41,0-3.62,0-.66.3-.74.83-.74,1.7,0,3.41,0,5.11,0,.12-.52-.32-.59-.53-.77-.64-.54-1.31-1-2-1.53-3.71-2.88-3.69-2.88-3.45-7.58,0-.63.25-.75.81-.75q6.61,0,13.24,0c.56,0,.7.18.69.71,0,1.41,0,2.83,0,4.24,0,.6-.17.79-.78.78C285.31,44.06,283.6,44.09,281.49,44.09Z"/><path d="M270.74,46.25c0,2.29,0,4.58,0,6.87,0,.76-.2,1-1,1-4.2,0-8.4,0-12.61,0-.66,0-1-.1-.94-.86.06-1.29.06-2.59,0-3.87,0-.78.3-.88.95-.87,2.08,0,4.16,0,6.24,0,.9,0,1.11-.28,1.09-1.13-.05-2.7,0-5.41,0-8.11,0-.69.13-1,.87-.92,1.5.06,3,0,4.49,0,.7,0,.93.18.92.9C270.71,41.59,270.74,43.92,270.74,46.25Z"/><path class="cls-14" d="M272,78.1c0-3,0-6.08,0-9.12,0-.89.29-1.13,1.15-1.13q15.74,0,31.49,0c1,0,1.2.42,1.09,1.27-.55,4.6-.86,9.23-1.25,13.85-.44,5.07-1,10.12-1.46,15.19-.3,3.38-.49,6.78-.79,10.16-.37,4.16-.83,8.31-1.21,12.47-.29,3.3-.5,6.61-.78,9.91-.23,2.76-.51,5.52-.74,8.29,0,.55-.31.74-.83.88Q285.85,143.39,273,147c-.88.24-1-.13-1-.86,0-3.16,0-6.33,0-9.49l.53-.26c6.69-1.82,13.38-3.66,20.08-5.47.54-.14.59-.46.63-.9q.87-9.87,1.77-19.76c.53-5.92,1.1-11.84,1.62-17.77.4-4.51.76-9,1.14-13.55.41-1.16-.53-.76-1-.76Q284.44,78.11,272,78.1Z"/><path class="cls-14" d="M272,125.6c0-11.82,0-23.64,0-35.46,0-1.31-.38-1.57-1.61-1.56-7.32,0-14.65,0-22,0-.48,0-1,.18-1.44-.22l25,0c.46,0,.91.06,1.37.06,4.12,0,8.23,0,12.35,0,.7,0,1,.06.91,1q-1.59,16.05-3.08,32.13a1.48,1.48,0,0,1-1.34,1.54c-3.25.84-6.49,1.75-9.73,2.63Z"/><path class="cls-15" d="M272,125.6l.48,0a1.21,1.21,0,0,0-.5,1.06c0,2.9,0,5.81,0,8.72,0,.41-.06.86.53.94l-.53.26q-7.18-2-14.39-4-2.94-.81-5.89-1.58a1.11,1.11,0,0,1-1-1.15q-.5-7.2-1.15-14.41c-.09-.91.25-1,1-1,2.67,0,5.33.07,8,0,1.09,0,1.33.41,1.39,1.34.13,2,.34,4.06.51,6.09,0,.41,0,.82.57,1C264.74,123.68,268.34,124.86,272,125.6Z"/><path class="cls-15" d="M272,88.34l-25,0c-.24-3-.45-6-.74-9.07-.09-1,.18-1.18,1.13-1.18,7.7,0,15.4,0,23.1,0,.5,0,1,0,1.5-.05q12.39,0,24.8.05c.43,0,1.37-.4,1,.76-.11-.65-.63-.54-1.07-.54-7.86,0-15.72,0-23.58,0-.87,0-1.15.26-1.14,1.13C272.06,82.44,272,85.39,272,88.34Z"/><path class="cls-16" d="M272,88.34c0-3,0-5.9,0-8.86,0-.87.27-1.13,1.14-1.13,7.86,0,15.72,0,23.58,0,.44,0,1-.11,1.07.54-.38,4.52-.74,9-1.14,13.55-.52,5.93-1.09,11.85-1.62,17.77q-.9,9.88-1.77,19.76c0,.44-.09.76-.63.9-6.7,1.81-13.39,3.65-20.08,5.47-.59-.08-.53-.53-.53-.94,0-2.91,0-5.82,0-8.72a1.21,1.21,0,0,1,.5-1.06c3.24-.88,6.48-1.79,9.73-2.63a1.48,1.48,0,0,0,1.34-1.54q1.47-16.08,3.08-32.13c.09-.89-.21-1-.91-1-4.12,0-8.23,0-12.35,0C273,88.4,272.5,88.36,272,88.34Z"/></g><g id="HTML"><path class="cls-17" d="M21,61.21c.54,0,1.08,0,1.62,0q39.56,0,79.1,0c1.29,0,1.47.39,1.36,1.54C102,74.84,100.94,86.92,99.85,99q-1.93,21.6-3.9,43.19c-.25,2.8-.26,2.8-2.91,3.54L63.3,154A4.13,4.13,0,0,1,61,154q-15.57-4.37-31.18-8.66a1.49,1.49,0,0,1-1.32-1.57c-.75-8.94-1.58-17.87-2.38-26.81-.7-7.9-1.38-15.81-2.09-23.71s-1.42-15.8-2.13-23.7c-.2-2.16-.38-4.31-.59-6.46,0-.3.14-.69-.27-.88Zm40.88,64.43c-3.53-.93-7-1.87-10.58-2.76-.63-.16-.6-.57-.64-1-.2-2.15-.43-4.3-.59-6.45-.06-.74-.34-1-1.08-.94-2.74,0-5.49,0-8.23,0-.87,0-1.15.23-1.06,1.12.45,4.79.86,9.59,1.27,14.39a.9.9,0,0,0,.78.93c6.73,1.85,13.46,3.74,20.19,5.61l.24.07v9.11c0,1.45,0,1.47,1.44,1.09s2.87-.81,4.31-1.21q10.33-2.88,20.69-5.73c.47-.13.73-.32.76-.81.08-1,.16-2.06.26-3.09q.33-3.39.56-6.8c.22-3.33.62-6.65.93-10,.2-2.18.35-4.36.55-6.54.3-3.25.65-6.49.94-9.74s.51-6.42.79-9.63c.31-3.49.65-7,1-10.48.19-2.14.37-4.28.56-6.42.23-2.42.45-4.84.69-7.27.09-.86-.23-1.14-1.11-1.14q-15.6,0-31.19,0c-1,0-1.18.34-1.17,1.24.05,2.57,0,5.15.05,7.73,0,1.07-.35,1.31-1.36,1.3-7.65,0-15.3,0-23,0-.48,0-1-.18-1.42.23,0,.58,0,1.16,0,1.74q.87,9.86,1.76,19.71c.29,3.18.63,6.35.94,9.53.43.41,1,.22,1.43.22,6.73,0,13.46,0,20.2,0,1,0,1.37.21,1.36,1.3-.06,4.48,0,9,0,13.46C62.2,124.81,62.36,125.3,61.91,125.64Z"/><path d="M75.06,47,71.72,52.1,68.34,47l-.26.06c0,2,0,4,0,6,0,.92-.2,1.26-1.16,1.17a19.9,19.9,0,0,0-3,0c-.72,0-1-.1-1-.93q.06-7,0-14c0-.68.21-.9.84-.8h.12c1.49,0,3.24-.43,4.41.19s1.62,2.32,2.39,3.54c.32.53.65,1.05,1.05,1.7,1-1.63,1.95-3.11,2.82-4.64a1.41,1.41,0,0,1,1.47-.8c1.24,0,2.49,0,3.74,0,.6,0,.78.17.78.77q0,7.05,0,14.09c0,.65-.2.87-.85.85-1.41-.06-3.21.46-4.13-.22s-.2-2.57-.27-3.93c0-1,0-2,0-3Z"/><path d="M28.77,46.28c0-2.28,0-4.57,0-6.86,0-.8.23-1,1-.93a31.57,31.57,0,0,0,3.37,0c.73,0,1,.11,1,.93-.08,1.12,0,2.24,0,3.37,0,.68.15,1,.89.93,1-.06,2.08,0,3.12,0,.55,0,.73-.16.71-.7,0-1.25,0-2.5,0-3.74,0-.59.13-.8.75-.78,1.29,0,2.58,0,3.87,0,.55,0,.69.18.69.71q0,7.11,0,14.22c0,.6-.19.85-.78.76h-.13c-1.41,0-3.25.49-4.1-.2s-.25-2.65-.26-4c0-.73-.13-1.06-1-1-1.22.14-2.87-.52-3.57.26s-.27,2.29-.18,3.48-.22,1.66-1.46,1.49a9.44,9.44,0,0,0-2.49,0c-1.21.17-1.42-.36-1.38-1.43C28.83,50.61,28.77,48.44,28.77,46.28Z"/><path d="M53.49,38.5c2.12,0,4.24,0,6.36,0,.71,0,.91.19.88.89,0,1.2,0,2.41,0,3.61,0,.6-.16.79-.76.77-1,0-2,0-3,0-.71,0-.91.18-.9.89.05,2.83,0,5.65,0,8.47,0,.86-.21,1.2-1.1,1.11-1.35-.14-3.11.56-3.94-.28s-.19-2.52-.22-3.85c0-1.7-.08-3.41,0-5.1.07-1.1-.31-1.35-1.3-1.24-.83.08-1.67,0-2.49,0-.6,0-.91-.06-.87-.79.07-1.24.06-2.49,0-3.73,0-.64.22-.75.78-.74C49.17,38.52,51.33,38.5,53.49,38.5Z"/><path d="M83.14,46.37c0-2.33,0-4.66,0-7,0-.7.18-.93.89-.89,1.16,0,2.33.06,3.49,0,.72,0,.9.21.89.91,0,2.82,0,5.65,0,8.48,0,1,.28,1.16,1.17,1.13,1.79-.08,3.58,0,5.36,0,.66,0,.86.17.83.83-.07,1.41.48,3.25-.22,4.11s-2.65.24-4,.26c-2.45,0-4.9,0-7.36,0-.78,0-1-.22-1-1C83.17,50.94,83.14,48.65,83.14,46.37Z"/><path class="cls-18" d="M36.51,78.42c.42-.41.94-.23,1.42-.23,7.65,0,15.3,0,23,0,1,0,1.39-.23,1.36-1.3-.08-2.58,0-5.16-.05-7.73,0-.9.2-1.24,1.17-1.24q15.6.06,31.19,0c.88,0,1.2.28,1.11,1.14-.24,2.43-.46,4.85-.69,7.27-.19,2.14-.37,4.28-.56,6.42-.32,3.5-.66,7-1,10.48-.28,3.21-.5,6.43-.79,9.63s-.64,6.49-.94,9.74c-.2,2.18-.35,4.36-.55,6.54-.31,3.33-.71,6.65-.93,10q-.23,3.41-.56,6.8c-.1,1-.18,2.06-.26,3.09,0,.49-.29.68-.76.81Q78.3,142.69,68,145.57c-1.44.4-2.87.83-4.31,1.21s-1.44.36-1.44-1.09v-9.11a5.77,5.77,0,0,1,.58-.22c6.39-1.78,12.78-3.57,19.19-5.28a1.58,1.58,0,0,0,1.38-1.68c.09-1.66.25-3.32.4-5,.72-8,1.42-16,2.18-23.94.11-1.1-.17-1.38-1.29-1.37-7.48,0-15,0-22.44,0V88.71c7.89,0,15.77,0,23.66,0,.84,0,1.15-.22,1.22-1.07.19-2.69.4-5.38.72-8.05.12-1-.1-1.2-1.06-1.2-6.06,0-12.12,0-18.18,0-2.2,0-4.4,0-6.6.06Z"/><path class="cls-15" d="M36.51,78.42l25.46,0V88.62c-4.36,0-8.73.06-13.09,0-.92,0-1.23.17-1.12,1.15.31,2.72.54,5.46.74,8.19.06.86.3,1.2,1.25,1.18,4.07,0,8.15,0,12.22,0v10.17l-22.72,0c-.31-3.18-.65-6.35-.94-9.53q-.9-9.86-1.76-19.71C36.5,79.58,36.52,79,36.51,78.42Z"/><path class="cls-16" d="M62,109.36V99.19l.24-.08c7.48,0,15,0,22.44,0,1.12,0,1.4.27,1.29,1.37-.76,8-1.46,16-2.18,23.94-.15,1.65-.31,3.31-.4,5A1.58,1.58,0,0,1,82,131.08c-6.41,1.71-12.8,3.5-19.19,5.28a5.77,5.77,0,0,0-.58.22l-.24-.07V125.84c3.56-1,7.11-2,10.67-2.89.65-.17,1-.4,1-1.13.3-3.71.61-7.43,1-11.14.11-1.11-.26-1.29-1.26-1.28C69.6,109.43,65.79,109.38,62,109.36Z"/><path class="cls-15" d="M62,125.84v10.67c-6.73-1.87-13.46-3.76-20.19-5.61A.9.9,0,0,1,41,130c-.41-4.8-.82-9.6-1.27-14.39-.09-.89.19-1.14,1.06-1.12,2.74,0,5.49,0,8.23,0,.74,0,1,.2,1.08.94.16,2.15.39,4.3.59,6.45,0,.46,0,.87.64,1,3.53.89,7.05,1.83,10.58,2.76Z"/><path class="cls-18" d="M62,125.84l-.06-.2c.45-.34.29-.83.3-1.27,0-4.49,0-9,0-13.46,0-1.09-.37-1.3-1.36-1.3-6.74,0-13.47,0-20.2,0-.48,0-1,.19-1.43-.22l22.72,0c3.82,0,7.63.07,11.45,0,1,0,1.37.17,1.26,1.28-.4,3.71-.71,7.43-1,11.14,0,.73-.38,1-1,1.13C69.08,123.89,65.53,124.87,62,125.84Z"/><path class="cls-16" d="M62,88.62V78.46c2.2,0,4.4-.06,6.6-.06,6.06,0,12.12,0,18.18,0,1,0,1.18.23,1.06,1.2-.32,2.67-.53,5.36-.72,8.05-.07.85-.38,1.07-1.22,1.07-7.89,0-15.77,0-23.66,0Z"/><path class="cls-17" d="M62,88.62l.24.09v10.4l-.24.08c-4.07,0-8.15-.06-12.22,0-1,0-1.19-.32-1.25-1.18-.2-2.73-.43-5.47-.74-8.19-.11-1,.2-1.16,1.12-1.15C53.24,88.68,57.61,88.64,62,88.62Z"/></g><g id="CSS"><path class="cls-19" d="M167.25,61.15c13.23,0,26.47,0,39.71,0,1.08,0,1.28.26,1.18,1.31-.85,9-1.63,18-2.44,27s-1.62,17.89-2.42,26.83q-1,11.87-2.09,23.74c-.12,1.36-.3,2.73-.36,4.1,0,.73-.39,1-1,1.13q-16,4.41-31.94,8.84a2.56,2.56,0,0,1-1.45,0q-16-4.44-31.93-8.84a1.12,1.12,0,0,1-1-1.16q-1.84-21.26-3.76-42.5Q128,81.93,126.21,62.3c-.09-1,.14-1.17,1.08-1.17Q147.27,61.18,167.25,61.15Zm-24,37.92.78,10.19c.37.53.92.28,1.38.28q10.16,0,20.31,0c.7,0,1.28-.07,1.27,1,0,4.61,0,9.22,0,13.83,0,.42.07.87-.51,1-3.33-.88-6.65-1.81-10-2.62-.93-.22-1.15-.71-1.21-1.54-.15-2.07-.38-4.13-.51-6.21,0-.69-.24-.92-.95-.92-3,0-6,0-9,0-.59,0-.78.14-.72.78.47,4.84.94,9.68,1.32,14.52.07,1,.44,1.29,1.32,1.53,6.76,1.86,13.5,3.78,20.24,5.68,0,3.12,0,6.24,0,9.36,0,1,.23,1.21,1.23.93q12.69-3.57,25.4-7c.79-.22.8-.66.84-1.27q.24-3.48.54-6.94c.31-3.42.65-6.83,1-10.25.19-2.19.35-4.38.55-6.56.3-3.3.64-6.59.94-9.88s.52-6.36.8-9.53c.3-3.46.64-6.92,1-10.38.2-2.15.36-4.3.56-6.44q.45-4.81.94-9.63c.09-.82-.21-1.08-1-1.08q-15.72,0-31.45,0c-.94,0-1.23.34-1.22,1.25,0,3.07,0,6.15,0,9.23-8.07,0-16.14.06-24.21,0-1.22,0-1.36.4-1.23,1.43.27,2.35.47,4.71.68,7.07.15,1.73.13,1.73,1.91,1.73l22.84,0c0,2.95,0,5.9,0,8.85,0,1.1-.29,1.4-1.39,1.39-7,0-14,0-20.94,0C144.24,98.84,143.71,98.64,143.29,99.07Z"/><path d="M165.79,48.74c-1.76-1.36-3.5-2.74-5.28-4.06a1.62,1.62,0,0,1-.77-1.54c.06-1.28,0-2.57,0-3.86,0-.67.13-.92.87-.91q6.48,0,13,0c.73,0,.92.21.89.91-.05,1.29-.06,2.58,0,3.86,0,.81-.26,1-1,1-1.66-.05-3.32,0-5.32,0,1.86,1.47,3.47,2.8,5.14,4a2.34,2.34,0,0,1,1.18,2.37c-.16,1.14.46,2.64-.23,3.36s-2.21.21-3.36.22c-3.36,0-6.73,0-10.1,0-.78,0-1.11-.15-1-1a16.48,16.48,0,0,0,0-3c-.11-1,.34-1.15,1.2-1.12,1.59.06,3.19,0,4.78,0Z"/><path d="M182.64,48.72c-1.77-1.37-3.54-2.75-5.33-4.09a1.54,1.54,0,0,1-.71-1.46q.06-1.94,0-3.87c0-.66.11-.94.87-.93,4.32,0,8.64,0,13,0,.63,0,.88.13.85.81-.05,1.33-.07,2.66,0,4,.05.83-.29.95-1,.93-1.64-.05-3.28,0-5.27,0,2,1.58,3.74,3,5.5,4.31a1.67,1.67,0,0,1,.78,1.55c-.06,1.12,0,2.24,0,3.36,0,.61-.19.78-.79.78q-6.54,0-13.09,0c-.58,0-.82-.16-.8-.77,0-1.16,0-2.33,0-3.49,0-.67.21-.86.86-.85,1.72,0,3.44,0,5.16,0Z"/><path d="M143,46.15c0-2.24,0-4.49,0-6.74,0-.76.12-1.06,1-1,4.16,0,8.33,0,12.49,0,.76,0,1.11.11,1.05,1a29.14,29.14,0,0,0,0,3.62c0,.8-.17,1.07-1,1.05-2.08-.07-4.16,0-6.24,0-.77,0-1,.21-1,1,.08,1.28-.4,3,.24,3.75s2.41.21,3.68.27c1.12,0,2.25.06,3.37,0,.8,0,1,.25.94,1a29.18,29.18,0,0,0,0,3.24c0,.75-.25.88-.93.88q-6.3,0-12.6,0c-.75,0-1-.15-1-1C143.06,50.81,143,48.48,143,46.15Z"/><path class="cls-20" d="M167,78.34c0-3.08,0-6.16,0-9.23,0-.91.28-1.25,1.22-1.25q15.72,0,31.45,0c.83,0,1.13.26,1,1.08q-.5,4.82-.94,9.63c-.2,2.14-.36,4.29-.56,6.44-.31,3.46-.65,6.92-1,10.38-.28,3.17-.52,6.35-.8,9.53s-.64,6.58-.94,9.88c-.2,2.18-.36,4.37-.55,6.56-.31,3.42-.65,6.83-1,10.25q-.3,3.46-.54,6.94c0,.61-.05,1-.84,1.27q-12.72,3.45-25.4,7c-1,.28-1.24.05-1.23-.93,0-3.12,0-6.24,0-9.36l.52-.25c6.69-1.83,13.36-3.67,20.06-5.48.6-.16.65-.49.69-1,.16-2,.34-3.9.51-5.84q1-10.86,1.95-21.72.6-6.83,1.16-13.65c.28-3.35.54-6.7.8-10.06-.35-.44-.85-.21-1.27-.21Q179.21,78.33,167,78.34Z"/><path class="cls-15" d="M167.52,136.31l-.52.25c-6.74-1.9-13.48-3.82-20.24-5.68-.88-.24-1.25-.56-1.32-1.53-.38-4.84-.85-9.68-1.32-14.52-.06-.64.13-.78.72-.78,3,0,6,0,9,0,.71,0,.91.23.95.92.13,2.08.36,4.14.51,6.21.06.83.28,1.32,1.21,1.54,3.35.81,6.67,1.74,10,2.62.2.23.49.19.75.23,0,3.15,0,6.31,0,9.47C167.25,135.47,167.09,136,167.52,136.31Z"/><path class="cls-15" d="M167,78.34q12.21,0,24.41,0c.42,0,.92-.23,1.27.21q-12.09,0-24.18,0c-.95,0-1.32.2-1.29,1.24.07,2.9,0,5.81,0,8.72l-.25.08-22.84,0c-1.78,0-1.76,0-1.91-1.73-.21-2.36-.41-4.72-.68-7.07-.13-1,0-1.44,1.23-1.43C150.87,78.4,158.94,78.36,167,78.34Z"/><path class="cls-15" d="M144.07,109.26l-.78-10.19,24,0V109.3Z"/><path class="cls-20" d="M144.07,109.26l23.18,0c.46,0,.91,0,1.37,0,3.37,0,6.73,0,10.1,0,.58,0,1.06-.06,1,.81-.4,3.72-.8,7.43-1.1,11.16a1.4,1.4,0,0,1-1.26,1.46c-3.37.89-6.72,1.85-10.07,2.78-.26,0-.55,0-.75-.23.58-.1.51-.55.51-1,0-4.61,0-9.22,0-13.83,0-1-.57-1-1.27-1q-10.15,0-20.31,0C145,109.54,144.44,109.79,144.07,109.26Z"/><path class="cls-20" d="M167.25,99.09l-24,0c.42-.43,1-.23,1.42-.23,7,0,14,0,20.94,0,1.1,0,1.42-.29,1.39-1.39-.08-3,0-5.9,0-8.85l.25-.08c4.37,0,8.73,0,13.09,0,1,0,1.46,0,1.25,1.3a63.9,63.9,0,0,0-.77,7.56c-.06,1.41-.57,1.66-1.85,1.64C175.06,99,171.16,99.07,167.25,99.09Z"/><path class="cls-16" d="M167.25,99.09c3.91,0,7.81-.09,11.72,0,1.28,0,1.79-.23,1.85-1.64a63.9,63.9,0,0,1,.77-7.56c.21-1.27-.25-1.31-1.25-1.3-4.36,0-8.72,0-13.09,0,0-2.91,0-5.82,0-8.72,0-1,.34-1.24,1.29-1.24q12.09,0,24.18,0c-.26,3.36-.52,6.71-.8,10.06q-.55,6.82-1.16,13.65-1,10.86-1.95,21.72c-.17,1.94-.35,3.89-.51,5.84,0,.48-.09.81-.69,1-6.7,1.81-13.37,3.65-20.06,5.48-.43-.35-.27-.84-.27-1.28,0-3.16,0-6.32,0-9.47,3.35-.93,6.7-1.89,10.07-2.78a1.4,1.4,0,0,0,1.26-1.46c.3-3.73.7-7.44,1.1-11.16.1-.87-.38-.81-1-.81-3.37,0-6.73,0-10.1,0-.46,0-.91,0-1.37,0Z"/></g></g></g></g></svg>