<svg xmlns="http://www.w3.org/2000/svg" xmlns:xlink="http://www.w3.org/1999/xlink" viewBox="0 0 467 495"><defs><style>.cls-1{fill:#fbfcf5;}.cls-2{fill:#ccc;}.cls-3{fill:#a6120d;}.cls-4{fill:#b3b3b3;}.cls-5{fill:#dd1b16;}.cls-6{fill:#f2f2f2;}.cls-7{fill:#563d7c;}.cls-8{fill:#fff;}.cls-9{fill:#1a1918;}.cls-10{fill:#21609b;}.cls-11{fill:url(#linear-gradient);}.cls-12{fill:url(#linear-gradient-2);}.cls-13{fill:#63a714;}.cls-14{fill:#89ce17;}.cls-15{fill:#eaeaea;}.cls-16{fill:#fefefe;}.cls-17{fill:#e34d26;}.cls-18{fill:#f06529;}.cls-19{fill:#0070b9;}.cls-20{fill:#29a7df;}</style><linearGradient id="linear-gradient" x1="-2283.81" y1="-1600.92" x2="-2283.79" y2="-1600.94" gradientTransform="matrix(1849.27, 0, 0, -1853.39, 4223408.47, -2966947.98)" gradientUnits="userSpaceOnUse"><stop offset="0" stop-color="#387eb8"/><stop offset="1" stop-color="#366994"/></linearGradient><linearGradient id="linear-gradient-2" x1="-2284.15" y1="-1600.6" x2="-2284.12" y2="-1600.62" gradientTransform="matrix(1849.27, 0, 0, -1853.39, 4224052.25, -2966320.84)" gradientUnits="userSpaceOnUse"><stop offset="0" stop-color="#ffe052"/><stop offset="1" stop-color="#ffc331"/></linearGradient></defs><title>skills-languages-sm</title><g id="Layer_2" data-name="Layer 2"><g id="Intro"><g id="languages-sm"><path class="cls-1" d="M467,50V378a50.15,50.15,0,0,1-50,50H161c-3.24,4.71-3.61,9.71-4.16,18.63-1.19,19.35.47,29.2,7,48.37-19.17-15.56-26.71-24.08-38.72-46.43A159.41,159.41,0,0,1,115.72,428H50A50.15,50.15,0,0,1,0,378V50A50.15,50.15,0,0,1,50,0H417A50.15,50.15,0,0,1,467,50Z"/><g id="AngularJS"><path class="cls-2" d="M134.2,370.31V328.89h5.37L165,362.29v-33.4h5v41.42h-5.25l-25.37-33.67v33.67H134.2Zm77-1.59a29.91,29.91,0,0,1-10.78,1.91q-22.53,0-22.54-21.6,0-20.44,21.75-20.45c4.16,0,11.73,1.75,11.73,1.75V335s-7.38-2-11.15-2q-17,0-17,16.1,0,17.25,16.7,17.25a28.29,28.29,0,0,0,5.93-.7V351.45h5.32v17.27Zm8.55-14.37V328.89h5.31v25.45q0,12,11.93,12t11.93-12V328.89h5.32v25.46q0,16.31-17.25,16.31t-17.25-16.31Zm49.48-25.46V366H291v4.35H264V328.89Zm29.42,41.42h-5.57l20.63-46.95,20.62,46.95h-5.94l-5.37-13.06H309.34l1.48-4.35h10.45l-7.75-18.8-14.83,36.21Zm41.33,0V328.89h17.67q11.82,0,11.82,9.93,0,8.08-11.55,12l14.22,19.53h-7L352,351.64v-3.51q11.91-1.89,11.9-9.14,0-5.75-6.61-5.75h-11.9v37.07Zm52.23-41.42v29.52q0,11.94-14,11.94V366q8.71,0,8.71-7.59V328.89ZM401.92,369v-5A41.35,41.35,0,0,0,416,366.38q10.69,0,10.7-7.89c0-4.47-2.63-6.72-7.89-6.72h-5.33q-13,0-13-11.39,0-12,16.66-12a49.6,49.6,0,0,1,13.48,1.76v5a38.07,38.07,0,0,0-13.48-2.34q-11.29,0-11.3,7.6,0,6.72,7.65,6.72h5.33q13.24,0,13.25,11.39,0,12.27-16.06,12.28A54,54,0,0,1,401.92,369Z"/><path d="M135.65,369V327.6h5.81l25,33.24V327.6h5v41.26h-5.34l-25.44-33.57V369h-5Zm77-1.63a30.56,30.56,0,0,1-10.88,1.92q-22.53,0-22.53-21.61,0-20.44,21.75-20.44c4.16,0,11.5,1.74,11.5,1.74v4.66a30.46,30.46,0,0,0-10.93-2q-16.83,0-16.83,16.1,0,17.25,16.57,17.25a27.55,27.55,0,0,0,5.87-.7V350.16h5.48Zm8.55-14.3V327.6h5.32v25.46q0,11.94,11.92,11.95t11.93-11.95V327.6h5.32v25.46q0,16.31-17.25,16.29T221.24,353.06Zm49.32-25.46v37.07h21.76V369H265.24V327.6ZM300.05,369h-5.57l20.63-47,20.62,47h-6L324.42,356H310.7l1.48-4.35h10.44l-7.74-18.8L300.05,369Zm41.43,0V327.6H359q11.75,0,11.73,9.93,0,8.09-11.47,12L373.39,369H366.7l-13.3-18.67v-3.51q12-1.89,12-9.15,0-5.74-6.67-5.74H346.79V369Z"/><path class="cls-3" d="M393.7,327.44V357q0,11.94-14,11.94v-4.35q8.71,0,8.71-7.59V327.44Zm9.51,40.27v-5a41.64,41.64,0,0,0,14.08,2.34q10.69,0,10.69-7.89c0-4.47-2.63-6.72-7.88-6.72h-5.33q-13,0-13-11.38,0-12,16.66-12a49.6,49.6,0,0,1,13.48,1.76v5a38.07,38.07,0,0,0-13.48-2.34q-11.3,0-11.3,7.6,0,6.7,7.65,6.71h5.33q13.25,0,13.24,11.39,0,12.27-16,12.26a54,54,0,0,1-14.08-1.75Z"/><path class="cls-4" d="M79.23,295.58,30.8,312.63l7.65,63.45,40.83,22.44,41-22.75L128,312.33,79.23,295.58Z"/><path class="cls-3" d="M123.1,316l-44-15v92.18L116,372.74,123.1,316Z"/><path class="cls-5" d="M36.2,316.27,42.76,373l36.32,20.15V301L36.2,316.27Z"/><path class="cls-6" d="M91.23,350l-12.11,5.66H66.34l-6,15-11.17.21,30-66.62Zm-1.17-2.83L79.2,325.64l-8.92,21.14h8.83l11,.37Z"/><path class="cls-4" d="M79.08,304.39v21.3l10.23,21.09H79.24v9H93.18l6.57,15.14,10.69.2L79.11,304.39Z"/></g><g id="Bootstrap"><path class="cls-7" d="M340.8,132a13.27,13.27,0,0,0,13.27,13.27h76.39A13.27,13.27,0,0,0,443.73,132V55.62a13.27,13.27,0,0,0-13.27-13.27H354.07A13.27,13.27,0,0,0,340.8,55.62V132Z"/><path class="cls-8" d="M383.5,87.89V73.31h12.83a19.32,19.32,0,0,1,3.53.31,8.56,8.56,0,0,1,3,1.09,5.79,5.79,0,0,1,2.1,2.18,7.28,7.28,0,0,1,.78,3.58q0,3.93-2.35,5.67a9.82,9.82,0,0,1-6,1.75ZM369.79,62.65V125H400a31.84,31.84,0,0,0,8.17-1,22,22,0,0,0,7.07-3.23,16,16,0,0,0,4.93-5.63,19,19,0,0,0-1-18.16,15,15,0,0,0-8.6-5.81A15.64,15.64,0,0,0,416.89,86,13.7,13.7,0,0,0,419,78.1a16.71,16.71,0,0,0-1.44-7.33A12,12,0,0,0,413.53,66a17.71,17.71,0,0,0-6.29-2.58,39.06,39.06,0,0,0-8.12-.78Zm13.71,51.71V97.23h14.94a11.58,11.58,0,0,1,7.17,2.06c1.8,1.37,2.71,3.65,2.71,6.86a8.63,8.63,0,0,1-.83,4,6.65,6.65,0,0,1-2.23,2.49A9.47,9.47,0,0,1,402,114a18.38,18.38,0,0,1-3.84.39Z"/></g><g id="jQuery"><path class="cls-9" d="M437.4,216.76l13.2.07s-24.6,33.34-26.61,36a15.86,15.86,0,0,0-2.15,3,66.71,66.71,0,0,0-2.57,9.44l-12.08.06s1.89-6.77,1.81-10.37c-.07-3.15-1.68-6.3-2.58-9.45s-2.15-9.46-2.15-9.46h12.44l1.72,6.86,18.93-26.23"/><path class="cls-9" d="M412.33,223.75c2.44,1.47,3.94,9.58,3.94,9.58l-19.71.13h-6l-7.3,31.74H372.13s6.93-34.45,8.56-40.69c.53-2,3.64-1.68,8.88-1.68H398c5.4,0,11.73-.69,14.38.91m-51.9,15.52a6.67,6.67,0,0,0-1.18-4.4c-1.3-2-2.5-2.48-5.93-2.59-9.69-.3-9.5,6.88-9.5,6.88ZM371,231c1.42,5.12-1.29,17.15-1.29,17.15s-14.12-.23-21.86,0c-2.41.08-5.29-.26-6,.86-1,1.57.37,4,1.54,5,1.34,1.17,4,1.3,4.9,1.42,6.28.8,19.42.21,19.42.21l-2.27,10.08s-18.58.94-27.87-1.28a9.47,9.47,0,0,1-4.72-2.57,14.76,14.76,0,0,1-.89-1.22,11.4,11.4,0,0,1-1.26-2.22c-2.12-5.65.25-16.49,2.58-22.29.27-.67.61-1.53,1-2.25.45-.91.83-1.93,1.18-2.47.24-.37.54-.61.79-1a12.4,12.4,0,0,1,.93-1.18,17,17,0,0,1,3-2.57c3.87-2.9,10.88-5.15,19.29-4.29,3.17.32,8,1.46,10.29,4.71A14.22,14.22,0,0,1,371,231Zm-51.22-8.16,10.84-.06s-6,28.61-9.1,42.56H309.11c-8.71,0-16.46,1.08-19.76-5.16-3.2-6.05-.15-16,1.28-22.77,1-4.79,3.15-14.57,3.15-14.57l11.21-.1s-3.16,15.2-4.48,22.79c-.47,2.72-1.44,5.28-.43,7.29s2.32,2.05,6.43,2.14c1.31,0,5.58,0,5.58,0l7.72-32.16m-50.6,20.6c1.13-4,2.78-8.38,2.57-12-.22-3.88-3.47-7.41-5.57-8.15a14.29,14.29,0,0,0-14.58,3.43c-3,3.29-4.07,7.14-5.15,12.44-.8,3.93-1.45,8.08,0,11.14,2.59,5.42,10.63,4.24,19.3,4.29,1.29-3.44,2.35-7.32,3.43-11.15Zm15-15.86c1.23,9-3.51,18.89-6.77,27.5,3.33.31,6.25,0,6.45.21s-2.23,10.28-3.08,10.31c-2.64.07-11.39.14-15,.14-11.91,0-23,.78-28.73-5.14a18.81,18.81,0,0,1-4.29-9.44,40.18,40.18,0,0,1,1.29-14.58,44.37,44.37,0,0,1,4.29-11.15c5-8.73,13.71-15.21,28.3-13.72a27.17,27.17,0,0,1,9.43,3c.18.1.79.59.93.67,3.43,2.19,6.56,7.4,7.22,12.19Zm-52.72-4.65c-.72,3.27-1.43,7-2.19,10.2H217.36c.93-3.58,1.63-7.14,2.56-10.25,3.83,0,11.57,0,11.57,0M217,236.11h11.53c-1.52,8.38-4.51,21.9-6.86,31.3-1.47,5.89-2.46,10.19-6.44,13.3-.35.27-.56.14-.85.42-.74.7-4.13,1.51-6,1.72a87.85,87.85,0,0,1-10.25,0c1-3.59,2.09-7.9,3-11.12,9.15,1.11,9.38-7.54,11.15-15.86,1-4.81,4.13-17.8,4.72-19.73"/><path class="cls-10" d="M189.89,258l-.25.65c-4.23,8.23-11.72,13.28-22.41,13.5a31.44,31.44,0,0,1-12.86-2.57A33.32,33.32,0,0,1,138.93,255c-4.42-8.56-5.21-20.47,4-29.37.14,0-1.12,1.93-1,1.93l-.26.82c-6.62,20.74,13.79,38.52,33.63,36.48A26.07,26.07,0,0,0,189.89,258"/><path class="cls-10" d="M177.88,249.4a19,19,0,0,0,13.29-5.58c-2.7,6.86-10.52,11.27-21,9.86-8.78-1.17-17.14-10-18-18.86-.63-6.45,1.62-10.29,5.32-15a15.59,15.59,0,0,0-1.89,5.52c-1.4,13.94,11.14,23.94,22.3,24"/><path class="cls-10" d="M190.67,232.08c-.78,1.78-5.24,5.14-7.22,5.56-7.81,1.67-12.81-2-15.43-6.25a19.31,19.31,0,0,1-1.24-2.79c-1-3.46-.55-8.68,2.48-11.39a14.29,14.29,0,0,0-.56,7.51,16.57,16.57,0,0,0,2.06,4.51,11.9,11.9,0,0,0,4.72,4.17,12.24,12.24,0,0,0,2.37,1.13c2,.58,6.12,2.11,12.82-2.45"/></g><g id="Python"><path class="cls-11" d="M63.6,173.46c-23.05,0-21.61,10-21.61,10l0,10.37H64v3.09H33.29s-14.75-1.67-14.75,21.58,12.87,22.43,12.87,22.43h7.71V230.13s-.42-12.87,12.66-12.87H73.57s12.25.2,12.25-11.84V185.51S87.68,173.46,63.6,173.46Zm-8.18,10.91h0a3.94,3.94,0,0,1-3.94,3.95h0a4,4,0,0,1-4-3.95h0a4,4,0,0,1,3.95-4h0A4,4,0,0,1,55.42,184.37Z"/><path class="cls-12" d="M64.25,263.78c23,0,21.61-10,21.61-10l0-10.36h-22V240.3H94.58s14.76,1.68,14.76-21.58-12.88-22.43-12.88-22.43H88.77v10.83S89.19,220,76.1,220H54.29S42,219.79,42,231.83v19.91s-1.86,12,22.23,12Zm12.14-7a4,4,0,0,1-4-4h0a3.94,3.94,0,0,1,3.95-3.95h0a4,4,0,0,1,4,3.95h0a3.94,3.94,0,0,1-4,3.94h0Z"/></g><g id="JavaScript"><path class="cls-13" d="M308.63,54.74c-.64,1.82-.52,3.73-.7,5.6-.87,9.11-1.66,18.23-2.47,27.35q-1.05,11.86-2.09,23.74c-.69,7.79-1.41,15.58-2.06,23.37a1.66,1.66,0,0,1-1.48,1.7q-15.51,4.25-31,8.59a4.63,4.63,0,0,1-2.66,0q-15.54-4.35-31.1-8.63c-.75-.21-1.14-.46-1.22-1.38-1.35-15.45-2.76-30.91-4.14-46.36-1-11.73-2-23.46-3.12-35.18-.1-1.11.18-1.28,1.21-1.28q39.66,0,79.33,0c.5,0,1,0,1.49,0Zm-41.22,62c-3.7-.75-7.3-1.93-11-2.8-.56-.13-.53-.53-.57-1-.17-2-.38-4.06-.51-6.09-.06-.93-.3-1.38-1.39-1.34-2.66.09-5.33,0-8,0-.76,0-1.1.11-1,1q.66,7.2,1.16,14.42c0,.77.39,1,1,1.14,2,.52,3.93,1,5.89,1.59l14.39,4c0,3.17,0,6.33,0,9.5,0,.72.12,1.1,1,.85q12.83-3.59,25.65-7.1c.53-.14.79-.34.84-.89.23-2.76.51-5.52.74-8.29.27-3.3.49-6.6.78-9.9.38-4.16.84-8.32,1.21-12.48.3-3.38.48-6.77.79-10.15.46-5.07,1-10.13,1.45-15.2.4-4.62.71-9.24,1.26-13.85.11-.85-.07-1.27-1.1-1.26q-15.74,0-31.48,0c-.87,0-1.16.25-1.15,1.13.05,3,0,6.08,0,9.12-.49,0-1,0-1.49,0-7.7,0-15.4,0-23.11,0-.94,0-1.21.23-1.12,1.19.29,3,.5,6,.74,9.07.43.39,1,.21,1.44.21,7.32,0,14.65,0,22,0,1.23,0,1.62.26,1.61,1.57C267.39,93.09,267.41,104.91,267.41,116.73Z"/><path d="M276.85,35.21c2,1.57,3.68,3,5.43,4.25a1.94,1.94,0,0,1,.88,1.87,27.06,27.06,0,0,0,0,3.12c0,.62-.2.77-.79.77q-6.56,0-13.11,0c-.55,0-.85-.08-.83-.74,0-1.2,0-2.41,0-3.62,0-.66.3-.74.83-.73,1.7,0,3.41,0,5.1,0,.13-.52-.31-.59-.52-.77-.64-.53-1.31-1-2-1.53-3.71-2.87-3.7-2.87-3.45-7.58,0-.63.24-.75.81-.75q6.61,0,13.23,0c.57,0,.71.18.69.71,0,1.42,0,2.83,0,4.25,0,.59-.18.78-.78.77C280.68,35.18,279,35.21,276.85,35.21Z"/><path d="M266.11,37.37c0,2.29,0,4.58,0,6.87,0,.76-.2,1-1,1q-6.3,0-12.61,0c-.66,0-1-.11-.94-.87q.09-1.93,0-3.87c0-.77.29-.88,1-.87,2.08,0,4.16,0,6.24,0,.9,0,1.1-.28,1.09-1.13-.05-2.7,0-5.41,0-8.11,0-.68.14-.94.88-.91,1.5.05,3,.05,4.49,0,.7,0,.93.17.91.89C266.08,32.71,266.11,35,266.11,37.37Z"/><path class="cls-14" d="M267.4,69.22c0-3,0-6.08,0-9.12,0-.88.28-1.13,1.15-1.13q15.73,0,31.48,0c1,0,1.21.41,1.1,1.26-.55,4.61-.86,9.23-1.26,13.85-.43,5.07-1,10.13-1.45,15.2-.31,3.38-.49,6.77-.79,10.15-.37,4.16-.83,8.32-1.21,12.48-.29,3.3-.51,6.6-.78,9.9-.23,2.77-.51,5.53-.74,8.29-.05.55-.31.75-.84.89q-12.82,3.52-25.65,7.1c-.88.25-1-.13-1-.85,0-3.17,0-6.33,0-9.5l.53-.25c6.69-1.83,13.38-3.67,20.08-5.47.54-.15.59-.47.63-.9q.87-9.89,1.76-19.76c.54-5.93,1.11-11.85,1.63-17.77.4-4.52.76-9,1.14-13.55.41-1.16-.53-.76-1-.77Q279.81,69.22,267.4,69.22Z"/><path class="cls-14" d="M267.41,116.73c0-11.82,0-23.64,0-35.46,0-1.31-.38-1.58-1.61-1.57-7.32.06-14.65,0-22,0-.48,0-1,.18-1.44-.21l25,0c.45,0,.91,0,1.37,0,4.11,0,8.23,0,12.35,0,.7,0,1,.07.91.95q-1.6,16.07-3.08,32.13a1.47,1.47,0,0,1-1.34,1.54c-3.25.84-6.49,1.75-9.73,2.64Z"/><path class="cls-15" d="M267.41,116.73l.48,0a1.16,1.16,0,0,0-.5,1c0,2.91,0,5.81,0,8.72,0,.42-.06.86.53.95l-.53.25-14.39-4c-2-.55-3.92-1.07-5.89-1.59-.61-.16-1-.37-1-1.14q-.5-7.22-1.16-14.42c-.08-.91.26-1,1-1,2.66,0,5.33.08,8,0,1.09,0,1.33.41,1.39,1.34.13,2,.34,4.06.51,6.09,0,.42,0,.82.57,1C260.11,114.8,263.71,116,267.41,116.73Z"/><path class="cls-15" d="M267.41,79.47l-25,0c-.24-3-.45-6.05-.74-9.07-.09-1,.18-1.19,1.12-1.19,7.71,0,15.41,0,23.11,0,.5,0,1,0,1.49,0q12.41,0,24.81,0c.43,0,1.37-.39,1,.77-.12-.66-.63-.55-1.07-.55-7.86,0-15.72,0-23.58,0-.87,0-1.15.25-1.14,1.13C267.43,73.56,267.41,76.51,267.41,79.47Z"/><path class="cls-16" d="M267.41,79.47c0-3,0-5.91,0-8.86,0-.88.27-1.14,1.14-1.13,7.86,0,15.72,0,23.58,0,.44,0,.95-.11,1.07.55-.38,4.51-.74,9-1.14,13.55-.52,5.92-1.09,11.84-1.63,17.77q-.88,9.87-1.76,19.76c0,.43-.09.75-.63.9-6.7,1.8-13.39,3.64-20.08,5.47-.59-.09-.53-.53-.53-.95,0-2.91,0-5.81,0-8.72a1.16,1.16,0,0,1,.5-1c3.24-.89,6.48-1.8,9.73-2.64a1.47,1.47,0,0,0,1.34-1.54q1.47-16.07,3.08-32.13c.09-.88-.21-.95-.91-.95-4.12,0-8.24,0-12.35,0C268.32,79.52,267.86,79.48,267.41,79.47Z"/></g><g id="HTML"><path class="cls-17" d="M16.4,52.34c.54,0,1.08,0,1.62,0q39.56,0,79.09,0c1.3,0,1.47.4,1.37,1.55C97.37,66,96.31,78.05,95.22,90.13q-1.93,21.59-3.9,43.19c-.25,2.8-.26,2.8-2.91,3.53l-29.75,8.26a4.09,4.09,0,0,1-2.3,0q-15.58-4.35-31.18-8.66a1.48,1.48,0,0,1-1.32-1.56c-.75-8.94-1.58-17.88-2.38-26.82q-1.05-11.85-2.09-23.71t-2.13-23.7c-.2-2.15-.38-4.31-.59-6.46,0-.29.14-.68-.27-.87Zm40.88,64.42c-3.53-.92-7.05-1.86-10.58-2.76-.63-.16-.6-.57-.64-1-.2-2.15-.43-4.29-.59-6.44-.06-.74-.34-1-1.08-1-2.74,0-5.49,0-8.23,0-.88,0-1.15.23-1.06,1.13.45,4.79.86,9.58,1.27,14.38a.89.89,0,0,0,.78.93c6.73,1.85,13.46,3.74,20.19,5.62a1.05,1.05,0,0,1,.24.06v9.11c0,1.45,0,1.47,1.44,1.1s2.87-.82,4.3-1.22Q73.67,133.82,84,131c.47-.13.73-.32.76-.82.07-1,.16-2.06.26-3.09q.33-3.39.56-6.79c.22-3.34.62-6.66.93-10,.2-2.18.35-4.37.55-6.55.3-3.24.65-6.49.94-9.73s.51-6.43.79-9.64c.31-3.49.65-7,1-10.47.19-2.14.37-4.28.56-6.42q.33-3.65.69-7.27c.09-.86-.23-1.15-1.11-1.15q-15.6,0-31.19,0c-1,0-1.19.33-1.17,1.23,0,2.58,0,5.16,0,7.73,0,1.07-.34,1.31-1.35,1.31-7.65,0-15.3,0-23,0-.48,0-1-.18-1.43.23,0,.58,0,1.16.05,1.74q.87,9.85,1.76,19.71c.29,3.18.63,6.36.94,9.53.42.41,1,.23,1.43.23,6.73,0,13.46,0,20.19,0,1,0,1.38.21,1.37,1.29-.06,4.49,0,9,0,13.46C57.57,115.93,57.73,116.42,57.28,116.76Z"/><path d="M70.42,38.09l-3.33,5.13-3.38-5.15-.26.06c0,2-.05,4,0,6,0,.92-.2,1.27-1.17,1.18a21.3,21.3,0,0,0-3,0c-.71,0-1-.1-1-.93q.06-7,0-14c0-.68.22-.9.85-.81h.12c1.49,0,3.24-.44,4.4.19s1.62,2.31,2.4,3.54l1,1.69c1-1.62,2-3.1,2.82-4.63a1.4,1.4,0,0,1,1.47-.81c1.24.06,2.49,0,3.74,0,.6,0,.78.17.78.77q0,7.05,0,14.1c0,.65-.2.87-.86.84-1.41-.06-3.2.47-4.12-.22s-.2-2.56-.27-3.92c0-1,0-2,0-3Z"/><path d="M24.14,37.41c0-2.29,0-4.58,0-6.86,0-.81.23-1,1-.94a31.57,31.57,0,0,0,3.37,0c.73,0,1,.11,1,.93-.08,1.12,0,2.25,0,3.37,0,.69.15,1,.89.93,1-.06,2.08,0,3.12,0,.54,0,.73-.17.71-.71,0-1.25,0-2.5,0-3.74,0-.58.13-.8.75-.78,1.29.05,2.58,0,3.86,0,.56,0,.7.19.69.72q0,7.11,0,14.21c0,.6-.19.86-.79.77a.48.48,0,0,0-.12,0c-1.41,0-3.25.49-4.11-.21s-.24-2.64-.25-4c0-.73-.14-1.06-.95-1-1.22.14-2.87-.51-3.57.26s-.27,2.3-.18,3.48-.22,1.67-1.47,1.5a9.36,9.36,0,0,0-2.48,0c-1.22.16-1.42-.37-1.38-1.44C24.19,41.73,24.14,39.57,24.14,37.41Z"/><path d="M48.86,29.63c2.12,0,4.24,0,6.35,0,.72,0,.92.19.89.89-.06,1.21-.05,2.41,0,3.62,0,.6-.16.79-.77.76-1-.05-2,0-3,0-.71,0-.91.18-.9.9,0,2.82,0,5.64,0,8.47,0,.86-.21,1.19-1.1,1.1-1.35-.14-3.11.57-3.94-.27s-.19-2.53-.22-3.85c0-1.7-.09-3.41,0-5.11.07-1.09-.31-1.34-1.31-1.24-.82.08-1.66,0-2.49,0-.59,0-.9-.07-.86-.79.07-1.24,0-2.49,0-3.74,0-.64.23-.74.79-.74C44.54,29.64,46.7,29.63,48.86,29.63Z"/><path d="M78.5,37.49c0-2.33,0-4.66,0-7,0-.71.18-.94.89-.9a33.86,33.86,0,0,0,3.49,0c.72,0,.9.21.89.91,0,2.83,0,5.66,0,8.48,0,1,.27,1.17,1.17,1.13,1.79-.07,3.58,0,5.36,0,.66,0,.86.17.83.83-.07,1.41.47,3.26-.23,4.11s-2.64.24-4,.26c-2.45.05-4.91,0-7.36,0-.78,0-1-.23-1-1C78.53,42.06,78.5,39.78,78.5,37.49Z"/><path class="cls-18" d="M31.87,69.54c.43-.41.95-.23,1.43-.23,7.65,0,15.3,0,23,0,1,0,1.39-.24,1.35-1.31-.07-2.57,0-5.15,0-7.73,0-.9.2-1.24,1.17-1.23q15.6,0,31.19,0c.88,0,1.2.29,1.11,1.15q-.36,3.63-.69,7.27c-.19,2.14-.37,4.28-.56,6.42-.32,3.49-.66,7-1,10.47-.28,3.21-.5,6.43-.79,9.64s-.64,6.49-.94,9.73c-.2,2.18-.35,4.37-.55,6.55-.31,3.32-.71,6.64-.93,10q-.22,3.41-.56,6.79c-.1,1-.19,2.06-.26,3.09,0,.5-.29.69-.76.82q-10.35,2.84-20.7,5.72c-1.43.4-2.86.84-4.3,1.22s-1.44.35-1.44-1.1V127.7a5.77,5.77,0,0,1,.58-.22c6.39-1.77,12.78-3.57,19.19-5.28a1.58,1.58,0,0,0,1.38-1.68c.09-1.66.25-3.31.4-5,.71-8,1.42-16,2.18-23.94.1-1.1-.17-1.37-1.29-1.37-7.48.05-15,0-22.44,0V79.83c7.89,0,15.77,0,23.66,0,.84,0,1.15-.22,1.21-1.06.2-2.69.41-5.38.73-8.06.12-1-.1-1.2-1.06-1.19-6.06,0-12.12,0-18.18,0-2.2,0-4.4,0-6.6.06Z"/><path class="cls-15" d="M31.87,69.54l25.47,0V79.74c-4.36,0-8.73.06-13.09,0-.92,0-1.23.17-1.12,1.16.3,2.72.54,5.45.74,8.18.06.86.3,1.2,1.25,1.19,4.07,0,8.15,0,12.22,0v10.16l-22.72,0c-.31-3.17-.65-6.35-.94-9.53q-.9-9.85-1.76-19.71C31.87,70.7,31.89,70.12,31.87,69.54Z"/><path class="cls-16" d="M57.34,100.48V90.32l.24-.09c7.48,0,15,.06,22.44,0,1.12,0,1.39.27,1.29,1.37-.76,8-1.47,16-2.18,23.94-.15,1.66-.31,3.31-.4,5a1.58,1.58,0,0,1-1.38,1.68c-6.41,1.71-12.8,3.51-19.19,5.28a5.77,5.77,0,0,0-.58.22,1.05,1.05,0,0,0-.24-.06V117c3.55-1,7.1-2,10.67-2.89.65-.18,1-.41,1-1.13.3-3.72.61-7.44,1-11.15.12-1.1-.25-1.29-1.25-1.28C65,100.56,61.16,100.5,57.34,100.48Z"/><path class="cls-15" d="M57.34,117v10.67c-6.73-1.88-13.46-3.77-20.19-5.62a.89.89,0,0,1-.78-.93c-.41-4.8-.82-9.59-1.27-14.38-.09-.9.18-1.15,1.06-1.13,2.74,0,5.49,0,8.23,0,.74,0,1,.21,1.08,1,.16,2.15.39,4.29.59,6.44,0,.46,0,.87.64,1,3.53.9,7,1.84,10.58,2.76Z"/><path class="cls-18" d="M57.34,117l-.06-.21c.45-.34.29-.83.29-1.27,0-4.48,0-9,0-13.46,0-1.08-.37-1.3-1.37-1.29-6.73,0-13.46,0-20.19,0-.48,0-1,.18-1.43-.23l22.72,0c3.82,0,7.63.08,11.45,0,1,0,1.37.18,1.25,1.28-.39,3.71-.7,7.43-1,11.15-.06.72-.38,1-1,1.13C64.44,115,60.89,116,57.34,117Z"/><path class="cls-16" d="M57.34,79.74V69.58c2.2,0,4.4-.06,6.6-.06,6.06,0,12.12,0,18.18,0,1,0,1.18.23,1.06,1.19-.32,2.68-.53,5.37-.73,8.06-.06.84-.37,1.06-1.21,1.06-7.89,0-15.77,0-23.66,0Z"/><path class="cls-17" d="M57.34,79.74l.24.09v10.4l-.24.09c-4.07,0-8.15-.07-12.22,0-.95,0-1.19-.33-1.25-1.19-.2-2.73-.44-5.46-.74-8.18-.11-1,.2-1.17,1.12-1.16C48.61,79.8,53,79.76,57.34,79.74Z"/></g><g id="CSS"><path class="cls-19" d="M162.62,52.28q19.84,0,39.71,0c1.07,0,1.28.26,1.18,1.32-.85,9-1.63,18-2.44,27s-1.62,17.89-2.42,26.83q-1.05,11.88-2.09,23.74c-.12,1.37-.3,2.73-.37,4.1,0,.73-.38,1-1,1.14q-16,4.4-31.94,8.83a2.55,2.55,0,0,1-1.45,0q-16-4.45-31.94-8.85a1.11,1.11,0,0,1-1-1.16q-1.84-21.25-3.76-42.5-1.74-19.62-3.53-39.26c-.09-1,.14-1.17,1.08-1.16Q142.64,52.29,162.62,52.28Zm-24,37.91.78,10.2c.37.53.92.27,1.38.28q10.16,0,20.31,0c.7,0,1.28-.06,1.27,1,0,4.61,0,9.22,0,13.83,0,.41.07.86-.51,1-3.33-.88-6.65-1.8-10-2.61a1.42,1.42,0,0,1-1.21-1.54c-.15-2.07-.38-4.14-.51-6.21-.05-.69-.24-.93-1-.92-3,0-6,0-9,0-.59,0-.78.14-.72.78.47,4.84.94,9.68,1.32,14.53.07,1,.43,1.28,1.32,1.52,6.76,1.86,13.5,3.78,20.24,5.68,0,3.12,0,6.24,0,9.36,0,1,.22,1.21,1.23.93q12.68-3.57,25.4-7c.78-.21.8-.66.84-1.27.16-2.31.34-4.63.54-6.93.3-3.42.64-6.84,1-10.26.2-2.19.36-4.37.56-6.56.3-3.29.64-6.59.94-9.88s.52-6.36.8-9.53c.3-3.46.64-6.92,1-10.38.2-2.14.35-4.29.55-6.43.31-3.22.62-6.43,1-9.64.08-.81-.21-1.08-1-1.08q-15.72,0-31.45,0c-.94,0-1.23.34-1.22,1.25,0,3.08,0,6.16,0,9.24-8.07,0-16.14,0-24.21,0-1.22,0-1.36.4-1.24,1.43.28,2.35.48,4.71.69,7.07.14,1.74.12,1.74,1.91,1.74l22.84,0c0,3,0,5.9,0,8.85,0,1.1-.29,1.4-1.39,1.39-7,0-14,0-20.94,0C139.6,90,139.07,89.77,138.66,90.19Z"/><path d="M161.16,39.86c-1.76-1.35-3.5-2.73-5.28-4.06a1.62,1.62,0,0,1-.78-1.53c.07-1.29.06-2.58,0-3.87,0-.67.12-.92.86-.91,4.33,0,8.65,0,13,0,.73,0,.92.22.89.91-.05,1.29-.06,2.58,0,3.87,0,.8-.25,1-1,1-1.66,0-3.32,0-5.32,0,1.86,1.47,3.47,2.8,5.14,4a2.32,2.32,0,0,1,1.18,2.36c-.16,1.14.46,2.65-.23,3.36s-2.21.21-3.36.22c-3.36,0-6.73,0-10.1,0-.78,0-1.11-.15-1.05-1a16.59,16.59,0,0,0,0-3c-.11-1,.34-1.15,1.2-1.12,1.59.06,3.19,0,4.78,0Z"/><path d="M178,39.84c-1.77-1.36-3.54-2.75-5.34-4.09a1.55,1.55,0,0,1-.7-1.46q.06-1.93,0-3.87c0-.66.11-.94.87-.93,4.32,0,8.64,0,13,0,.63,0,.88.13.85.82-.06,1.32-.07,2.66,0,4,0,.84-.29,1-1,.93-1.64,0-3.29,0-5.27,0,2,1.58,3.74,3,5.5,4.32a1.64,1.64,0,0,1,.78,1.54c-.06,1.12,0,2.25,0,3.37,0,.6-.18.77-.78.77q-6.54,0-13.09,0c-.59,0-.82-.16-.8-.77,0-1.16,0-2.33,0-3.49,0-.66.21-.86.85-.84,1.73,0,3.45,0,5.17,0Z"/><path d="M138.39,37.28c0-2.25,0-4.5,0-6.75,0-.76.12-1.06,1-1.05,4.16.06,8.32,0,12.49,0,.76,0,1.11.11,1.05,1a29.15,29.15,0,0,0,0,3.62c.05.8-.17,1.07-1,1-2.08-.06-4.16,0-6.24,0-.78,0-1,.22-1,1,.08,1.28-.4,2.94.23,3.74s2.41.22,3.69.27a31.38,31.38,0,0,0,3.36,0c.81-.05,1,.25.95,1a29.36,29.36,0,0,0,0,3.25c0,.74-.25.88-.93.87-4.2,0-8.4,0-12.61,0-.74,0-1-.16-1-.95C138.42,41.94,138.39,39.61,138.39,37.28Z"/><path class="cls-20" d="M162.38,69.47c0-3.08,0-6.16,0-9.24,0-.91.28-1.25,1.22-1.25q15.72,0,31.45,0c.83,0,1.12.27,1,1.08-.33,3.21-.64,6.42-1,9.64-.2,2.14-.35,4.29-.55,6.43-.31,3.46-.65,6.92-1,10.38-.28,3.17-.52,6.35-.8,9.53s-.64,6.59-.94,9.88c-.2,2.19-.36,4.37-.56,6.56-.31,3.42-.65,6.84-1,10.26-.2,2.3-.38,4.62-.54,6.93,0,.61-.06,1.06-.84,1.27q-12.72,3.47-25.4,7c-1,.28-1.24.05-1.23-.93,0-3.12,0-6.24,0-9.36l.52-.24q10-2.76,20.05-5.48c.61-.17.66-.5.7-1,.16-2,.34-3.89.51-5.84q1-10.86,1.95-21.72c.4-4.54.78-9.1,1.16-13.65.28-3.35.54-6.7.8-10-.36-.45-.85-.22-1.27-.22Z"/><path class="cls-15" d="M162.89,127.44l-.52.24c-6.74-1.9-13.48-3.82-20.24-5.68-.89-.24-1.25-.55-1.32-1.52-.38-4.85-.85-9.69-1.32-14.53-.06-.64.13-.78.72-.78,3,0,6,0,9,0,.71,0,.9.23,1,.92.13,2.07.36,4.14.51,6.21a1.42,1.42,0,0,0,1.21,1.54c3.35.81,6.67,1.73,10,2.61.2.23.48.2.75.23,0,3.16,0,6.32,0,9.47C162.62,126.59,162.46,127.08,162.89,127.44Z"/><path class="cls-15" d="M162.38,69.47l24.41,0c.42,0,.91-.23,1.27.22-8.06,0-16.12,0-24.18,0-.95,0-1.32.21-1.29,1.24.07,2.91,0,5.82,0,8.72l-.25.08-22.84,0c-1.79,0-1.77,0-1.91-1.74-.21-2.36-.41-4.72-.69-7.07-.12-1,0-1.43,1.24-1.43C146.24,69.52,154.31,69.48,162.38,69.47Z"/><path class="cls-15" d="M139.44,100.39l-.78-10.2,24,0v10.21Z"/><path class="cls-20" d="M139.44,100.39l23.18,0c.46,0,.91,0,1.37,0q5,0,10.1,0c.57,0,1.06-.06,1,.81-.4,3.72-.8,7.44-1.1,11.16a1.39,1.39,0,0,1-1.26,1.46c-3.37.9-6.72,1.85-10.07,2.78-.27,0-.55,0-.75-.23.58-.1.51-.55.51-1,0-4.61,0-9.22,0-13.83,0-1-.57-1-1.27-1q-10.15,0-20.31,0C140.36,100.66,139.81,100.92,139.44,100.39Z"/><path class="cls-20" d="M162.62,90.21l-24,0c.41-.42.94-.22,1.42-.22,7,0,14,0,20.94,0,1.1,0,1.42-.29,1.39-1.39-.08-3,0-5.9,0-8.85l.25-.08c4.37,0,8.73.06,13.09,0,1,0,1.46,0,1.25,1.31a63.52,63.52,0,0,0-.77,7.55c-.06,1.42-.57,1.66-1.86,1.64C170.43,90.12,166.52,90.2,162.62,90.21Z"/><path class="cls-16" d="M162.62,90.21c3.9,0,7.81-.09,11.71,0,1.29,0,1.8-.22,1.86-1.64A63.52,63.52,0,0,1,177,81c.21-1.28-.25-1.32-1.25-1.31-4.36,0-8.72,0-13.09,0,0-2.9,0-5.81,0-8.72,0-1,.34-1.24,1.29-1.24,8.06,0,16.12,0,24.18,0-.26,3.35-.52,6.7-.8,10-.38,4.55-.76,9.11-1.16,13.65q-1,10.88-1.95,21.72c-.17,2-.35,3.89-.51,5.84,0,.48-.09.81-.7,1q-10,2.7-20.05,5.48c-.43-.36-.27-.85-.27-1.29,0-3.15,0-6.31,0-9.47,3.35-.93,6.7-1.88,10.07-2.78a1.39,1.39,0,0,0,1.26-1.46c.3-3.72.7-7.44,1.1-11.16.1-.87-.39-.81-1-.81q-5.06,0-10.1,0c-.46,0-.91,0-1.37,0Z"/></g></g></g></g></svg>