<?xml version="1.0" encoding="utf-8"?>
<!-- Generator: Adobe Illustrator 22.0.1, SVG Export Plug-In . SVG Version: 6.00 Build 0)  -->
<svg version="1.1" xmlns="http://www.w3.org/2000/svg" xmlns:xlink="http://www.w3.org/1999/xlink" x="0px" y="0px"
	 viewBox="0 0 1491.5 808.2" style="enable-background:new 0 0 1491.5 808.2;" xml:space="preserve">
<style type="text/css">
	.st0{fill:#FBFCF5;stroke:#3C3F2D;stroke-width:11.38;stroke-miterlimit:10;}
	.st1{fill:#E34D26;}
	.st2{fill:#F06529;}
	.st3{fill:#EAEAEA;}
	.st4{fill:#FEFEFE;}
	.st5{fill:#0070B9;}
	.st6{fill:#29A7DF;}
	.st7{fill:#63A714;}
	.st8{fill:#89CE17;}
	.st9{fill:#563D7C;}
	.st10{fill:#FFFFFF;}
	.st11{fill:url(#SVGID_1_);}
	.st12{fill:url(#SVGID_2_);}
	.st13{fill:#1A1918;}
	.st14{fill:#21609B;}
	.st15{fill:#CCCCCC;}
	.st16{fill:#A6120D;}
	.st17{fill:#B3B3B3;}
	.st18{fill:#DD1B16;}
	.st19{fill:#F2F2F2;}
</style>
<g id="skills-languages-landscape_1_">
	<title>skills-languages-landscape</title>
</g>
<g id="background">
	<path id="speech-bubble" class="st0" d="M5.7,137v534.2c0,72.5,58.8,131.3,131.3,131.4h1042.5c72.5,0,131.3-58.8,131.3-131.3v-88.7
		c12.4,2.3,25.6,4.2,39.6,5.5c40.2,3.7,80.8,2.1,120.6-4.9c-62.5-25.5-117.6-66.3-160.1-118.7V137c0-72.5-58.8-131.3-131.3-131.3
		H137C64.5,5.7,5.7,64.5,5.7,137z"/>
</g>
<g id="HTML5">
	<a id="HTML" xlink:href="https://en.wikipedia.org/wiki/HTML5" >
		<g>
			<path class="st1" d="M54.7,111.4c1.1,0,2.3,0.1,3.4,0.1c55.7,0,111.4,0,167.1-0.1c2.7,0,3.1,0.8,2.9,3.2
				c-2.4,25.5-4.6,51-6.9,76.6c-2.7,30.4-5.5,60.8-8.2,91.2c-0.5,5.9-0.6,5.9-6.1,7.5c-21,5.8-41.9,11.6-62.8,17.5
				c-1.6,0.5-3.3,0.5-4.9,0c-22-6.1-43.9-12.2-65.9-18.3c-1.9-0.5-2.6-1.2-2.8-3.3c-1.6-18.9-3.3-37.8-5-56.6
				c-1.5-16.7-3-33.4-4.4-50.1s-3-33.4-4.5-50.1c-0.4-4.5-0.8-9.1-1.2-13.6c-0.1-0.6,0.3-1.5-0.6-1.9L54.7,111.4z M141.1,247.5
				c-7.4-1.9-14.9-3.9-22.4-5.8c-1.3-0.3-1.3-1.2-1.3-2.2c-0.4-4.5-0.9-9.1-1.2-13.6c-0.1-1.6-0.7-2-2.3-2c-5.8,0.1-11.6,0.1-17.4,0
				c-1.9,0-2.4,0.5-2.2,2.4c1,10.1,1.8,20.3,2.7,30.4c-0.1,1,0.7,1.9,1.7,2c14.2,3.9,28.5,7.9,42.7,11.9c0.2,0,0.3,0.1,0.5,0.1
				c0,6.4,0,12.8,0,19.2c0,3.1,0,3.1,3,2.3s6.1-1.7,9.1-2.6c14.6-4,29.1-8.1,43.7-12.1c1-0.3,1.5-0.7,1.6-1.7
				c0.2-2.2,0.3-4.4,0.5-6.5c0.5-4.8,0.9-9.6,1.2-14.4c0.5-7.1,1.3-14.1,2-21.1c0.4-4.6,0.7-9.2,1.2-13.8c0.6-6.9,1.4-13.7,2-20.6
				s1.1-13.6,1.7-20.4c0.6-7.4,1.4-14.8,2-22.1c0.4-4.5,0.8-9,1.2-13.6c0.5-5.1,0.9-10.2,1.4-15.4c0.2-1.8-0.5-2.4-2.4-2.4
				c-22,0.1-43.9,0.1-65.9,0c-2.1,0-2.5,0.7-2.5,2.6c0.1,5.4-0.1,10.9,0.1,16.3c0.1,2.3-0.7,2.8-2.9,2.8c-16.2-0.1-32.3,0-48.5,0
				c-1,0-2.1-0.4-3,0.5c0,1.2,0,2.5,0.1,3.7c1.2,13.9,2.5,27.8,3.7,41.6c0.6,6.7,1.3,13.4,2,20.1c0.9,0.9,2,0.5,3,0.5
				c14.2,0,28.4,0.1,42.7,0c2.1,0,2.9,0.4,2.9,2.7c-0.1,9.5,0,19-0.1,28.4C141.7,245.8,142.1,246.8,141.1,247.5z"/>
			<path d="M168.9,81.3l-7.1,10.8l-7.1-10.9l-0.6,0.1c0,4.2-0.1,8.5,0,12.7c0.1,1.9-0.4,2.7-2.5,2.5c-2.1-0.2-4.2-0.2-6.3,0
				c-1.5,0.1-2.1-0.2-2.1-2c0.1-9.8,0.1-19.7,0-29.5c0-1.4,0.4-1.9,1.8-1.7h0.3c3.2,0,6.8-0.9,9.3,0.4c2.5,1.3,3.4,4.9,5.1,7.5
				l2.2,3.6c2.1-3.4,4.1-6.6,6-9.8c0.6-1.2,1.8-1.9,3.1-1.7c2.6,0.1,5.3,0.1,7.9,0c1.3,0,1.6,0.3,1.6,1.6c-0.1,9.9-0.1,19.9,0,29.8
				c0,1.4-0.4,1.8-1.8,1.8c-3-0.1-6.8,1-8.7-0.5s-0.4-5.4-0.6-8.3c-0.1-2.1,0-4.3,0-6.4L168.9,81.3z"/>
			<path d="M71.1,79.9c0-4.8,0.1-9.7,0-14.5c0-1.7,0.5-2.1,2.1-2c2.4,0.1,4.7,0.1,7.1,0c1.6-0.1,2.2,0.2,2.1,2
				c-0.2,2.4,0,4.7-0.1,7.1c-0.1,1.4,0.3,2,1.9,2c2.2-0.1,4.4-0.1,6.6,0c1.2,0,1.5-0.3,1.5-1.5c-0.1-2.6,0-5.3,0-7.9
				c0-1.2,0.3-1.7,1.6-1.6c2.7,0.1,5.4,0.1,8.2,0c1.2,0,1.5,0.4,1.5,1.5c0,10,0,20,0,30c0,1.3-0.4,1.8-1.7,1.6c-0.1,0-0.2,0-0.3,0
				c-3,0-6.9,1-8.7-0.4s-0.5-5.6-0.6-8.5c0-1.6-0.3-2.2-2-2c-2.6,0.3-6.1-1.1-7.6,0.6c-1.3,1.4-0.6,4.8-0.4,7.3s-0.5,3.5-3.1,3.2
				c-1.7-0.2-3.5-0.2-5.2,0c-2.6,0.3-3-0.8-2.9-3C71.2,89,71.1,84.5,71.1,79.9z"/>
			<path d="M123.3,63.5c4.5,0,8.9,0.1,13.4,0c1.5,0,1.9,0.4,1.9,1.9c-0.1,2.5-0.1,5.1,0,7.6c0.1,1.3-0.3,1.7-1.6,1.6
				c-2.1-0.1-4.2,0.1-6.3-0.1c-1.5-0.1-1.9,0.4-1.9,1.9c0.1,6,0,11.9,0.1,17.9c0,1.8-0.4,2.5-2.3,2.3c-2.8-0.3-6.6,1.2-8.3-0.6
				s-0.4-5.3-0.5-8.1c-0.1-3.6-0.2-7.2,0-10.8c0.2-2.3-0.7-2.8-2.8-2.6c-1.7,0.2-3.5,0-5.3,0.1c-1.2,0.1-1.9-0.1-1.8-1.7
				c0.1-2.6,0.1-5.3,0-7.9c0-1.3,0.5-1.6,1.7-1.5C114.2,63.5,118.8,63.5,123.3,63.5z"/>
			<path d="M185.9,80.1c0-4.9,0.1-9.8,0-14.8c0-1.5,0.4-2,1.9-1.9c2.4,0.1,4.9,0.1,7.4,0c1.5-0.1,1.9,0.5,1.9,1.9
				c-0.1,6,0.1,12-0.1,17.9c-0.1,2.1,0.6,2.5,2.5,2.4c3.8-0.2,7.6,0,11.3-0.1c1.4,0,1.8,0.4,1.8,1.8c-0.1,3,1,6.9-0.5,8.7
				s-5.6,0.5-8.6,0.6c-5.2,0.1-10.4,0-15.5,0.1c-1.7,0-2.1-0.5-2-2.1C186,89.7,185.9,84.9,185.9,80.1z"/>
			<path class="st2" d="M87.4,147.8c0.9-0.9,2-0.5,3-0.5c16.2,0,32.3,0,48.5,0c2.1,0,2.9-0.5,2.9-2.8c-0.2-5.4,0-10.9-0.1-16.3
				c0-1.9,0.4-2.6,2.5-2.6c22,0.1,43.9,0.1,65.9,0c1.9,0,2.5,0.6,2.4,2.4c-0.5,5.1-1,10.2-1.4,15.4c-0.4,4.5-0.8,9-1.2,13.6
				c-0.7,7.4-1.4,14.8-2,22.1c-0.6,6.8-1.1,13.6-1.7,20.4s-1.4,13.7-2,20.6c-0.4,4.6-0.7,9.2-1.2,13.8c-0.6,7-1.5,14-2,21.1
				c-0.3,4.8-0.7,9.6-1.2,14.3c-0.2,2.2-0.4,4.3-0.5,6.5c-0.1,1-0.6,1.5-1.6,1.7c-14.6,4-29.2,8-43.7,12.1c-3,0.9-6.1,1.8-9.1,2.6
				s-3,0.8-3-2.3c0-6.4,0-12.8,0-19.2c0.4-0.2,0.8-0.3,1.2-0.5c13.5-3.7,27-7.5,40.6-11.1c2.1-0.6,2.8-1.6,2.9-3.6
				c0.2-3.5,0.5-7,0.8-10.5c1.5-16.9,3-33.7,4.6-50.6c0.2-2.3-0.4-2.9-2.7-2.9c-15.8,0.1-31.6,0-47.4,0v-22c16.7,0,33.3-0.1,50,0
				c1.8,0,2.4-0.5,2.6-2.2c0.4-5.7,0.9-11.4,1.5-17c0.2-2.1-0.2-2.5-2.2-2.5c-12.8,0.1-25.6,0-38.4,0c-4.6,0-9.3,0.1-13.9,0.1
				L87.4,147.8z"/>
			<path class="st3" d="M87.4,147.8l53.8,0.1c0,7.2,0,14.3,0,21.5c-9.2,0-18.4,0.1-27.7,0c-1.9,0-2.6,0.4-2.4,2.4
				c0.7,5.8,1.1,11.5,1.6,17.3c0.1,1.8,0.6,2.5,2.6,2.5c8.6-0.1,17.2,0,25.8,0c0,7.2,0,14.3,0,21.5l-48,0.1
				c-0.7-6.7-1.4-13.4-2-20.1c-1.3-13.9-2.5-27.8-3.7-41.6C87.4,150.2,87.5,149,87.4,147.8z"/>
			<path class="st4" d="M141.2,213.1c0-7.2,0-14.3,0-21.5l0.5-0.2c15.8,0,31.6,0.1,47.4,0c2.4,0,2.9,0.6,2.7,2.9
				c-1.6,16.9-3.1,33.7-4.6,50.6c-0.3,3.5-0.6,7-0.8,10.5c-0.1,2-0.8,3-2.9,3.5c-13.5,3.6-27,7.4-40.6,11.1
				c-0.4,0.1-0.8,0.3-1.2,0.5c-0.2-0.1-0.3-0.1-0.5-0.1V248c7.5-2.1,15-4.1,22.5-6.1c1.4-0.4,2.1-0.9,2.2-2.4
				c0.6-7.9,1.3-15.7,2.1-23.5c0.2-2.3-0.5-2.7-2.7-2.7C157.4,213.3,149.3,213.2,141.2,213.1z"/>
			<path class="st3" d="M141.2,248v22.5c-14.2-4-28.4-8-42.7-11.9c-1-0.1-1.7-1-1.7-2c-0.9-10.1-1.7-20.3-2.7-30.4
				c-0.2-1.9,0.4-2.4,2.2-2.4c5.8,0.1,11.6,0.1,17.4,0c1.6,0,2.2,0.4,2.3,2c0.3,4.6,0.8,9.1,1.2,13.6c0.1,1,0,1.8,1.3,2.2
				c7.5,1.9,14.9,3.9,22.4,5.8C141.1,247.7,141.2,247.8,141.2,248z"/>
			<path class="st2" d="M141.2,248c0-0.1-0.1-0.3-0.1-0.4c1-0.7,0.6-1.8,0.6-2.7c0-9.5-0.1-19,0.1-28.4c0-2.3-0.8-2.8-2.9-2.7
				c-14.2,0.1-28.4,0.1-42.7,0c-1,0-2.1,0.4-3-0.5l48-0.1c8.1,0.1,16.1,0.2,24.2,0.1c2.1,0,2.9,0.4,2.7,2.7
				c-0.8,7.8-1.5,15.7-2.1,23.5c-0.1,1.5-0.8,2-2.2,2.4C156.2,243.8,148.7,245.9,141.2,248z"/>
			<path class="st4" d="M141.2,169.3c0-7.2,0-14.3,0-21.5c4.6,0,9.3-0.1,13.9-0.1c12.8,0,25.6,0,38.4,0c2,0,2.5,0.5,2.2,2.5
				c-0.7,5.6-1.1,11.3-1.5,17c-0.1,1.8-0.8,2.2-2.6,2.2c-16.7-0.1-33.3,0-50,0L141.2,169.3z"/>
			<path class="st1" d="M141.2,169.3l0.5,0.2v22l-0.5,0.2c-8.6,0-17.2-0.1-25.8,0c-2,0-2.5-0.7-2.6-2.5c-0.4-5.8-0.9-11.5-1.6-17.3
				c-0.2-2.1,0.4-2.5,2.4-2.4C122.8,169.4,132,169.4,141.2,169.3z"/>
		</g>
	</a>
</g>
<g id="CSS3">
	<a id="CSS" xlink:href="https://en.wikipedia.org/wiki/Cascading_Style_Sheets#CSS_3" >
		<g>
			<path class="st5" d="M363.6,111.3c28,0,55.9,0,83.9,0c2.3,0,2.7,0.6,2.5,2.8c-1.8,19-3.4,38-5.1,57s-3.4,37.8-5.1,56.7
				c-1.5,16.7-3,33.4-4.4,50.1c-0.3,2.9-0.6,5.8-0.8,8.7c-0.1,1.5-0.8,2-2.1,2.4c-22.5,6.2-45,12.4-67.5,18.7c-1,0.3-2.1,0.3-3.1,0
				c-22.5-6.2-45-12.5-67.5-18.7c-1.2-0.2-2.1-1.2-2.1-2.5c-2.6-29.9-5.2-59.8-7.9-89.8c-2.5-27.6-4.9-55.3-7.5-82.9
				c-0.2-2.1,0.3-2.5,2.3-2.5C307.3,111.3,335.5,111.3,363.6,111.3z M313,191.4c0.6,7.2,1.1,14.4,1.7,21.5c0.8,1.1,1.9,0.6,2.9,0.6
				c14.3,0,28.6,0,42.9,0c1.5,0,2.7-0.1,2.7,2.1c-0.1,9.7,0,19.5,0,29.2c0,0.9,0.1,1.8-1.1,2c-7-1.9-14-3.8-21.1-5.5
				c-2-0.5-2.4-1.5-2.6-3.2c-0.3-4.4-0.8-8.8-1.1-13.1c-0.1-1.4-0.5-1.9-2-1.9c-6.3,0.1-12.7,0.1-19,0c-1.2,0-1.6,0.3-1.5,1.6
				c1,10.2,2,20.4,2.8,30.7c0.2,2,0.9,2.7,2.8,3.2c14.3,3.9,28.5,8,42.8,12c0,6.6,0.1,13.2,0,19.8c0,2.1,0.5,2.6,2.6,2
				c17.9-5,35.7-10,53.7-14.9c1.7-0.5,1.7-1.4,1.8-2.7c0.3-4.9,0.7-9.8,1.1-14.6c0.6-7.2,1.4-14.4,2-21.7c0.4-4.6,0.8-9.2,1.2-13.9
				c0.6-7,1.4-13.9,2-20.9c0.6-6.7,1.1-13.4,1.7-20.1c0.6-7.3,1.4-14.6,2-21.9c0.4-4.5,0.8-9.1,1.2-13.6c0.7-6.8,1.3-13.6,2-20.3
				c0.2-1.7-0.5-2.3-2.2-2.3c-22.1,0-44.3,0-66.4,0c-2,0-2.6,0.7-2.6,2.6c0.1,6.5,0,13,0,19.5c-17,0-34.1,0.1-51.1,0
				c-2.6,0-2.9,0.9-2.6,3c0.6,5,1,9.9,1.4,14.9c0.3,3.7,0.3,3.7,4,3.7l48.2,0.1c0,6.2-0.1,12.5,0.1,18.7c0.1,2.3-0.6,3-2.9,3
				c-14.8-0.1-29.5-0.1-44.2,0C315,190.9,313.9,190.5,313,191.4z"/>
			<path d="M360.5,85.1c-3.7-2.9-7.4-5.8-11.1-8.6c-1.1-0.7-1.8-1.9-1.6-3.2c0.1-2.7,0.1-5.4,0-8.2c0-1.4,0.3-2,1.8-1.9
				c9.1,0.1,18.3,0.1,27.4,0c1.5,0,1.9,0.5,1.9,1.9c-0.1,2.7-0.1,5.4,0,8.2c0.1,1.7-0.5,2.1-2.1,2c-3.5-0.1-7,0-11.2,0
				c3.9,3.1,7.3,5.9,10.9,8.5c1.8,1.3,2.8,2.6,2.5,5s1,5.6-0.5,7.1s-4.7,0.4-7.1,0.5c-7.1,0.1-14.2,0-21.3,0.1
				c-1.6,0-2.4-0.3-2.2-2.1c0.2-2.1,0.2-4.2,0-6.3c-0.2-2.2,0.7-2.4,2.5-2.4c3.4,0.1,6.7,0,10.1,0L360.5,85.1z"/>
			<path d="M396.1,85c-3.8-2.9-7.5-5.8-11.3-8.7c-1-0.7-1.6-1.9-1.5-3.1c0.1-2.7,0.1-5.4,0-8.2c0-1.4,0.2-2,1.8-2
				c9.1,0.1,18.3,0.1,27.4,0c1.3,0,1.8,0.3,1.8,1.7c-0.1,2.8-0.1,5.6,0,8.4c0.1,1.8-0.6,2-2.1,2c-3.5-0.1-6.9,0-11.1,0
				c4.2,3.3,7.9,6.3,11.6,9.1c1.1,0.7,1.8,1.9,1.6,3.3c-0.1,2.4-0.1,4.7,0,7.1c0,1.3-0.4,1.6-1.6,1.6c-9.2,0-18.4,0-27.7,0
				c-1.2,0-1.7-0.3-1.7-1.6c0.1-2.4,0.1-4.9,0-7.4c-0.1-1.4,0.4-1.8,1.8-1.8c3.6,0.1,7.3,0,10.9,0L396.1,85z"/>
			<path d="M312.4,79.6c0-4.7,0.1-9.5,0-14.2c0-1.6,0.2-2.2,2.1-2.2c8.8,0.1,17.6,0.1,26.4,0c1.6,0,2.4,0.2,2.2,2.1
				c-0.2,2.5-0.2,5.1,0,7.6c0.1,1.7-0.4,2.3-2.1,2.2c-4.4-0.1-8.8,0-13.2-0.1c-1.6,0-2.2,0.5-2.1,2.1c0.2,2.7-0.9,6.2,0.5,7.9
				s5.1,0.5,7.8,0.6c2.4,0.1,4.7,0.1,7.1,0c1.7-0.1,2.1,0.5,2,2.1c-0.1,2.3-0.1,4.6,0,6.8c0.1,1.6-0.5,1.9-2,1.8
				c-8.9-0.1-17.8-0.1-26.6,0c-1.6,0-2.1-0.3-2.1-2C312.5,89.5,312.4,84.5,312.4,79.6z"/>
			<path class="st6" d="M363.1,147.6c0-6.5,0.1-13,0-19.5c0-1.9,0.6-2.6,2.6-2.6c22.1,0,44.3,0,66.4,0c1.7,0,2.4,0.6,2.2,2.3
				c-0.7,6.8-1.4,13.6-2,20.3c-0.4,4.5-0.8,9.1-1.2,13.6c-0.7,7.3-1.4,14.6-2,21.9c-0.6,6.7-1.1,13.4-1.7,20.1
				c-0.6,7-1.3,13.9-2,20.9c-0.4,4.6-0.8,9.2-1.2,13.9c-0.6,7.2-1.4,14.4-2,21.7c-0.4,4.9-0.8,9.8-1.1,14.6
				c-0.1,1.3-0.1,2.2-1.8,2.7c-17.9,4.9-35.8,9.8-53.7,14.9c-2.1,0.6-2.6,0.1-2.6-2c0.1-6.6,0-13.2,0-19.8l1.1-0.5
				c14.1-3.9,28.2-7.8,42.4-11.6c1.3-0.3,1.4-1,1.5-2.1c0.3-4.1,0.7-8.2,1.1-12.3c1.4-15.3,2.7-30.6,4.1-45.9
				c0.8-9.6,1.7-19.2,2.5-28.8c0.6-7.1,1.1-14.2,1.7-21.2c-0.8-1-1.8-0.5-2.7-0.5C397.5,147.6,380.3,147.6,363.1,147.6z"/>
			<path class="st3" d="M364.2,270.1l-1.1,0.5c-14.2-4-28.5-8.1-42.8-12c-1.9-0.5-2.6-1.2-2.8-3.2c-0.8-10.2-1.8-20.5-2.8-30.7
				c-0.1-1.3,0.3-1.6,1.5-1.6c6.3,0,12.7,0.1,19,0c1.5,0,1.9,0.5,2,1.9c0.3,4.4,0.8,8.8,1.1,13.1c0.1,1.7,0.6,2.8,2.6,3.2
				c7.1,1.7,14.1,3.7,21.1,5.5c0.4,0.5,1,0.4,1.6,0.5c0,6.7,0,13.3,0,20C363.6,268.3,363.3,269.3,364.2,270.1z"/>
			<path class="st3" d="M363.1,147.6c17.2,0,34.4,0,51.6,0.1c0.9,0,1.9-0.5,2.7,0.5c-17,0-34.1,0-51.1,0c-2,0-2.8,0.4-2.7,2.6
				c0.1,6.1,0.1,12.3,0.1,18.4l-0.5,0.2l-48.2-0.1c-3.8,0-3.7,0-4-3.7c-0.4-5-0.9-10-1.4-14.9c-0.2-2.2,0-3,2.6-3
				C329,147.7,346.1,147.6,363.1,147.6z"/>
			<path class="st3" d="M314.7,212.9c-0.5-7.2-1.1-14.4-1.7-21.5h50.6V213L314.7,212.9z"/>
			<path class="st6" d="M314.7,212.9l49,0.1c1,0,1.9,0.1,2.9,0.1c7.1,0,14.2,0,21.3,0c1.2,0,2.2-0.1,2,1.7
				c-0.9,7.9-1.7,15.7-2.3,23.6c-0.2,2-1,2.6-2.7,3.1c-7.1,1.9-14.2,3.9-21.3,5.9c-0.6-0.1-1.2,0-1.6-0.5c1.2-0.2,1.1-1.2,1.1-2
				c0-9.7,0-19.5,0-29.2c0-2.2-1.2-2.1-2.7-2.1c-14.3,0-28.6,0-42.9,0C316.6,213.5,315.4,214.1,314.7,212.9z"/>
			<path class="st6" d="M363.6,191.4H313c0.9-0.9,2-0.5,3-0.5c14.8,0,29.5-0.1,44.2,0c2.3,0,3-0.6,2.9-3c-0.2-6.2-0.1-12.5-0.1-18.7
				l0.5-0.2c9.2,0,18.4,0.1,27.6,0.1c2.1,0,3.1,0.1,2.6,2.8c-0.9,5.3-1.4,10.6-1.6,16c-0.1,3-1.2,3.5-3.9,3.5
				C380.1,191.2,371.9,191.4,363.6,191.4z"/>
			<path class="st4" d="M363.6,191.4c8.2,0,16.5-0.2,24.8,0c2.7,0,3.8-0.5,3.9-3.5c0.2-5.4,0.8-10.7,1.6-16c0.4-2.7-0.5-2.8-2.6-2.8
				c-9.2,0.1-18.4,0-27.6-0.1c0-6.1,0.1-12.3-0.1-18.4c-0.1-2.2,0.7-2.6,2.7-2.6c17,0.1,34.1,0,51.1,0c-0.6,7.1-1.1,14.2-1.7,21.2
				c-0.8,9.6-1.6,19.2-2.5,28.8c-1.3,15.3-2.7,30.6-4.1,45.9c-0.4,4.1-0.8,8.2-1.1,12.3c-0.1,1-0.2,1.7-1.5,2.1
				c-14.1,3.8-28.2,7.7-42.4,11.6c-0.9-0.8-0.6-1.8-0.6-2.7c0-6.7,0-13.3,0-20c7.1-2,14.2-4,21.3-5.9c1.7-0.5,2.5-1.1,2.7-3.1
				c0.6-7.9,1.5-15.7,2.3-23.6c0.2-1.8-0.8-1.7-2-1.7c-7.1,0-14.2,0-21.3,0c-1,0-1.9-0.1-2.9-0.1L363.6,191.4z"/>
		</g>
	</a>
</g>
<g id="JavaScript_1_">
	<a id="JavaScript" xlink:href="https://en.wikipedia.org/wiki/JavaScript" >
		<g>
			<path class="st7" d="M672.1,116.5c-1.3,3.8-1.1,7.9-1.5,11.8c-1.8,19.2-3.5,38.5-5.2,57.8c-1.5,16.7-3,33.4-4.4,50.2
				c-1.5,16.5-3,32.9-4.4,49.4c-0.2,2.2-1,3-3.1,3.6c-21.8,6-43.7,12-65.5,18.1c-1.8,0.5-3.8,0.5-5.6,0
				c-21.9-6.1-43.8-12.2-65.7-18.2c-1.6-0.4-2.4-1-2.6-2.9c-2.8-32.6-5.8-65.3-8.7-97.9c-2.2-24.8-4.3-49.6-6.6-74.3
				c-0.2-2.3,0.4-2.7,2.5-2.7c55.9,0.1,111.7,0.1,167.6,0c1,0,2.1-0.1,3.2-0.1L672.1,116.5z M585,247.4c-7.8-1.6-15.4-4.1-23.2-5.9
				c-1.2-0.3-1.1-1.1-1.2-2c-0.4-4.3-0.8-8.6-1.1-12.9c-0.1-2-0.7-2.9-2.9-2.8c-5.6,0.2-11.2,0.1-16.9,0c-1.6,0-2.3,0.2-2.2,2.1
				c0.9,10.2,1.8,20.3,2.4,30.5c0.1,1.6,0.8,2.1,2.1,2.4c4.2,1.1,8.3,2.2,12.5,3.4c10.1,2.8,20.3,5.6,30.4,8.5c0,6.7,0,13.4,0,20.1
				c0,1.5,0.2,2.3,2.1,1.8c18-5,36.1-10,54.2-15c1.1-0.3,1.7-0.7,1.8-1.9c0.5-5.8,1.1-11.7,1.6-17.5c0.6-7,1-14,1.7-20.9
				c0.8-8.8,1.8-17.6,2.5-26.4c0.6-7.1,1-14.3,1.7-21.5c1-10.7,2.2-21.4,3.1-32.1c0.8-9.8,1.5-19.5,2.7-29.2
				c0.2-1.8-0.2-2.7-2.3-2.7c-22.2,0.1-44.3,0.1-66.5,0c-1.8,0-2.5,0.5-2.4,2.4c0.1,6.4,0,12.8,0,19.3c-1,0-2.1,0.1-3.2,0.1
				c-16.3,0-32.5,0-48.8,0c-2,0-2.6,0.5-2.4,2.5c0.6,6.4,1.1,12.8,1.6,19.2c0.9,0.8,2,0.4,3,0.4c15.5,0,31,0.1,46.4-0.1
				c2.6,0,3.4,0.6,3.4,3.3C585,197.5,585,222.5,585,247.4z"/>
			<path d="M605,75.2c4.2,3.3,7.8,6.2,11.5,9c1.4,0.8,2.1,2.4,1.9,4c-0.1,2.2-0.1,4.4,0,6.6c0.1,1.3-0.4,1.6-1.7,1.6
				c-9.2-0.1-18.5-0.1-27.7,0c-1.2,0-1.8-0.2-1.8-1.6c0.1-2.6,0.1-5.1,0-7.7c0-1.4,0.6-1.6,1.8-1.6c3.6,0,7.2,0,10.8,0
				c0.3-1.1-0.7-1.2-1.1-1.6c-1.3-1.1-2.8-2.2-4.2-3.2c-7.8-6.1-7.8-6.1-7.3-16c0.1-1.3,0.5-1.6,1.7-1.6c9.3,0,18.7,0,28,0
				c1.2,0,1.5,0.4,1.5,1.5c-0.1,3-0.1,6,0,9c0,1.3-0.4,1.7-1.6,1.6C613,75.2,609.4,75.2,605,75.2z"/>
			<path d="M582.2,79.8c0,4.8-0.1,9.7,0,14.5c0,1.6-0.4,2.1-2.1,2.1c-8.9-0.1-17.8-0.1-26.6,0c-1.4,0-2.1-0.2-2-1.8
				c0.1-2.7,0.1-5.4,0-8.2c-0.1-1.6,0.6-1.9,2-1.8c4.4,0.1,8.8-0.1,13.2,0.1c1.9,0.1,2.3-0.6,2.3-2.4c-0.1-5.7,0-11.4-0.1-17.1
				c0-1.4,0.3-2,1.8-1.9c3.2,0.1,6.3,0.1,9.5,0c1.5,0,2,0.4,1.9,1.9C582.2,70,582.2,74.9,582.2,79.8z"/>
			<path class="st8" d="M585,147.1c0-6.4,0.1-12.9,0-19.3c0-1.9,0.6-2.4,2.4-2.4c22.2,0.1,44.3,0.1,66.5,0c2.2,0,2.5,0.9,2.3,2.7
				c-1.2,9.7-1.8,19.5-2.7,29.2c-0.9,10.7-2.1,21.4-3.1,32.1c-0.7,7.1-1,14.3-1.7,21.5c-0.8,8.8-1.8,17.6-2.5,26.4
				c-0.6,7-1.1,14-1.7,20.9c-0.5,5.8-1.1,11.7-1.6,17.5c-0.1,1.2-0.7,1.6-1.8,1.9c-18.1,5-36.1,10-54.2,15c-1.9,0.5-2.1-0.3-2.1-1.8
				c0-6.7,0-13.4,0-20.1l1.1-0.5c14.1-3.9,28.3-7.7,42.4-11.5c1.2-0.3,1.2-1,1.3-1.9c1.2-13.9,2.5-27.8,3.7-41.8
				c1.1-12.5,2.3-25,3.4-37.5c0.8-9.5,1.6-19.1,2.4-28.6c0.9-2.4-1.1-1.6-2-1.6C619.9,147.1,602.5,147.1,585,147.1z"/>
			<path class="st8" d="M585,247.4c0-25,0-49.9,0.1-74.9c0-2.8-0.8-3.3-3.4-3.3c-15.5,0.1-31,0.1-46.4,0.1c-1,0-2.1,0.4-3-0.4
				l52.8-0.1c1,0,1.9,0.1,2.9,0.1c8.7,0,17.4,0,26.1,0c1.5,0,2.1,0.1,1.9,2c-2.2,22.6-4.4,45.2-6.5,67.9c-0.2,2.1-1,2.8-2.8,3.3
				c-6.9,1.8-13.7,3.7-20.6,5.6L585,247.4z"/>
			<path class="st3" d="M585,247.4l1,0.1c-0.7,0.5-1.1,1.4-1.1,2.2c0,6.1,0,12.3,0,18.4c0,0.9-0.1,1.8,1.1,2l-1.1,0.5
				c-10.1-2.8-20.3-5.7-30.4-8.5c-4.1-1.2-8.3-2.3-12.5-3.4c-1.3-0.3-2-0.8-2.1-2.4c-0.7-10.2-1.5-20.3-2.5-30.5
				c-0.2-1.9,0.5-2.2,2.2-2.1c5.6,0.1,11.2,0.2,16.9,0c2.3-0.1,2.8,0.9,2.9,2.8c0.3,4.3,0.7,8.6,1.1,12.9c0.1,0.9,0,1.7,1.2,2
				C569.6,243.4,577.2,245.9,585,247.4z"/>
			<path class="st3" d="M585,168.7l-52.8,0.1c-0.5-6.4-1-12.8-1.6-19.2c-0.2-2,0.4-2.5,2.4-2.5c16.3,0.1,32.5,0.1,48.8,0
				c1.1,0,2.1-0.1,3.2-0.1c17.5,0,34.9,0,52.4,0.1c0.9,0,2.9-0.8,2,1.6c-0.2-1.4-1.3-1.1-2.3-1.1c-16.6,0-33.2,0-49.8,0
				c-1.8,0-2.4,0.5-2.4,2.4C585,156.3,585,162.5,585,168.7z"/>
			<path class="st4" d="M585,168.7c0-6.2,0-12.5-0.1-18.7c0-1.9,0.6-2.4,2.4-2.4c16.6,0.1,33.2,0,49.8,0c0.9,0,2-0.2,2.3,1.1
				c-0.8,9.5-1.6,19.1-2.4,28.6c-1.1,12.5-2.3,25-3.4,37.5c-1.3,13.9-2.5,27.8-3.7,41.8c-0.1,0.9-0.2,1.6-1.3,1.9
				c-14.1,3.8-28.3,7.7-42.4,11.5c-1.2-0.2-1.1-1.1-1.1-2c0-6.1,0-12.3,0-18.4c-0.1-0.9,0.4-1.7,1.1-2.2c6.8-1.9,13.7-3.8,20.6-5.6
				c1.8-0.5,2.6-1.2,2.8-3.3c2.1-22.6,4.2-45.2,6.5-67.9c0.2-1.9-0.4-2-1.9-2c-8.7,0-17.4,0-26.1,0C586.9,168.9,586,168.8,585,168.7
				z"/>
		</g>
	</a>
</g>
<g id="Bootstrap_1_">
	<a id="Bootstrap" xlink:href="https://getbootstrap.com/docs/3.3/" >
		<g>
			<path class="st9" d="M740,279.7c0,15.5,12.5,28,28,28h161.5c15.5,0,28-12.5,28-28V118.4c0-15.5-12.5-28-28-28H768.1
				c-15.5,0-28,12.5-28,28L740,279.7L740,279.7z"/>
			<path class="st10" d="M830.2,186.5v-30.8h27.1c2.5,0,5,0.2,7.5,0.6c2.2,0.4,4.4,1.1,6.4,2.3c1.9,1.1,3.4,2.7,4.4,4.6
				c1.2,2.3,1.8,4.9,1.7,7.6c0,5.5-1.7,9.5-5,12c-3.3,2.5-7.6,3.7-12.7,3.7L830.2,186.5z M801.2,133.2v131.7h63.8
				c5.8,0,11.6-0.7,17.2-2.2c5.3-1.4,10.4-3.7,14.9-6.8c4.4-3.1,8-7.1,10.5-11.9c2.7-5.3,4-11.3,3.9-17.2c0-8.2-2-15.3-6-21.1
				s-10.1-9.9-18.2-12.3c5.9-2.8,10.4-6.5,13.4-10.9c3-4.4,4.5-10,4.5-16.6c0-6.2-1-11.3-3-15.5c-1.9-4.1-4.9-7.5-8.6-10.1
				c-4-2.7-8.5-4.5-13.3-5.4c-5.6-1.2-11.4-1.7-17.2-1.7L801.2,133.2z M830.2,242.5v-36.2h31.6c6.3,0,11.3,1.4,15.1,4.3
				c3.8,2.9,5.7,7.7,5.7,14.5c0.1,2.9-0.5,5.8-1.8,8.5c-1.1,2.1-2.7,3.9-4.7,5.3c-2.1,1.3-4.4,2.3-6.8,2.8c-2.7,0.6-5.4,0.8-8.1,0.8
				L830.2,242.5z"/>
		</g>
	</a>
</g>
<g id="Python_1_">
	<a id="Python" xlink:href="https://www.python.org" >
		<g>
			
				<linearGradient id="SVGID_1_" gradientUnits="userSpaceOnUse" x1="1933.8877" y1="6718.875" x2="1933.9476" y2="6718.9351" gradientTransform="matrix(1849.27 0 0 1853.39 -3575235.25 -12452586)">
				<stop  offset="0" style="stop-color:#387EB8"/>
				<stop  offset="1" style="stop-color:#366994"/>
			</linearGradient>
			<path class="st11" d="M1133.9,90.3c-55.5,0-52,24.1-52,24.1l0.1,25h53v7.4h-74c0,0-35.5-4-35.5,51.9s31,54,31,54h18.5v-26
				c0,0-1-31,30.5-31h52.4c0,0,29.5,0.5,29.5-28.5v-47.9C1187.4,119.3,1191.9,90.3,1133.9,90.3z M1114.2,116.6L1114.2,116.6
				c0,5.2-4.3,9.5-9.5,9.5l0,0l0,0c-5.3,0-9.5-4.2-9.5-9.5c0,0,0,0,0,0l0,0c0-5.2,4.3-9.5,9.5-9.5l0,0
				C1110,107.1,1114.2,111.3,1114.2,116.6C1114.2,116.6,1114.2,116.6,1114.2,116.6z"/>
			
				<linearGradient id="SVGID_2_" gradientUnits="userSpaceOnUse" x1="1933.5703" y1="6718.5728" x2="1933.6404" y2="6718.6328" gradientTransform="matrix(1849.27 0 0 1853.39 -3574590.25 -12451960)">
				<stop  offset="0" style="stop-color:#FFE052"/>
				<stop  offset="1" style="stop-color:#FFC331"/>
			</linearGradient>
			<path class="st12" d="M1135.5,307.8c55.5,0,52-24.1,52-24.1l-0.1-24.9h-53v-7.5h74c0,0,35.5,4,35.5-52s-31-54-31-54h-18.5v26.1
				c0,0,1,31-30.5,31h-52.4c0,0-29.5-0.5-29.5,28.5v47.9C1082,278.8,1077.5,307.8,1135.5,307.8L1135.5,307.8z M1164.7,291
				c-5.3,0-9.5-4.2-9.6-9.5c0,0,0,0,0,0l0,0c0-5.2,4.2-9.5,9.5-9.5c0,0,0,0,0,0l0,0c5.3,0,9.5,4.3,9.5,9.5c0,0,0,0,0,0l0,0
				C1174.2,286.7,1169.9,291,1164.7,291C1164.7,291,1164.7,291,1164.7,291L1164.7,291z"/>
		</g>
	</a>
</g>
<g id="jQuery_1_">
	<a id="jQuery" xlink:href="https://jquery.com" >
		<g>
			<path class="st13" d="M1225.9,380.7l30.1,0.2l-60.6,82.1c-1.5,2-3.8,4.2-4.9,6.8c-2.9,6.7-5.9,21.5-5.9,21.5l-27.5,0.1
				c0,0,4.3-15.4,4.1-23.6c-0.2-7.2-3.8-14.4-5.9-21.5s-4.9-21.5-4.9-21.5h28.3l3.9,15.6L1225.9,380.7"/>
			<path class="st13" d="M1168.7,396.6c5.6,3.4,9,21.8,9,21.8l-44.9,0.3h-13.7l-16.6,72.4h-25.4c0,0,15.8-78.5,19.5-92.8
				c1.2-4.6,8.3-3.8,20.2-3.8h19.1C1148.3,394.5,1162.7,393,1168.7,396.6 M1050.4,432c0,0,0.8-4.6-2.7-10c-3-4.6-5.7-5.6-13.5-5.9
				c-22.1-0.7-21.6,15.7-21.6,15.7L1050.4,432z M1074.5,413.2c3.2,11.7-2.9,39.1-2.9,39.1s-32.2-0.5-49.8,0c-5.5,0.2-12-0.6-13.7,2
				c-2.3,3.6,0.8,9.1,3.5,11.4c3.1,2.7,9,3,11.2,3.3c14.3,1.8,44.3,0.5,44.3,0.5l-5.2,23c0,0-42.3,2.1-63.5-2.9
				c-4.1-0.9-7.8-2.9-10.8-5.9c-0.7-0.9-1.4-1.8-2-2.8c-1.1-1.6-2.1-3.3-2.8-5c-4.8-12.9,0.6-37.6,5.9-50.8c0.6-1.5,1.4-3.5,2.2-5.1
				c1-2.1,1.9-4.4,2.7-5.6c0.5-0.9,1.2-1.4,1.8-2.2s1.4-1.9,2.1-2.7c2.1-2.2,4.4-4.2,6.8-5.9c8.8-6.6,24.8-11.7,44-9.8
				c7.2,0.7,18.1,3.3,23.5,10.8C1073.1,406.4,1073.8,410.3,1074.5,413.2L1074.5,413.2z M957.8,394.6l24.7-0.1c0,0-13.8,65.2-20.8,97
				h-28.3c-19.8,0-37.5,2.5-45-11.8c-7.3-13.8-0.3-36.5,2.9-51.9c2.3-10.9,7.2-33.2,7.2-33.2l25.5-0.2c0,0-7.2,34.6-10.2,51.9
				c-1.1,6.2-3.3,12-1,16.6c2.2,4.4,5.3,4.7,14.7,4.9c3,0.1,12.7,0,12.7,0L957.8,394.6 M842.5,441.5c2.6-9.2,6.3-19.1,5.9-27.4
				c-0.5-8.8-7.9-16.9-12.7-18.6c-14.4-5.1-27.9,2-33.2,7.8c-6.9,7.5-9.3,16.3-11.7,28.4c-1.8,9-3.3,18.4,0,25.4
				c5.9,12.4,24.2,9.7,44,9.8C837.7,459,840.1,450.2,842.5,441.5L842.5,441.5z M876.7,405.3c2.8,20.5-8,43-15.4,62.7
				c7.6,0.7,14.2-0.1,14.7,0.5c0.5,0.7-5.1,23.4-7,23.5c-6,0.2-26,0.3-34.3,0.3c-27.1,0-52.5,1.8-65.5-11.7
				c-5.3-5.5-8.9-14.9-9.8-21.5c-1.5-11,0.4-23.2,2.9-33.2c2.3-9,5.3-17.6,9.8-25.4c11.4-19.9,31.2-34.7,64.5-31.3
				c7.5,0.9,14.8,3.3,21.5,6.8c0.4,0.2,1.8,1.4,2.1,1.5C868.1,382.5,875.3,394.4,876.7,405.3L876.7,405.3z M756.6,394.7
				c-1.6,7.4-3.3,15.9-5,23.2h-27.2c2.1-8.1,3.7-16.2,5.8-23.4C738.9,394.5,756.6,394.7,756.6,394.7 M723.4,424.8h26.3
				c-3.5,19.1-10.3,49.9-15.6,71.3c-3.3,13.4-5.6,23.2-14.7,30.3c-0.8,0.6-1.3,0.3-2,1c-1.7,1.6-9.4,3.4-13.7,3.9
				c-7,0.8-14.8,0.1-23.4-0.1c2.2-8.2,4.8-18,6.8-25.3c20.8,2.5,21.4-17.2,25.4-36.1c2.3-11,9.4-40.6,10.8-45"/>
			<path class="st14" d="M661.7,474.6l-0.6,1.5c-9.6,18.8-26.7,30.3-51.1,30.8C600,507,590,505,580.8,501
				c-15-6.9-27.4-18.6-35.2-33.2c-10.1-19.5-11.9-46.7,9-66.9c0.3,0-2.5,4.4-2.2,4.4l-0.6,1.9c-15.1,47.3,31.4,87.8,76.6,83.1
				C639.3,489.1,653.2,483.2,661.7,474.6"/>
			<path class="st14" d="M634.4,455.1c11.4,0.1,23.3-5.2,30.3-12.7c-6.2,15.6-24,25.7-47.9,22.5c-20-2.7-39.1-22.8-41-43
				c-1.4-14.7,3.7-23.5,12.1-34.1c-2.9,5.6-4,9.9-4.3,12.6C580.4,432.1,609,454.9,634.4,455.1"/>
			<path class="st14" d="M663.5,415.6c-1.8,4-12,11.7-16.5,12.7c-17.8,3.8-29.2-4.6-35.2-14.3c-1.1-2-2.1-4.2-2.8-6.4
				c-2.3-7.9-1.2-19.8,5.7-26c-2.1,5.9-2.4,12.7-1.3,17.1c1,3.6,2.6,7.1,4.7,10.3c3.7,5.4,6,6.6,10.8,9.5c1.7,1,3.5,1.9,5.4,2.6
				C638.8,422.5,648.3,426,663.5,415.6"/>
		</g>
	</a>
</g>
<g id="AngularJS_1_">
	<a id="AngularJS" xlink:href="https://angularjs.org" >
		<g>
			<path class="st15" d="M286,696v-87.5h11.3l53.7,70.6v-70.6h10.5V696h-11l-53.6-71.1V696H286z M448.8,692.6
				c-7.3,2.7-15,4.1-22.8,4c-31.7,0-47.6-15.2-47.6-45.6c0-28.8,15.3-43.2,45.9-43.2c8.8,0,24.8,3.7,24.8,3.7v9.8
				c0,0-15.6-4.3-23.6-4.3c-23.9,0-35.8,11.3-35.8,34c0,24.3,11.8,36.4,35.3,36.5c4.2-0.1,8.4-0.5,12.5-1.5v-29.8h11.2L448.8,692.6
				L448.8,692.6z M466.8,662.3v-53.8H478v53.8c0,16.8,8.4,25.2,25.2,25.2c16.8,0,25.2-8.4,25.2-25.2v-53.8h11.2v53.8
				c0,23-12.1,34.5-36.4,34.5C478.9,696.7,466.8,685.2,466.8,662.3L466.8,662.3z M571.3,608.5v78.3h46v9.2h-57.2v-87.5H571.3z
				 M633.5,696h-11.8l43.6-99.2l43.6,99.2h-12.6L685,668.4h-29l3.1-9.2h22.1l-16.4-39.7L633.5,696z M720.8,696v-87.5h37.3
				c16.7,0,25,7,25,21c0,11.4-8.1,19.8-24.4,25.3l30,41.2h-14.8L746,656.6v-7.4c16.8-2.7,25.1-9.1,25.1-19.3c0-8.1-4.7-12.2-14-12.2
				H732V696H720.8z M831.1,608.5v62.4c0,16.8-9.9,25.2-29.6,25.2v-9.2c12.3,0,18.4-5.3,18.4-16v-62.4H831.1z M851.6,693.3v-10.5
				c9.6,3.4,19.6,5,29.8,4.9c15.1,0,22.6-5.6,22.6-16.7c0-9.4-5.6-14.2-16.7-14.2H876c-18.3,0-27.5-8-27.5-24.1
				c0-16.9,11.7-25.3,35.2-25.3c9.6-0.1,19.2,1.2,28.5,3.7v10.5c-9.1-3.4-18.8-5-28.5-4.9c-15.9,0-23.9,5.3-23.9,16
				c0,9.5,5.4,14.3,16.1,14.3h11.3c18.7,0,28,8,28,24.1c0,17.3-11.3,25.9-33.9,25.9C871.3,697.1,861.3,695.8,851.6,693.3
				L851.6,693.3z"/>
			<path d="M289.1,693.2v-87.4h12.3l52.8,70.2v-70.2h10.6v87.2h-11.3L299.6,622v71.3L289.1,693.2L289.1,693.2z M451.8,689.8
				c-7.4,2.7-15.2,4.1-23,4c-31.7,0-47.6-15.2-47.6-45.6c0-28.8,15.3-43.2,46-43.2c8.8,0,24.3,3.7,24.3,3.7v9.9
				c-7.4-2.8-15.2-4.3-23.1-4.3c-23.7,0-35.5,11.3-35.5,34c0,24.3,11.7,36.4,35,36.5c4.2-0.1,8.3-0.5,12.4-1.5v-29.7h11.6
				L451.8,689.8z M469.8,659.6v-53.8h11.2v53.8c0,16.8,8.4,25.2,25.2,25.2c16.8,0,25.2-8.4,25.2-25.2v-53.8h11.2v53.8
				c0,23-12.1,34.4-36.4,34.4S469.8,682.5,469.8,659.6L469.8,659.6z M574,605.8v78.3h46v9.2h-57.2v-87.5L574,605.8z M636.3,693.3
				h-11.7l43.6-99.2l43.6,99.2h-12.6l-11.3-27.6h-29l3.1-9.2H684l-16.4-39.7L636.3,693.3L636.3,693.3z M723.8,693.3v-87.5h37
				c16.5,0,24.8,7,24.8,21c0,11.4-8.1,19.8-24.2,25.3l29.8,41.2h-14l-28.1-39.4v-7.4c16.9-2.7,25.3-9.1,25.3-19.3
				c0-8.1-4.7-12.1-14.1-12.1h-25.2v78.3L723.8,693.3z"/>
			<path class="st16" d="M834.2,605.4v62.4c0,16.8-9.9,25.2-29.6,25.2v-9.2c12.3,0,18.4-5.4,18.4-16.1v-62.4H834.2z M854.3,690.5
				V680c9.5,3.4,19.6,5.1,29.7,5c15.1,0,22.6-5.6,22.6-16.7c0-9.4-5.6-14.2-16.7-14.2h-11.2c-18.3,0-27.5-8-27.5-24.1
				c0-16.9,11.7-25.3,35.2-25.3c9.6-0.1,19.2,1.2,28.5,3.7V619c-9.1-3.4-18.7-5.1-28.5-5c-15.9,0-23.9,5.3-23.9,16
				c0,9.5,5.4,14.2,16.2,14.2H890c18.7,0,28,8,28,24.1c0,17.3-11.3,25.9-33.9,25.9C874.1,694.2,864.1,693,854.3,690.5L854.3,690.5z"
				/>
			<path class="st17" d="M169.9,538.1l-102.3,36l16.2,134l86.3,47.5l86.7-48l16.2-134L169.9,538.1L169.9,538.1z"/>
			<path class="st16" d="M262.5,581.3l-93-31.7v194.7l77.9-43.1L262.5,581.3L262.5,581.3z"/>
			<path class="st18" d="M79,581.8l13.8,119.9l76.7,42.5V549.6L79,581.8z"/>
			<path class="st19" d="M195.2,653l-25.6,12h-27L130,696.7l-23.6,0.4l63.3-140.7L195.2,653z M192.8,647l-22.9-45.4L151,646.3h18.7
				L192.8,647L192.8,647z"/>
			<path class="st17" d="M169.6,556.7v45l21.6,44.6h-21.3v19.1h29.4l13.9,32l22.6,0.4L169.6,556.7L169.6,556.7z"/>
		</g>
	</a>
</g>
</svg>
