<svg xmlns="http://www.w3.org/2000/svg" viewBox="0 0 200 200"><defs><style>.cls-1{fill:#fffdf5;}.cls-2{fill:#263c59;}</style></defs><title>navicon-emailme</title><g id="Layer_2" data-name="Layer 2"><g id="email"><g id="navicon-emailme"><rect id="background" class="cls-1" width="200" height="200"/><g id="lineart-email"><path class="cls-2" d="M37,167.93a3.28,3.28,0,0,1-1-.14,1.9,1.9,0,0,1-1.37-1.61c-.11-1.13.58-2.29,4.27-4.36,11.35-6.35,11.46-24.17,11.26-29.24H41.36a7.86,7.86,0,0,1-7.86-7.86V42.92a1.5,1.5,0,0,1,3,0v81.8a4.87,4.87,0,0,0,4.86,4.86H51.51A1.5,1.5,0,0,1,53,130.94a55.28,55.28,0,0,1-.64,13.43c-1.62,9.44-5.65,16.29-11.67,19.85,8.35-2.71,27.87-13,46.78-34.14a1.49,1.49,0,0,1,1.12-.5h70a4.87,4.87,0,0,0,4.86-4.86V39.91a4.87,4.87,0,0,0-4.86-4.86H41.55L88.38,86.13a15.89,15.89,0,0,0,23.44,0L153.38,40.8a1.5,1.5,0,0,1,2.21,2L114,88.16a18.89,18.89,0,0,1-27.86,0l-48.58-53a1.31,1.31,0,0,1-.24-.34,1.53,1.53,0,0,1-.08-1.17,1.55,1.55,0,0,1,.78-.87,7.87,7.87,0,0,1,3.31-.73H158.64a7.87,7.87,0,0,1,7.86,7.86v84.81a7.86,7.86,0,0,1-7.86,7.86H89.26C66.7,157.63,43.33,167.92,37,167.93Z"/></g></g></g></g></svg>