<svg xmlns="http://www.w3.org/2000/svg" viewBox="0 0 774.38 624.79"><defs><style>.cls-1{fill:#404b59;}.cls-1,.cls-2,.cls-3{stroke:#fafaf5;stroke-width:0.89px;}.cls-1,.cls-2,.cls-3,.cls-36,.cls-37{stroke-miterlimit:10;}.cls-2{fill:#a4c0e4;}.cls-3{fill:#4670a6;}.cls-4{fill:#666;}.cls-5{fill:#fee066;}.cls-6{fill:#fed947;}.cls-7{fill:#fecb00;}.cls-8{fill:#fed42d;}.cls-9{fill:#fed324;}.cls-10{fill:#fecb01;}.cls-11{fill:#fecf12;}.cls-12{fill:#fed016;}.cls-13{fill:#676767;}.cls-14{fill:#fecc04;}.cls-15{fill:#fed327;}.cls-16{fill:#fed73c;}.cls-17{fill:#fed52e;}.cls-18{fill:#6a6a6a;}.cls-19{fill:#fee374;}.cls-20{fill:#fee993;}.cls-21{fill:#fee994;}.cls-22{fill:#feeda7;}.cls-23{fill:#fee583;}.cls-24{fill:#79c900;}.cls-25{fill:#70b000;}.cls-26{fill:#71b100;}.cls-27{fill:#dfdfdf;}.cls-28{fill:#d88500;}.cls-29{fill:#dcefbf;}.cls-30{fill:#86d700;}.cls-31{fill:#fec100;}.cls-32{fill:#f39000;}.cls-33{fill:#fefefe;}.cls-34{fill:#fef2b7;}.cls-35{fill:#3f3f3f;}.cls-36{fill:#010101;}.cls-36,.cls-37{stroke:#000;stroke-width:0.7px;opacity:0.9;}.cls-38{fill:#4fa3cd;}.cls-39{fill:#dbecf4;}.cls-40{fill:#94c7e0;}.cls-41{fill:#fafcfd;}</style></defs><title>study-pie-general</title><g id="Layer_2" data-name="Layer 2"><g id="Study_Pies" data-name="Study Pies"><g id="study-pie-general"><g id="pie"><path id="Dutch" class="cls-1" d="M412.42,124.35v250l-80.7-236.69A249.68,249.68,0,0,1,412.42,124.35Z"/><path id="Welsh" class="cls-1" d="M412.42,374.35,259.88,176.28a249,249,0,0,1,71.84-38.62Z"/><path id="Business_English" data-name="Business English" class="cls-2" d="M258.76,177.12,412.42,374.35l-244.52-52A249.43,249.43,0,0,1,258.76,177.12Z"/><path id="MS_Outlook" data-name="MS Outlook" class="cls-3" d="M412.42,374.35l.17.54-221.93,115a250,250,0,0,1-22.54-168.6Z"/><path id="MS_Excel" data-name="MS Excel" class="cls-3" d="M412.59,374.89l74,238.27c-93.07,28.85-198.5,1.52-265.27-77.65a251.06,251.06,0,0,1-30.65-45.64Z"/><path id="MS_Word" data-name="MS Word" class="cls-3" d="M660.24,341.17a250.32,250.32,0,0,1-173.66,272l-74-238.27-.17-.54Z"/><path id="Business_Writing" data-name="Business Writing" class="cls-3" d="M603.53,213.18a248.86,248.86,0,0,1,56.71,128L412.42,374.35,580.69,189.43A249.66,249.66,0,0,1,603.53,213.18Z"/><path id="Project_Management" data-name="Project Management" class="cls-3" d="M580.92,189.68,412.42,374.35l10.69-249.77A249,249,0,0,1,580.92,189.68Z"/><path id="Trello" class="cls-3" d="M423.11,124.58,412.42,374.35v-250C416,124.35,419.57,124.43,423.11,124.58Z"/></g><g id="goskills"><path class="cls-4" d="M753,519.49a58.07,58.07,0,0,0-7.13-1.79c-1.78-.29-3.51-.92-5.36-.82-1.43-1-3.13-.26-4.72-.78s-3.19-.1-4.8-.1-3.37,0-5,0c-.89,0-1.72.66-2.67.41s-1.9.63-2.89.43-1.72.69-2.68.46c-.64.83-1.86,0-2.49.87-4.5.58-8.21,3.17-12.27,4.84-1.44,1.45-3.49,2.08-4.89,3.58-.49.52-1.42.41-1.68,1.73a45.09,45.09,0,0,1-1.17-4.94,38.58,38.58,0,0,1,9.74-8,43,43,0,0,1,8.77-4.24c2.12-.73,4.27-1.38,6.46-1.93,1.66-.43,3.34-.82,5-1.09.76-.13,1.41-.62,2.23-.53a5.51,5.51,0,0,0,2.18,0c2.78-.81,5.6-.25,8.4-.39,1.6-.08,3.22-.05,4.83,0a5.39,5.39,0,0,1,2.92.39c.42.25,1.12,0,1.82,0-1.43-2.41-2.76-4.68-4.12-6.94-1.17-1.93-2.38-3.85-3.57-5.77-.65-1.05-1.13-2.17-1.82-3.21-1.66-2.5-3-5.18-4.59-7.75s-3.14-5-4.6-7.55c-1-1.84-2.2-3.62-3.26-5.45-1.52-2.61-3-5.24-4.69-7.72-.25-.35-.11-.69-.21-1.14a73.67,73.67,0,0,1,14.6-4.22,2.25,2.25,0,0,1,.85,1.34c.38,1.79,1,3.54,1.44,5.32.51,2,1.17,3.92,1.63,5.93.38,1.65.86,3.29,1.35,4.92.76,2.48,1.47,5,2.15,7.46.43,1.58.82,3.18,1.36,4.71.44,1.28.85,2.61,1.16,3.89s.78,2.49,1.05,3.77a34.08,34.08,0,0,0,1.31,4.72,31.35,31.35,0,0,1,1.16,3.89c.28,1.28.77,2.5,1.06,3.77s.74,2.74,1.2,4.1a59.2,59.2,0,0,1,1.72,6.3C752.88,518.51,753.71,518.72,753,519.49Z"/><path class="cls-5" d="M674.64,502.38a23,23,0,0,1-2.19-3.49c-.78-1.34-1.55-2.69-2.34-4.07a1.14,1.14,0,0,1-1.18.53,3.46,3.46,0,0,0,.27-.5c.19-.47.51-1-.27-1.26,0-.6.52-.32.81-.59a52.36,52.36,0,0,1,5.54-15.16,29.89,29.89,0,0,1,3.75-5.77c0,.44.45.53.62.84.86-.55,2-.52,2.74-1.28.82.25,1.51-.24,2.22-.46a14.17,14.17,0,0,1,5.53-.37,15,15,0,0,1,3.61.78,16.77,16.77,0,0,1,8.83,6.19,15.25,15.25,0,0,1,3.29,6.78c1.06,5.19,1.07,3.93.41,7.37a20.13,20.13,0,0,1-2.56,6.85,18.2,18.2,0,0,1-7.53,6.83,12.29,12.29,0,0,1-6.57,1.62,2,2,0,0,0-1.8.5c-.51-.56-1.15-.49-1.79-.52a9,9,0,0,1-3.37-.87,28.58,28.58,0,0,1-3.67-1.74,13,13,0,0,1-2.06-1.41A2.64,2.64,0,0,0,674.64,502.38Zm13.78-3.05a17,17,0,0,0,4-.89,8.47,8.47,0,0,0,4.62-3.91,11.71,11.71,0,0,0,1.7-5.65,9.46,9.46,0,0,0-2-5.73,9,9,0,0,0-3.46-3.18,13.71,13.71,0,0,0-5.59-1.34c-.69,0-1.13.45-1.79.53a5.77,5.77,0,0,0-4,2c-.41.51-1,.9-1.38,1.41a13.31,13.31,0,0,0-1.56,2.2c-.61,1.17-.44,2.55-.86,3.81-.26.77.17,1.62.34,2.44a9.43,9.43,0,0,0,3.58,6A11.26,11.26,0,0,0,688.42,499.33Z"/><path class="cls-6" d="M674.64,502.38a2.64,2.64,0,0,1,2.29.8,13,13,0,0,0,2.06,1.41,28.58,28.58,0,0,0,3.67,1.74,9,9,0,0,0,3.37.87c.64,0,1.28,0,1.79.52a2,2,0,0,1,1.8-.5,12.29,12.29,0,0,0,6.57-1.62,18.2,18.2,0,0,0,7.53-6.83,20.13,20.13,0,0,0,2.56-6.85c.66-3.44.65-2.18-.41-7.37a15.25,15.25,0,0,0-3.29-6.78,16.77,16.77,0,0,0-8.83-6.19,15,15,0,0,0-3.61-.78,14.17,14.17,0,0,0-5.53.37c-.71.22-1.4.71-2.22.46-.76.76-1.88.73-2.74,1.28-.17-.31-.64-.4-.62-.84a53.54,53.54,0,0,1,9.67-10.55v1.1l.67.67a17.06,17.06,0,0,1,6.15.86,33.24,33.24,0,0,1,10.45,6,40.28,40.28,0,0,1,3.2,3.74,11.67,11.67,0,0,1,2.15,3.48c.76,2.18,2.09,4.21,2,6.64.85.82.07,2,.57,2.83.59,1,.07,2,.33,2.94s-.57,1.39-.5,2.24a13.23,13.23,0,0,1-.85,4.89c-1.13,4-3.55,7.25-6.11,10.39-.49.6-1.45.9-1.93,1.59s-1.37,1-2,1.51a22.77,22.77,0,0,1-4.81,2.66,20,20,0,0,1-5.49,1.51,66,66,0,0,1-7.45.1,5.13,5.13,0,0,1-1.58-.43,1.93,1.93,0,0,0-1.78.41,18.24,18.24,0,0,1-2.19-3.55,24.86,24.86,0,0,0-2.29-3.83,2,2,0,0,0-1.41.24A24.16,24.16,0,0,1,672,509a1.08,1.08,0,0,0-.88-.88c1.33-1.37,3.14-1.95,4.86-2.86a3.14,3.14,0,0,0-1.06-1.88C674.59,503.06,674.64,502.73,674.64,502.38Z"/><path class="cls-7" d="M659.31,549c-1,0-1.83-.06-2.63,0a4,4,0,0,1-4-2.22,4.54,4.54,0,0,0-4-2.17c-1.17-.07-2.34,0-3.5,0A13.44,13.44,0,0,0,643,545.7a9.3,9.3,0,0,0-2.63,4.39,14.78,14.78,0,0,0-.43,5.09,16.86,16.86,0,0,0,1.42,4.68,6.08,6.08,0,0,0,3.56,3,6.77,6.77,0,0,0,4.44.23,6.06,6.06,0,0,0,3.29-2.11,4.57,4.57,0,0,0,1.34-3.39,1.22,1.22,0,0,0-.12-.26h-4l-1.54-1.53V552.9h10.87v14.41h-2.84c-1.16-.33-.74-1.85-1.68-2.5-1,.58-1.52,1.59-2.52,2.19a8.74,8.74,0,0,1-3.65,1.2c-1.29.11-2.7.53-4-.32-.41-.27-1.14,0-1.46,0-1.08-.51-2-.88-2.79-1.33a9.12,9.12,0,0,1-3.83-3.8,19.17,19.17,0,0,1-1.86-5.18,32.38,32.38,0,0,1-.33-5.54c0-1.58,1.22-6,2.21-7.19a13.67,13.67,0,0,1,6.18-4.63,8,8,0,0,1,2.89-.47c1.39.09,2.8-.12,4.17,0,3.21.39,6,1.55,7.83,4.47A9.35,9.35,0,0,1,659.31,549Z"/><path class="cls-8" d="M681.67,514.68a1.93,1.93,0,0,1,1.78-.41,5.13,5.13,0,0,0,1.58.43,66,66,0,0,0,7.45-.1,20,20,0,0,0,5.49-1.51,22.77,22.77,0,0,0,4.81-2.66c.66-.51,1.51-.76,2-1.51s1.44-1,1.93-1.59c2.56-3.14,5-6.4,6.11-10.39a13.23,13.23,0,0,0,.85-4.89c-.07-.85.72-1.38.5-2.24s.26-2-.33-2.94c-.5-.83.28-2-.57-2.83.11-2.43-1.22-4.46-2-6.64a11.67,11.67,0,0,0-2.15-3.48,40.28,40.28,0,0,0-3.2-3.74,33.24,33.24,0,0,0-10.45-6,17.06,17.06,0,0,0-6.15-.86l-.67-.67v-1.1a4.21,4.21,0,0,1,1.9-1.78c.82-.36,1.17-1.38,2-1.73a1,1,0,0,0,.83.86c3.07.46,5.8,1.85,8.6,3.06,3.21,1.39,5.73,3.73,8.18,6.1.78.76,1.44,1.74,2.22,2.56a4.24,4.24,0,0,1,.41.7,30.15,30.15,0,0,1,3.92,7.37,14.78,14.78,0,0,1,1.25,4c0,2,.74,3.94.52,6-.17,1.54.18,3.09-.39,4.66-.34.93,0,2.05-.46,3.1s-.5,2.42-1,3.54-1.19,2.28-1.72,3.45a28.08,28.08,0,0,1-1.49,2.45c-.29.48-.6,1,.19,1.34-.29.83-1.34.18-1.7.88-1.17-.33-2,.55-2.91.93a51.47,51.47,0,0,0-9.93,5.69,22.26,22.26,0,0,0-3,2.82,6,6,0,0,1-2.22,1.54l-.88-.47a2.46,2.46,0,0,1-1.56.49c-2.15-.05-4.3,0-6.46,0-.11,0-.22.15-.32.23V520c-.59,0-.35-.48-.52-.73-.81-.66-1.37.54-2.12.29-.17-.43.41-1.11-.44-1.32.13-.73,1.15-.41,1.23-.75C682.79,516.16,681.59,515.77,681.67,514.68Z"/><path class="cls-4" d="M708.39,562.33c-.61,1.94-2.19,3.11-3.49,4.46-.34.42-.81.08-1.23.31-2.67,1.48-5.62,1.28-8.5,1.11a9,9,0,0,1-3.13-.86c-2.57-1.23-4.73-2.9-5.15-6.09a7.5,7.5,0,0,1-.36-2.11h5.63c-.08,1.1.75,1.87,1,2.85,3.19,1.84,4.25,1.77,8.49,1l1.51-1.61v-2c-1.22-2.16-3.51-2.21-5.38-3a22,22,0,0,0-4.73-1.24c-1.44-.24-2.49-1.11-3.78-1.54-.42-.14-.77-.75-1.08-1.25a9.08,9.08,0,0,1-1.22-6.49,6.89,6.89,0,0,1,3.58-4.9,8.59,8.59,0,0,1,4.74-1.3c1.46.06,2.93-.05,4.39,0,3.12.17,5.57,1.42,7,4.37a5.8,5.8,0,0,1,.77,3.88h-4.17c-1.38-1-2-3.08-4-3.65-1.45-.4-2.86,0-4-.24a5.06,5.06,0,0,0-3,3.21c.23.38.52.92.88,1.41,1,1.42,2.75,1.51,4.23,1.95,2.54.77,5.14,1.35,7.64,2.24.71.25,1,1,1.62,1.39,1.55,1,1.81,2.75,2.28,4.32a1.8,1.8,0,0,1-.13,1.68C708.19,561,708.65,561.7,708.39,562.33Z"/><path class="cls-4" d="M730,546.39c-2.8,2.9-4.88,5.76-7.62,8.1L730,567.31h-6.44c-1.22-.93-1.53-2.58-2.35-3.92-1-1.64-1.7-3.52-3.3-4.78-.53-.1-.72.37-1.12.7v8h-5.59v-27c3.35-.58,4.07-.3,5.69,2.31V554c2.39-2.66,4.35-5.36,6.68-7.58Z"/><path class="cls-4" d="M773.34,552.85h-4.47c-.94-.71-1.64-2-3-2.44a11.23,11.23,0,0,0-2.52-.19c-.55.42-1.27.42-1.62,1a2.93,2.93,0,0,0-.11,1.48,8.38,8.38,0,0,0,3.54,1.49c2.08.63,4.27.81,6.2,2,1.4.87,2.46,1.81,2.54,3.54,1,1.13.12,2.33-.11,3.35a4.73,4.73,0,0,1-1.7,2.79,10,10,0,0,1-3.1,1.52,19.6,19.6,0,0,1-7.5.31c-3-.3-6.38-2.57-6-6.94h4.93c.7.36.69,1,.79,1.69a6,6,0,0,0,4.9,1.3c1-.24,2.54-.38,2.48-1.94l-2.07-2c-2-.5-4.46-1-6.85-1.79a6,6,0,0,1-3.67-3.61,5.72,5.72,0,0,1,.68-4.86,6.89,6.89,0,0,1,5.6-3.42,12,12,0,0,1,2.67-.33,16.6,16.6,0,0,1,4.23.9,6.64,6.64,0,0,1,3.73,3.83C773.2,551.25,773.91,552,773.34,552.85Z"/><path class="cls-7" d="M680.79,557a17.58,17.58,0,0,0,0,2.41c.1.77-.37,1.36-.55,2a8.58,8.58,0,0,1-7.2,6.4c-2.46,0-4.94.23-7.14-1.3a8.68,8.68,0,0,1-4.09-6,27.59,27.59,0,0,1-.37-4.43,12.36,12.36,0,0,1,1.51-5.73,6.91,6.91,0,0,1,6-4c.67,0,1.1-.52,1.79-.51a13.35,13.35,0,0,1,5.39,1.3,6.29,6.29,0,0,1,2.93,2.92C680.77,553.31,680.79,553.3,680.79,557Zm-8.67,6.42a5.78,5.78,0,0,0,3.4-5.7c0-1.1,0-2.19,0-3.1a8.78,8.78,0,0,0-2.91-3.9h-2.36a4.58,4.58,0,0,0-3,3c-.41,1.34-.87,2.84-.41,4.16s.26,2.47,1.1,3.83a5.68,5.68,0,0,0,2.27,1.69Z"/><path class="cls-9" d="M713.74,507.21c-.79-.34-.48-.86-.19-1.34a28.08,28.08,0,0,0,1.49-2.45c.53-1.17,1.21-2.28,1.72-3.45s.5-2.42,1-3.54.12-2.17.46-3.1c.57-1.57.22-3.12.39-4.66.22-2-.48-3.95-.52-6a14.78,14.78,0,0,0-1.25-4,30.15,30.15,0,0,0-3.92-7.37,4.24,4.24,0,0,0-.41-.7c-.78-.82-1.44-1.8-2.22-2.56-2.45-2.37-5-4.71-8.18-6.1-2.8-1.21-5.53-2.6-8.6-3.06a1,1,0,0,1-.83-.86l3.52-2.64c-.09.79.32,1.12,1,1.33a37.91,37.91,0,0,1,6.94,2.84c1.72.91,3.19,2.16,4.79,3.22a8.09,8.09,0,0,1,2.6,2.13c1,1.6,2.48,2.68,3.51,4.22s1.85,3.05,2.8,4.55a33.65,33.65,0,0,1,2,4.88,11.33,11.33,0,0,1,.95,4c0,.57.54,1.14.39,1.79s.54,1.1.48,1.8c-.1,1.16,0,2.34,0,3.5s.26,2.11-.25,3.18-.22,2.16-.55,3.27a41.24,41.24,0,0,1-2.25,6.76c-.38.77-.63,1.61-1,2.43.67.33,1.26.1,1.82.17-.29.94-1.09.3-1.63.5C716.49,506.45,715.1,506.8,713.74,507.21Z"/><path class="cls-10" d="M726.92,480c0,.22-.1.54,0,.65,1.94,1.94,2.91,4.5,4.37,6.75,1.6,2.46,3.09,5,4.6,7.52,1,1.69,2,3.4,2.92,5.14.42.8,1.08,1.41,1.46,2.25a1.39,1.39,0,0,1,.11,1.36c-1.5-.35-3-.8-4.46,0-.29.16-.72,0-1.08,0-1,0-2.05-.05-3.07,0A6.65,6.65,0,0,0,729,504c-.92.44-2,.1-3,.18-.56-.08-1.15.15-1.68-.11a3.56,3.56,0,0,1,.83-3.25,4.14,4.14,0,0,1,.47-2.76c.31-.76.14-1.59.44-2.22a6.06,6.06,0,0,0,.38-2.47c.09-1.26-.26-2.55.41-3.77a1.47,1.47,0,0,0,0-1.28c-.76-1.21-.26-2.52-.4-3.77-.06-.57.18-1.3-.1-1.7-.69-1-.19-1.89-.29-2.84Z"/><path class="cls-11" d="M726.92,480h-.82c.1.95-.4,1.86.29,2.84.28.4,0,1.13.1,1.7.14,1.25-.36,2.56.4,3.77a1.47,1.47,0,0,1,0,1.28c-.67,1.22-.32,2.51-.41,3.77a6.06,6.06,0,0,1-.38,2.47c-.3.63-.13,1.46-.44,2.22a4.14,4.14,0,0,0-.47,2.76,3.56,3.56,0,0,0-.83,3.25c.53.26,1.12,0,1.68.11,0,.12-.11.35-.14.35-1.75-.15-3.39.66-5.13.53.11-.56-.19-1.15.15-1.7a23.94,23.94,0,0,0,1.83-4.93,47.55,47.55,0,0,0,1-5.47,44.16,44.16,0,0,0-.43-11.18,42.55,42.55,0,0,0-2.57-7.47,36.13,36.13,0,0,0-7.74-11c-1-1-2.12-1.9-3.19-2.83a24.66,24.66,0,0,0-5.39-3.45,28.56,28.56,0,0,0-5.28-2,1.06,1.06,0,0,1-.83-.87,11.69,11.69,0,0,1,3.52-2.19V453a41.24,41.24,0,0,1,5.73,3,26.27,26.27,0,0,1,5.76,4,7.93,7.93,0,0,0,1.53.95l.16-.38c.47.09.67.45.88.83,2.52,4.37,4.95,8.8,7.61,13.08C724.67,476.36,725.66,478.25,726.92,480Z"/><path class="cls-4" d="M748.08,540.24c2.23-.27,4.28-.26,5.57,2v25.08h-5.57Z"/><path class="cls-4" d="M745.37,567.35h-5.64v-27.1c2.16-.3,4.25-.32,5.64,2.14Z"/><path class="cls-12" d="M698.36,454.05a1.06,1.06,0,0,0,.83.87,28.56,28.56,0,0,1,5.28,2,24.66,24.66,0,0,1,5.39,3.45c1.07.93,2.15,1.86,3.19,2.83a36.13,36.13,0,0,1,7.74,11,42.55,42.55,0,0,1,2.57,7.47,44.16,44.16,0,0,1,.43,11.18,47.55,47.55,0,0,1-1,5.47,23.94,23.94,0,0,1-1.83,4.93c-.34.55,0,1.14-.15,1.7-.21.84-.89.27-1.32.43-.56-.07-1.15.16-1.82-.17.32-.82.57-1.66,1-2.43a41.24,41.24,0,0,0,2.25-6.76c.33-1.11.07-2.28.55-3.27s.17-2.13.25-3.18,0-2.34,0-3.5c.06-.7-.65-1.11-.48-1.8s-.35-1.22-.39-1.79a11.33,11.33,0,0,0-.95-4,33.65,33.65,0,0,0-2-4.88c-1-1.5-1.8-3.06-2.8-4.55s-2.54-2.62-3.51-4.22a8.09,8.09,0,0,0-2.6-2.13c-1.6-1.06-3.07-2.31-4.79-3.22a37.91,37.91,0,0,0-6.94-2.84c-.72-.21-1.13-.54-1-1.33Z"/><path class="cls-13" d="M731.83,546.38c2.34-.22,4.56-.35,5.57,2.46v18.51h-5.57Z"/><path class="cls-14" d="M715.06,460.64l-.16.38a7.93,7.93,0,0,1-1.53-.95,26.27,26.27,0,0,0-5.76-4,41.24,41.24,0,0,0-5.73-3v-1.17c0-.08,0-.2,0-.21,1.93-.72,3.45-2.19,5.4-2.88a1.75,1.75,0,0,0,.5-.37A104.18,104.18,0,0,1,715.06,460.64Z"/><path class="cls-15" d="M684.75,520v-.64c.1-.08.21-.23.32-.23,2.16,0,4.31,0,6.46,0a2.46,2.46,0,0,0,1.56-.49l.88.47c-1.08,1.3-2.18,2.59-3.23,3.91-.82,1-1.58,2.07-2.38,3.12a.76.76,0,0,1-.82-.53,28.78,28.78,0,0,0-2.66-4.8C684.68,520.48,684.8,520.22,684.75,520Z"/><path class="cls-16" d="M668.93,493.59c.78.27.46.79.27,1.26a3.46,3.46,0,0,1-.27.5,2.9,2.9,0,0,0-1.86.78,8.71,8.71,0,0,1-2.91,1.44,11.32,11.32,0,0,0-1.61.85,129.16,129.16,0,0,0-11.86,5.7c-.17.1-.43,0-.65,0a.38.38,0,0,1-.44-.44c1.37-.72,2.71-1.52,4.13-2.12s2.64-1.64,4.06-2.28a14.9,14.9,0,0,0,3.92-2.16c.57-.5,1.49-.58,2.19-1,1.43-.77,2.83-1.6,4.21-2.45C668.4,493.55,668.66,493.65,668.93,493.59Z"/><path class="cls-17" d="M671.13,508.09a1.08,1.08,0,0,1,.88.88,33.4,33.4,0,0,1-6.14,3.11c-1.94.76-3.76,1.82-5.64,2.73-2.37,1.14-4.74,2.26-7.12,3.38a1.24,1.24,0,0,1-.43,0c-.31,0-.46-.13-.44-.43,1.32-.67,2.7-1.24,4-2,3.22-2,6.78-3.37,10-5.39A14.92,14.92,0,0,1,671.13,508.09Z"/><path class="cls-18" d="M737.44,544.5H731.8v-4.37c1.58.18,3.24-.43,4.61.94C737.29,542,737.46,542.39,737.44,544.5Z"/><path class="cls-15" d="M681.67,518.19c.85.21.27.89.44,1.32-1.65.76-3.25,1.61-5,2.24s-3.13,1.82-5,2.27a11.08,11.08,0,0,0-2.86,1.51c-.29.18-.55.08-.82.13s-.45-.13-.44-.44c2.92-1.52,5.85-3,8.76-4.59,1.37-.73,2.71-1.5,4-2.3C681.14,518.15,681.4,518.25,681.67,518.19Z"/><path class="cls-19" d="M652.24,517.76c0,.3.13.45.44.43a12.39,12.39,0,0,1-4.4,2.2c-.3,0-.45-.13-.44-.44Z"/><path class="cls-20" d="M668.05,525.22c0,.31.14.45.44.44-1.57,1.15-2.68,1.63-3.89,1.59.77-.11,1-.89,1.66-1.16A19.7,19.7,0,0,0,668.05,525.22Z"/><path class="cls-21" d="M649.6,503.7a.38.38,0,0,0,.44.44,4.55,4.55,0,0,1-3.24,1.31C647.67,504.41,648.74,504.22,649.6,503.7Z"/><path class="cls-22" d="M647.84,520c0,.31.14.45.44.44a2.18,2.18,0,0,1-2.22.84C646.47,520.39,647.29,520.35,647.84,520Z"/><path class="cls-23" d="M688.42,499.33a11.26,11.26,0,0,1-6.3-2.31,9.43,9.43,0,0,1-3.58-6c-.17-.82-.6-1.67-.34-2.44.42-1.26.25-2.64.86-3.81a13.31,13.31,0,0,1,1.56-2.2c.41-.51,1-.9,1.38-1.41a5.77,5.77,0,0,1,4-2c.66-.08,1.1-.55,1.79-.53a13.71,13.71,0,0,1,5.59,1.34,9,9,0,0,1,3.46,3.18,9.46,9.46,0,0,1,2,5.73,11.71,11.71,0,0,1-1.7,5.65,8.47,8.47,0,0,1-4.62,3.91A17,17,0,0,1,688.42,499.33Z"/></g><g id="duolingo"><path class="cls-24" d="M284.05,0c.57.18,1.15.33,1.7.55a16.94,16.94,0,0,1,4.38,2.9,28.51,28.51,0,0,0,5.94,4,20.22,20.22,0,0,0,7.35,1.81,20.28,20.28,0,0,0,8.74-1,26,26,0,0,0,3-1.5,7.64,7.64,0,0,1,2.91-1,1.94,1.94,0,0,1,2,1.08,7.44,7.44,0,0,1,1,3.41,51.11,51.11,0,0,1-.3,7.32c-.27,2.89-.57,5.77-.84,8.65a8.3,8.3,0,0,0,0,1.41c.08.93.27,1.05,1.16.77a25.82,25.82,0,0,0,3.67-1.67c1.61-.8,3.19-1.67,4.84-2.39a7.77,7.77,0,0,1,1.5-.5,1.52,1.52,0,0,1,2,1.42,15.61,15.61,0,0,1-.44,5,26.22,26.22,0,0,1-2.95,7.38c-.14.08-.11.21-.08.34-.14.18,0,.48-.3.61a1.71,1.71,0,0,0-.58.49,34.84,34.84,0,0,1-4,3.66,29.2,29.2,0,0,1-6.25,3.77c-1.13.47-1.46.32-1.82-.79,0,0,0-.07,0-.11a.36.36,0,0,0-.72,0c-.07.27-.16.53-.23.79a28.41,28.41,0,0,1-2.45,6.75,15.52,15.52,0,0,1-3.95,4.8,16.73,16.73,0,0,1-10.09,3.32,21.94,21.94,0,0,1-5.11-.45,15.71,15.71,0,0,1-9.32-5.52,24.56,24.56,0,0,1-4.33-8.82,27.72,27.72,0,0,0-1.18-3.79c-.11-.23-.2-.5-.54-.43a.63.63,0,0,0-.55.52c-.12.52-.27,1-.4,1.53-.09.35-.28.62-.67.63a4.59,4.59,0,0,1-1.22-.08,19.85,19.85,0,0,1-6.13-3A41.21,41.21,0,0,1,262,35.2a22.69,22.69,0,0,1-3.62-5.08c-.05-.09,0-.36-.26-.24a19,19,0,0,1-.36-8.92c0-.06,0-.12,0-.18.58-2,1.51-2.55,3.53-1.93a29.49,29.49,0,0,1,5.2,2.4c1.81,1,3.58,2,5.48,2.8a7.59,7.59,0,0,0,2.24.65,1.82,1.82,0,0,0,2-1.07,7.83,7.83,0,0,0,.73-3c.19-2.11,0-4.23.11-6.34a40.18,40.18,0,0,1,1.17-8.87,14.87,14.87,0,0,1,.68-1.94A5.51,5.51,0,0,1,282.29,0Zm13.88,33.71a18,18,0,0,0,.34,4.86c.22.83.67,1.33,1.24,1.38a1.79,1.79,0,0,0,1.95-1.07,6.26,6.26,0,0,0,.45-2.09l.25-.24c.33.24.65.49,1,.72.7.49.93.48,1.51-.13A6.93,6.93,0,0,0,306.74,32a2.43,2.43,0,0,1,.35.2,6.49,6.49,0,0,0,5.19,1.58,6.3,6.3,0,0,0,5-3.29,15.06,15.06,0,0,0,1.64-6.81,31.16,31.16,0,0,0-.1-4.21,17.36,17.36,0,0,0-.85-4.64c-.77-2.12-1.95-2.71-4.13-2.15-.2.06-.49.15-.59,0s.25-.32.36-.51.4-.14.31-.35-.35-.12-.53-.08a8.94,8.94,0,0,0-2.36,1c-.48.27-.94.55-1.43.79-.18.09-.46.17-.58-.06s.16-.28.27-.4a2.85,2.85,0,0,1,.33-.25c.1-.08.26-.15.2-.31s-.25-.11-.37-.09a5.24,5.24,0,0,0-1.44.45,12.46,12.46,0,0,1-2.6,1.06,7.73,7.73,0,0,1-4.4-.56,28.11,28.11,0,0,1-3.25-1.62c-.15-.07-.32-.25-.48-.1s0,.36.11.52.24.35.36.53a.85.85,0,0,1,.07.85c-.51-.47-1-.93-1.45-1.34a17.89,17.89,0,0,0-5.22-3.08c-.32-.12-.75-.49-1-.1s.23.61.47.86.31.25.16.44-.33.11-.49,0c-.35-.21-.68-.47-1-.66a5.28,5.28,0,0,0-5.19-.22,5.81,5.81,0,0,0-2.48,3.09A19.16,19.16,0,0,0,280.28,18a28.53,28.53,0,0,0-.1,7.27,10.39,10.39,0,0,0,2.29,5.49c2.69,3.11,6.19,4,10.13,3.22a10.53,10.53,0,0,0,5.3-2.83c0,.08,0,.16,0,.24Z"/><path class="cls-25" d="M240.23,102.7c.2-.1.14-.31.18-.47a7.65,7.65,0,0,1,11.08-5c.14.07.26.19.48.15V92.6c0-.94,0-.94,1-.94.75,0,1.49,0,2.24,0,.33,0,.48,0,.48.44,0,4.13,0,8.26,0,12.39a7.5,7.5,0,0,1-6.71,7.14,7.69,7.69,0,0,1-8.51-5.94c0-.14,0-.33-.17-.41Zm11.65,1.19a3.91,3.91,0,0,0-1-2.79,3.81,3.81,0,0,0-4.21-1.17,3.76,3.76,0,0,0-2.73,3.33c-.29,2.33.76,4.25,2.67,4.85C249.37,109,251.87,107,251.88,103.89Z"/><path class="cls-26" d="M258.07,29.88c.26-.12.21.15.26.24A22.69,22.69,0,0,0,262,35.2a41.21,41.21,0,0,0,7.77,6.61,19.85,19.85,0,0,0,6.13,3,4.59,4.59,0,0,0,1.22.08c.39,0,.58-.28.67-.63.13-.51.28-1,.4-1.53a.63.63,0,0,1,.55-.52c.34-.07.43.2.54.43a27.72,27.72,0,0,1,1.18,3.79,24.56,24.56,0,0,0,4.33,8.82,15.71,15.71,0,0,0,9.32,5.52,21.94,21.94,0,0,0,5.11.45,16.73,16.73,0,0,0,10.09-3.32,15.52,15.52,0,0,0,3.95-4.8,28.41,28.41,0,0,0,2.45-6.75c.07-.26.16-.52.23-.79a.36.36,0,0,1,.72,0s0,.07,0,.11c.36,1.11.69,1.26,1.82.79a29.2,29.2,0,0,0,6.25-3.77,34.84,34.84,0,0,0,4-3.66,1.71,1.71,0,0,1,.58-.49,29.27,29.27,0,0,1-3.89,5,42,42,0,0,1-9.31,7.37,2.89,2.89,0,0,0-1.3,1.5,42.84,42.84,0,0,1-3.75,7.74,19.55,19.55,0,0,1-7.89,7.41,16.09,16.09,0,0,1-8.52,1.35A18.73,18.73,0,0,1,287.82,67a17.58,17.58,0,0,1-7.91-8.38,28.61,28.61,0,0,1-2.15-6.24,2.5,2.5,0,0,0-.91-1.46c-1.88-1.51-3.91-2.79-5.84-4.23a42.35,42.35,0,0,1-8.94-8.59,23.94,23.94,0,0,1-3.91-7.8C258.12,30.19,258.1,30,258.07,29.88Z"/><path class="cls-25" d="M331.75,110.59a7.72,7.72,0,0,1-3.9,1.16,7.52,7.52,0,0,1-7.54-6A7.67,7.67,0,0,1,324.89,97a7.58,7.58,0,0,1,10.43,6.11,17.56,17.56,0,0,1,.05,2.51,75.81,75.81,0,0,1-.09,7.69,7.63,7.63,0,0,1-12.39,4.95c-.29-.23-.3-.36,0-.62.64-.63,1.25-1.29,1.87-2,.16-.18.26-.26.5,0a3.82,3.82,0,0,0,4.18.55,3.88,3.88,0,0,0,2.34-3.58C331.79,111.94,331.75,111.31,331.75,110.59Zm-7.9-6.55a4,4,0,0,0,4.71,4.18,4.07,4.07,0,0,0,3.19-4.54,4,4,0,0,0-5-3.8A4.06,4.06,0,0,0,323.85,104Z"/><path class="cls-25" d="M279.56,111.69A7.71,7.71,0,0,1,279,96.28a8,8,0,0,1,8.13,7.58A7.64,7.64,0,0,1,279.56,111.69ZM275.32,104a4.06,4.06,0,0,0,2.72,4.15,4,4,0,0,0,4.51-1.53,4.76,4.76,0,0,0-.2-5.44,4,4,0,0,0-7,2.82Z"/><path class="cls-25" d="M336.64,104.21a7.72,7.72,0,0,1,15.43-.35,7.78,7.78,0,0,1-7.75,8A7.64,7.64,0,0,1,336.64,104.21Zm11.73.19c0-2.66-1.58-4.44-3.83-4.52a3.92,3.92,0,0,0-3.91,2.68,4.55,4.55,0,0,0,1.46,5.17,3.83,3.83,0,0,0,4.1.27A3.79,3.79,0,0,0,348.37,104.4Z"/><path class="cls-27" d="M297.22,85.07c-2.08,0-3.66,0-5.25,0-2.07,0-4.14-.09-6.2-.24A54.63,54.63,0,0,1,278,83.9a5,5,0,0,1-1.32-.45c-.39-.21-.37-.44,0-.63a8.1,8.1,0,0,1,2.64-.68c2.1-.31,4.21-.48,6.33-.61,1.89-.12,3.79-.14,5.67-.24,3-.17,5.91-.08,8.86-.08,2.3,0,4.61.08,6.9.24a68.52,68.52,0,0,1,7.71.81,6.55,6.55,0,0,1,1.74.5c.17.09.4.14.38.39a.52.52,0,0,1-.38.41,9,9,0,0,1-2.21.56c-2,.28-4.05.52-6.09.62-1.62.08-3.24.13-4.85.24C301.18,85.14,299,85,297.22,85.07Z"/><path class="cls-25" d="M270.21,101.65A32.86,32.86,0,0,1,270,107a5.62,5.62,0,0,1-5.29,4.76,9,9,0,0,1-2.74-.15,5.72,5.72,0,0,1-4.45-5.39c-.29-3.06-.09-6.14-.15-9.21,0-.27.08-.38.37-.38,1,0,2,0,3,0,.45,0,.39.27.39.54,0,2.49,0,5,0,7.46a5.16,5.16,0,0,0,.29,2,2.54,2.54,0,0,0,2.94,1.58,2.49,2.49,0,0,0,2.18-2.34c.07-.81,0-1.63,0-2.45-.05-2.1,0-4.19,0-6.29,0-.41.11-.53.52-.52q1.35,0,2.7,0c.37,0,.47.11.46.47C270.2,98.49,270.21,99.92,270.21,101.65Z"/><path class="cls-25" d="M315.08,106.69c0-1.39,0-2.78,0-4.17a2.63,2.63,0,0,0-3.43-2.63,2.45,2.45,0,0,0-1.85,2,10,10,0,0,0-.16,2.45c0,2.18,0,4.35,0,6.52,0,.54-.15.67-.66.64-.9,0-1.8,0-2.7,0-.25,0-.41,0-.4-.34.09-3.3-.22-6.61.26-9.91a5.56,5.56,0,0,1,5.06-4.77,10.12,10.12,0,0,1,2.52,0,5.74,5.74,0,0,1,4.89,5.18,53.35,53.35,0,0,1,.21,6.69c0,.88,0,1.76,0,2.64,0,.35-.09.48-.46.47q-1.38,0-2.76,0c-.42,0-.48-.17-.47-.52,0-1.43,0-2.86,0-4.29Z"/><path class="cls-25" d="M292.4,98.71c0,2.18,0,4.35,0,6.52a3.17,3.17,0,0,0,.46,1.8,2.48,2.48,0,0,0,2.12,1.06c.82,0,1.64,0,2.46,0,.37,0,.52.07.51.48,0,.86,0,1.72,0,2.58,0,.24,0,.42-.33.4a30.4,30.4,0,0,1-4.05-.12,5.6,5.6,0,0,1-4.69-5.08,39.28,39.28,0,0,1-.2-4.34c0-3.23,0-6.46,0-9.69,0-.56.18-.69.69-.66a18.43,18.43,0,0,0,2.35,0c.6-.05.7.17.69.72,0,2.11,0,4.23,0,6.34Z"/><path class="cls-25" d="M299.85,104.35c0-2.17,0-4.34,0-6.51,0-.47.14-.59.59-.58.9,0,1.8,0,2.7,0,.34,0,.47.06.47.44q0,6.66,0,13.32c0,.36-.1.48-.46.47-.94,0-1.88,0-2.82,0-.42,0-.48-.16-.48-.51Q299.86,107.68,299.85,104.35Z"/><path class="cls-28" d="M293.74,76.29a4.07,4.07,0,0,1-1.55-.25,2.22,2.22,0,0,1-1.06-3.61,3.42,3.42,0,0,1,2-1.33,6.62,6.62,0,0,1,3.13,0,2.3,2.3,0,0,1,1.86,2.21,2.22,2.22,0,0,1-1.4,2.29A7.35,7.35,0,0,1,293.74,76.29Z"/><path class="cls-28" d="M306.7,71.92c-2,0-2.65-1-1.79-2.8a4.1,4.1,0,0,1,3.18-2.57,2,2,0,0,1,2.31,1.36,2.62,2.62,0,0,1-1.9,3.76A6.11,6.11,0,0,1,306.7,71.92Z"/><path class="cls-25" d="M301.63,95.9a1.94,1.94,0,0,1-2-2,2,2,0,0,1,2-2,2,2,0,0,1,0,3.93Z"/><path class="cls-29" d="M329.62,37.94c0-.13-.06-.26.08-.34l.21,0Z"/><path class="cls-30" d="M297.9,31.14A10.53,10.53,0,0,1,292.6,34c-3.94.76-7.44-.11-10.13-3.22a10.39,10.39,0,0,1-2.29-5.49,28.53,28.53,0,0,1,.1-7.27,19.16,19.16,0,0,1,1.32-5.49,5.81,5.81,0,0,1,2.48-3.09,5.28,5.28,0,0,1,5.19.22c.36.19.69.45,1,.66.16.08.38.12.49,0s0-.32-.16-.44-.65-.58-.47-.86.68,0,1,.1a17.89,17.89,0,0,1,5.22,3.08c.49.41.94.87,1.45,1.34a.85.85,0,0,0-.07-.85c-.12-.18-.26-.35-.36-.53s-.3-.34-.11-.52.33,0,.48.1A28.11,28.11,0,0,0,301,13.3a7.73,7.73,0,0,0,4.4.56A12.46,12.46,0,0,0,308,12.8a5.24,5.24,0,0,1,1.44-.45c.12,0,.3-.07.37.09s-.1.23-.2.31a2.85,2.85,0,0,0-.33.25c-.11.12-.36.23-.27.4s.4.15.58.06c.49-.24.95-.52,1.43-.79a8.94,8.94,0,0,1,2.36-1c.18,0,.44-.13.53.08s-.23.22-.31.35-.53.21-.36.51.39.1.59,0c2.18-.56,3.36,0,4.13,2.15a17.36,17.36,0,0,1,.85,4.64,31.16,31.16,0,0,1,.1,4.21,15.06,15.06,0,0,1-1.64,6.81,6.3,6.3,0,0,1-5,3.29,6.49,6.49,0,0,1-5.19-1.58,2.43,2.43,0,0,0-.35-.2,5.78,5.78,0,0,1-.12-.57c-.41-2.16-2.18-4.56-5.14-3.91C299.67,27.88,297.88,29.13,297.9,31.14ZM296,23.65a8.64,8.64,0,0,0-2.22-6.12,5.44,5.44,0,0,0-7.65-.57c-3.71,3.1-3.78,9.73-.14,12.91a5.39,5.39,0,0,0,7.49-.16A8.29,8.29,0,0,0,296,23.65Zm10.29.27a7.84,7.84,0,0,0,1.47,5,4.15,4.15,0,0,0,6.52.51,6.81,6.81,0,0,0,1.84-3.09c.79-2.83.61-5.52-1.4-7.83a4,4,0,0,0-5.55-.58A7.46,7.46,0,0,0,306.25,23.92Z"/><path class="cls-31" d="M297.9,31.14c0-2,1.77-3.26,3.58-3.66,3-.65,4.73,1.75,5.14,3.91a5.78,5.78,0,0,0,.12.57,6.93,6.93,0,0,1-2.08,5.18c-.58.61-.81.62-1.51.13-.34-.23-.66-.48-1-.72-.11-.11-.2-.23-.32-.33a14.66,14.66,0,0,1-3.9-4.84Zm4.5-.82a1.58,1.58,0,0,0,1-.27.74.74,0,0,0,.05-1.27,2,2,0,0,0-2.19-.14.71.71,0,0,0-.13,1.19A1.75,1.75,0,0,0,302.4,30.32Z"/><path class="cls-26" d="M301.91,36.79a6.26,6.26,0,0,1-.45,2.09A1.79,1.79,0,0,1,299.51,40c-.57-.05-1-.55-1.24-1.38a18,18,0,0,1-.34-4.86,15.26,15.26,0,0,0,.48,2.08,2.1,2.1,0,0,0,3,1.23Z"/><path class="cls-32" d="M301.91,36.79l-.47.23a2.1,2.1,0,0,1-3-1.23,15.26,15.26,0,0,1-.48-2.08c0-.78,0-1.56,0-2.33a14.66,14.66,0,0,0,3.9,4.84c.12.1.21.22.32.33Z"/><path class="cls-33" d="M251.88,103.89c0,3.13-2.51,5.07-5.25,4.22-1.91-.6-3-2.52-2.67-4.85a3.76,3.76,0,0,1,2.73-3.33,3.81,3.81,0,0,1,4.21,1.17A3.91,3.91,0,0,1,251.88,103.89Z"/><path class="cls-33" d="M323.85,104a4.06,4.06,0,0,1,2.87-4.16,4,4,0,0,1,5,3.8,4.07,4.07,0,0,1-3.19,4.54A4,4,0,0,1,323.85,104Z"/><path class="cls-33" d="M275.32,104a4,4,0,0,1,7-2.82,4.76,4.76,0,0,1,.2,5.44,4,4,0,0,1-4.51,1.53A4.06,4.06,0,0,1,275.32,104Z"/><path class="cls-33" d="M348.37,104.4a3.79,3.79,0,0,1-2.18,3.6,3.83,3.83,0,0,1-4.1-.27,4.55,4.55,0,0,1-1.46-5.17,3.92,3.92,0,0,1,3.91-2.68C346.79,100,348.38,101.74,348.37,104.4Z"/><path class="cls-33" d="M296,23.65a8.29,8.29,0,0,1-2.52,6.06,5.39,5.39,0,0,1-7.49.16c-3.64-3.18-3.57-9.81.14-12.91a5.44,5.44,0,0,1,7.65.57A8.64,8.64,0,0,1,296,23.65ZM293,23.49A4.76,4.76,0,0,0,291.68,20a2.74,2.74,0,0,0-2.95-.74c-.19.06-.38.09-.24.39A1.7,1.7,0,0,1,286.72,22a.3.3,0,0,0-.4.28,5,5,0,0,0,1.17,4.64,2.8,2.8,0,0,0,4.29,0A4.77,4.77,0,0,0,293,23.49Z"/><path class="cls-33" d="M306.25,23.92a7.46,7.46,0,0,1,2.88-6,4,4,0,0,1,5.55.58c2,2.31,2.19,5,1.4,7.83a6.81,6.81,0,0,1-1.84,3.09,4.15,4.15,0,0,1-6.52-.51A7.84,7.84,0,0,1,306.25,23.92Zm2-.7a4.59,4.59,0,0,0,.72,3.61,2.34,2.34,0,0,0,3.45.5,4.76,4.76,0,0,0,.65-6.4,2.31,2.31,0,0,0-2.59-.73c-.31.12-.43.2-.19.56a1.87,1.87,0,0,1-.09,2.19C309.79,23.5,309.24,23.58,308.29,23.22Z"/><path class="cls-34" d="M302.4,30.32a1.75,1.75,0,0,1-1.27-.49.71.71,0,0,1,.13-1.19,2,2,0,0,1,2.19.14.74.74,0,0,1-.05,1.27A1.58,1.58,0,0,1,302.4,30.32Z"/><path class="cls-35" d="M293,23.49a4.77,4.77,0,0,1-1.25,3.38,2.8,2.8,0,0,1-4.29,0,5,5,0,0,1-1.17-4.64.3.3,0,0,1,.4-.28,1.7,1.7,0,0,0,1.77-2.35c-.14-.3.05-.33.24-.39a2.74,2.74,0,0,1,2.95.74A4.76,4.76,0,0,1,293,23.49Z"/><path class="cls-35" d="M308.29,23.22c.95.36,1.5.28,1.95-.27a1.87,1.87,0,0,0,.09-2.19c-.24-.36-.12-.44.19-.56a2.31,2.31,0,0,1,2.59.73,4.76,4.76,0,0,1-.65,6.4,2.34,2.34,0,0,1-3.45-.5A4.59,4.59,0,0,1,308.29,23.22Z"/></g><g id="shaacademy"><path class="cls-36" d="M181.42,222.27c-.11.19-.24.37-.34.57q-4.05,8.85-8.1,17.71c-.22.48-.46.88-1.14.66.67-1.44,1.29-2.9,2-4.3a2.16,2.16,0,0,0,0-2.16c-1.9-4-3.73-8-5.58-12.06-.08-.17-.15-.35-.23-.53a.82.82,0,0,1,1.12.55c1.81,4,3.65,8,5.48,12,0,.05.08.08.12.13,1.8-4,3.62-7.92,5.39-11.89.27-.58.55-1,1.24-1Z"/><path class="cls-37" d="M147.13,224.46c.54-.5,1.1-1.06,1.72-1.55,2.76-2.18,6.08-1,6.84,2.37a11.42,11.42,0,0,1,1.18-1.86,4.77,4.77,0,0,1,5.3-1.26,4.14,4.14,0,0,1,2.84,4c.13,1.32.08,2.65.08,4,0,1.81,0,3.62,0,5.44,0,.26.19.64-.38.65s-.39-.35-.39-.62c0-2.81,0-5.62,0-8.43a7.46,7.46,0,0,0-.38-2.35c-.87-2.49-3.58-2.72-5.3-2a4.3,4.3,0,0,0-2.55,4.3c0,2.84,0,5.69,0,8.54,0,.34,0,.54-.46.52s-.32-.32-.32-.54c0-2.79,0-5.58,0-8.37a10.32,10.32,0,0,0-.2-1.91c-.53-2.63-2.71-3.36-4.84-2.66a5.69,5.69,0,0,0-2.94,2.55,1.45,1.45,0,0,0-.13.73q0,4.83,0,9.65c0,.38-.06.63-.49.52-.12,0-.21-.19-.31-.29s0-.08,0-.12V222.53c0-.39.25-.57.51-.37a.6.6,0,0,1,.16.4C147.07,223.24,147.1,223.91,147.13,224.46Z"/><path class="cls-36" d="M136.34,228.27c-1.72,0-3.43,0-5.15,0-.37,0-.54.08-.49.48a23.88,23.88,0,0,0,.36,2.82,5.24,5.24,0,0,0,5.06,4.17,7.39,7.39,0,0,0,4.86-1.34c.1-.06.2-.17.3-.17a1.52,1.52,0,0,1,.4.12c0,.11,0,.26-.12.33a4.38,4.38,0,0,1-.7.52,8.32,8.32,0,0,1-6.09.94,5.67,5.67,0,0,1-4.41-4.21,8.77,8.77,0,0,1,.67-7.28c1.76-3,6.37-3.59,8.92-1.67a5.92,5.92,0,0,1,2.23,4.93c0,.43-.31.37-.57.37Zm-5.55-.49h10.34c.38,0,.35-.2.33-.44-.28-3.66-3-5.44-6.36-4.75C132.56,223.11,131,225,130.79,227.78Z"/><path class="cls-37" d="M124.75,224.1V216c0-.23-.11-.51.33-.51s.49.09.49.48q0,9.87,0,19.73c0,.15-.14.41-.25.43-.31.06-.44-.15-.44-.46a19.3,19.3,0,0,0-.06-2.15,8.35,8.35,0,0,1-3.41,2.46c-2.7.88-6.72.26-7.59-4.19a11.87,11.87,0,0,1,.07-5.27,6.1,6.1,0,0,1,6.37-4.68A5.65,5.65,0,0,1,124.75,224.1Zm0,4.73c0-1.16,0-2.31,0-3.46a1.6,1.6,0,0,0-.29-.84,5.28,5.28,0,0,0-5.52-2,5.1,5.1,0,0,0-4.23,4,10.56,10.56,0,0,0,0,5.66,4.27,4.27,0,0,0,3.33,3.32c2.7.6,4.78-.36,6.55-2.68a1.08,1.08,0,0,0,.13-.6C124.76,231.13,124.76,230,124.76,228.83Z"/><path class="cls-37" d="M108.55,233.8a8.65,8.65,0,0,1-3.36,2.23,6.31,6.31,0,0,1-4.07.07,3.17,3.17,0,0,1-2.19-2.9,3,3,0,0,1,1.59-3,11.45,11.45,0,0,1,4.78-1.4c.94-.12,1.9-.14,2.85-.24.15,0,.39-.21.39-.31a21.76,21.76,0,0,0-.22-3.13,3.27,3.27,0,0,0-3.25-2.67,5.92,5.92,0,0,0-4.38,1.58,1.27,1.27,0,0,1-.48.32c-.1,0-.28,0-.38-.14s0-.25,0-.32a6.52,6.52,0,0,1,7.29-1.52,4,4,0,0,1,2.11,3.79c.07,2.92,0,5.85,0,8.77a6.42,6.42,0,0,1,0,.76,2,2,0,0,1-.2.45c-.14-.16-.36-.3-.39-.47C108.63,235.12,108.61,234.52,108.55,233.8Zm0-2.57c0-.57,0-1.13,0-1.7,0-.3-.09-.41-.4-.38-.8.06-1.6.06-2.4.16a11.68,11.68,0,0,0-4.48,1.18,2.62,2.62,0,0,0-1.56,2.86,2.8,2.8,0,0,0,2.45,2.4,6.69,6.69,0,0,0,5.28-1.53,2.26,2.26,0,0,0,1.11-2.35A3.39,3.39,0,0,1,108.54,231.23Z"/><path class="cls-36" d="M92,221.88a6.09,6.09,0,0,1,3.6,1.19c.14.1.32.39.27.48-.16.32-.42.16-.63,0a6,6,0,0,0-5.08-.89c-2.4.58-3.6,2.3-4.05,4.63a10,10,0,0,0,.14,4.35c1,3.75,4.36,4.75,7.37,3.77a14.06,14.06,0,0,0,1.83-1,2.68,2.68,0,0,1,.65-.15c-.09.2-.13.46-.28.59a6.72,6.72,0,0,1-5.21,1.41,5.62,5.62,0,0,1-5.12-4.5,10,10,0,0,1-.08-5C86.17,223.68,88.49,221.88,92,221.88Z"/><path class="cls-36" d="M80.2,233.83c-.46.38-.82.73-1.22,1a6.75,6.75,0,0,1-5.83,1.35,3.14,3.14,0,0,1-2.57-2.89,3,3,0,0,1,1.68-3.14,11.52,11.52,0,0,1,4.62-1.34c1-.12,1.94-.16,2.91-.23.22,0,.43,0,.41-.32a29.23,29.23,0,0,0-.2-3,3.28,3.28,0,0,0-3.35-2.83,5.82,5.82,0,0,0-4.32,1.58,1.35,1.35,0,0,1-.48.32c-.1,0-.28,0-.38-.14a.39.39,0,0,1,0-.32,6.57,6.57,0,0,1,7-1.66,3.93,3.93,0,0,1,2.41,3.88c.09,3.23,0,6.47,0,9.71,0,.11-.12.22-.19.33-.14-.14-.37-.25-.39-.4C80.28,235.17,80.25,234.55,80.2,233.83Zm0-2.6c0-.57,0-1.13,0-1.7,0-.3-.08-.41-.4-.38-.8.07-1.6.06-2.4.16a11.68,11.68,0,0,0-4.48,1.18,2.6,2.6,0,0,0-1.56,2.86,2.82,2.82,0,0,0,2.45,2.4,6.68,6.68,0,0,0,5.33-1.56,2.18,2.18,0,0,0,1.06-2.26A3.28,3.28,0,0,1,80.19,231.23Z"/><path class="cls-38" d="M52.41,232.53l1.38-4.14c.62-1.9,1.24-3.81,1.87-5.71a1.51,1.51,0,0,1,1.55-1.24c.74,0,1.2.38,1.49,1.24q1.57,4.74,3.16,9.47l.19.55c.42-1.43.82-2.76,1.22-4.1.62-2.06,1.23-4.13,1.85-6.2a1.3,1.3,0,0,1,1.69-.92,1.27,1.27,0,0,1,.81,1.68q-1.87,6-3.77,12a1.67,1.67,0,0,1-1.67,1.2,1.69,1.69,0,0,1-1.72-1.23q-1.53-4.72-3-9.44c-.05-.17-.11-.34-.21-.64-.11.29-.19.46-.25.65q-1.53,4.7-3,9.38a1.8,1.8,0,0,1-3.43,0q-1.87-5.93-3.74-11.85a1.3,1.3,0,0,1,.79-1.75,1.37,1.37,0,0,1,1.73,1c.92,3,1.83,6.11,2.75,9.16l.27.89Z"/><path class="cls-38" d="M17.93,223.58a7.7,7.7,0,0,1,3.68-2.17,6.59,6.59,0,0,1,3.47.1,3.72,3.72,0,0,1,2.69,3.77c.05,3.25,0,6.51,0,9.77a1.35,1.35,0,0,1-2.69-.05v-8.08c0-.19,0-.39,0-.58a2.58,2.58,0,0,0-2.7-2.69,5.1,5.1,0,0,0-4,1.54,1.35,1.35,0,0,0-.46,1.07q0,4.28,0,8.55a1.37,1.37,0,0,1-1.28,1.52,1.28,1.28,0,0,1-1.41-1.3V217.17a1.32,1.32,0,0,1,1.37-1.31,1.36,1.36,0,0,1,1.32,1.37c0,1.86,0,3.71,0,5.56Z"/><path class="cls-38" d="M41.13,228.82c0-1,0-1.91,0-2.8a3,3,0,0,0-2.79-2.47,6.08,6.08,0,0,0-4.4,1.18,1.1,1.1,0,0,1-1.53-.13,1,1,0,0,1,.16-1.5,7,7,0,0,1,3.65-1.71,8.57,8.57,0,0,1,4.93.43,4.1,4.1,0,0,1,2.66,3.86c.09,3.12,0,6.25,0,9.37a1.28,1.28,0,0,1-1.26,1.27,1.31,1.31,0,0,1-1.42-1.11,4.34,4.34,0,0,1,0-.63l-.53.46c-2.17,1.93-5.94,2-7.89.11a4.71,4.71,0,0,1-1.29-4.78,4.22,4.22,0,0,1,3.45-3.27A6.31,6.31,0,0,1,41.13,228.82Zm.11,3c-.1-1.45-.08-1.49-.76-2a4.83,4.83,0,0,0-4.7-.67,2.78,2.78,0,0,0,.32,5.31,7,7,0,0,0,2.19.12,3.49,3.49,0,0,0,2.58-1.32A4.13,4.13,0,0,0,41.24,231.78Z"/><path class="cls-38" d="M5.83,221.22a7.61,7.61,0,0,1,4.8,1.54c.36.3.68.7.43,1.16a1.75,1.75,0,0,1-.87.74c-.22.08-.59-.11-.84-.26a6.21,6.21,0,0,0-4.82-.83,3.11,3.11,0,0,0-.8.34,1.64,1.64,0,0,0-.88,1.6A1.41,1.41,0,0,0,4,226.74c1.4.45,2.83.84,4.24,1.27a8.41,8.41,0,0,1,1.47.56,4,4,0,0,1,.73,6.53A6.35,6.35,0,0,1,6,236.54a8.51,8.51,0,0,1-3.76-.7,9.06,9.06,0,0,1-1.68-1,1,1,0,0,1-.28-1.53A1.2,1.2,0,0,1,1.9,233a6,6,0,0,0,2.93,1.22,12.84,12.84,0,0,0,2.77-.14,2,2,0,0,0,.91-.5,1.66,1.66,0,0,0-.41-2.91c-1.09-.44-2.27-.68-3.39-1.06a13.94,13.94,0,0,1-2.86-1.12,3.64,3.64,0,0,1-.67-5.5A5.87,5.87,0,0,1,5.83,221.22Z"/><path class="cls-39" d="M90.61,204.16c-21.46.82-41.7-18.4-41.43-41.48C49.45,140,68,121.08,90.84,121.27s41.52,18.44,41.4,42.44C132.14,185.25,112.64,205.08,90.61,204.16Z"/><path class="cls-40" d="M90.39,196.73a33.49,33.49,0,0,1-33.71-33.91,34.16,34.16,0,0,1,34.15-34.13c18.91,0,33.79,15.47,33.94,34.79C124.91,181.14,109.12,197.59,90.39,196.73Z"/><path class="cls-38" d="M90.39,189.24a26.52,26.52,0,0,1-26.2-26.83c.09-14,12.58-26.31,26.65-26.21,14.35.1,26.43,12.4,26.4,26.89S105.16,189.3,90.39,189.24Z"/><path class="cls-41" d="M90.7,174.18a12.11,12.11,0,0,1-6.92-2.37c-.84-.66-1.27-1.48-.49-2.47s1.46-.63,2.19-.15a9.72,9.72,0,0,0,7,1.77c1.62-.26,2.89-1,3.21-2.74.34-1.88-.88-2.8-2.41-3.33-1.69-.58-3.44-1-5.13-1.55-2.9-1-5.27-2.53-5-6.15s2.62-4.92,5.66-5.65a10.79,10.79,0,0,1,8.29,1.56c.9.54,1.46,1.4.77,2.41-.56.83-1.45.64-2.21.2a8.93,8.93,0,0,0-6.34-1.25,3,3,0,0,0-2.77,2.66c-.15,1.53,1,2.18,2.2,2.62,1.42.52,2.88.91,4.33,1.36,4.94,1.56,6.59,3.6,6,7.45C98.62,172,95.64,174.09,90.7,174.18Z"/></g></g></g></g></svg>