<svg xmlns="http://www.w3.org/2000/svg" viewBox="0 0 402.12 401.75"><defs><style>.cls-1{fill:#c69c6d;}.cls-1,.cls-10,.cls-2,.cls-3,.cls-4,.cls-5,.cls-6,.cls-7,.cls-8,.cls-9{stroke:#f2f2f2;stroke-miterlimit:10;stroke-width:2.12px;}.cls-2{fill:#333;}.cls-3{fill:#fbb03b;}.cls-4{fill:#e20303;}.cls-5{fill:#5b92d9;}.cls-6{fill:#867b68;}.cls-7{fill:#662d91;}.cls-8{fill:#a7bf4e;}.cls-9{fill:#f20746;}.cls-10{fill:#f15a24;}</style></defs><title>Industry Sector Pie Chart</title><g id="Layer_2" data-name="Layer 2"><g id="Industry_Chart" data-name="Industry Chart"><path id="Social_Care" data-name="Social Care" class="cls-1" d="M113.51,21.18A200,200,0,0,1,201.14,1.06l-.24,199.8Z"/><path id="Logistics" class="cls-2" d="M47.18,73.36a199.74,199.74,0,0,1,66.34-52.13L201,200.86Z"/><path id="Recruitment" class="cls-3" d="M27.54,101.42A199.21,199.21,0,0,1,46.89,73.51L200.81,200.89Z"/><path id="Retail" class="cls-4" d="M13.33,131.64A200.3,200.3,0,0,1,27.78,100.9L200.72,201Z"/><path id="Insurance" class="cls-5" d="M114.08,380.81A199.8,199.8,0,0,1,13.47,131.64L200.9,200.86Z"/><path id="Beauty" class="cls-6" d="M207.45,400.59a199.87,199.87,0,0,1-93.33-19.84l87-179.86Z"/><path id="Tourism" class="cls-7" d="M371.86,304.65a199.77,199.77,0,0,1-164.37,95.93l-6.37-199.69Z"/><path id="Software" class="cls-8" d="M394.8,151.42a199.82,199.82,0,0,1-22.51,152.91L201.26,201Z"/><path id="Design" class="cls-9" d="M319.7,40.92a199.77,199.77,0,0,1,74.53,110.65L200.76,201.45Z"/><path id="Studies" class="cls-10" d="M200.86,1.21a199.76,199.76,0,0,1,119,39.44L200.68,201Z"/></g></g></svg>