<svg xmlns="http://www.w3.org/2000/svg" viewBox="0 0 594.71 635.15"><defs><style>.cls-1{fill:#720321;stroke-width:0.89px;}.cls-1,.cls-2,.cls-3{stroke:#fafaf5;}.cls-1,.cls-2,.cls-28,.cls-29,.cls-3{stroke-miterlimit:10;}.cls-2{fill:#fd5381;}.cls-2,.cls-3{stroke-width:0.9px;}.cls-3{fill:#f20746;}.cls-4{fill:#ec5353;}.cls-5{fill:#655c54;}.cls-6{fill:#665d55;}.cls-7{fill:#655d55;}.cls-8{fill:#666;}.cls-9{fill:#fee066;}.cls-10{fill:#fed947;}.cls-11{fill:#fecb00;}.cls-12{fill:#fed42d;}.cls-13{fill:#fed324;}.cls-14{fill:#fecb01;}.cls-15{fill:#fecf12;}.cls-16{fill:#fed016;}.cls-17{fill:#676767;}.cls-18{fill:#fecc04;}.cls-19{fill:#fed327;}.cls-20{fill:#fed73c;}.cls-21{fill:#fed52e;}.cls-22{fill:#6a6a6a;}.cls-23{fill:#fee374;}.cls-24{fill:#fee993;}.cls-25{fill:#fee994;}.cls-26{fill:#feeda7;}.cls-27{fill:#fee583;}.cls-28{fill:#010101;}.cls-28,.cls-29{stroke:#000;stroke-width:0.7px;opacity:0.9;}.cls-30{fill:#4fa3cd;}.cls-31{fill:#dbecf4;}.cls-32{fill:#94c7e0;}.cls-33{fill:#fafcfd;}</style></defs><title>study-pie-design</title><g id="Layer_2" data-name="Layer 2"><g id="Study_Pies" data-name="Study Pies"><g id="study-pie-design"><g id="pie"><path id="Adobe_Illustrator_Basic" data-name="Adobe Illustrator Basic" class="cls-1" d="M344.26,381.91,307.81,134.54a250.18,250.18,0,0,1,36.34-2.64Z"/><path id="Smartphone_Photography" data-name="Smartphone Photography" class="cls-2" d="M307.46,134.63l36.8,247.28L129.84,253.35A249.46,249.46,0,0,1,307.46,134.63Z"/><path id="Advanced_Graphic_Design" data-name="Advanced Graphic Design" class="cls-2" d="M590.06,427.72C568.55,543.9,466.67,631.9,344.26,631.9c-110.3,0-203.93-71.44-237.12-170.56l237.12-79.43Z"/><path id="Foundation_Graphic_Design" data-name="Foundation Graphic Design" class="cls-2" d="M344.26,381.91,107.14,461.34a250.59,250.59,0,0,1,22.91-208.41Z"/><path id="Foundation_Web_Design" data-name="Foundation Web Design" class="cls-2" d="M594.25,381.91a251.4,251.4,0,0,1-4.19,45.81l-245.8-45.81L535,220.36A248.91,248.91,0,0,1,594.25,381.91Z"/><path id="UX_Web_Design" data-name="UX &amp; Web Design" class="cls-3" d="M535,220.36,344.26,381.91v-250A249.4,249.4,0,0,1,535,220.36Z"/></g><g id="udemy"><path class="cls-4" d="M556.27,81.28c-2,5.62-5.26,10.07-10.9,12.61-9.73,4.39-19.22,1.39-22.46-7.29a30.53,30.53,0,0,1-1.87-9c-.17-2.78-.27-5.56-.41-8.49-1.2.53-1.26,1.66-1.65,2.5-4.28,9.18-8.75,18.25-15.11,26.23a35.84,35.84,0,0,1-9.86,9c-11.48,6.66-23.36.94-25.45-12.17a63.42,63.42,0,0,1-.47-10.57C469,79.54,469.88,75,470.86,70c-3.24,2.2-6.23,3.6-9.78,3a5.76,5.76,0,0,1-4.73-4.53c-.39-1.35-.42-2.59,1-3.65,10.36-7.49,17.36-17.66,22.62-29.11,1.5-3.26,3.24-6.18,6.44-8h4.47c3.76,1.88,5,5.12,5.13,9.1a43.54,43.54,0,0,1-1.89,12.89c-2.66,9.84-5.43,19.66-6.87,29.78-.52,3.68-.91,7.41.17,11,.89,3,3.2,3.59,5.53,1.62a13.13,13.13,0,0,0,1.52-1.64C501,82.73,506,74.08,510.58,65.15q5.54-10.76,11-21.53a6.71,6.71,0,0,1,6.45-4,7,7,0,0,1,6.45,4.54,19.25,19.25,0,0,1,1.66,6.7c.57,8.52.19,17.09,1.07,25.6.6,5.73,3.41,7.06,8.23,3.82a43.16,43.16,0,0,0,6.42-5.33c1.36-1.39,2.38-1.1,3.36.34.35.51.68,1.05,1,1.58Z"/><path class="cls-5" d="M511.5,136.35c0-1.49,0-3,0-4.46,0-2.35.91-3,3-2a2.15,2.15,0,0,0,2.21.07,5.08,5.08,0,0,1,5.76.43c1,.77,1.46.17,2.18-.18,4.57-2.25,7.94-.22,8.11,4.89.07,1.85,0,3.71,0,5.57,0,1.5.3,2.84-2.12,2.8-2.19,0-2.39-1-2.29-2.69s0-3.53,0-5.3c0-1.42-.9-2-2.17-2s-2,.62-1.89,2.07c.1,2-.07,4.09,0,6.13s-1.23,1.62-2.39,1.68-2.19,0-2-1.7c.15-1.94,0-3.9,0-5.85,0-1.46-.64-2.29-2.14-2.32s-2.11.73-2,2.25c.09,1.76-.08,3.54.05,5.29s-.47,2.38-2.33,2.4-2.12-.85-2-2.36S511.5,137.93,511.5,136.35Z"/><path class="cls-5" d="M479.84,132c0,1.58.06,3.17,0,4.74-.21,4.4-2.59,6.72-7.07,7-5.51.33-8.4-1.45-8.91-6.11-.4-3.68-.15-7.42-.18-11.14,0-1.87,1.44-1.3,2.43-1.39s2.08-.18,2.05,1.45c-.06,2.88-.06,5.77,0,8.65.06,3,1.08,4.15,3.63,4.16s3.54-1,3.6-4.11c0-2.42.05-4.84,0-7.26,0-1.68-.14-3,2.34-3s2.2,1.29,2.16,2.84c0,1.39,0,2.79,0,4.18Z"/><path class="cls-6" d="M495.31,133.51c0,2.69-.08,5.39,0,8.07.07,1.59-.76,2.21-2,1.71-1.56-.67-2.79,0-4.18.28a6.13,6.13,0,0,1-7.77-5.46c-.63-5.09,1.93-8.85,6.47-8.69,2.86.09,3.55-.85,3.12-3.35-.32-1.83.67-2.15,2.25-2.14s2.15.45,2.08,2.07C495.23,128.5,495.31,131,495.31,133.51Zm-4.3,2.77c-.06-1.48.59-3.35-2-3.29-2.44,0-3.23,1.49-3.2,3.63,0,1.9.78,3.2,2.92,3.3C491.64,140.07,490.94,137.93,491,136.28Z"/><path class="cls-6" d="M540.59,147.67l-4.33,0c2.09-3.34,1.64-6.57-.15-9.93-1.29-2.43-2.17-5.08-3.24-7.65,4-1.16,4.35-1,5.64,2.72.58,1.66,1.17,3.32,1.83,5.18a21.08,21.08,0,0,0,2.4-6.49c.63-2.52,2.39-2,3.94-1.8,1.21.14.55,1,.29,1.71Q543.78,139.51,540.59,147.67Z"/><path class="cls-7" d="M509.14,139.19c.39,3.17-1.26,4.16-3.83,4.45-3.63.41-6.71-1.08-7.83-3.92-2.13-5.43.82-10.43,6.15-10.41a6.06,6.06,0,0,1,6.31,6.32c0,1.2-.31,1.66-1.54,1.61-1.67-.08-3.34-.07-5,0-.63,0-1.68-.49-1.8.65-.09.91.63,1.51,1.42,1.88C504.19,140.34,506.25,140.14,509.14,139.19Zm-5.38-3.85c.78-.41,2.27.62,2.43-.88.1-1-.86-1.78-2.06-1.83s-2.4.52-2.49,1.72C501.51,135.91,503,135,503.76,135.34Z"/></g><g id="goskills"><path class="cls-8" d="M351,71.09a58.07,58.07,0,0,0-7.13-1.79c-1.78-.29-3.51-.92-5.36-.82-1.43-1-3.13-.26-4.72-.78s-3.19-.1-4.8-.1-3.37,0-5.05,0c-.89,0-1.72.66-2.67.42s-1.9.62-2.89.42-1.72.69-2.68.46c-.64.83-1.86,0-2.49.88-4.5.57-8.21,3.16-12.27,4.83-1.44,1.45-3.49,2.08-4.89,3.58-.49.52-1.42.42-1.68,1.73A44.56,44.56,0,0,1,293.21,75,38.41,38.41,0,0,1,303,67a43,43,0,0,1,8.77-4.24c2.12-.73,4.27-1.38,6.46-1.93,1.66-.43,3.34-.82,5-1.09.76-.13,1.41-.62,2.23-.53a5.51,5.51,0,0,0,2.18,0c2.78-.81,5.6-.25,8.4-.39,1.6-.08,3.22,0,4.83,0a5.39,5.39,0,0,1,2.92.39c.42.25,1.12,0,1.82,0-1.43-2.41-2.76-4.68-4.12-6.94-1.17-1.93-2.38-3.85-3.57-5.77-.65-1-1.13-2.17-1.82-3.21-1.66-2.5-3.05-5.18-4.59-7.75s-3.14-5-4.6-7.55c-1-1.84-2.2-3.62-3.26-5.45-1.52-2.6-3-5.24-4.69-7.72-.25-.35-.11-.69-.21-1.14a74.35,74.35,0,0,1,14.6-4.22,2.25,2.25,0,0,1,.85,1.34c.38,1.79,1,3.54,1.44,5.32.51,2,1.17,3.92,1.63,5.93.37,1.65.86,3.29,1.35,4.92.76,2.48,1.47,5,2.15,7.46.43,1.58.82,3.18,1.36,4.71.44,1.28.85,2.61,1.16,3.89s.78,2.49,1.05,3.77a33.7,33.7,0,0,0,1.31,4.72,31.35,31.35,0,0,1,1.16,3.89c.28,1.28.77,2.5,1.06,3.77s.74,2.74,1.2,4.1a59.2,59.2,0,0,1,1.72,6.3C350.85,70.11,351.68,70.32,351,71.09Z"/><path class="cls-9" d="M272.61,54a23,23,0,0,1-2.19-3.49c-.78-1.34-1.55-2.68-2.34-4.07a1.14,1.14,0,0,1-1.18.53,3,3,0,0,0,.27-.5c.19-.47.51-1-.27-1.26,0-.6.52-.32.81-.58a52.42,52.42,0,0,1,5.54-15.17A29.89,29.89,0,0,1,277,23.67c0,.45.45.53.61.84.87-.55,2-.52,2.75-1.28.82.25,1.51-.24,2.22-.46a14.17,14.17,0,0,1,5.53-.37,15,15,0,0,1,3.61.78,16.73,16.73,0,0,1,8.83,6.2,15.16,15.16,0,0,1,3.29,6.77c1.06,5.19,1.07,3.93.41,7.37a20.18,20.18,0,0,1-2.56,6.86,18.24,18.24,0,0,1-7.53,6.82,12.29,12.29,0,0,1-6.57,1.62,1.94,1.94,0,0,0-1.8.51c-.51-.57-1.15-.49-1.79-.53a8.8,8.8,0,0,1-3.37-.87A28.58,28.58,0,0,1,277,56.19a13,13,0,0,1-2.06-1.41A2.64,2.64,0,0,0,272.61,54Zm13.78-3a17,17,0,0,0,4-.9,8.43,8.43,0,0,0,4.62-3.91,11.71,11.71,0,0,0,1.7-5.65,9.46,9.46,0,0,0-2-5.73,9,9,0,0,0-3.46-3.18,13.71,13.71,0,0,0-5.59-1.34c-.69,0-1.13.45-1.79.53a5.81,5.81,0,0,0-4,2c-.4.51-1,.9-1.37,1.41a13.31,13.31,0,0,0-1.56,2.2c-.61,1.17-.44,2.55-.86,3.81-.26.77.17,1.62.34,2.44a9.43,9.43,0,0,0,3.58,6A11.35,11.35,0,0,0,286.39,50.94Z"/><path class="cls-10" d="M272.61,54a2.64,2.64,0,0,1,2.29.8A13,13,0,0,0,277,56.19a28.58,28.58,0,0,0,3.67,1.74,8.8,8.8,0,0,0,3.37.87c.64,0,1.28,0,1.79.53a1.94,1.94,0,0,1,1.8-.51,12.29,12.29,0,0,0,6.57-1.62,18.24,18.24,0,0,0,7.53-6.82,20.18,20.18,0,0,0,2.56-6.86c.66-3.44.65-2.18-.41-7.37a15.16,15.16,0,0,0-3.29-6.77,16.73,16.73,0,0,0-8.83-6.2,15,15,0,0,0-3.61-.78,14.17,14.17,0,0,0-5.53.37c-.71.22-1.4.71-2.22.46-.76.76-1.88.73-2.75,1.28-.16-.31-.63-.39-.61-.84a53.54,53.54,0,0,1,9.67-10.55v1.1l.67.67a17.06,17.06,0,0,1,6.15.86,33.07,33.07,0,0,1,10.45,6,37.83,37.83,0,0,1,3.2,3.74A11.43,11.43,0,0,1,309.29,29c.76,2.17,2.09,4.2,2,6.63.85.82.07,2,.57,2.83.59,1,.07,2,.33,2.94s-.58,1.39-.5,2.24a13.23,13.23,0,0,1-.85,4.89c-1.13,4-3.55,7.25-6.11,10.39-.49.6-1.45.9-1.93,1.6s-1.37,1-2,1.51a22.77,22.77,0,0,1-4.81,2.66,20.28,20.28,0,0,1-5.49,1.5,66,66,0,0,1-7.45.1,5.13,5.13,0,0,1-1.58-.43,1.93,1.93,0,0,0-1.78.41,18.24,18.24,0,0,1-2.19-3.55,24.86,24.86,0,0,0-2.29-3.83,2,2,0,0,0-1.41.24A23.89,23.89,0,0,1,270,60.57a1.06,1.06,0,0,0-.87-.88c1.33-1.37,3.14-1.95,4.86-2.85A3.19,3.19,0,0,0,272.9,55C272.56,54.67,272.61,54.33,272.61,54Z"/><path class="cls-11" d="M257.27,100.55c-1,0-1.82-.06-2.62,0a4,4,0,0,1-4-2.21,4.52,4.52,0,0,0-4-2.18c-1.17-.07-2.34,0-3.5,0A13.4,13.4,0,0,0,241,97.3a9.3,9.3,0,0,0-2.63,4.39,14.8,14.8,0,0,0-.43,5.09,16.66,16.66,0,0,0,1.42,4.68,6.08,6.08,0,0,0,3.56,3,6.77,6.77,0,0,0,4.44.23,6.06,6.06,0,0,0,3.29-2.11,4.57,4.57,0,0,0,1.34-3.38,1.05,1.05,0,0,0-.12-.27h-4l-1.54-1.53V104.5h10.87v14.41h-2.84c-1.16-.33-.74-1.85-1.68-2.5-1,.58-1.52,1.6-2.52,2.19a8.74,8.74,0,0,1-3.65,1.2c-1.29.11-2.7.53-4-.32-.41-.27-1.14,0-1.46,0-1.08-.51-2-.88-2.79-1.33a9.06,9.06,0,0,1-3.83-3.8,19.17,19.17,0,0,1-1.86-5.18,32.38,32.38,0,0,1-.33-5.54c-.05-1.57,1.22-6,2.21-7.19a13.74,13.74,0,0,1,6.18-4.63,8,8,0,0,1,2.89-.47c1.39.09,2.8-.12,4.17,0,3.21.39,6,1.55,7.83,4.47A9.25,9.25,0,0,1,257.27,100.55Z"/><path class="cls-12" d="M279.64,66.28a1.93,1.93,0,0,1,1.78-.41,5.13,5.13,0,0,0,1.58.43,66,66,0,0,0,7.45-.1,20.28,20.28,0,0,0,5.49-1.5A22.77,22.77,0,0,0,300.75,62c.66-.52,1.51-.77,2-1.51s1.44-1,1.93-1.6c2.56-3.14,5-6.4,6.11-10.39a13.23,13.23,0,0,0,.85-4.89c-.08-.85.72-1.38.5-2.24s.26-2-.33-2.94c-.5-.83.28-2-.57-2.83.11-2.43-1.22-4.46-2-6.63a11.43,11.43,0,0,0-2.15-3.48,37.83,37.83,0,0,0-3.2-3.74,33.07,33.07,0,0,0-10.45-6,17.06,17.06,0,0,0-6.15-.86l-.67-.67v-1.1a4.21,4.21,0,0,1,1.9-1.78c.82-.36,1.17-1.38,2.05-1.73a1,1,0,0,0,.83.86c3.07.46,5.8,1.85,8.6,3.06,3.21,1.39,5.73,3.73,8.18,6.1.78.76,1.44,1.74,2.22,2.56a4.24,4.24,0,0,1,.41.7,30.15,30.15,0,0,1,3.92,7.37A14.78,14.78,0,0,1,316,34.31c0,2,.74,3.94.52,6-.17,1.54.18,3.09-.39,4.66-.34.94,0,2-.46,3.1s-.5,2.42-1,3.54S313.54,53.85,313,55a28.08,28.08,0,0,1-1.49,2.45c-.29.49-.6,1,.19,1.34-.29.83-1.34.19-1.7.88-1.17-.33-2,.55-2.91.94a51.43,51.43,0,0,0-9.93,5.68,22.91,22.91,0,0,0-3,2.82,6,6,0,0,1-2.22,1.54l-.88-.46a2.59,2.59,0,0,1-1.56.49c-2.15-.06-4.3,0-6.46,0-.11,0-.22.15-.32.23v.64c-.59,0-.35-.48-.52-.73-.81-.66-1.37.54-2.12.29-.17-.43.41-1.11-.44-1.31.13-.74,1.15-.41,1.23-.76C280.76,67.76,279.56,67.37,279.64,66.28Z"/><path class="cls-8" d="M306.36,113.94c-.61,1.93-2.19,3.1-3.49,4.45-.34.42-.81.08-1.23.31-2.67,1.48-5.62,1.28-8.5,1.11A9,9,0,0,1,290,119c-2.57-1.23-4.73-2.9-5.15-6.09a7.43,7.43,0,0,1-.36-2.11h5.63c-.08,1.1.75,1.87,1,2.85,3.19,1.85,4.25,1.77,8.49,1l1.51-1.61v-2c-1.22-2.16-3.51-2.21-5.38-3a22,22,0,0,0-4.73-1.24c-1.44-.24-2.49-1.11-3.78-1.54-.42-.14-.77-.75-1.08-1.25A9.08,9.08,0,0,1,285,97.51a6.89,6.89,0,0,1,3.58-4.9,8.59,8.59,0,0,1,4.74-1.3c1.46.06,2.93,0,4.39,0,3.12.17,5.57,1.42,7,4.37a5.8,5.8,0,0,1,.77,3.88h-4.17c-1.38-1-2-3.07-4-3.65-1.45-.4-2.86,0-4-.24a5.08,5.08,0,0,0-3.05,3.21c.23.38.52.92.88,1.42,1,1.41,2.75,1.5,4.23,2,2.54.76,5.14,1.34,7.64,2.23.71.25,1,1,1.62,1.39,1.54,1,1.81,2.75,2.28,4.33a1.78,1.78,0,0,1-.13,1.67C306.16,112.55,306.62,113.3,306.36,113.94Z"/><path class="cls-8" d="M328,98c-2.8,2.9-4.88,5.76-7.62,8.1L328,118.91h-6.44c-1.22-.93-1.53-2.58-2.35-3.91-1-1.65-1.7-3.53-3.3-4.79-.53-.1-.72.37-1.12.7v8h-5.59V92c3.35-.57,4.07-.3,5.69,2.31v11.3c2.39-2.67,4.35-5.37,6.68-7.59Z"/><path class="cls-8" d="M371.31,104.45h-4.47c-.94-.71-1.64-2-3-2.44a11.23,11.23,0,0,0-2.52-.19c-.55.42-1.27.43-1.62,1a2.94,2.94,0,0,0-.11,1.48,8.13,8.13,0,0,0,3.54,1.49c2.08.63,4.27.81,6.2,2,1.4.87,2.46,1.81,2.54,3.54,1,1.13.12,2.33-.11,3.35a4.73,4.73,0,0,1-1.7,2.79A10,10,0,0,1,367,119a19.61,19.61,0,0,1-7.5.32c-3-.3-6.38-2.58-6-7h4.93c.7.36.69,1,.79,1.69a6,6,0,0,0,4.9,1.3c1-.23,2.54-.37,2.48-1.94l-2.07-1.95c-1.95-.49-4.46-1-6.85-1.79a6,6,0,0,1-3.67-3.61,5.72,5.72,0,0,1,.68-4.86,6.88,6.88,0,0,1,5.6-3.41A11.42,11.42,0,0,1,363,97.5a16.6,16.6,0,0,1,4.23.9,6.64,6.64,0,0,1,3.73,3.83C371.17,102.85,371.88,103.57,371.31,104.45Z"/><path class="cls-11" d="M278.76,108.63a19.36,19.36,0,0,0,0,2.41c.11.76-.36,1.36-.54,2a8.58,8.58,0,0,1-7.2,6.4c-2.46,0-4.94.24-7.14-1.3a8.68,8.68,0,0,1-4.09-6,27.49,27.49,0,0,1-.37-4.43,12.39,12.39,0,0,1,1.51-5.73,6.91,6.91,0,0,1,6-4c.67,0,1.1-.52,1.79-.51a13.2,13.2,0,0,1,5.39,1.31,6.26,6.26,0,0,1,2.93,2.91C278.74,104.91,278.76,104.9,278.76,108.63Zm-8.67,6.42a5.8,5.8,0,0,0,3.4-5.71c0-1.1,0-2.19,0-3.1a8.84,8.84,0,0,0-2.91-3.9h-2.36a4.58,4.58,0,0,0-3,3c-.41,1.34-.87,2.84-.41,4.16s.26,2.48,1.1,3.83a5.78,5.78,0,0,0,2.27,1.7Z"/><path class="cls-13" d="M311.71,58.81c-.79-.34-.48-.85-.19-1.34A28.08,28.08,0,0,0,313,55c.53-1.17,1.21-2.28,1.72-3.45s.5-2.42,1-3.54.12-2.16.46-3.1c.57-1.57.22-3.12.39-4.66.22-2-.48-4-.52-6a14.78,14.78,0,0,0-1.25-4.05,30.15,30.15,0,0,0-3.92-7.37,4.24,4.24,0,0,0-.41-.7c-.78-.82-1.44-1.8-2.22-2.56-2.45-2.37-5-4.71-8.18-6.1-2.8-1.21-5.53-2.6-8.6-3.06a1,1,0,0,1-.83-.86L294.14,7c-.09.79.32,1.12,1,1.34a37.18,37.18,0,0,1,6.94,2.83c1.72.92,3.19,2.16,4.79,3.22a8.09,8.09,0,0,1,2.6,2.13c1,1.6,2.48,2.69,3.51,4.23s1.85,3,2.8,4.54a33.65,33.65,0,0,1,2,4.88,11.6,11.6,0,0,1,.95,4c0,.57.54,1.14.39,1.79s.54,1.1.48,1.8c-.1,1.16,0,2.34,0,3.5s.26,2.11-.25,3.18-.22,2.17-.55,3.28a41.44,41.44,0,0,1-2.25,6.75c-.38.77-.63,1.61-.95,2.43.67.33,1.26.1,1.82.18-.29.93-1.09.29-1.63.49C314.46,58.05,313.07,58.4,311.71,58.81Z"/><path class="cls-14" d="M324.89,31.58c0,.21-.1.53,0,.64,1.94,1.94,2.91,4.51,4.37,6.75,1.6,2.47,3.09,5,4.6,7.52,1,1.7,2,3.4,2.92,5.15.42.79,1.08,1.41,1.46,2.24a1.39,1.39,0,0,1,.11,1.36c-1.5-.35-3-.79-4.46,0-.29.15-.72,0-1.08,0-1,0-2.05,0-3.07,0a6.82,6.82,0,0,0-2.75.25c-.92.44-2,.11-3,.18-.56-.08-1.15.15-1.68-.11a3.56,3.56,0,0,1,.83-3.25,4.14,4.14,0,0,1,.47-2.76c.31-.76.14-1.59.44-2.22a6.06,6.06,0,0,0,.38-2.47c.09-1.25-.26-2.55.41-3.77a1.45,1.45,0,0,0,0-1.27c-.76-1.22-.26-2.53-.4-3.78-.06-.57.17-1.3-.1-1.7-.69-1-.19-1.89-.29-2.83Z"/><path class="cls-15" d="M324.89,31.58h-.82c.1.94-.4,1.85.29,2.83.27.4,0,1.13.1,1.7.14,1.25-.36,2.56.4,3.78a1.45,1.45,0,0,1,0,1.27c-.67,1.22-.32,2.52-.41,3.77a6.06,6.06,0,0,1-.38,2.47c-.3.63-.13,1.46-.44,2.22a4.14,4.14,0,0,0-.47,2.76,3.56,3.56,0,0,0-.83,3.25c.53.26,1.12,0,1.68.11-.05.12-.11.35-.14.35-1.75-.15-3.39.66-5.13.53.11-.56-.19-1.15.15-1.69A24.24,24.24,0,0,0,320.72,50a47.55,47.55,0,0,0,1-5.47,44.16,44.16,0,0,0-.43-11.18,42.55,42.55,0,0,0-2.57-7.47,36.25,36.25,0,0,0-7.74-11c-1-1-2.12-1.9-3.19-2.83a24.66,24.66,0,0,0-5.39-3.45,28.56,28.56,0,0,0-5.28-2,1.06,1.06,0,0,1-.83-.86,11.53,11.53,0,0,1,3.52-2.2V4.63a41.24,41.24,0,0,1,5.73,3,26,26,0,0,1,5.76,4,8.39,8.39,0,0,0,1.53.94l.16-.37c.47.08.67.44.88.82,2.52,4.37,4.95,8.8,7.61,13.09C322.64,28,323.63,29.86,324.89,31.58Z"/><path class="cls-8" d="M346.05,91.84c2.23-.27,4.28-.25,5.57,2V119h-5.57Z"/><path class="cls-8" d="M343.34,119H337.7V91.85c2.16-.3,4.25-.32,5.64,2.14Z"/><path class="cls-16" d="M296.33,5.66a1.06,1.06,0,0,0,.83.86,28.56,28.56,0,0,1,5.28,2A24.66,24.66,0,0,1,307.83,12c1.07.93,2.15,1.86,3.19,2.83a36.25,36.25,0,0,1,7.74,11,42.55,42.55,0,0,1,2.57,7.47,44.16,44.16,0,0,1,.43,11.18,47.55,47.55,0,0,1-1,5.47,24.24,24.24,0,0,1-1.83,4.94c-.34.54,0,1.13-.15,1.69-.21.84-.89.27-1.32.44-.56-.08-1.15.15-1.82-.18.32-.82.57-1.66.95-2.43a41.44,41.44,0,0,0,2.25-6.75c.33-1.11.07-2.29.55-3.28s.17-2.12.25-3.18-.05-2.34,0-3.5c.06-.7-.65-1.11-.48-1.8s-.35-1.22-.39-1.79a11.6,11.6,0,0,0-.95-4,33.65,33.65,0,0,0-2-4.88c-.95-1.5-1.8-3.06-2.8-4.54s-2.54-2.63-3.51-4.23a8.09,8.09,0,0,0-2.6-2.13c-1.6-1.06-3.07-2.3-4.79-3.22a37.18,37.18,0,0,0-6.94-2.83c-.72-.22-1.13-.55-1-1.34Z"/><path class="cls-17" d="M329.8,98c2.34-.21,4.56-.34,5.57,2.46V119H329.8Z"/><path class="cls-18" d="M313,12.25l-.16.37a8.39,8.39,0,0,1-1.53-.94,26,26,0,0,0-5.76-4,41.24,41.24,0,0,0-5.73-3V3.46c0-.07,0-.2,0-.21,1.93-.72,3.45-2.19,5.4-2.87a2,2,0,0,0,.5-.38A103.55,103.55,0,0,1,313,12.25Z"/><path class="cls-19" d="M282.72,71.55v-.64c.1-.08.21-.22.32-.23,2.16,0,4.31,0,6.46,0a2.59,2.59,0,0,0,1.56-.49l.88.46c-1.08,1.3-2.18,2.59-3.23,3.91-.82,1-1.58,2.07-2.38,3.13a.8.8,0,0,1-.83-.54,28,28,0,0,0-2.65-4.8C282.65,72.08,282.77,71.82,282.72,71.55Z"/><path class="cls-20" d="M266.9,45.19c.78.27.46.79.27,1.26a3,3,0,0,1-.27.5,2.9,2.9,0,0,0-1.86.78,8.71,8.71,0,0,1-2.91,1.44,12,12,0,0,0-1.62.85,127.73,127.73,0,0,0-11.85,5.71c-.17.09-.43,0-.65,0s-.45-.14-.44-.44c1.37-.72,2.71-1.52,4.13-2.12s2.64-1.64,4.06-2.28a14.86,14.86,0,0,0,3.92-2.15,11.8,11.8,0,0,1,2.19-1c1.43-.77,2.83-1.6,4.21-2.45C266.37,45.15,266.63,45.25,266.9,45.19Z"/><path class="cls-21" d="M269.1,59.69a1.06,1.06,0,0,1,.87.88,33,33,0,0,1-6.13,3.11c-1.94.76-3.76,1.82-5.64,2.73-2.37,1.14-4.74,2.26-7.12,3.38-.12.06-.29,0-.44,0s-.45-.14-.43-.44c1.32-.67,2.7-1.24,3.95-2,3.22-2,6.78-3.37,10-5.39A15.13,15.13,0,0,1,269.1,59.69Z"/><path class="cls-22" d="M335.41,96.1h-5.64V91.73c1.58.18,3.24-.43,4.61.94C335.26,93.56,335.43,94,335.41,96.1Z"/><path class="cls-19" d="M279.64,69.8c.85.2.27.88.44,1.31-1.65.76-3.25,1.61-5,2.24s-3.13,1.82-5,2.27a11.08,11.08,0,0,0-2.86,1.51c-.29.18-.55.08-.82.13s-.45-.13-.44-.43c2.92-1.53,5.85-3,8.76-4.6,1.37-.73,2.71-1.5,4-2.3C279.11,69.75,279.37,69.85,279.64,69.8Z"/><path class="cls-23" d="M250.21,69.36c0,.3.13.45.43.44A12.25,12.25,0,0,1,246.25,72c-.3,0-.45-.13-.44-.44Z"/><path class="cls-24" d="M266,76.83c0,.3.14.45.44.43-1.57,1.15-2.68,1.63-3.89,1.59.77-.11,1-.89,1.66-1.16S265.43,77.12,266,76.83Z"/><path class="cls-25" d="M247.57,55.3c0,.3.13.45.44.44a4.55,4.55,0,0,1-3.24,1.31C245.64,56,246.71,55.82,247.57,55.3Z"/><path class="cls-26" d="M245.81,71.55c0,.31.14.45.44.44a2.18,2.18,0,0,1-2.22.84C244.44,72,245.26,72,245.81,71.55Z"/><path class="cls-27" d="M286.39,50.94a11.35,11.35,0,0,1-6.3-2.32,9.43,9.43,0,0,1-3.58-6c-.17-.82-.6-1.67-.34-2.44.42-1.26.25-2.64.86-3.81a13.31,13.31,0,0,1,1.56-2.2c.41-.51,1-.9,1.37-1.41a5.81,5.81,0,0,1,4-2c.66-.08,1.1-.55,1.79-.53a13.71,13.71,0,0,1,5.59,1.34,9,9,0,0,1,3.46,3.18,9.46,9.46,0,0,1,2,5.73,11.71,11.71,0,0,1-1.7,5.65A8.43,8.43,0,0,1,290.43,50,17,17,0,0,1,286.39,50.94Z"/></g><g id="shaw-academy"><path class="cls-28" d="M181.42,615.8c-.11.19-.24.37-.34.57q-4.05,8.85-8.1,17.71c-.22.48-.46.88-1.14.65.67-1.43,1.29-2.89,2-4.3a2.15,2.15,0,0,0,0-2.15c-1.9-4-3.73-8-5.58-12.07-.08-.17-.15-.34-.23-.52a.82.82,0,0,1,1.12.55c1.81,4,3.65,8,5.48,12,0,.05.08.08.12.12,1.8-4,3.62-7.91,5.39-11.88.27-.59.55-1,1.24-1Z"/><path class="cls-29" d="M147.13,618c.54-.5,1.1-1.06,1.72-1.55,2.76-2.18,6.08-1,6.84,2.36a11.78,11.78,0,0,1,1.18-1.85,4.75,4.75,0,0,1,5.3-1.26,4.14,4.14,0,0,1,2.84,4c.13,1.31.08,2.65.08,4,0,1.82,0,3.63,0,5.45,0,.25.19.64-.38.65s-.39-.36-.39-.62c0-2.81,0-5.62,0-8.43a7.46,7.46,0,0,0-.38-2.35c-.87-2.49-3.58-2.72-5.3-2a4.3,4.3,0,0,0-2.55,4.3c0,2.85,0,5.7,0,8.55,0,.34,0,.54-.46.51s-.32-.31-.32-.53c0-2.79,0-5.58,0-8.37a10.15,10.15,0,0,0-.2-1.91c-.53-2.63-2.71-3.36-4.84-2.66a5.69,5.69,0,0,0-2.94,2.55,1.43,1.43,0,0,0-.13.72q0,4.83,0,9.66c0,.38-.06.63-.49.52-.12,0-.21-.19-.31-.3s0-.07,0-.11V616.06c0-.39.25-.57.51-.37a.6.6,0,0,1,.16.4C147.07,616.76,147.1,617.44,147.13,618Z"/><path class="cls-28" d="M136.34,621.8c-1.72,0-3.43,0-5.15,0-.37,0-.54.08-.49.48a23.88,23.88,0,0,0,.36,2.82,5.22,5.22,0,0,0,5.06,4.16,7.38,7.38,0,0,0,4.86-1.33c.1-.07.2-.17.3-.17a1,1,0,0,1,.4.12c0,.11,0,.26-.12.33a4.38,4.38,0,0,1-.7.52,8.32,8.32,0,0,1-6.09.94,5.67,5.67,0,0,1-4.41-4.22,8.75,8.75,0,0,1,.67-7.27c1.76-3,6.37-3.59,8.92-1.67a5.9,5.9,0,0,1,2.23,4.92c0,.44-.31.37-.57.37Zm-5.55-.5h10.34c.38,0,.35-.2.33-.44-.28-3.66-3-5.44-6.36-4.75C132.56,616.64,131,618.52,130.79,621.3Z"/><path class="cls-29" d="M124.75,617.63v-8.07c0-.23-.11-.52.33-.52s.49.1.49.49q0,9.87,0,19.72c0,.16-.14.42-.25.44-.31,0-.44-.15-.44-.46a19.3,19.3,0,0,0-.06-2.15,8.33,8.33,0,0,1-3.41,2.45c-2.7.89-6.72.26-7.59-4.18a11.87,11.87,0,0,1,.07-5.27,6.1,6.1,0,0,1,6.37-4.68A5.62,5.62,0,0,1,124.75,617.63Zm0,4.72c0-1.15,0-2.3,0-3.45a1.6,1.6,0,0,0-.29-.84,5.28,5.28,0,0,0-5.52-2,5.1,5.1,0,0,0-4.23,4,10.6,10.6,0,0,0,0,5.67,4.27,4.27,0,0,0,3.33,3.32c2.7.59,4.78-.36,6.55-2.68a1.08,1.08,0,0,0,.13-.6C124.76,624.66,124.76,623.5,124.76,622.35Z"/><path class="cls-29" d="M108.55,627.33a8.51,8.51,0,0,1-3.36,2.22,6.31,6.31,0,0,1-4.07.08,3.18,3.18,0,0,1-2.19-2.9,3,3,0,0,1,1.59-3,11.47,11.47,0,0,1,4.78-1.41c.94-.11,1.9-.14,2.85-.23.15,0,.39-.21.39-.31a21.9,21.9,0,0,0-.22-3.14,3.26,3.26,0,0,0-3.25-2.66,5.88,5.88,0,0,0-4.38,1.58,1.27,1.27,0,0,1-.48.32c-.1,0-.28,0-.38-.14s0-.25,0-.32a6.5,6.5,0,0,1,7.29-1.52,4,4,0,0,1,2.11,3.79c.07,2.92,0,5.85,0,8.77a6.42,6.42,0,0,1,0,.76,2.22,2.22,0,0,1-.2.45c-.14-.16-.36-.3-.39-.47C108.63,628.65,108.61,628.05,108.55,627.33Zm0-2.57c0-.57,0-1.13,0-1.7,0-.31-.09-.41-.4-.39-.8.07-1.6.07-2.4.17a11.68,11.68,0,0,0-4.48,1.18,2.62,2.62,0,0,0-1.56,2.86,2.8,2.8,0,0,0,2.45,2.4,6.69,6.69,0,0,0,5.28-1.53,2.26,2.26,0,0,0,1.11-2.35A3.42,3.42,0,0,1,108.54,624.76Z"/><path class="cls-28" d="M92,615.41a6.09,6.09,0,0,1,3.6,1.19c.14.1.32.39.27.48-.16.32-.42.16-.63,0a5.94,5.94,0,0,0-5.08-.89c-2.4.58-3.6,2.29-4.05,4.62a10,10,0,0,0,.14,4.35c1,3.76,4.36,4.75,7.37,3.78a13,13,0,0,0,1.83-1,2.68,2.68,0,0,1,.65-.14c-.09.2-.13.46-.28.59a6.72,6.72,0,0,1-5.21,1.41,5.62,5.62,0,0,1-5.12-4.5,10,10,0,0,1-.08-5C86.17,617.21,88.49,615.4,92,615.41Z"/><path class="cls-28" d="M80.2,627.36c-.46.38-.82.73-1.22,1a6.75,6.75,0,0,1-5.83,1.35,3.15,3.15,0,0,1-2.57-2.89,3,3,0,0,1,1.68-3.14,11.52,11.52,0,0,1,4.62-1.34c1-.12,1.94-.16,2.91-.23.22,0,.43,0,.41-.33a29,29,0,0,0-.2-3A3.28,3.28,0,0,0,76.65,616a5.82,5.82,0,0,0-4.32,1.58,1.35,1.35,0,0,1-.48.32.52.52,0,0,1-.38-.15.36.36,0,0,1,0-.31,6.57,6.57,0,0,1,7-1.66,3.92,3.92,0,0,1,2.41,3.88c.09,3.23,0,6.47,0,9.71,0,.11-.12.22-.19.32-.14-.13-.37-.25-.39-.4C80.28,628.7,80.25,628.08,80.2,627.36Zm0-2.6c0-.57,0-1.14,0-1.7,0-.31-.08-.41-.4-.39-.8.07-1.6.07-2.4.16A12.05,12.05,0,0,0,72.92,624a2.62,2.62,0,0,0-1.56,2.87,2.82,2.82,0,0,0,2.45,2.4,6.69,6.69,0,0,0,5.33-1.57,2.16,2.16,0,0,0,1.06-2.25A3.28,3.28,0,0,1,80.19,624.76Z"/><path class="cls-30" d="M52.41,626.05l1.38-4.13q.93-2.86,1.87-5.71A1.53,1.53,0,0,1,57.21,615c.74,0,1.2.39,1.49,1.25q1.57,4.72,3.16,9.47l.19.55c.42-1.44.82-2.77,1.22-4.1.62-2.07,1.23-4.14,1.85-6.2a1.32,1.32,0,0,1,1.69-.93,1.28,1.28,0,0,1,.81,1.69q-1.87,6-3.77,12a1.67,1.67,0,0,1-1.67,1.2,1.7,1.7,0,0,1-1.72-1.23q-1.53-4.73-3-9.45l-.21-.64c-.11.29-.19.47-.25.66q-1.53,4.68-3,9.38a1.79,1.79,0,0,1-3.43,0q-1.87-5.93-3.74-11.85a1.3,1.3,0,0,1,.79-1.75,1.38,1.38,0,0,1,1.73,1c.92,3,1.83,6.11,2.75,9.16l.27.89Z"/><path class="cls-30" d="M17.93,617.1a7.76,7.76,0,0,1,3.68-2.16,6.49,6.49,0,0,1,3.47.1,3.71,3.71,0,0,1,2.69,3.76c.05,3.26,0,6.52,0,9.78a1.35,1.35,0,0,1-2.69-.05v-8.08c0-.2,0-.39,0-.59a2.59,2.59,0,0,0-2.7-2.69,5.14,5.14,0,0,0-4,1.54,1.38,1.38,0,0,0-.46,1.08q0,4.28,0,8.55a1.35,1.35,0,0,1-1.28,1.51,1.27,1.27,0,0,1-1.41-1.3V610.69a1.31,1.31,0,0,1,1.37-1.3,1.36,1.36,0,0,1,1.32,1.37c0,1.85,0,3.71,0,5.56Z"/><path class="cls-30" d="M41.13,622.35c0-1,0-1.92,0-2.81a3,3,0,0,0-2.79-2.46,6.08,6.08,0,0,0-4.4,1.18,1.1,1.1,0,0,1-1.53-.13,1,1,0,0,1,.16-1.5,7,7,0,0,1,3.65-1.71,8.57,8.57,0,0,1,4.93.43,4.1,4.1,0,0,1,2.66,3.86c.09,3.12,0,6.24,0,9.37a1.28,1.28,0,0,1-1.26,1.27,1.31,1.31,0,0,1-1.42-1.11,4.34,4.34,0,0,1,0-.63l-.53.46c-2.17,1.93-5.94,2-7.89.1a4.68,4.68,0,0,1-1.29-4.77,4.21,4.21,0,0,1,3.45-3.27A6.31,6.31,0,0,1,41.13,622.35Zm.11,2.95c-.1-1.44-.08-1.48-.76-2a4.83,4.83,0,0,0-4.7-.67A2.78,2.78,0,0,0,36.1,628a6.72,6.72,0,0,0,2.19.11,3.44,3.44,0,0,0,2.58-1.31A4.13,4.13,0,0,0,41.24,625.3Z"/><path class="cls-30" d="M5.83,614.75a7.55,7.55,0,0,1,4.8,1.54c.36.3.68.7.43,1.16a1.69,1.69,0,0,1-.87.73c-.22.09-.59-.1-.84-.26a6.21,6.21,0,0,0-4.82-.82,2.79,2.79,0,0,0-.8.34,1.64,1.64,0,0,0-.88,1.6A1.43,1.43,0,0,0,4,620.27c1.4.45,2.83.83,4.24,1.27a7.68,7.68,0,0,1,1.47.56,4,4,0,0,1,.73,6.53A6.35,6.35,0,0,1,6,630.07a8.65,8.65,0,0,1-3.76-.7,9.06,9.06,0,0,1-1.68-1,1,1,0,0,1-.28-1.53,1.2,1.2,0,0,1,1.67-.25,5.94,5.94,0,0,0,2.93,1.23,13.51,13.51,0,0,0,2.77-.14,2,2,0,0,0,.91-.5,1.66,1.66,0,0,0-.41-2.91c-1.09-.45-2.27-.68-3.39-1.06a13.94,13.94,0,0,1-2.86-1.12,3.65,3.65,0,0,1-.67-5.51A5.83,5.83,0,0,1,5.83,614.75Z"/><path class="cls-31" d="M90.61,597.69c-21.46.82-41.7-18.41-41.43-41.48.27-22.73,18.86-41.6,41.66-41.41s41.52,18.43,41.4,42.44C132.14,578.78,112.64,598.61,90.61,597.69Z"/><path class="cls-32" d="M90.39,590.26a33.5,33.5,0,0,1-33.71-33.91,34.16,34.16,0,0,1,34.15-34.13c18.91,0,33.79,15.47,33.94,34.79C124.91,574.67,109.12,591.12,90.39,590.26Z"/><path class="cls-30" d="M90.39,582.77a26.53,26.53,0,0,1-26.2-26.83c.09-14,12.58-26.31,26.65-26.21,14.35.1,26.43,12.4,26.4,26.89S105.16,582.83,90.39,582.77Z"/><path class="cls-33" d="M90.7,567.71a12.05,12.05,0,0,1-6.92-2.38c-.84-.65-1.27-1.47-.49-2.47.67-.84,1.46-.62,2.19-.14a9.72,9.72,0,0,0,7,1.77c1.62-.26,2.89-1,3.21-2.74s-.88-2.8-2.41-3.33c-1.69-.59-3.44-1-5.13-1.55-2.9-1-5.27-2.53-5-6.15s2.62-4.92,5.66-5.66a10.84,10.84,0,0,1,8.29,1.57c.9.53,1.46,1.4.77,2.41-.56.82-1.45.64-2.21.2A8.93,8.93,0,0,0,89.37,548a3,3,0,0,0-2.77,2.66c-.15,1.52,1,2.18,2.2,2.62,1.42.52,2.88.91,4.33,1.36,4.94,1.55,6.59,3.59,6,7.44C98.62,565.52,95.64,567.62,90.7,567.71Z"/></g></g></g></g></svg>