<svg xmlns="http://www.w3.org/2000/svg" viewBox="0 0 855.42 516.23"><defs><style>.cls-1{fill:#3c3f2d;}.cls-1,.cls-2,.cls-3{stroke:#fafaf5;stroke-width:0.89px;}.cls-1,.cls-19,.cls-2,.cls-20,.cls-3{stroke-miterlimit:10;}.cls-2{fill:#69841f;}.cls-3{fill:#a7bf4e;}.cls-4{fill:#48acc0;}.cls-5{fill:#4e5051;}.cls-6{fill:#42474b;}.cls-7{fill:#43474b;}.cls-8{fill:#43464b;}.cls-9{fill:#ef5628;}.cls-10{fill:#ef572a;}.cls-11{fill:#ef5325;}.cls-12{fill:#ef5426;}.cls-13{fill:#f05c30;}.cls-14{fill:#ef592c;}.cls-15{fill:#f1673f;}.cls-16{fill:#ef5123;}.cls-17{fill:#f06339;}.cls-18{fill:#ef5223;}.cls-19{fill:#010101;}.cls-19,.cls-20{stroke:#000;stroke-width:0.7px;opacity:0.9;}.cls-21{fill:#4fa3cd;}.cls-22{fill:#dbecf4;}.cls-23{fill:#94c7e0;}.cls-24{fill:#fafcfd;}</style></defs><title>study-pie-web</title><g id="Layer_2" data-name="Layer 2"><g id="Study_Pies" data-name="Study Pies"><g id="study-pie-web"><g id="pie"><path id="Foundation_App_Dev" data-name="Foundation App Dev" class="cls-1" d="M421.39,15.79v250l-210-135.66A249.8,249.8,0,0,1,421.39,15.79Z"/><path id="Foundation_Web_Dev" data-name="Foundation Web Dev" class="cls-1" d="M421.39,265.78,193.45,368.61a250.38,250.38,0,0,1,17.92-238.49Z"/><path id="AngularJS" class="cls-2" d="M421.39,265.78l-207.84,139h0a249.89,249.89,0,0,1-20.09-36.14Z"/><path id="Front_End_Formations" data-name="Front End Formations" class="cls-2" d="M421.39,265.78,223.08,418q-5-6.48-9.53-13.28Z"/><path id="Front_End_Foundations" data-name="Front End Foundations" class="cls-2" d="M421.39,265.78,233.46,430.64q-5.4-6.13-10.38-12.61Z"/><path id="Full_Stack" data-name="Full Stack" class="cls-3" d="M671.39,265.78c0,138.08-111.93,250-250,250a249.33,249.33,0,0,1-187.93-85.15L421.39,265.78v-250C559.46,15.79,671.39,127.71,671.39,265.78Z"/></g><g id="code-school"><path class="cls-4" d="M124.83,374.72c2.11.71,4.34.91,6.46,1.62,14.8,5,24.09,18.53,23.2,34.54A33.93,33.93,0,1,1,115.79,375c.28,0,.58,0,.75-.32ZM93,408.49a27.69,27.69,0,1,0,28.12-27.65C105.54,380.57,92.74,393.59,93,408.49Z"/><path class="cls-5" d="M63.68,476c0-3.78.1-7.27,0-10.74-.07-1.61.47-1.95,1.92-1.83a30.59,30.59,0,0,0,4.49,0c1.15-.07,1.46.33,1.45,1.45,0,6.44,0,12.89,0,19.33,0,.52,0,1,0,1.56,0,2.65.47,3,3.18,2.48-.11,1.57-.24,3.1-.34,4.63,0,.82-.61,1-1.26,1.16-4.21.79-6.9.19-8.85-3.35-1.73,2.25-3.82,3.73-6.79,3.65a7.43,7.43,0,0,1-7-4.75,13.69,13.69,0,0,1,0-11.7c2.42-5.28,8.28-6.41,12.54-2.53Zm0,7.84a7.06,7.06,0,0,0-1.06-4.44c-1.18-1.75-3-1.73-4.21,0-1.45,2.08-1.44,6.65,0,8.71,1.23,1.74,3,1.77,4.21,0A6.72,6.72,0,0,0,63.67,483.85Z"/><path class="cls-5" d="M120.89,464.16a17.36,17.36,0,0,1,9.28,2.37c.75.44,1.1.88.62,1.79-.64,1.21-.82,3-1.79,3.62s-2.33-.72-3.56-1.09a23.58,23.58,0,0,0-4.52-1c-1.32-.13-2.48.26-2.9,1.61s.36,2.31,1.6,2.83c1.54.64,3.09,1.22,4.62,1.86.85.35,1.68.75,2.51,1.13,3.77,1.72,5,4.78,4.71,8.72a8.18,8.18,0,0,1-5.59,7.57c-6.15,2.26-11.85.87-17.23-2.5a.89.89,0,0,1-.37-1.39c.61-1.11,1.2-2.23,1.7-3.39.38-.87.76-.84,1.52-.39a20.36,20.36,0,0,0,7.21,2.69,6.29,6.29,0,0,0,2.73-.15,2.22,2.22,0,0,0,1.78-1.87,2.4,2.4,0,0,0-.94-2.43,13.69,13.69,0,0,0-4.19-1.95,18.65,18.65,0,0,1-4.2-1.95,8.28,8.28,0,0,1-3.79-8.48,8,8,0,0,1,5.62-6.78A13,13,0,0,1,120.89,464.16Z"/><path class="cls-5" d="M163.37,476.66c2.14-2.59,4.46-3.7,7.36-3.53,2.47.14,3.86,1.26,4.21,3.71.41,2.86.12,5.74.17,8.62.06,2.64.12,2.76,2.74,2.87.45,0,.63.08.6.52a3.46,3.46,0,0,1-.06.86c-.53,1.5.91,3.79-1.69,4.44-3.54.89-6.54-.07-8-2.5a8.06,8.06,0,0,1-1-4.14c0-2.53,0-5.06,0-7.59,0-.72,0-1.47-.82-1.74s-1.44.31-1.87.92c-1.42,2-1.56,4.41-1.61,6.77s0,4.49,0,6.74c0,.94-.27,1.33-1.28,1.28a44.07,44.07,0,0,0-5,0c-1.2.07-1.54-.3-1.54-1.52.06-7.49,0-15,0-22.46,0-1.72,0-3.45,0-5.18,0-.91.16-1.35,1.2-1.3,1.78.08,3.57.07,5.36,0,1,0,1.27.32,1.26,1.29C163.35,468.52,163.37,472.32,163.37,476.66Z"/><path class="cls-5" d="M0,479.38c0-13.31,12-17.29,21.35-14.33,3.08,1,3.07,1,1.61,3.88l-.23.46c-1.29,2.43-1.29,2.43-3.85,1.63-5.26-1.65-9.5,1-10.28,6.46a13.8,13.8,0,0,0,.24,5.13c1.06,4.48,5.21,6.67,10,5.21,1.1-.34,1.66-.23,2.08.86.33.85.83,1.63,1.24,2.45,1.09,2.14,1.09,2.15-1.33,2.83a18.65,18.65,0,0,1-11.19-.2C3.37,491.65,0,486.5,0,479.38Z"/><path class="cls-5" d="M35.57,494.33c-8.4,0-13.38-6.7-10.86-14.35,1.5-4.57,5.91-7.1,11.91-6.83A10.29,10.29,0,0,1,46.4,481c1.2,5-.68,9.66-4.9,12A11,11,0,0,1,35.57,494.33Zm-3.35-10.14a7.78,7.78,0,0,0,1,4c1.18,2,3.25,2.12,4.32.09a9.28,9.28,0,0,0,0-8.94c-1-2-3.2-1.91-4.36.05A9.24,9.24,0,0,0,32.22,484.19Z"/><path class="cls-5" d="M216.63,473.19c8.22,0,13.21,7,10.43,14.57a9.21,9.21,0,0,1-4.72,5.25,13,13,0,0,1-10.87.43c-4.74-1.87-7-6.31-6.14-11.82a10.17,10.17,0,0,1,9.4-8.42C215.36,473.14,216,473.19,216.63,473.19Zm-3.34,10.46a7.75,7.75,0,0,0,1,4.65c1.14,1.83,2.95,1.86,4.19.12,1.49-2.09,1.52-7.07,0-9.24-1.19-1.74-3-1.75-4.19,0A7.25,7.25,0,0,0,213.29,483.65Z"/><path class="cls-5" d="M191.44,473.12c4.53,0,8.33,1.59,10.29,5.89a10.49,10.49,0,0,1-1.4,11.65c-3.3,4-10.38,4.95-15.21,2.13-4.35-2.54-6.13-8-4.26-13.12C182.34,475.62,186.35,473.15,191.44,473.12Zm3.18,10.57a7.31,7.31,0,0,0-.89-4.2,2.57,2.57,0,0,0-2.27-1.6,2.46,2.46,0,0,0-2.28,1.58,9.74,9.74,0,0,0,.08,8.65c1.08,2.14,3.22,2.1,4.43,0A7.86,7.86,0,0,0,194.62,483.69Z"/><path class="cls-5" d="M84.76,486.36c1,2.7,2.51,3.46,5,2.8a9.9,9.9,0,0,0,3.91-2.1c.61-.52.89-.38,1.32.24,1.79,2.6,1.75,2.94-.85,4.8-4.46,3.18-11,3.08-14.57-.28s-3.94-7.37-2.7-11.62,4.66-6.38,9-7a10.06,10.06,0,0,1,5.75.7c2.35,1.11,3.88,2.82,3.89,5.58S94,483.85,91.74,485,87.19,486.06,84.76,486.36Zm4.54-6.49a1.74,1.74,0,0,0-1-1.83,1.91,1.91,0,0,0-2.07.35,6,6,0,0,0-1.73,3.8.46.46,0,0,0,.26.56C86.17,483.46,89.27,481.49,89.3,479.87Z"/><path class="cls-5" d="M230.5,476.3c0-3.85,0-7.71,0-11.57,0-.94.2-1.34,1.23-1.29a43.9,43.9,0,0,0,5,0c1.24-.08,1.54.33,1.53,1.53-.06,7,0,13.93,0,20.9,0,2.31.18,2.53,2.5,2.49.69,0,.61.31.57.7-.11,1.38-.25,2.75-.35,4.12-.05.72-.6.78-1.09.89-5.85,1.33-9.45-1.26-9.36-6.89C230.55,483.56,230.5,479.93,230.5,476.3Z"/><path class="cls-5" d="M150.14,487.81c.35,1,.65,1.88,1,2.74.88,2.46.87,2.47-1.65,3.26-6,1.86-12.13-.52-14.43-5.56a10.6,10.6,0,0,1,9.33-15.11,14.45,14.45,0,0,1,6.4,1c.84.36,1.2.7.77,1.65-.53,1.2-.89,2.47-1.38,3.85-1.47-1-2.95-1.56-4.68-1a4.2,4.2,0,0,0-2.33,1.66c-1.43,2.08-1.22,5.69.44,7.4S147.45,489.44,150.14,487.81Z"/><path class="cls-4" d="M117.11,426.74c-2.46-2.3-4.64-4.31-6.79-6.34-3.88-3.68-7.75-7.38-11.65-11-.54-.51-.88-.77-.15-1.45,5.87-5.51,11.71-11.06,17.56-16.59.23-.22.52-.38,1-.75,0,2.89,0,5.51,0,8.13,0,.66-.49,1-.9,1.4-2.64,2.49-5.24,5-7.91,7.46-.84.76-.87,1.26,0,2,2.64,2.4,5.19,4.89,7.82,7.3a2.92,2.92,0,0,1,1,2.41C117.07,421.65,117.11,424,117.11,426.74Z"/><path class="cls-4" d="M124.26,390.36l10.86,10.29c2.51,2.37,5,4.77,7.53,7.11.61.56.92.83.13,1.56-5.89,5.5-11.72,11.05-17.58,16.58-.2.19-.43.35-.92.74,0-2.94,0-5.61,0-8.28,0-.71.62-1.08,1.07-1.5,2.54-2.42,5.08-4.85,7.68-7.2.91-.83.87-1.36,0-2.17-2.63-2.4-5.17-4.91-7.8-7.32a2.71,2.71,0,0,1-1-2.25C124.29,395.58,124.26,393.23,124.26,390.36Z"/></g><g id="code-institute"><path class="cls-6" d="M803.42,363.83c-.06,3-.17,6.07-.17,9.11,0,15.69,0,31.38,0,47.08,0,2.06-.42,3-2.64,2.69a22.42,22.42,0,0,0-4.56,0c-2.26.19-4-.05-2.63-3.82-5.9,4.17-11.7,5.68-18.07,4.65a21.73,21.73,0,0,1-15.08-9.79,24,24,0,0,1,1.52-28.64c7.58-8.84,17.62-10.14,31.31-3.84V363.83ZM780.24,413.5c6.91,0,12.32-5.68,12.31-13s-5.42-13.14-12.47-13.22A13.14,13.14,0,0,0,767,400.39,12.92,12.92,0,0,0,780.24,413.5Z"/><path class="cls-7" d="M855.42,403.83c-11.14,0-22.29,0-33.43-.1-2.31,0-2.18.88-1.64,2.56,2.55,7.9,14.12,10.59,20.28,4.45a7,7,0,0,1,5.94-2.31c2.28.15,4.57,0,7.29,0-3,7.58-8,12.73-15.7,14.66a23.08,23.08,0,0,1-28.44-17.23,23.54,23.54,0,0,1,18-28.57c11.63-2.56,24.25,5.51,27,17.3.15.61-.1,1.37.63,1.78ZM832,395.44c3.42,0,6.85-.06,10.27,0,1.78,0,1.88-.57,1.21-2-2.23-4.73-6-6.93-11.14-7s-8.88,2.27-11.31,6.79c-.8,1.48-.71,2.24,1.26,2.19C825.51,395.38,828.75,395.44,832,395.44Z"/><path class="cls-8" d="M655.42,395.83c1.73-4.83,3.84-9.35,7.77-12.94,12-10.95,31.62-6.51,37,8.45.71,1.94.84,3.07-1.77,2.73a15.07,15.07,0,0,0-2.85,0c-3.26.21-5.89-.08-8.23-3.28-2.89-3.94-7.69-4.38-12.25-3.21-4.86,1.26-7.68,4.82-8.71,9.62-2.23,10.4,6.3,18.57,16.36,15.8a9.26,9.26,0,0,0,6.25-5,2.78,2.78,0,0,1,3.11-1.75,50.61,50.61,0,0,0,6.28,0c2.35-.17,2.43.73,1.77,2.64A21.53,21.53,0,0,1,680,423.8c-10.54.25-19.19-5.28-22.89-14.66-.61-1.56-1.13-3.16-1.69-4.74Z"/><path class="cls-9" d="M848,451.83a8.22,8.22,0,0,1-3.3-9.67,5,5,0,0,1,4.3-4,5.19,5.19,0,0,1,5.56,2.59c.28.46.58.92.87,1.38v3.43c-2.47,0-4.94.06-7.41,0-1.79-.07-1.83.72-1.31,2.07.95,2.47,3,3.1,6.12,1.72.65-.28,1.22-.69,1.74,0s-.23,1.13-.69,1.53-.87.67-1.31,1Zm2-7.64c.69-1.23,3,1.12,3.06-1.48,0-1.81-1.36-2.87-3.24-2.86-2.05,0-3.46,1.34-3.29,3.15S848.73,443.44,850,444.19Z"/><path class="cls-10" d="M781.13,451.83c-.21-.17-.41-.36-.63-.51-.71-.47-2.19-.59-1.73-1.72.63-1.56,1.71-.22,2.59,0a7.38,7.38,0,0,0,1.63.42c1.82.07,4,.23,4.24-2.17s-2.1-2-3.6-2.19c-2.08-.2-4.11-.45-4.64-2.9a3.44,3.44,0,0,1,2.2-4.15,7.55,7.55,0,0,1,6.84.46.54.54,0,0,1,.19.91,1.11,1.11,0,0,1-1.48.45,6,6,0,0,0-3.6-.6c-1.25.17-2.17.75-2.13,2.19s1,1.69,2.12,1.8c.85.09,1.71.13,2.55.28,1.64.29,3.21.74,3.51,2.75a3.84,3.84,0,0,1-2,4.31,9,9,0,0,0-.89.63Z"/><path class="cls-11" d="M822.84,451.83a5.5,5.5,0,0,1-3-5.61c.12-2.17,0-4.36,0-6.54,0-.67,0-1.41,1-1.42s1,.76,1,1.41c0,2.18,0,4.37,0,6.55S822.61,450,825,450s3.31-1.56,3.38-3.72,0-4.18,0-6.26c0-.69-.28-1.7.87-1.76,1.42-.06,1,1.12,1,1.87,0,3.89,0,7.78-.05,11.67h-1.71c-.76-2.51-1.53,0-2.29,0Z"/><path class="cls-12" d="M772.56,451.83c0-2.64-.11-5.27-.15-7.91,0-2.23-.78-4-3.33-4s-3.32,1.74-3.33,4c0,2.64,0,5.28,0,7.92H764c0-4-.09-8-.12-11.94,0-1.44.37-2.33,1.86-1.06.78.66,1.19-.14,1.72-.32,3.94-1.36,6.79.57,6.87,4.79,0,2.84,0,5.69-.05,8.53Z"/><path class="cls-13" d="M838.27,451.83c-1.79-1.25-2.17-3-2.37-5.11-.23-2.44,1.63-5.42-1.47-7.33-.19-.12-.13-.86.31-.94,1.71-.33,1.16-1.64,1.26-2.68.06-.7-.25-1.6,1-1.64s1.2.71,1.15,1.51c-.09,1.52-.1,2.92,2.1,2.71.21,0,.63.45.68.74.11.64-.46.81-.92.75-1.9-.25-1.9.94-1.85,2.28s0,2.66,0,4c0,1.77-.39,3.73,2.33,4,.88.09.33,1.15.64,1.69Z"/><path class="cls-12" d="M813.13,451.83a4.47,4.47,0,0,1-2.43-4.7,44.07,44.07,0,0,0,0-5.14c0-.84.47-2-1.07-2.19-.62-.08-.65-1-.4-1.06,2.9-.46.19-3.95,2.48-4.55.94-.25.92.71.93,1.36,0,1.41-.35,3,2,2.77.55-.05.84.4.76.95s-.68.61-1.11.56c-1.52-.15-1.7.71-1.65,1.92.06,1.43,0,2.86,0,4.28,0,1.78-.41,3.75,2.31,4.09.9.12.36,1.11.46,1.71Z"/><path class="cls-14" d="M796,451.83a4.75,4.75,0,0,1-2.33-4.76,51.19,51.19,0,0,0,0-5.4c0-.76.34-1.81-1-1.85-.43,0-.74-.68-.59-.74,2.42-.87,1.1-3.24,2-4.65.43-.69,1.5-.45,1.55.59.09,1.68-.29,3.53,2.38,3.4.34,0,.54.47.46.9s-.52.55-.87.51c-2.12-.26-1.92,1.19-1.9,2.52s0,2.47,0,3.7c0,1.77-.32,3.69,2.33,4.09.88.13.41,1.07.31,1.69Z"/><path class="cls-15" d="M802.84,451.83c0-3.87,0-7.74,0-11.61,0-.74-.43-1.89.91-2,1.52-.11,1.21,1.11,1.22,2,.06,3.87.08,7.74.12,11.6Z"/><path class="cls-11" d="M756.56,451.83c0-4-.09-8-.11-12,0-.73-.14-1.67,1.07-1.55,1,.09.77.94.78,1.55,0,4,0,8,0,12Z"/><path class="cls-16" d="M705.47,400.25a23.27,23.27,0,0,1,46.53-.2c0,13.6-10,23.79-23.44,23.77C715.63,423.8,705.47,413.42,705.47,400.25Zm35.69.06c.05-7.77-4.87-13.06-12.22-13.14-7.56-.09-12.77,5.15-12.85,12.9-.08,8,4.82,13.35,12.29,13.44C736.13,413.6,741.11,408.45,741.16,400.31Z"/><path class="cls-17" d="M803.87,432.31c.79-.06,1.26.18,1.25,1.09s-.37,1.19-1.2,1.17c-.68,0-1-.29-1.09-1S802.93,432.24,803.87,432.31Z"/><path class="cls-18" d="M757.57,434.51c-.93,0-1.36-.33-1.38-1.16s.39-1,1-1c.81-.05,1.26.24,1.19,1.11C758.36,434.05,758.19,434.56,757.57,434.51Z"/></g><g id="shaw-academy"><path class="cls-19" d="M208.05,101a4.76,4.76,0,0,0-.34.57q-4.07,8.85-8.11,17.71c-.22.48-.46.88-1.14.66.67-1.44,1.29-2.9,2-4.3a2.17,2.17,0,0,0,0-2.15c-1.89-4-3.72-8-5.58-12.07l-.23-.53a.82.82,0,0,1,1.12.55c1.81,4,3.65,8,5.48,12a1.42,1.42,0,0,0,.12.13c1.81-4,3.62-7.92,5.4-11.89.26-.58.54-1,1.24-1Z"/><path class="cls-20" d="M173.75,103.19c.55-.49,1.1-1.06,1.72-1.55,2.76-2.18,6.09-1,6.84,2.37a11.42,11.42,0,0,1,1.18-1.86,4.77,4.77,0,0,1,5.3-1.26,4.15,4.15,0,0,1,2.85,4c.12,1.32.07,2.65.08,4,0,1.81,0,3.63,0,5.44,0,.26.2.64-.37.65s-.4-.35-.4-.62c0-2.81,0-5.62,0-8.43a7.76,7.76,0,0,0-.38-2.35c-.88-2.48-3.58-2.71-5.31-2a4.29,4.29,0,0,0-2.54,4.3c0,2.84,0,5.69,0,8.54,0,.34,0,.54-.46.52s-.31-.32-.31-.54c0-2.79,0-5.58,0-8.37a9.53,9.53,0,0,0-.2-1.91c-.53-2.63-2.7-3.36-4.83-2.66a5.69,5.69,0,0,0-2.94,2.55,1.35,1.35,0,0,0-.13.73c0,3.22,0,6.44,0,9.65,0,.38-.06.63-.5.52-.12,0-.21-.19-.3-.29s0-.08,0-.12V101.26c0-.39.25-.57.52-.37a.62.62,0,0,1,.15.41C173.7,102,173.72,102.64,173.75,103.19Z"/><path class="cls-19" d="M163,107c-1.71,0-3.43,0-5.15,0-.37,0-.54.08-.49.48a24.34,24.34,0,0,0,.37,2.83,5.23,5.23,0,0,0,5.06,4.16,7.39,7.39,0,0,0,4.86-1.34c.09-.06.19-.17.29-.17a1.52,1.52,0,0,1,.4.12c0,.11,0,.26-.12.33a4,4,0,0,1-.7.52,8.32,8.32,0,0,1-6.09.94,5.69,5.69,0,0,1-4.41-4.21,8.85,8.85,0,0,1,.67-7.28c1.77-3,6.37-3.59,8.92-1.67a5.89,5.89,0,0,1,2.23,4.93c0,.43-.3.37-.57.37Zm-5.55-.49c3.49,0,6.92,0,10.35,0,.37,0,.34-.21.32-.45-.27-3.66-3-5.44-6.35-4.75C159.19,101.84,157.66,103.73,157.41,106.51Z"/><path class="cls-20" d="M151.37,102.83V94.76c0-.23-.11-.51.34-.51s.48.09.48.48c0,6.58,0,13.15,0,19.73,0,.15-.14.41-.25.43-.3.06-.44-.15-.43-.46,0-.72,0-1.43-.06-2.15a8.36,8.36,0,0,1-3.42,2.46c-2.69.88-6.72.26-7.58-4.18a11.62,11.62,0,0,1,.07-5.28,6.09,6.09,0,0,1,6.36-4.68A5.62,5.62,0,0,1,151.37,102.83Zm0,4.73c0-1.15,0-2.31,0-3.46a1.6,1.6,0,0,0-.29-.84,5.28,5.28,0,0,0-5.52-2,5.11,5.11,0,0,0-4.24,4,10.56,10.56,0,0,0,.05,5.66,4.27,4.27,0,0,0,3.32,3.32c2.7.6,4.78-.35,6.55-2.68a1.08,1.08,0,0,0,.13-.6C151.39,109.86,151.38,108.71,151.38,107.56Z"/><path class="cls-20" d="M135.18,112.53a8.72,8.72,0,0,1-3.36,2.23,6.31,6.31,0,0,1-4.07.07,3.17,3.17,0,0,1-2.19-2.89,3,3,0,0,1,1.59-3,11.45,11.45,0,0,1,4.77-1.4c1-.12,1.9-.14,2.85-.24.15,0,.4-.21.39-.31a20.41,20.41,0,0,0-.22-3.13,3.26,3.26,0,0,0-3.25-2.67,5.9,5.9,0,0,0-4.38,1.59,1.63,1.63,0,0,1-.47.32.52.52,0,0,1-.39-.15.39.39,0,0,1,0-.32,6.54,6.54,0,0,1,7.3-1.52,4,4,0,0,1,2.1,3.79c.07,2.92,0,5.85,0,8.77a6.4,6.4,0,0,1,0,.76,1.63,1.63,0,0,1-.2.45c-.13-.16-.36-.3-.39-.47C135.25,113.85,135.23,113.25,135.18,112.53Zm0-2.57c0-.56,0-1.13,0-1.7,0-.3-.08-.41-.4-.38-.8.06-1.6.06-2.39.16a11.73,11.73,0,0,0-4.49,1.18,2.65,2.65,0,0,0-1.56,2.86,2.81,2.81,0,0,0,2.45,2.4,6.68,6.68,0,0,0,5.28-1.52,2.27,2.27,0,0,0,1.11-2.36A3.42,3.42,0,0,1,135.17,110Z"/><path class="cls-19" d="M118.65,100.61a6,6,0,0,1,3.59,1.19c.15.1.32.39.27.48-.16.32-.41.16-.63,0a6,6,0,0,0-5.07-.89c-2.41.58-3.61,2.3-4,4.63a10,10,0,0,0,.13,4.35c1,3.75,4.36,4.75,7.37,3.77a14.17,14.17,0,0,0,1.84-1,2.68,2.68,0,0,1,.65-.15c-.1.2-.13.47-.29.59a6.72,6.72,0,0,1-5.21,1.41,5.63,5.63,0,0,1-5.12-4.5,10.08,10.08,0,0,1-.08-5C112.8,102.41,115.11,100.61,118.65,100.61Z"/><path class="cls-19" d="M106.82,112.56c-.45.39-.82.73-1.22,1a6.73,6.73,0,0,1-5.82,1.35,3.13,3.13,0,0,1-2.57-2.89,3,3,0,0,1,1.68-3.14,11.68,11.68,0,0,1,4.61-1.34c1-.12,1.94-.16,2.92-.23.22,0,.43,0,.4-.32a29.23,29.23,0,0,0-.2-3,3.28,3.28,0,0,0-3.35-2.83A5.93,5.93,0,0,0,99,102.8a1.31,1.31,0,0,1-.47.32.45.45,0,0,1-.38-.14s0-.25.05-.32a6.55,6.55,0,0,1,7-1.66,3.92,3.92,0,0,1,2.42,3.88c.09,3.23,0,6.47,0,9.71,0,.11-.13.22-.2.33-.13-.14-.37-.25-.39-.4C106.9,113.91,106.88,113.28,106.82,112.56Zm0-2.6c0-.57,0-1.13,0-1.7,0-.3-.08-.41-.4-.38-.8.07-1.6.06-2.39.16a11.73,11.73,0,0,0-4.49,1.18A2.61,2.61,0,0,0,98,112.08a2.81,2.81,0,0,0,2.45,2.4,6.67,6.67,0,0,0,5.32-1.56,2.16,2.16,0,0,0,1.06-2.26A4.09,4.09,0,0,1,106.82,110Z"/><path class="cls-21" d="M79,111.26c.46-1.38.92-2.76,1.37-4.14.63-1.9,1.25-3.81,1.87-5.71a1.52,1.52,0,0,1,1.56-1.24c.73,0,1.2.38,1.48,1.24q1.59,4.74,3.16,9.47l.19.56c.43-1.44.83-2.77,1.22-4.1.62-2.07,1.23-4.14,1.86-6.21a1.3,1.3,0,0,1,1.69-.92,1.28,1.28,0,0,1,.81,1.68c-1.26,4-2.51,8-3.78,12a1.69,1.69,0,0,1-1.67,1.21,1.73,1.73,0,0,1-1.72-1.24c-1-3.15-2-6.3-3-9.44-.06-.17-.11-.34-.22-.64-.11.29-.19.46-.25.65q-1.52,4.69-3,9.38a1.79,1.79,0,0,1-3.42,0c-1.26-4-2.5-7.9-3.75-11.85a1.31,1.31,0,0,1,.8-1.75,1.37,1.37,0,0,1,1.72,1c.93,3,1.84,6.11,2.75,9.16.09.3.19.6.28.9Z"/><path class="cls-21" d="M44.55,102.31a7.81,7.81,0,0,1,3.69-2.17,6.65,6.65,0,0,1,3.46.1A3.72,3.72,0,0,1,54.39,104c0,3.26,0,6.52,0,9.77a1.35,1.35,0,0,1-2.69,0c0-2.69,0-5.39,0-8.08,0-.19,0-.39,0-.58a2.57,2.57,0,0,0-2.7-2.69,5.12,5.12,0,0,0-4,1.54,1.31,1.31,0,0,0-.45,1.07c0,2.85,0,5.7,0,8.55a1.38,1.38,0,0,1-1.29,1.52,1.27,1.27,0,0,1-1.4-1.3q0-8.94,0-17.86a1.31,1.31,0,0,1,1.36-1.31A1.35,1.35,0,0,1,44.54,96c0,1.86,0,3.71,0,5.56Z"/><path class="cls-21" d="M67.76,107.55c0-1,0-1.91,0-2.8a3,3,0,0,0-2.8-2.47,6.08,6.08,0,0,0-4.4,1.18,1.07,1.07,0,0,1-1.52-.13,1,1,0,0,1,.15-1.5,7,7,0,0,1,3.65-1.71,8.56,8.56,0,0,1,4.93.43,4.12,4.12,0,0,1,2.67,3.86c.09,3.12,0,6.25,0,9.37a1.29,1.29,0,0,1-1.26,1.28,1.33,1.33,0,0,1-1.42-1.12c0-.17,0-.35,0-.63l-.53.46c-2.16,1.93-5.93,2-7.89.11a4.71,4.71,0,0,1-1.29-4.78,4.23,4.23,0,0,1,3.46-3.27A6.32,6.32,0,0,1,67.76,107.55Zm.1,3c-.1-1.45-.07-1.49-.76-2a4.8,4.8,0,0,0-4.7-.68,2.78,2.78,0,0,0,.33,5.31,7,7,0,0,0,2.19.12A3.5,3.5,0,0,0,67.5,112,4.12,4.12,0,0,0,67.86,110.51Z"/><path class="cls-21" d="M32.45,100a7.67,7.67,0,0,1,4.8,1.54c.36.31.68.7.44,1.16a1.75,1.75,0,0,1-.87.74c-.22.08-.6-.11-.85-.26a6.19,6.19,0,0,0-4.81-.83,3,3,0,0,0-.8.34,1.63,1.63,0,0,0-.88,1.6,1.4,1.4,0,0,0,1.1,1.23c1.41.45,2.84.84,4.25,1.27a8.41,8.41,0,0,1,1.47.56,4,4,0,0,1,.72,6.53,6.28,6.28,0,0,1-4.45,1.44,8.37,8.37,0,0,1-3.76-.7,9.4,9.4,0,0,1-1.68-1,1,1,0,0,1-.28-1.53,1.21,1.21,0,0,1,1.68-.24A6.09,6.09,0,0,0,31.46,113a13.59,13.59,0,0,0,2.77-.15,1.93,1.93,0,0,0,.9-.5,1.65,1.65,0,0,0-.41-2.9c-1.09-.45-2.27-.69-3.39-1.07a13.94,13.94,0,0,1-2.86-1.12,3.63,3.63,0,0,1-.66-5.5A5.83,5.83,0,0,1,32.45,100Z"/><path class="cls-22" d="M117.23,82.89c-21.46.82-41.7-18.4-41.42-41.48C76.08,18.68,94.67-.19,117.46,0S159,18.44,158.87,42.45C158.77,64,139.27,83.81,117.23,82.89Z"/><path class="cls-23" d="M117,75.46a33.48,33.48,0,0,1-33.7-33.91A34.16,34.16,0,0,1,117.46,7.42c18.9,0,33.79,15.47,33.94,34.79C151.53,59.87,135.75,76.32,117,75.46Z"/><path class="cls-21" d="M117,68a26.51,26.51,0,0,1-26.2-26.83c.09-14,12.57-26.31,26.65-26.21,14.35.1,26.42,12.4,26.39,26.89S131.79,68,117,68Z"/><path class="cls-24" d="M117.32,52.91a12.06,12.06,0,0,1-6.91-2.37c-.85-.66-1.27-1.48-.49-2.47s1.45-.63,2.19-.15a9.7,9.7,0,0,0,7,1.77c1.62-.26,2.9-1,3.21-2.74.34-1.88-.87-2.8-2.4-3.33-1.69-.58-3.45-1-5.13-1.55-2.91-1-5.28-2.53-5-6.15s2.62-4.92,5.65-5.65a10.78,10.78,0,0,1,8.29,1.56c.91.54,1.46,1.4.78,2.41-.56.83-1.46.64-2.22.2A8.92,8.92,0,0,0,116,33.19a3,3,0,0,0-2.76,2.66c-.16,1.53,1,2.18,2.2,2.62,1.41.52,2.88.91,4.32,1.36,5,1.56,6.6,3.6,6,7.45C125.25,50.72,122.26,52.82,117.32,52.91Z"/></g></g></g></g></svg>