<svg xmlns="http://www.w3.org/2000/svg" xmlns:xlink="http://www.w3.org/1999/xlink" viewBox="0 0 1465.33 796.83"><defs><style>.cls-1{fill:#fffdf5;}.cls-2{fill:#ccc;}.cls-3{fill:#a6120d;}.cls-4{fill:#b3b3b3;}.cls-5{fill:#dd1b16;}.cls-6{fill:#f2f2f2;}.cls-7{fill:#563d7c;}.cls-8{fill:#fff;}.cls-9{fill:#1a1918;}.cls-10{fill:#21609b;}.cls-11{fill:url(#linear-gradient);}.cls-12{fill:url(#linear-gradient-2);}.cls-13{fill:#63a714;}.cls-14{fill:#89ce17;}.cls-15{fill:#eaeaea;}.cls-16{fill:#fefefe;}.cls-17{fill:#e34d26;}.cls-18{fill:#f06529;}.cls-19{fill:#0070b9;}.cls-20{fill:#29a7df;}</style><linearGradient id="linear-gradient" x1="-2972.13" y1="-1417.56" x2="-2972.07" y2="-1417.62" gradientTransform="matrix(1849.27, 0, 0, -1853.39, 5497296.56, -2627192.79)" gradientUnits="userSpaceOnUse"><stop offset="0" stop-color="#387eb8"/><stop offset="1" stop-color="#366994"/></linearGradient><linearGradient id="linear-gradient-2" x1="-2972.44" y1="-1417.26" x2="-2972.38" y2="-1417.32" gradientTransform="matrix(1849.27, 0, 0, -1853.39, 5497940.13, -2626565.63)" gradientUnits="userSpaceOnUse"><stop offset="0" stop-color="#ffe052"/><stop offset="1" stop-color="#ffc331"/></linearGradient></defs><title>skills-languages-lg</title><g id="Layer_2" data-name="Layer 2"><g id="Intro"><g id="languages-lg"><path id="speech-bubble" class="cls-1" d="M0,131.34V665.48A131.34,131.34,0,0,0,131.34,796.83H1173.85A131.35,131.35,0,0,0,1305.2,665.48V576.82c12.38,2.28,25.6,4.19,39.58,5.5a454,454,0,0,0,120.55-4.92A401,401,0,0,1,1305.2,458.72V131.34A131.34,131.34,0,0,0,1173.85,0H131.35A131.34,131.34,0,0,0,0,131.34Z"/><g id="AngularJS"><path class="cls-2" d="M280.31,690.31v-87.5h11.35l53.69,70.56V602.81H355.9v87.5H344.81l-53.6-71.12v71.12h-10.9ZM443.07,687a62.88,62.88,0,0,1-22.79,4q-47.59,0-47.6-45.64,0-43.19,45.94-43.19c8.79,0,24.79,3.69,24.79,3.69v9.8s-15.6-4.29-23.56-4.29q-35.84,0-35.83,34,0,36.45,35.28,36.45a60.65,60.65,0,0,0,12.53-1.47V650.47h11.24V687Zm18.05-30.35V602.81h11.23v53.77q0,25.24,25.2,25.25t25.19-25.25V602.81H534V656.6q0,34.46-36.43,34.45T461.11,656.6Zm104.53-53.79v78.31h46v9.19h-57.2v-87.5Zm62.15,87.5H616.05l43.56-99.19,43.57,99.19H690.62l-11.34-27.58h-29l3.13-9.19H675.5l-16.37-39.73-31.33,76.5Zm87.32,0v-87.5h37.33q25,0,25,21,0,17.09-24.42,25.27l30,41.25H768.22l-27.9-39.43v-7.41q25.14-4,25.14-19.32,0-12.15-14-12.15H726.36v78.31Zm110.32-87.5v62.36q0,25.23-29.62,25.24v-9.19q18.38,0,18.38-16.05V602.81Zm20.43,84.76V677.08A87.56,87.56,0,0,0,875.62,682q22.59,0,22.59-16.67,0-14.18-16.65-14.2H870.29q-27.48,0-27.49-24.06,0-25.3,35.21-25.31a104.77,104.77,0,0,1,28.47,3.71V616A80.49,80.49,0,0,0,878,611q-23.87,0-23.87,16.05,0,14.19,16.15,14.19h11.27q28,0,28,24.07,0,25.92-33.92,25.92a114.25,114.25,0,0,1-29.75-3.7Z"/><path d="M283.38,687.52V600.08h12.26l52.77,70.22V600.08H359v87.17H347.68l-53.75-70.92v71.26H283.38Zm162.75-3.44a64.71,64.71,0,0,1-23,4q-47.59,0-47.6-45.64,0-43.18,45.95-43.19c8.77,0,24.29,3.68,24.29,3.68v9.85a64.43,64.43,0,0,0-23.09-4.28q-35.55,0-35.55,34,0,36.45,35,36.46a58.67,58.67,0,0,0,12.4-1.48V647.75h11.57Zm18.05-30.21V600.08h11.24v53.79q0,25.23,25.19,25.24t25.2-25.24V600.08H537v53.79q0,34.44-36.43,34.42T464.18,653.87Zm104.19-53.79v78.31h46v9.2H557.13V600.08Zm62.3,87.51H618.91l43.57-99.2,43.57,99.2H693.48L682.15,660h-29l3.13-9.2h22.06L662,611.09l-31.33,76.5Zm87.52,0V600.08h37q24.78,0,24.77,21,0,17.07-24.22,25.27l29.82,41.25H771.47l-28.09-39.44v-7.42q25.32-4,25.32-19.32,0-12.13-14.08-12.14h-25.2v78.32Z"/><path class="cls-3" d="M828.51,599.74v62.37q0,25.25-29.63,25.23v-9.18q18.39,0,18.39-16.06V599.74Zm20.08,85.08V674.34a87.62,87.62,0,0,0,29.76,4.94q22.59,0,22.59-16.66,0-14.18-16.66-14.19H873q-27.48,0-27.49-24.06,0-25.29,35.21-25.3a105,105,0,0,1,28.46,3.71v10.49a80.44,80.44,0,0,0-28.46-4.94q-23.88,0-23.88,16,0,14.19,16.16,14.19h11.26q28,0,28,24.05,0,25.92-33.92,25.92a114.3,114.3,0,0,1-29.75-3.71Z"/><path class="cls-4" d="M164.18,532.45l-102.3,36,16.17,134,86.24,47.4,86.7-48,16.16-134-103-35.37Z"/><path class="cls-3" d="M256.86,575.57l-93-31.72V738.57l77.93-43.13,15.06-119.87Z"/><path class="cls-5" d="M73.3,576.15,87.15,696l76.72,42.56V543.87L73.3,576.15Z"/><path class="cls-6" d="M189.54,647.36l-25.59,12H137l-12.68,31.72-23.59.44L164,550.77Zm-2.47-6-22.95-45.44L145.29,640.6h18.65l23.13.78Z"/><path class="cls-4" d="M163.87,551.05v45l21.61,44.56H164.21v19.07h29.44l13.89,32,22.57.42-66.17-141Z"/></g><g id="Bootstrap"><path class="cls-7" d="M734.35,274.05a28,28,0,0,0,28,28H923.76a28,28,0,0,0,28-28V112.68a28,28,0,0,0-28-28H762.39a28,28,0,0,0-28,28V274.05Z"/><path class="cls-8" d="M824.55,180.84V150.05h27.1a42.29,42.29,0,0,1,7.47.64,18.67,18.67,0,0,1,6.36,2.31,12.25,12.25,0,0,1,4.42,4.61,15.28,15.28,0,0,1,1.66,7.56q0,8.29-5,12t-12.72,3.69Zm-29-53.32V259.21H859.4A67.53,67.53,0,0,0,876.64,257a46,46,0,0,0,14.94-6.83A33.54,33.54,0,0,0,902,238.28,36.3,36.3,0,0,0,905.87,221q0-12.36-6-21.12t-18.17-12.26q8.87-4.25,13.38-10.88t4.51-16.6q0-9.22-3-15.5a25.31,25.31,0,0,0-8.58-10,37,37,0,0,0-13.27-5.44,81.9,81.9,0,0,0-17.16-1.66Zm29,109.25V200.58h31.56q9.42,0,15.14,4.34T877,219.41a18.14,18.14,0,0,1-1.76,8.5,14,14,0,0,1-4.71,5.26,20,20,0,0,1-6.83,2.77,38.88,38.88,0,0,1-8.12.83Z"/></g><g id="jQuery"><path class="cls-9" d="M1220.17,375l30.07.16s-56.06,76-60.64,82.16c-1.49,2-3.75,4.17-4.89,6.85-2.9,6.74-5.87,21.52-5.87,21.52l-27.53.14s4.29-15.43,4.12-23.64c-.16-7.18-3.82-14.35-5.88-21.54s-4.9-21.55-4.9-21.55H1173l3.91,15.64L1220.08,375"/><path class="cls-9" d="M1163,390.94c5.56,3.35,9,21.84,9,21.84l-44.92.29H1113.4l-16.62,72.35h-25.39s15.8-78.51,19.53-92.75c1.21-4.61,8.28-3.82,20.22-3.82h19.1c12.33,0,26.73-1.57,32.79,2.07m-118.29,35.36s.79-4.64-2.68-10c-3-4.59-5.72-5.65-13.54-5.9-22.08-.69-21.65,15.67-21.65,15.67Zm24.09-18.83c3.23,11.67-2.94,39.09-2.94,39.09s-32.2-.53-49.84,0c-5.48.17-12-.59-13.68,2-2.29,3.57.84,9.08,3.5,11.4,3.06,2.68,9,3,11.16,3.26,14.32,1.81,44.28.47,44.28.47l-5.19,23s-42.34,2.12-63.52-2.93a21.63,21.63,0,0,1-10.75-5.86c-.72-.79-1.35-1.85-2-2.77A25.75,25.75,0,0,1,977,470c-4.83-12.89.57-37.59,5.87-50.82.61-1.53,1.38-3.48,2.2-5.13,1-2.06,1.87-4.39,2.68-5.62.55-.85,1.23-1.4,1.79-2.2.66-1,1.42-1.87,2.12-2.69a41,41,0,0,1,6.84-5.86c8.83-6.61,24.8-11.74,44-9.77,7.22.74,18.13,3.32,23.45,10.75,1.43,2,2.14,5.92,2.94,8.79Zm-116.75-18.6,24.72-.14s-13.75,65.2-20.76,97H927.77c-19.85,0-37.53,2.46-45-11.75-7.29-13.8-.33-36.49,2.94-51.9,2.31-10.91,7.18-33.21,7.18-33.21l25.54-.23s-7.21,34.64-10.21,51.94c-1.07,6.2-3.29,12-1,16.61,2.2,4.36,5.28,4.67,14.66,4.89,3,.07,12.71,0,12.71,0l17.59-73.3M836.83,435.71c2.58-9.16,6.34-19.1,5.87-27.36-.52-8.83-7.93-16.87-12.71-18.57-14.39-5.08-27.87,2-33.23,7.82-6.92,7.51-9.27,16.27-11.72,28.34-1.83,9-3.33,18.42,0,25.41,5.88,12.35,24.22,9.66,44,9.78,2.93-7.86,5.36-16.69,7.82-25.42ZM871,399.56c2.81,20.46-8,43.05-15.43,62.69,7.59.68,14.23-.11,14.71.46.5.73-5.08,23.44-7,23.5-6,.16-26,.32-34.28.32-27.14,0-52.52,1.77-65.47-11.72-5.26-5.49-8.9-14.89-9.78-21.5-1.46-11.05.38-23.21,2.94-33.23,2.31-9.05,5.28-17.59,9.77-25.41,11.4-19.91,31.24-34.68,64.5-31.27a61.92,61.92,0,0,1,21.5,6.84c.4.23,1.8,1.35,2.12,1.54,7.82,5,14.94,16.85,16.45,27.78ZM750.89,389c-1.64,7.44-3.27,15.88-5,23.23H718.66c2.11-8.15,3.72-16.26,5.83-23.35,8.72,0,26.38.12,26.38.12m-33.16,30.15H744c-3.45,19.1-10.28,49.9-15.63,71.34-3.36,13.42-5.59,23.21-14.66,30.29-.81.64-1.28.34-2,1-1.67,1.59-9.4,3.44-13.68,3.91-7,.75-14.82.1-23.37-.08,2.23-8.18,4.76-18,6.76-25.33,20.84,2.52,21.37-17.18,25.41-36.16,2.33-11,9.41-40.55,10.75-44.95"/><path class="cls-10" d="M656,468.94l-.57,1.47c-9.63,18.76-26.71,30.27-51.06,30.78a71.45,71.45,0,0,1-29.32-5.86,75.74,75.74,0,0,1-35.18-33.23C529.84,442.59,528,415.44,549,395.16c.33,0-2.54,4.4-2.22,4.4l-.57,1.87c-15.1,47.27,31.42,87.78,76.63,83.15,10.87-1.12,24.73-7.07,33.23-15.64"/><path class="cls-10" d="M628.68,449.4c11.37.07,23.25-5.24,30.29-12.71-6.16,15.63-24,25.67-47.88,22.48-20-2.68-39.08-22.82-41.05-43-1.43-14.69,3.68-23.45,12.12-34.09-2.93,5.57-4,9.85-4.3,12.59-3.2,31.77,25.38,54.56,50.82,54.73"/><path class="cls-10" d="M657.83,409.93c-1.77,4.06-12,11.72-16.45,12.68-17.8,3.79-29.21-4.65-35.18-14.26a42.91,42.91,0,0,1-2.82-6.35c-2.32-7.88-1.26-19.79,5.65-26-2.08,5.87-2.38,12.68-1.29,17.11a38.12,38.12,0,0,0,4.72,10.29c3.68,5.35,6,6.65,10.74,9.5a28.19,28.19,0,0,0,5.41,2.58c4.48,1.33,13.95,4.8,29.22-5.59"/></g><g id="Python"><path class="cls-11" d="M1128.23,84.64c-55.48,0-52,24.06-52,24.06l.06,25h53v7.45h-74s-35.5-4-35.5,52,31,54,31,54h18.55v-26s-1-31,30.49-31h52.44s29.51.48,29.51-28.51V113.65S1186.21,84.64,1128.23,84.64Zm-19.68,26.28h0a9.5,9.5,0,0,1-9.5,9.5h0a9.52,9.52,0,0,1-9.52-9.52h0a9.5,9.5,0,0,1,9.5-9.5h0A9.52,9.52,0,0,1,1108.55,110.92Z"/><path class="cls-12" d="M1129.78,302.09c55.5,0,52-24.06,52-24.06l-.06-24.93h-53v-7.54h74s35.52,4,35.52-51.95-31-54-31-54h-18.51v26.08s1,31-30.49,31H1105.8s-29.5-.47-29.5,28.51v47.92s-4.48,29,53.51,29ZM1159,285.26a9.53,9.53,0,0,1-9.56-9.5h0a9.51,9.51,0,0,1,9.51-9.51h0a9.51,9.51,0,0,1,9.51,9.51h0a9.49,9.49,0,0,1-9.49,9.49Z"/></g><g id="JavaScript"><path class="cls-13" d="M666.4,110.82c-1.35,3.83-1.12,7.88-1.5,11.83-1.83,19.25-3.5,38.51-5.21,57.77q-2.22,25.08-4.41,50.16c-1.46,16.45-3,32.9-4.36,49.37-.18,2.17-1,3-3.12,3.59q-32.76,9-65.46,18.14a9.86,9.86,0,0,1-5.62,0q-32.84-9.19-65.71-18.24c-1.58-.43-2.41-1-2.58-2.9-2.85-32.65-5.82-65.3-8.73-97.94-2.21-24.78-4.33-49.55-6.61-74.32-.21-2.34.39-2.7,2.56-2.7q83.79.09,167.58,0c1.06,0,2.11-.05,3.17-.08ZM579.31,241.76c-7.83-1.57-15.42-4.06-23.17-5.9-1.18-.28-1.13-1.13-1.21-2-.35-4.29-.79-8.57-1.07-12.86-.13-2-.65-2.92-2.94-2.84-5.62.19-11.25.1-16.88,0-1.61,0-2.32.23-2.15,2.15q1.38,15.21,2.45,30.46c.11,1.62.83,2.07,2.11,2.4,4.16,1.1,8.31,2.21,12.45,3.36q15.2,4.21,30.4,8.48c0,6.69,0,13.37,0,20.06,0,1.53.26,2.33,2.12,1.81q27.08-7.57,54.19-15c1.1-.3,1.66-.71,1.76-1.88.49-5.84,1.08-11.66,1.56-17.5.58-7,1-14,1.66-20.93.79-8.79,1.77-17.56,2.55-26.35.64-7.15,1-14.32,1.67-21.46,1-10.7,2.15-21.39,3.07-32.1.84-9.75,1.49-19.53,2.66-29.25.22-1.8-.16-2.69-2.32-2.68q-33.27.12-66.52,0c-1.82,0-2.45.52-2.42,2.39.1,6.42,0,12.84,0,19.27-1,0-2.11.11-3.16.11-16.27,0-32.54,0-48.81,0-2,0-2.57.48-2.37,2.49.61,6.38,1.06,12.78,1.57,19.17.9.83,2,.44,3,.44,15.48,0,31,.08,46.43,0,2.59,0,3.41.54,3.4,3.31C579.26,191.82,579.31,216.79,579.31,241.76Z"/><path d="M599.26,69.55c4.2,3.32,7.76,6.25,11.46,9a4.06,4.06,0,0,1,1.86,3.95,63,63,0,0,0,0,6.59c.06,1.3-.42,1.62-1.66,1.62q-13.85-.08-27.7,0c-1.15,0-1.8-.19-1.75-1.56.09-2.55.1-5.1,0-7.65-.05-1.4.63-1.57,1.76-1.56,3.6,0,7.2,0,10.78,0,.27-1.1-.66-1.24-1.11-1.62-1.34-1.14-2.77-2.16-4.16-3.24-7.84-6.07-7.8-6.07-7.28-16,.07-1.33.51-1.59,1.7-1.58q14,.06,28,0c1.19,0,1.49.38,1.46,1.51-.07,3-.08,6,0,9,0,1.26-.36,1.66-1.63,1.63C607.33,69.5,603.73,69.55,599.26,69.55Z"/><path d="M576.56,74.13c0,4.83-.06,9.67,0,14.5,0,1.62-.41,2.09-2.06,2.08-8.88-.08-17.76-.06-26.64,0-1.39,0-2.07-.23-2-1.84.12-2.72.13-5.45,0-8.17-.08-1.63.63-1.86,2-1.84,4.4.07,8.79-.07,13.19.07,1.9.06,2.34-.59,2.3-2.38-.11-5.72,0-11.43-.07-17.15,0-1.44.29-2,1.85-1.93,3.16.13,6.33.11,9.49,0,1.47,0,2,.37,1.93,1.89C576.5,64.28,576.56,69.2,576.56,74.13Z"/><path class="cls-14" d="M579.3,141.41c0-6.43.07-12.85,0-19.27,0-1.87.6-2.39,2.42-2.39q33.25.07,66.52,0c2.16,0,2.54.88,2.32,2.68-1.17,9.72-1.82,19.5-2.66,29.25-.92,10.71-2.11,21.4-3.07,32.1-.65,7.14-1,14.31-1.67,21.46-.78,8.79-1.76,17.56-2.55,26.35-.63,7-1.08,14-1.66,20.93-.48,5.84-1.07,11.66-1.56,17.5-.1,1.17-.66,1.58-1.76,1.88q-27.12,7.44-54.19,15c-1.86.52-2.12-.28-2.12-1.81,0-6.69,0-13.37,0-20.06l1.11-.54c14.14-3.86,28.27-7.74,42.42-11.55,1.15-.31,1.25-1,1.33-1.9q1.85-20.88,3.73-41.75c1.13-12.51,2.32-25,3.44-37.53.84-9.54,1.6-19.09,2.4-28.63.86-2.45-1.12-1.61-2-1.61Q605.5,141.41,579.3,141.41Z"/><path class="cls-14" d="M579.31,241.76c0-25,0-49.94.07-74.91,0-2.77-.81-3.33-3.4-3.31-15.48.12-31,.07-46.43,0-1,0-2.12.39-3-.44l52.78-.09c1,0,1.92.11,2.89.11,8.69,0,17.39,0,26.09,0,1.49,0,2.12.14,1.93,2q-3.39,33.93-6.5,67.87c-.19,2.09-1,2.79-2.83,3.26-6.88,1.77-13.71,3.7-20.57,5.57Z"/><path class="cls-15" d="M579.31,241.76l1,.09a2.55,2.55,0,0,0-1.06,2.23c0,6.13,0,12.27,0,18.41,0,.88-.11,1.82,1.13,2l-1.11.54q-15.21-4.25-30.4-8.48c-4.14-1.15-8.29-2.26-12.45-3.36-1.28-.33-2-.78-2.11-2.4q-1.05-15.24-2.45-30.46c-.17-1.92.54-2.17,2.15-2.15,5.63.07,11.26.16,16.88,0,2.29-.08,2.81.87,2.94,2.84.28,4.29.72,8.57,1.07,12.86.08.88,0,1.73,1.21,2C563.89,237.7,571.48,240.19,579.31,241.76Z"/><path class="cls-15" d="M579.31,163.05l-52.78.09c-.51-6.39-1-12.79-1.57-19.17-.2-2,.37-2.5,2.37-2.49,16.27.08,32.54.05,48.81,0,1.05,0,2.11-.07,3.16-.11q26.21,0,52.4.11c.91,0,2.89-.84,2,1.61-.24-1.39-1.33-1.15-2.27-1.15-16.6,0-33.21,0-49.81,0-1.83,0-2.43.55-2.4,2.4C579.35,150.57,579.3,156.81,579.31,163.05Z"/><path class="cls-16" d="M579.31,163.05c0-6.24,0-12.48-.06-18.71,0-1.85.57-2.4,2.4-2.4,16.6.06,33.21,0,49.81,0,.94,0,2-.24,2.27,1.15-.8,9.54-1.56,19.09-2.4,28.63-1.12,12.51-2.31,25-3.44,37.53Q626,230.15,624.16,251c-.08.92-.18,1.59-1.33,1.9-14.15,3.81-28.28,7.69-42.42,11.55-1.24-.18-1.13-1.12-1.13-2,0-6.14,0-12.28,0-18.41a2.55,2.55,0,0,1,1.06-2.23c6.86-1.87,13.69-3.8,20.57-5.57,1.85-.47,2.64-1.17,2.83-3.26q3.09-33.95,6.5-67.87c.19-1.86-.44-2-1.93-2-8.7,0-17.4,0-26.09,0C581.23,163.16,580.27,163.09,579.31,163.05Z"/></g><g id="HTML"><path class="cls-17" d="M49.05,105.74c1.14,0,2.28.08,3.42.08q83.55,0,167.09-.07c2.74,0,3.11.83,2.88,3.26-2.35,25.52-4.59,51-6.88,76.56q-4.11,45.62-8.24,91.24c-.54,5.92-.56,5.91-6.16,7.47q-31.41,8.72-62.83,17.45a8.64,8.64,0,0,1-4.86,0q-32.93-9.21-65.87-18.3c-1.89-.52-2.62-1.25-2.79-3.3-1.59-18.89-3.34-37.77-5-56.65q-2.24-25-4.42-50.08t-4.51-50.08c-.41-4.55-.79-9.09-1.24-13.64-.06-.62.3-1.45-.57-1.85Zm86.35,136.1c-7.44-2-14.89-3.94-22.35-5.84-1.32-.34-1.27-1.2-1.35-2.17-.41-4.54-.9-9.07-1.25-13.62-.12-1.56-.71-2-2.28-2q-8.69.15-17.38,0c-1.85,0-2.42.49-2.24,2.38,1,10.13,1.82,20.26,2.68,30.39a1.9,1.9,0,0,0,1.65,2q21.35,5.88,42.66,11.87a2.85,2.85,0,0,1,.5.14v19.24c0,3.07,0,3.11,3.05,2.31s6.06-1.72,9.09-2.56q21.85-6.06,43.72-12.1c1-.27,1.53-.67,1.61-1.72q.23-3.27.54-6.52.69-7.17,1.18-14.36c.46-7,1.32-14.05,2-21.08.42-4.61.73-9.23,1.16-13.83.64-6.86,1.38-13.7,2-20.56s1.08-13.57,1.67-20.35c.64-7.38,1.36-14.76,2-22.14.41-4.52.78-9,1.19-13.56.47-5.12.94-10.24,1.45-15.36.19-1.81-.47-2.42-2.35-2.42q-32.94.09-65.88,0c-2.05,0-2.5.71-2.47,2.6.11,5.44-.06,10.89.09,16.33.07,2.27-.73,2.77-2.85,2.76-16.16-.08-32.33,0-48.49,0-1,0-2.12-.39-3,.48,0,1.23,0,2.46.1,3.68q1.83,20.82,3.71,41.64c.62,6.72,1.33,13.42,2,20.13.89.86,2,.47,3,.48,14.22,0,28.44.05,42.66,0,2.1,0,2.9.45,2.87,2.74-.12,9.47,0,19-.06,28.44C136,240.08,136.36,241.12,135.4,241.84Z"/><path d="M163.18,75.65l-7.05,10.83L149,75.6l-.55.13c0,4.24-.1,8.48,0,12.72.07,1.94-.42,2.67-2.46,2.48a42.87,42.87,0,0,0-6.31,0c-1.52.08-2.14-.22-2.13-2q.13-14.76,0-29.51c0-1.43.45-1.9,1.78-1.69a2.25,2.25,0,0,0,.26,0c3.16,0,6.84-.92,9.31.4s3.42,4.89,5.05,7.48c.69,1.1,1.37,2.21,2.23,3.58,2.1-3.43,4.11-6.56,5.95-9.79a3,3,0,0,1,3.11-1.7c2.63.11,5.27.09,7.9,0,1.26,0,1.65.35,1.65,1.63q-.08,14.88,0,29.77c0,1.37-.41,1.84-1.8,1.78-3-.12-6.78,1-8.71-.45s-.43-5.43-.57-8.3c-.1-2.13,0-4.27,0-6.4Z"/><path d="M65.4,74.2c0-4.83.08-9.67-.05-14.49,0-1.7.49-2.07,2.06-2a67.45,67.45,0,0,0,7.11,0c1.55-.08,2.21.23,2.08,2-.17,2.36,0,4.74-.07,7.11-.06,1.45.33,2,1.89,2,2.18-.12,4.39-.08,6.58,0,1.15,0,1.54-.35,1.51-1.49-.07-2.64,0-5.28-.05-7.91,0-1.23.27-1.69,1.58-1.64,2.72.1,5.45.08,8.17,0,1.18,0,1.46.38,1.46,1.5q-.06,15,0,30c0,1.27-.39,1.81-1.65,1.62a2.43,2.43,0,0,0-.27,0c-3,0-6.85,1-8.67-.44s-.52-5.59-.54-8.53c0-1.55-.28-2.24-2-2-2.59.29-6.06-1.1-7.55.54-1.28,1.42-.57,4.85-.38,7.35s-.45,3.52-3.09,3.16a20.14,20.14,0,0,0-5.26,0c-2.56.35-3-.77-2.91-3C65.51,83.33,65.4,78.76,65.4,74.2Z"/><path d="M117.62,57.76c4.48,0,8.95.06,13.42,0,1.51,0,1.94.42,1.87,1.9-.11,2.54-.09,5.09,0,7.63.05,1.26-.34,1.67-1.61,1.61-2.1-.1-4.22.07-6.31-.06-1.5-.09-1.92.38-1.89,1.89.08,6,0,11.93.07,17.89,0,1.82-.44,2.53-2.32,2.33-2.84-.29-6.57,1.2-8.33-.57s-.4-5.34-.45-8.13c-.07-3.6-.19-7.21,0-10.79.15-2.31-.66-2.84-2.76-2.62-1.74.18-3.51,0-5.26,0-1.25.06-1.91-.14-1.83-1.66.14-2.63.12-5.27,0-7.9,0-1.34.47-1.57,1.67-1.55C108.5,57.8,113.06,57.76,117.62,57.76Z"/><path d="M180.24,74.37c0-4.92.06-9.83,0-14.75,0-1.48.38-2,1.88-1.89,2.45.12,4.92.12,7.37,0,1.54-.08,1.91.45,1.89,1.92-.08,6,.07,11.95-.09,17.91-.06,2.06.58,2.47,2.48,2.39,3.77-.15,7.55,0,11.32-.08,1.39,0,1.82.37,1.75,1.76-.14,3,1,6.87-.48,8.68s-5.59.5-8.54.55c-5.18.09-10.36,0-15.54.07-1.66,0-2.08-.47-2-2.07C180.31,84,180.24,79.2,180.24,74.37Z"/><path class="cls-18" d="M81.74,142.08c.89-.87,2-.48,3-.48,16.16,0,32.33,0,48.49,0,2.12,0,2.92-.49,2.85-2.76-.15-5.44,0-10.89-.09-16.33,0-1.89.42-2.61,2.47-2.6q32.94.09,65.88,0c1.88,0,2.54.61,2.35,2.42-.51,5.12-1,10.24-1.45,15.36-.41,4.52-.78,9-1.19,13.56-.68,7.38-1.4,14.76-2,22.14-.59,6.78-1.06,13.57-1.67,20.35s-1.35,13.7-2,20.56c-.43,4.6-.74,9.22-1.16,13.83-.65,7-1.51,14-2,21.08q-.48,7.2-1.18,14.36-.31,3.25-.54,6.52c-.08,1.05-.62,1.45-1.61,1.72q-21.87,6-43.72,12.1c-3,.84-6.05,1.76-9.09,2.56s-3,.76-3.05-2.31V265a11.35,11.35,0,0,1,1.22-.47c13.51-3.74,27-7.53,40.55-11.15,2.1-.56,2.8-1.57,2.91-3.55.2-3.51.53-7,.84-10.5,1.51-16.86,3-33.72,4.61-50.57.22-2.33-.35-2.91-2.72-2.89-15.8.08-31.61,0-47.41,0v-22c16.66,0,33.32-.09,50,0,1.78,0,2.44-.47,2.57-2.25.41-5.68.86-11.36,1.53-17,.25-2-.21-2.53-2.24-2.52-12.8.08-25.6,0-38.41,0-4.64,0-9.29.08-13.93.13Z"/><path class="cls-15" d="M81.74,142.08l53.8.09q0,10.74,0,21.47c-9.22,0-18.44.12-27.65.05-1.94,0-2.61.36-2.37,2.44.65,5.75,1.14,11.52,1.57,17.3.13,1.81.63,2.52,2.64,2.5,8.6-.1,17.21,0,25.81,0q0,10.74,0,21.47l-48,.09c-.66-6.71-1.37-13.41-2-20.13q-1.9-20.82-3.71-41.64C81.73,144.54,81.77,143.31,81.74,142.08Z"/><path class="cls-16" d="M135.54,207.44q0-10.74,0-21.47l.51-.18c15.8,0,31.61.11,47.41,0,2.37,0,2.94.56,2.72,2.89-1.6,16.85-3.1,33.71-4.61,50.57-.31,3.5-.64,7-.84,10.5-.11,2-.81,3-2.91,3.55-13.54,3.62-27,7.41-40.55,11.15A11.35,11.35,0,0,0,136,265a2.85,2.85,0,0,0-.5-.14V242.27c7.5-2.05,15-4.13,22.53-6.11,1.38-.36,2.06-.85,2.18-2.38.63-7.86,1.29-15.71,2.12-23.54.25-2.34-.53-2.73-2.66-2.71C151.66,207.6,143.6,207.48,135.54,207.44Z"/><path class="cls-15" d="M135.54,242.27v22.54q-21.33-6-42.66-11.87a1.9,1.9,0,0,1-1.65-2c-.86-10.13-1.72-20.26-2.68-30.39-.18-1.89.39-2.41,2.24-2.38q8.7.15,17.38,0c1.57,0,2.16.44,2.28,2,.35,4.55.84,9.08,1.25,13.62.08,1,0,1.83,1.35,2.17,7.46,1.9,14.91,3.88,22.35,5.84C135.45,242,135.5,242.12,135.54,242.27Z"/><path class="cls-18" d="M135.54,242.27c0-.15-.09-.29-.14-.43,1-.72.63-1.76.63-2.68,0-9.48-.06-19,.06-28.44,0-2.29-.77-2.75-2.87-2.74-14.22.08-28.44.05-42.66,0-1,0-2.13.38-3-.48l48-.09c8.06,0,16.12.16,24.17.09,2.13,0,2.91.37,2.66,2.71-.83,7.83-1.49,15.68-2.12,23.54-.12,1.53-.8,2-2.18,2.38C150.54,238.14,143,240.22,135.54,242.27Z"/><path class="cls-16" d="M135.53,163.64q0-10.74,0-21.47c4.64,0,9.29-.12,13.93-.13,12.81,0,25.61,0,38.41,0,2,0,2.49.48,2.24,2.52-.67,5.66-1.12,11.34-1.53,17-.13,1.78-.79,2.25-2.57,2.25-16.66-.05-33.32,0-50,0Z"/><path class="cls-17" d="M135.53,163.64l.51.18v22l-.51.18c-8.6,0-17.21-.14-25.81,0-2,0-2.51-.69-2.64-2.5-.43-5.78-.92-11.55-1.57-17.3-.24-2.08.43-2.46,2.37-2.44C117.09,163.76,126.31,163.67,135.53,163.64Z"/></g><g id="CSS"><path class="cls-19" d="M357.93,105.61c28,0,55.93,0,83.89,0,2.28,0,2.7.55,2.49,2.78-1.79,19-3.43,38-5.14,56.95s-3.42,37.8-5.11,56.69q-2.24,25.08-4.42,50.14c-.25,2.89-.64,5.77-.77,8.66-.07,1.56-.82,2-2.15,2.41q-33.75,9.29-67.47,18.66a5.43,5.43,0,0,1-3.07,0q-33.72-9.37-67.46-18.68a2.38,2.38,0,0,1-2.09-2.46q-3.88-44.9-7.93-89.77Q275,149.5,271.25,108c-.19-2.09.28-2.47,2.26-2.46Q315.72,105.66,357.93,105.61Zm-50.61,80.1q.82,10.75,1.66,21.53c.77,1.12,1.93.59,2.9.59q21.45.06,42.91,0c1.47,0,2.71-.14,2.69,2.07-.09,9.74,0,19.48,0,29.22,0,.87.15,1.83-1.09,2-7-1.86-14.05-3.81-21.12-5.52-2-.48-2.44-1.51-2.56-3.25-.31-4.38-.8-8.75-1.08-13.13-.09-1.45-.51-1.95-2-1.93-6.32.07-12.65.05-19,0-1.24,0-1.65.29-1.52,1.64,1,10.22,2,20.44,2.78,30.68.16,2,.93,2.72,2.8,3.23,14.27,3.92,28.5,8,42.75,12,0,6.59.07,13.19,0,19.78,0,2.07.48,2.56,2.6,2q26.79-7.54,53.66-14.85c1.66-.45,1.69-1.39,1.78-2.69.34-4.88.7-9.77,1.14-14.64.64-7.23,1.36-14.45,2-21.67.42-4.62.75-9.24,1.18-13.86.63-7,1.35-13.91,2-20.87.6-6.71,1.1-13.42,1.69-20.13.65-7.31,1.36-14.62,2-21.93.41-4.53.74-9.06,1.17-13.59q.94-10.18,2-20.35c.18-1.73-.44-2.29-2.19-2.28q-33.23.06-66.44,0c-2,0-2.6.71-2.58,2.63.08,6.5,0,13,0,19.51-17,0-34.09.13-51.13,0-2.57,0-2.87.85-2.61,3,.59,5,1,9.95,1.44,14.93.31,3.67.27,3.67,4,3.67l48.24.07c0,6.23-.08,12.46.09,18.69.07,2.33-.6,3-2.93,3-14.75-.11-29.49-.07-44.24,0C309.32,185.23,308.2,184.81,307.32,185.71Z"/><path d="M354.85,79.38c-3.71-2.86-7.39-5.77-11.15-8.57a3.44,3.44,0,0,1-1.64-3.24c.14-2.72.12-5.45,0-8.16-.05-1.43.27-1.95,1.83-1.94q13.69.12,27.39,0c1.53,0,1.95.46,1.88,1.94-.11,2.71-.13,5.44,0,8.16.09,1.7-.54,2.07-2.11,2-3.5-.11-7,0-11.23,0,3.93,3.11,7.32,5.91,10.85,8.53,1.76,1.3,2.81,2.64,2.49,5s1,5.59-.48,7.1-4.66.44-7.09.46c-7.11.06-14.22,0-21.33.06-1.65,0-2.36-.32-2.22-2.13a34.21,34.21,0,0,0,0-6.32c-.22-2.15.72-2.43,2.54-2.36,3.36.13,6.73,0,10.1,0Z"/><path d="M390.46,79.34c-3.76-2.88-7.48-5.81-11.28-8.64a3.31,3.31,0,0,1-1.5-3.09c.1-2.72.09-5.44,0-8.16-.05-1.4.23-2,1.83-2,9.13.08,18.26.06,27.39,0,1.32,0,1.85.27,1.79,1.72-.11,2.8-.14,5.62,0,8.42.1,1.76-.63,2-2.14,2-3.47-.1-6.94,0-11.14,0,4.25,3.34,7.9,6.28,11.63,9.12a3.47,3.47,0,0,1,1.64,3.26c-.13,2.36-.09,4.74,0,7.11.05,1.27-.39,1.64-1.65,1.64q-13.83-.07-27.66,0c-1.24,0-1.73-.33-1.69-1.62.07-2.45.09-4.92,0-7.37-.05-1.41.45-1.82,1.82-1.79,3.63.08,7.27,0,10.91,0Z"/><path d="M306.75,73.92c0-4.75.06-9.49,0-14.24,0-1.61.25-2.24,2.09-2.22,8.79.11,17.58.09,26.37,0,1.61,0,2.35.23,2.22,2.09a60.86,60.86,0,0,0,0,7.64c.09,1.69-.36,2.27-2.14,2.22-4.4-.14-8.8,0-13.19-.08-1.63,0-2.16.45-2.06,2.08.17,2.71-.85,6.23.5,7.91s5.09.46,7.77.57a67.64,67.64,0,0,0,7.12,0c1.7-.11,2.09.52,2,2.09a60.38,60.38,0,0,0,0,6.86c.09,1.57-.54,1.86-2,1.85q-13.32-.09-26.64,0c-1.58,0-2.12-.33-2.08-2C306.83,83.77,306.75,78.84,306.75,73.92Z"/><path class="cls-20" d="M357.42,141.92c0-6.5.07-13,0-19.51,0-1.92.6-2.64,2.58-2.63q33.21.06,66.44,0c1.75,0,2.37.55,2.19,2.28q-1,10.17-2,20.35c-.43,4.53-.76,9.06-1.17,13.59-.66,7.31-1.37,14.62-2,21.93-.59,6.71-1.09,13.42-1.69,20.13-.62,7-1.34,13.91-2,20.87-.43,4.62-.76,9.24-1.18,13.86-.65,7.22-1.37,14.44-2,21.67-.44,4.87-.8,9.76-1.14,14.64-.09,1.3-.12,2.24-1.78,2.69Q386.8,279.1,360,286.64c-2.12.6-2.62.11-2.6-2,.07-6.59,0-13.19,0-19.78l1.1-.52c14.12-3.87,28.23-7.76,42.36-11.57,1.28-.34,1.39-1.05,1.47-2.07.34-4.11.72-8.21,1.08-12.32q2.07-22.95,4.12-45.88,1.27-14.41,2.46-28.84c.58-7.08,1.12-14.17,1.68-21.25-.75-.94-1.79-.45-2.68-.46Q383.22,141.92,357.42,141.92Z"/><path class="cls-15" d="M358.51,264.38l-1.1.52c-14.25-4-28.48-8.07-42.75-12-1.87-.51-2.64-1.18-2.8-3.23-.8-10.24-1.79-20.46-2.78-30.68-.13-1.35.28-1.65,1.52-1.64,6.33,0,12.66.06,19,0,1.5,0,1.92.48,2,1.93.28,4.38.77,8.75,1.08,13.13.12,1.74.59,2.77,2.56,3.25,7.07,1.71,14.08,3.66,21.12,5.52.42.49,1,.41,1.59.48q0,10,0,20C357.94,262.6,357.6,263.64,358.51,264.38Z"/><path class="cls-15" d="M357.42,141.92q25.8,0,51.58.07c.89,0,1.93-.48,2.68.46-17,0-34.05,0-51.08,0-2,0-2.78.44-2.73,2.62.16,6.14.07,12.28.08,18.43l-.55.16-48.24-.07c-3.77,0-3.73,0-4-3.67-.43-5-.85-10-1.44-14.93-.26-2.17,0-3,2.61-3C323.33,142.05,340.38,142,357.42,141.92Z"/><path class="cls-15" d="M309,207.24q-.83-10.77-1.66-21.53l50.62,0v21.56Z"/><path class="cls-20" d="M309,207.24l49,.08c1,0,1.92.1,2.89.11,7.11,0,14.23,0,21.34,0,1.21,0,2.23-.12,2,1.72-.86,7.85-1.7,15.7-2.32,23.57-.16,2-.95,2.63-2.67,3.09-7.11,1.88-14.19,3.9-21.27,5.86-.56-.07-1.17,0-1.59-.48,1.24-.21,1.09-1.17,1.09-2,0-9.74-.05-19.48,0-29.22,0-2.21-1.22-2.07-2.69-2.07q-21.46,0-42.91,0C310.91,207.83,309.75,208.36,309,207.24Z"/><path class="cls-20" d="M357.94,185.76l-50.62,0c.88-.9,2-.48,3-.48,14.75,0,29.49-.07,44.24,0,2.33,0,3-.62,2.93-3-.17-6.23-.07-12.46-.09-18.69l.55-.16c9.21,0,18.43.11,27.65.05,2.1,0,3.08.07,2.64,2.76a131.37,131.37,0,0,0-1.64,16c-.12,3-1.2,3.52-3.91,3.47C374.44,185.56,366.19,185.72,357.94,185.76Z"/><path class="cls-16" d="M357.94,185.76c8.25,0,16.5-.2,24.75,0,2.71,0,3.79-.48,3.91-3.47a131.37,131.37,0,0,1,1.64-16c.44-2.69-.54-2.77-2.64-2.76-9.22.06-18.44,0-27.65-.05,0-6.15.08-12.29-.08-18.43-.05-2.18.73-2.62,2.73-2.62,17,.07,34,0,51.08,0-.56,7.08-1.1,14.17-1.68,21.25q-1.2,14.42-2.46,28.84-2,22.94-4.12,45.88c-.36,4.11-.74,8.21-1.08,12.32-.08,1-.19,1.73-1.47,2.07-14.13,3.81-28.24,7.7-42.36,11.57-.91-.74-.57-1.78-.57-2.7q0-10,0-20c7.08-2,14.16-4,21.27-5.86,1.72-.46,2.51-1.12,2.67-3.09.62-7.87,1.46-15.72,2.32-23.57.2-1.84-.82-1.72-2-1.72-7.11,0-14.23,0-21.34,0-1,0-1.93-.08-2.89-.11Z"/></g></g></g></g></svg>