<svg xmlns="http://www.w3.org/2000/svg" xmlns:xlink="http://www.w3.org/1999/xlink" viewBox="0 0 557.54 461.51"><defs><style>.cls-1{fill:none;}.cls-2{fill:#c3c3c3;}.cls-3{fill:#e6e6e6;}.cls-4{fill:#acacac;}.cls-5{fill:#21759b;}.cls-6{fill:url(#radial-gradient);}.cls-7{fill:#31c5f0;}.cls-8{fill:#9edcf2;}.cls-9{clip-path:url(#clip-path);}.cls-10{fill:#7dbce7;}.cls-11{fill:#010101;}.cls-12{fill:#f5ccb3;}.cls-13{fill:#fff;}.cls-14{fill:#af5c51;}.cls-15{fill:#c4e5d9;}.cls-16{fill:#2e001e;}.cls-17{fill:#ff2bc2;}.cls-18{fill:url(#radial-gradient-2);}.cls-19{fill:#ff7f18;}.cls-20{fill:#404040;}.cls-21{fill:#4d4d4d;}.cls-22{fill:#424242;}.cls-23{fill:#4b4b4b;}.cls-24{fill:#474747;}.cls-25{fill:#4a4a4a;}.cls-26{fill:#454545;}.cls-27{fill:#434343;}.cls-28{fill:#484848;}.cls-29{fill:#464646;}.cls-30{fill:#494949;}.cls-31{fill:#444;}.cls-32{fill:#fc9521;}.cls-33{fill:#fc961f;}.cls-34{fill:#f9931f;}.cls-35{fill:#ed8917;}.cls-36{fill:#e98615;}.cls-37{fill:#e28011;}.cls-38{fill:#f5901d;}.cls-39{fill:#f7911e;}.cls-40{fill:#f28d1a;}.cls-41{fill:#f08c19;}.cls-42{fill:#f48f1c;}.cls-43{fill:#e68313;}.cls-44{fill:#e58313;}.cls-45{fill:#dfa22f;}.cls-46{fill:#3cb187;}.cls-47{fill:#ce1e5b;}.cls-48{fill:#392538;}.cls-49{fill:#bb242a;}.cls-50{fill:#72c5cd;}.cls-51{fill:#248c73;}.cls-52{fill:#62803a;}.cls-53{fill:#56676e;}.cls-54{fill:#4e4f50;}.cls-55{fill:#4e5050;}.cls-56{fill:gray;}</style><radialGradient id="radial-gradient" cx="-444.64" cy="-4749.45" r="0.02" gradientTransform="matrix(2287.08, 0, 0, -2214.31, 1017190.59, -10516685.09)" gradientUnits="userSpaceOnUse"><stop offset="0" stop-color="#34364e" stop-opacity="0.98"/><stop offset="1" stop-color="#0c0824"/></radialGradient><clipPath id="clip-path"><path class="cls-1" d="M373.94,101.47a5.56,5.56,0,0,0,2.32,3.59h10.17c1.24-.84,2.49-2.43,2.49-5.4V92a3.06,3.06,0,0,1,1.9-2.53s1-.71-.07-1.11c0,0-4.81-.4-4.81,3.56v5.84s.2,2.18-.95,3.08V93.57s.07-2.3,1.25-3.17c0,0,.78-1.41-.93-1a4.27,4.27,0,0,0-3.44,4.36l-.07,7.42H381l-.08-7.42a4.32,4.32,0,0,0-3.46-4.36c-1.73-.39-.94,1-.94,1,1.19.87,1.26,3.17,1.26,3.17v7.33c-1.15-.82-.95-3.15-.95-3.15V91.91c0-4-4.81-3.56-4.81-3.56-1.11.4-.08,1.11-.08,1.11a3.14,3.14,0,0,1,1.9,2.53v5.37l.1,4.11Z"/></clipPath><radialGradient id="radial-gradient-2" cx="-444.72" cy="-4749.45" r="0.02" gradientTransform="matrix(2287.08, 0, 0, -2214.31, 1017190.59, -10516685.09)" gradientUnits="userSpaceOnUse"><stop offset="0" stop-color="#423325" stop-opacity="0.98"/><stop offset="1" stop-color="#1c0a00"/></radialGradient></defs><title>skills-platforms</title><g id="Layer_2" data-name="Layer 2"><g id="Skills"><g id="skills-platforms"><g id="imac"><path d="M534,0H23.52A23.52,23.52,0,0,0,0,23.52v304.7H557.54V23.52A23.52,23.52,0,0,0,534,0Z"/><path class="cls-2" d="M0,328.22v49.57a23.53,23.53,0,0,0,23.52,23.53H534a23.52,23.52,0,0,0,23.52-23.52V328.22Z"/><rect class="cls-3" x="22.93" y="24.37" width="510.24" height="286.65"/><rect class="cls-4" x="225.02" y="401.32" width="107.5" height="53.03"/><path class="cls-2" d="M360.32,461.51H196.49a3.48,3.48,0,0,1-3.31-2.16,3.59,3.59,0,0,1,3.14-5H360.15a3.48,3.48,0,0,1,3.31,2.16A3.59,3.59,0,0,1,360.32,461.51Z"/></g><g id="wordpress"><path class="cls-5" d="M478.17,105.06A31.84,31.84,0,0,1,446.08,73c.13-17.92,13.64-32.09,32.09-32.09A31.67,31.67,0,0,1,510.25,73,32.09,32.09,0,0,1,478.17,105.06Zm9.49-5-9.09-24.47-8.56,25c6.28,1.48,10.56,1.88,17.65-.53Zm-22.2-1.34-13.63-37.3c-1.88,4-2.27,7.36-2.54,11.5A29,29,0,0,0,465.46,98.77ZM506.91,73c.13-7.09-3.07-12.7-3.34-13.5a28.84,28.84,0,0,1-1.47,11.36L492.74,97.7c11.76-7.08,14-17.64,14.3-24.73Zm-29.68-1.2-4.55-12.44-3.34-.26a1.27,1.27,0,0,1,.4-2.41,98.71,98.71,0,0,0,15.38,0,1.21,1.21,0,1,1,.13,2.41l-3.21.26,10.43,30.75,4.95-16.84c.26-7.36-1.74-8.16-4.42-13.51-2.14-4.14.14-8.15,4.28-8.29a29,29,0,0,0-19.12-7.35,28.66,28.66,0,0,0-24.06,13l9.89-.27a1.37,1.37,0,0,1,0,2.41l-3.47.27,10.42,31.28,6.29-19Z"/></g><g id="photoshop"><path class="cls-6" d="M253.54,43.62h60.33v58.67H253.54Z"/><path class="cls-7" d="M253.54,43.62h60.33v58.67H253.54Zm-2.74,61.44h65.81V40.88H250.8Zm44.36-37.85c-2.16,0-2.9,1.1-2.9,2s.49,1.67,3.4,3.18c4.3,2.08,5.64,4.08,5.64,7,0,4.39-3.34,6.74-7.86,6.74A11.86,11.86,0,0,1,287.82,85c-.19-.08-.22-.21-.22-.43v-4c0-.28.14-.36.33-.22a10.22,10.22,0,0,0,5.51,1.62c2.16,0,3.07-.91,3.07-2.14,0-1-.63-1.86-3.4-3.29-3.89-1.86-5.51-3.75-5.51-6.9,0-3.54,2.77-6.47,7.56-6.47a12.65,12.65,0,0,1,4.91.77.6.6,0,0,1,.27.55v3.75c0,.22-.14.36-.41.27a9.35,9.35,0,0,0-4.77-1.23Zm-23.59,3.26c.63,0,1.12,0,2.22,0C277,70.52,280,69.4,280,65c0-3.48-2.17-5.24-5.82-5.24-1.09,0-2.14.06-2.63.08ZM266.7,55.91c0-.19.38-.33.6-.33,1.75-.08,4.35-.13,7.06-.13,7.58,0,10.54,4.16,10.54,9.48,0,7-5,9.95-11.22,9.95-1,0-1.4,0-2.14,0V85.35c0,.22-.08.33-.32.33H267c-.22,0-.33-.08-.33-.33V55.91Z"/></g><g id="github"><path class="cls-8" d="M399.38,90.34c0,3.44-8,6.21-17.79,6.21s-17.8-2.79-17.8-6.21,8-6.21,17.8-6.21S399.38,86.9,399.38,90.34Z"/><g class="cls-9"><path class="cls-10" d="M399.38,90.34c0,3.44-8,6.21-17.79,6.21s-17.8-2.79-17.8-6.21,8-6.21,17.8-6.21S399.38,86.9,399.38,90.34Z"/></g><path class="cls-8" d="M361.27,72.05l-.52,1.78a.64.64,0,0,0,.47.77.58.58,0,0,0,.54-.79l-.49-1.76Z"/><path class="cls-11" d="M413,64.55l.05-.22a60,60,0,0,0-13.82-.92,25.43,25.43,0,0,0,.7-6.59,11.65,11.65,0,0,0-3.47-8.49A11.17,11.17,0,0,0,396,41s-2.43-.76-7.95,2.93a27.59,27.59,0,0,0-6.77-.82,29.34,29.34,0,0,0-7.48,1c-5.69-3.88-8.19-3.09-8.19-3.09a10.75,10.75,0,0,0-.33,7.87,11.42,11.42,0,0,0-3.09,8,19.31,19.31,0,0,0,1,6.56,60.16,60.16,0,0,0-13.47.94l.05.23a59.68,59.68,0,0,1,13.5-.92c.15.4.32.79.49,1.16a60.25,60.25,0,0,0-13.94,2l.07.22a61.67,61.67,0,0,1,14-2c1.93,3.57,5.7,5.9,12.44,6.61a5.5,5.5,0,0,0-2.33,3.6c-1.32.62-5.43,2.15-7.9-2.11a5.54,5.54,0,0,0-4-2.72s-2.58-.05-.17,1.61c0,0,1.71.81,2.89,3.86,0,0,1.56,5.2,9,3.52V84.7a3.05,3.05,0,0,1-1.9,2.52s-1,.72.07,1.11c0,0,4.81.4,4.81-3.55V79s-.2-2.36,1-3.16v9.62s-.08,2.3-1.26,3.17c0,0-.79,1.41.94,1a4.28,4.28,0,0,0,3.46-4.36l.07-9.72h.8l.08,9.72a4.3,4.3,0,0,0,3.46,4.36c1.73.4.94-1,.94-1-1.19-.87-1.26-3.17-1.26-3.17V75.87c1.15.9.95,3.08.95,3.08v5.83c0,4,4.81,3.55,4.81,3.55,1.11-.39.08-1.11.08-1.11a3.12,3.12,0,0,1-1.9-2.52V77c0-3-1.27-4.58-2.5-5.4,7.18-.71,10.62-3,12.21-6.63a59.93,59.93,0,0,1,14.21,2l.08-.22a62.12,62.12,0,0,0-14.2-2c.15-.37.28-.74.4-1.13a61.92,61.92,0,0,1,13.94.91Z"/><path class="cls-12" d="M392.87,56.65a6.74,6.74,0,0,1,2.46,4.9c0,8.52-6.34,8.74-14.16,8.74S367,69.1,367,61.55a6.61,6.61,0,0,1,2.42-4.87c2.55-2.33,6.86-1.09,11.74-1.09s9.16-1.26,11.7,1.06Z"/><path class="cls-13" d="M376.46,62c0,2.35-1.31,4.23-2.94,4.23s-2.95-1.9-2.95-4.23,1.32-4.23,2.95-4.23S376.46,59.65,376.46,62Z"/><path class="cls-14" d="M375.52,62.05c0,1.56-.89,2.82-1.95,2.82s-2-1.26-2-2.82.89-2.82,2-2.82S375.52,60.49,375.52,62.05Z"/><path class="cls-13" d="M392.28,62c0,2.35-1.31,4.23-2.94,4.23s-2.95-1.9-2.95-4.23,1.31-4.23,2.95-4.23S392.28,59.65,392.28,62Z"/><path class="cls-14" d="M391.32,62.05c0,1.56-.9,2.82-2,2.82s-2-1.26-2-2.82.9-2.82,2-2.82S391.32,60.49,391.32,62.05ZM382,65.76a.74.74,0,0,1-.74.74.75.75,0,0,1-.75-.74.73.73,0,0,1,.75-.74A.74.74,0,0,1,382,65.76Zm-2.45,1.86a.23.23,0,1,1,.44-.15,1.35,1.35,0,0,0,1.27.89,1.36,1.36,0,0,0,1.26-.89.23.23,0,0,1,.3-.15.23.23,0,0,1,.14.3,1.81,1.81,0,0,1-3.41,0Z"/><path class="cls-15" d="M363.15,71c0,.2-.22.35-.52.35s-.52-.15-.52-.35.22-.34.52-.34S363.15,70.79,363.15,71Zm1.43.8c0,.19-.22.34-.52.34s-.52-.15-.52-.34.23-.35.52-.35S364.58,71.58,364.58,71.78Zm.87,1c0,.19-.22.34-.52.34s-.52-.15-.52-.34.22-.35.52-.35S365.45,72.62,365.45,72.82Zm.79,1.18c0,.2-.22.35-.52.35s-.52-.15-.52-.35.22-.34.52-.34S366.24,73.81,366.24,74Zm.87,1.09c0,.2-.22.35-.52.35s-.52-.15-.52-.35.22-.34.52-.34S367.11,74.9,367.11,75.09Zm1.19,1c0,.2-.23.35-.52.35s-.52-.15-.52-.35.22-.35.52-.35S368.3,75.86,368.3,76.06Zm1.65.62c0,.2-.22.34-.52.34s-.51-.14-.51-.34.22-.35.51-.35S370,76.48,370,76.68Zm1.66,0c0,.2-.22.34-.52.34s-.52-.14-.52-.34.23-.35.52-.35S371.61,76.48,371.61,76.68Zm1.69-.27c0,.19-.23.34-.52.34s-.52-.15-.52-.34.22-.35.52-.35S373.3,76.21,373.3,76.41Z"/></g><g id="adobe_xd" data-name="adobe xd"><path class="cls-16" d="M154.7,43.65H215v58.67H154.7Z"/><path class="cls-17" d="M152,40.88v64.18h65.81V40.88Zm2.74,2.77H215v58.67H154.7Z"/><path class="cls-17" d="M199.77,67.84a3.7,3.7,0,0,0-1.6-.28c-3.45,0-5.75,2.66-5.75,7.08,0,5,2.35,7.07,5.43,7.07a5.17,5.17,0,0,0,1.89-.3V67.84Zm-12.35,7c0-6.39,4.13-11.38,10.89-11.38a13.38,13.38,0,0,1,1.43,0V56.42a.28.28,0,0,1,.27-.27h4.43c.22,0,.27.08.27.22V81.43a19.21,19.21,0,0,0,.14,2.69c0,.19,0,.22-.16.3a16.37,16.37,0,0,1-7,1.59c-6,0-10.23-3.68-10.23-11.13Zm-9.3-4.44,7.68,14.88c.13.22,0,.44-.17.44h-4.77a.53.53,0,0,1-.57-.35c-1.76-3.63-3.54-7.39-5.38-11.28h0c-1.65,3.68-3.46,7.68-5.21,11.3a.54.54,0,0,1-.5.31H164.6c-.27,0-.3-.22-.16-.39L172,70.9l-7.27-14.37a.24.24,0,0,1,.2-.41h4.71c.28,0,.41.06.5.3,1.72,3.65,3.48,7.24,5.12,10.92h.06c1.59-3.62,3.34-7.27,5-10.86.13-.22.22-.36.49-.36h4.41c.22,0,.31.17.17.41l-7.24,13.91Z"/></g><g id="illustrator"><path class="cls-18" d="M55.86,43.65h60.33v58.67H55.86Z"/><path class="cls-19" d="M55.86,43.65h60.33v58.67H55.86Zm-2.74,61.41h65.81V40.88H53.12Zm43.09-41.3c0-.21.08-.32.32-.32h4.33c.22,0,.33.08.33.33V85.41c0,.22-.06.33-.33.33H96.6c-.28,0-.36-.14-.36-.36V63.76Zm-.29-6.23a2.8,2.8,0,0,1,5.59,0,2.62,2.62,0,0,1-2.85,2.8A2.58,2.58,0,0,1,95.92,57.53ZM83.58,72.79c-.76-3.05-2.58-9.69-3.26-12.9h-.06c-.57,3.21-2,8.64-3.18,12.9ZM76,77.23l-2.17,8.23c-.05.22-.14.28-.41.28h-4c-.27,0-.33-.09-.27-.42l7.78-27.25a8.94,8.94,0,0,0,.28-2.28c0-.19.08-.27.22-.27h5.76c.19,0,.27,0,.32.27l8.72,29.59c.06.22,0,.36-.21.36H87.39c-.21,0-.35-.06-.41-.25l-2.25-8.26Z"/></g><g id="sublime"><path class="cls-20" d="M248.22,204.6l0-6.27c.64-.05.46-.55.48-1.12.33.42.62.58.9.17a.19.19,0,0,1,.17,0c.29.31.41,0,.56-.15s.18-.19.23-.17c.53.18,1.05.37,1.55.59.1,0,.1.27.2.35.27.23.56.56.87.6a.67.67,0,0,0,.8-.67c0-.17.06-.34.1-.58.62.83.62.83,1.52.69.11,0,.27-.09.3-.18a.38.38,0,0,0-.12-.31,7.82,7.82,0,0,0-.6-.55l.11-.15a3,3,0,0,0,.74.37,2.58,2.58,0,0,0,.82-.11,3.84,3.84,0,0,0-.47.69,1.44,1.44,0,0,0,0,.55c.18-.05.4-.05.52-.16s.43-.44.77-.12a.51.51,0,0,0,.48,0c.32-.23.6-.51,1-.83l0,.64a1.53,1.53,0,0,0,.56-.16c.23-.2.4-.31.6,0,0,.06.13.08.19.12s.07-.18.1-.26a3.07,3.07,0,0,1,.2-.45s.2,0,.2.07a2.12,2.12,0,0,1,0,.5,1,1,0,0,1-.1.25.79.79,0,0,0,.49-.2l.21-.2c.19.41.48.31.78.15a3.77,3.77,0,0,1,0,.67c0,.08-.28.13-.28.21a2.54,2.54,0,0,0,.08.6c.14-.06.35-.08.39-.18.21-.51.36-1,.58-1.54a.47.47,0,0,1,.4-.23c.16,0,.27.22.36.31l.24-.42c.07.1.15.2.22.31.21.32.39.64.89.37.13-.07.41.13.57.18l.88-.28c.28-.1.7-.13.82-.33.4-.66,1.13-.57,1.63-1l.21.26a1.29,1.29,0,0,0-.4.16,1,1,0,0,0-.1,1.61,5.12,5.12,0,0,1,.47,1s.11.09.16.13.1-.1.1-.14-.05-.29-.07-.43a.7.7,0,0,1,.94-.82,1.44,1.44,0,0,0,.58-.12c.16.21.39.61.48.58a1.26,1.26,0,0,0,.74-.55c.17-.39.26-.58.67-.23s.66.23.74-.27a3,3,0,0,0,0-.67c0-.16,0-.32,0-.51a2.72,2.72,0,0,0,.47.45c.09.05.25,0,.38,0-.07.14-.14.28-.22.41s-.1.09-.11.15a3.44,3.44,0,0,0-.05.45,2.27,2.27,0,0,1,.34-.19c.13-.07.31-.21.39-.17.71.37.8,0,.58-.71.23.21.32.31.43.4s.9-.15.33.48l1,.38a2.06,2.06,0,0,0,.12-.35c0-.08,0-.18,0-.24a1.13,1.13,0,0,1,.22-.27c0,.09.07.18.12.27s.2.46.37.53a11.75,11.75,0,0,0,1.65.53.48.48,0,0,0,.41-.2.53.53,0,0,0,.06-.43,3.13,3.13,0,0,0-.34-.62c.35.23.54.44.75.47.75.12,1.52.12,2.25.28.44.09.47,0,.41-.38a3.27,3.27,0,0,1,0-.44c.24,0,.61-.07.7,0,.4.53.86.48,1.4.32.09,0,.22.1.33.15a1.48,1.48,0,0,1-.19.35s-.16,0-.23,0a1.94,1.94,0,0,0-.35.18c.1.06.19.16.3.18l2,.35.07-.23a2.53,2.53,0,0,1-.55-.26,2.4,2.4,0,0,1-.36-.41l.38-.23,1.38-.83c.56.44-.24.64-.37,1l.13.15,1.12-.87c0,.09,0,.21,0,.28.3.45.3.7-.35.62,0,0-.14.31-.1.34a3.46,3.46,0,0,0,.73.46.49.49,0,0,0,.39-.1c.06,0,0-.22,0-.34a3.07,3.07,0,0,0-.07-.42,6.69,6.69,0,0,1,.89-.08c.05,0,.14.21.16.34.13.79.36,1.09.83,1.16l-.12-1.61c1,0,1,0,1,1,0,0,0,.05,0,.06l.24.33a1,1,0,0,0,.16-.34,3.79,3.79,0,0,1,0-.68c.09-.27.2-.7.63-.46a5.57,5.57,0,0,1,.85.74c.25-.52,1-.53,1.62-.37.25.06.55.36.52-.22,0-.06.2-.2.27-.18a2.81,2.81,0,0,1,.85.42.47.47,0,0,0,.71,0,1.93,1.93,0,0,1,2,.33,4,4,0,0,0,.35.37l.22-.41a2,2,0,0,0,.21-.3c.23-.58.45-.53.73,0a1.13,1.13,0,0,0,1.38.57,1.74,1.74,0,0,1,1,.07c.34.15.45,0,.57-.23s.07-.27.16-.33a2.3,2.3,0,0,1,.53-.23,1.59,1.59,0,0,0-.06.43,1.28,1.28,0,0,0,.14.35c.35-.28,1.15.14,1-.76l.17.07c.52.47,1,.95,1.56,1.4.08.07.26,0,.39,0-.07-.1-.13-.22-.21-.32a4.31,4.31,0,0,1-.39-.46c-.05-.09,0-.23,0-.35a1.25,1.25,0,0,1,.32.08,1.11,1.11,0,0,0,1.6-.81.86.86,0,0,1,.18-.3,1,1,0,0,1,.17.3.65.65,0,0,1-.05.42c-.27.37-.12.58.24.7a3.09,3.09,0,0,0,.53,0c.17,0,.46,0,.49.12.19.51.5.54.92.35l0,6c-.26.48-.48,1-.78,1.44a4.63,4.63,0,0,1-2.5,1.67l-57.78-.41a2.44,2.44,0,0,0-.41-.24,3.94,3.94,0,0,1-2.37-2.22Z"/><path class="cls-21" d="M251.78,143.58l57.78.41a14.51,14.51,0,0,1,1.62.83,4.45,4.45,0,0,1,1.62,2.46l0,2.5a3.7,3.7,0,0,1-.19.59,1.4,1.4,0,0,1-.27.33,1,1,0,0,1-.21-.4,1.76,1.76,0,0,1,.12-.53c-.42.48-.65.26-.89-.09-.06-.1-.22-.23-.29-.2a9.14,9.14,0,0,0-1.51.56,4.22,4.22,0,0,0-.88.71,2.09,2.09,0,0,0-.24.28,1.17,1.17,0,0,1-.23-.42c0-.09.15-.28.23-.28.6,0,.76-.37.82-.85a1.62,1.62,0,0,0-.06-.48,1.57,1.57,0,0,0-.54.1c-.28.17-.5.44-.79.59s-.68.33-.21.74a.52.52,0,0,1-.12.26c-.24,0-.59,0-.69-.17-.31-.45-.54-.83-1.23-.8-.35,0-.71-.48-1.07-.74a.22.22,0,0,0-.18,0l-1.49.51a1.55,1.55,0,0,1,.23.21c.09.12.15.26.23.39a1.53,1.53,0,0,0-.41-.07,1.61,1.61,0,0,0-.53.15,7,7,0,0,0-.7.4c.46-1.17.33-1.43-1-1.65a5.28,5.28,0,0,1,.43.57,1,1,0,0,1,.16.53c0,.08-.28.14-.44.18a1.56,1.56,0,0,1-.43,0,2.26,2.26,0,0,1-.33-.13c.08-.07.21-.13.21-.2a1.85,1.85,0,0,0-.05-.46l-.65.1c-.55.09-1.11.2-1.67.25-.17,0-.35-.17-.52-.26a3.85,3.85,0,0,0,.35-.35,1.39,1.39,0,0,0,.16-.35c-.13-.05-.35-.18-.37-.15a8.25,8.25,0,0,0-.57.84,1.07,1.07,0,0,0-.07.32,1.15,1.15,0,0,1-.33-.1c-.34-.22-.67-.45-1.1-.75l.1.35c.05.27.66.72-.22.7l0,.43h-.07c-.43-.15-.77-1-1.34-.19,0,0-.08,0-.12,0a1.5,1.5,0,0,1-1.24-.29,4.51,4.51,0,0,1-.51-.47,1.85,1.85,0,0,1-.23-.36c0,.15-.07.29-.11.43a3.34,3.34,0,0,1-.17.44.25.25,0,0,1-.19,0c-.28-.54-.59-.22-.94-.09s-.63.42-1,0a8.74,8.74,0,0,0-1.22-1.13c-.09-.08-.26-.07-.39-.1a2.38,2.38,0,0,1,0,.46,3.23,3.23,0,0,1-.08.51l.68,1.2-.16.09c-.26-.51-.78-.77-1.09-.58a1.36,1.36,0,0,1-.36.1,3.26,3.26,0,0,0,.18-.38,1.43,1.43,0,0,0,.1-.63c0-.08-.34-.17-.48-.13s-.69.19-.79.41c-.21.42-.49.28-.78.25l.19-.62c-.53-.07-1.1-.17-1.68-.24a.43.43,0,0,0-.34.09,1.2,1.2,0,0,1-1.46.25c-.06,0-.23.11-.26.2s0,.23.06.34a1.35,1.35,0,0,1-.42-.19c-.31-.34-.39-.19-.45.16,0,.1-.15.18-.23.26-.06-.12-.19-.25-.17-.35a4.58,4.58,0,0,1,.25-.56c0-.1.07-.25,0-.31a1.4,1.4,0,0,0-1.32.08c-.16.3-.29.32-.57.09a2.3,2.3,0,0,0-2.49.17.45.45,0,0,1-.45,0,.72.72,0,0,0-1.08-.11,1.52,1.52,0,0,1-.72.12c-.27,0-.6-.15-.81-.05-.74.37-.86.37-1.48-.23-.15-.14-.42-.15-.64-.22l-.05.15.54.5a2.93,2.93,0,0,0-.6,0c-.51.14-1,.48-1.53,0a2.1,2.1,0,0,0-.5.38c-.11.11-.22.37-.27.35a5.65,5.65,0,0,1-.75-.35,3.18,3.18,0,0,0,.33-.3,1.24,1.24,0,0,0,.15-.33c-.12,0-.3-.18-.37-.14-.49.33-1.1-.42-1.54.19h-.06c-.35-.64-.8-.4-1.3-.19-.21.08-.52-.06-.78-.08a.27.27,0,0,0-.21.09l-.63,1c-.06.09-.15.17-.22.26a2,2,0,0,1-.19-.22c-.17-.25-.29-.47.13-.62.09,0,.16-.43.11-.47a2.64,2.64,0,0,0-2.63.13c-.66.52-.78.48-.93-.34l-.3.19-.53-.53c-.18.22-.75.21-.42.74,0,0-.12.23-.22.26a2.4,2.4,0,0,1-.56.06c0-.09.12-.21.09-.27s-.29-.38-.43-.57c-.06.16-.12.33-.17.49l-.15.6c.14-.62-.3-.85-.71-1-.23-.08-.58-.19-.73.34-.08.3-.65.46-1.05.72l.18-.76a7.78,7.78,0,0,0-.95,0,.38.38,0,0,0-.28.24c-.08.31-.2.43-.53.33a1.38,1.38,0,0,0-.5.11l.42.34c-.08.06-.18.17-.24.15a6.29,6.29,0,0,1-1.12-.34c-.1,0-.15-.27-.17-.43s0-.32,0-.48a1.39,1.39,0,0,0-.12-.32,2.52,2.52,0,0,1-.21.25c-.22.19-.46.37-.69.55-.15-.18-.28-.38-.44-.55s-.25-.29-.4-.32-.25.15-.34.26c-.22.27-.42.55-.63.83l0-2.88a2.82,2.82,0,0,0,.23-.41,4,4,0,0,1,2.22-2.38C251.32,143.81,251.55,143.69,251.78,143.58Z"/><path class="cls-22" d="M271.56,197.49c-.68.55-.89.66-1.06.62a.7.7,0,0,0-.94.82c0,.14.06.28.07.43s-.06.09-.1.14-.13-.08-.16-.13a5.12,5.12,0,0,0-.47-1,1,1,0,0,1,.1-1.61,1.29,1.29,0,0,1,.4-.16l-.21-.26c-.5.4-1.23.31-1.63,1-.12.2-.54.23-.82.33l-.88.28c-.16,0-.44-.25-.57-.18-.5.27-.68-.05-.89-.37-.07-.11-.15-.21-.22-.31l-.24.42c-.09-.09-.2-.28-.36-.31a.47.47,0,0,0-.4.23c-.22.5-.37,1-.58,1.54,0,.1-.25.12-.39.18a2.54,2.54,0,0,1-.08-.6c0-.08.27-.13.28-.21a3.77,3.77,0,0,0,0-.67c-.3.16-.59.26-.78-.15l-.21.2a.79.79,0,0,1-.49.2,1,1,0,0,0,.1-.25,2.12,2.12,0,0,0,0-.5s-.19-.08-.2-.07a3.07,3.07,0,0,0-.2.45c0,.08-.06.17-.1.26s-.15-.06-.19-.12c-.2-.32-.37-.21-.6,0a1.53,1.53,0,0,1-.56.16l0-.64c-.36.32-.64.6-1,.83a.51.51,0,0,1-.48,0c-.34-.32-.53-.13-.77.12s-.34.11-.52.16a1.44,1.44,0,0,1,0-.55,3.84,3.84,0,0,1,.47-.69,2.58,2.58,0,0,1-.82.11,3,3,0,0,1-.74-.37l-.11.15a7.82,7.82,0,0,1,.6.55.38.38,0,0,1,.12.31c0,.09-.19.16-.3.18-.9.14-.9.14-1.52-.69,0,.24-.09.41-.1.58a.67.67,0,0,1-.8.67c-.31,0-.6-.37-.87-.6-.1-.08-.1-.31-.2-.35-.5-.22-1-.41-1.55-.59,0,0-.18.09-.23.17s-.27.46-.56.15a.19.19,0,0,0-.17,0c-.28.41-.57.25-.9-.17,0,.57.16,1.07-.48,1.12l0-4.88c.58.09,1.16.45,1.76.05l.29-.2a2.55,2.55,0,0,0-.43-.3c-.1,0-.3.07-.36,0a4,4,0,0,1-.43-.56l.47,0,1.08,0a.71.71,0,0,1,.29.05.27.27,0,0,1,0,.21c-.39.39-.15.67.21.93l-.53.21a4.34,4.34,0,0,0,.35.49s.23,0,.24,0c.14-.58,1.11-.47,1-1.23,0,0,.11-.1.13-.09.57.35.92.12,1.17-.43,0,0,.09-.05.1,0,.39.27,1.11-.15,1.28.63,0,.09.34.12.52.17-.08-.74.54-.19.75-.4.09.11.25.23.24.34,0,.43.16.47.51.4s1-.24.95.58c0,0,.08.16.12.17a.28.28,0,0,0,.2-.12c.25-.28.47-.58.72-.86a.29.29,0,0,1,.27,0c.42.23.82.47,1.26.72a1.52,1.52,0,0,1,0-.21l0-.52c.15.13.39.24.43.4.1.38.25.46.6.28a1.3,1.3,0,0,1,.48-.11,3.9,3.9,0,0,0,1.12-.6s.08,0,.16,0c0,.27-.05.54,0,.8,0,.09.12.17.19.26l.16-.22c.28-.36.55-.73.82-1.09,0,.92,0,1.83,0,2.75,0,.69.28.88.95.71l.36-.11,9.37-2.9,10.91-3.4c.08.41.05.95.71.4.1-.08.51.2.76.34a2.51,2.51,0,0,1,.37.27,2.15,2.15,0,0,0,.3-.48c0-.09,0-.22,0-.33l.41.07,1.27.34.78.21-.14-.66a6.79,6.79,0,0,1,.93.44c.12.07-.33.49.17.43s.14-.36.15-.58.16-.21.24-.21a.4.4,0,0,1,.27.22c0,.12-.06.31,0,.42a1.85,1.85,0,0,0,.54.68c.1.06.4-.21.61-.33.05,0,.11-.17.13-.16.81.34.25-.28.35-.52a3.06,3.06,0,0,1,1.15.21,1.09,1.09,0,0,0,1.53-.17.36.36,0,0,1,.33,0c.66.51.65.51,1-.23a.49.49,0,0,1,.32-.24c.09,0,.29.16.28.22-.12.65.46.72.8,1,.09.06.32.06.36,0a1.44,1.44,0,0,0,.18-.54c0-.09-.07-.2-.1-.31.13,0,.33-.06.39,0a1.31,1.31,0,0,1,.34.59c.09.51.37.65.81.38l1-.62c.22-.14.39-.18.39.19s.2.47.52.21a2.37,2.37,0,0,1,.44-.2c-.05.17-.1.25-.09.32a3,3,0,0,0,.08.43c.11-.06.24-.19.34-.17.61.11.55-.43.74-.73,0,0,.11-.06.16-.09.52-.39,1.26,0,1.75-.48,0,0,.13.07.21.1a3.31,3.31,0,0,0,1.11.26c.32,0,.39,0,.36.27-.06.49.18.4.48.27s.66-.26,1-.38.66-.15.72.35c0,.09.09.16.23.36l.18-1.07,1.12.84c.17.08-.28-1,.64-.53v.5c-.08.1-.17.19-.24.29s-.12.24-.18.36l.41,0,0,5.77-.39-.2-.07.18.46.14V199c-.42.19-.73.16-.92-.35,0-.09-.32-.1-.49-.12a3.09,3.09,0,0,1-.53,0c-.36-.12-.51-.33-.24-.7a.65.65,0,0,0,.05-.42,1,1,0,0,0-.17-.3.86.86,0,0,0-.18.3,1.11,1.11,0,0,1-1.6.81,1.25,1.25,0,0,0-.32-.08c0,.12,0,.26,0,.35a4.31,4.31,0,0,0,.39.46c.08.1.14.22.21.32-.13,0-.31.05-.39,0-.53-.45-1-.93-1.56-1.4l-.17-.07c.1.9-.7.48-1,.76a1.28,1.28,0,0,1-.14-.35,1.59,1.59,0,0,1,.06-.43,2.3,2.3,0,0,0-.53.23c-.09.06-.1.22-.16.33s-.23.38-.57.23a1.74,1.74,0,0,0-1-.07,1.13,1.13,0,0,1-1.38-.57c-.28-.5-.5-.55-.73,0a2,2,0,0,1-.21.3l-.22.41a4,4,0,0,1-.35-.37,1.93,1.93,0,0,0-2-.33.47.47,0,0,1-.71,0,2.81,2.81,0,0,0-.85-.42c-.07,0-.28.12-.27.18,0,.58-.27.28-.52.22-.64-.16-1.37-.15-1.62.37a5.57,5.57,0,0,0-.85-.74c-.43-.24-.54.19-.63.46a3.79,3.79,0,0,0,0,.68,1,1,0,0,1-.16.34l-.24-.33s0,0,0-.06c0-1,0-1-1-1l.12,1.61c-.47-.07-.7-.37-.83-1.16,0-.13-.11-.34-.16-.34a6.69,6.69,0,0,0-.89.08,3.07,3.07,0,0,1,.07.42c0,.12.06.3,0,.34a.49.49,0,0,1-.39.1,3.46,3.46,0,0,1-.73-.46s.08-.34.1-.34c.65.08.65-.17.35-.62-.05-.07,0-.19,0-.28l-1.12.87-.13-.15c.13-.34.93-.54.37-1l-1.38.83-.38.23a2.4,2.4,0,0,0,.36.41,2.53,2.53,0,0,0,.55.26l-.07.23-2-.35c-.11,0-.2-.12-.3-.18a1.94,1.94,0,0,1,.35-.18c.07,0,.2,0,.23,0a1.48,1.48,0,0,0,.19-.35c-.11,0-.24-.17-.33-.15-.54.16-1,.21-1.4-.32-.09-.12-.46,0-.7,0a3.27,3.27,0,0,0,0,.44c.06.35,0,.47-.41.38-.73-.16-1.5-.16-2.25-.28-.21,0-.4-.24-.75-.47a3.13,3.13,0,0,1,.34.62.53.53,0,0,1-.06.43.48.48,0,0,1-.41.2,11.75,11.75,0,0,1-1.65-.53c-.17-.07-.25-.35-.37-.53s-.08-.18-.12-.27a1.13,1.13,0,0,0-.22.27c0,.06,0,.16,0,.24a2.06,2.06,0,0,1-.12.35l-1-.38c.57-.63-.17-.35-.33-.48s-.2-.19-.43-.4c.22.75.13,1.08-.58.71-.08,0-.26.1-.39.17a2.27,2.27,0,0,0-.34.19,3.44,3.44,0,0,1,.05-.45c0-.06.08-.1.11-.15s.15-.27.22-.41c-.13,0-.29.08-.38,0a2.72,2.72,0,0,1-.47-.45c0,.19,0,.35,0,.51a3,3,0,0,1,0,.67c-.08.5-.38.59-.74.27s-.5-.16-.67.23a1.26,1.26,0,0,1-.74.55c-.09,0-.32-.37,0-1.08.22-.39,0-.32-.23-.17a1.59,1.59,0,0,0-.32.5c.14.05.31.17.43.13C272,197.81,272.19,197.46,271.56,197.49Zm-18.65-.5-.32-.49-.45.48h.77l.34.79.18-.14Zm3-2c0-.85,0-.85-.65-1.19a.72.72,0,0,1-.15-.11c-.51-.37-.51-.37-.71.14a4.16,4.16,0,0,1,.83.36A5.39,5.39,0,0,1,255.87,195Zm52.49,2.66.05-.22c-.22-.18-.43-.37-.66-.54a.29.29,0,0,0-.27,0,.28.28,0,0,0,0,.25,1.07,1.07,0,0,0,.33.44A1.6,1.6,0,0,0,308.36,197.64Zm2-.16.5.77c.09-.16.27-.32.26-.48a.64.64,0,0,0-.3-.44C310.69,197.28,310.49,197.42,310.32,197.48Zm-7.07.49.12-.21c-.3-.2-.59-.41-.9-.61-.05,0-.15,0-.22,0s0,.15,0,.17Zm3.54-6.72c-.2-.13-.32-.25-.43-.24s-.21.13-.31.21c.1.09.19.24.31.26S306.58,191.37,306.79,191.25Zm-50.06,3.46.2-.1c.06-.11.17-.22.17-.32s-.2-.22-.24-.2a.57.57,0,0,0-.24.29C256.6,194.48,256.69,194.6,256.73,194.71Zm5.52,2c-.12-.14-.2-.28-.23-.27a1.45,1.45,0,0,0-.34.2c.05.07.1.21.16.21A1.8,1.8,0,0,0,262.25,196.75Zm16.17,1.12a3.43,3.43,0,0,0,.19-.29,2.52,2.52,0,0,0-.35-.3c0,.05-.13.13-.11.15A4.44,4.44,0,0,0,278.42,197.87Zm11.11-6.61c-.09.12-.2.19-.2.26a1,1,0,0,0,.14.29c.09-.06.24-.12.25-.19S289.62,191.42,289.53,191.26ZM259.28,197c.16.07.26.17.32.14s.17-.14.26-.21c-.08-.06-.16-.16-.23-.15S259.44,196.84,259.28,197Zm11.48.16c-.13-.09-.24-.2-.26-.18a.67.67,0,0,0-.21.26s.12.15.15.14A1.85,1.85,0,0,0,270.76,197.11Zm-16-.28c-.09.15-.19.23-.18.3a1.12,1.12,0,0,0,.16.28c.06-.06.16-.13.16-.2A1.4,1.4,0,0,0,254.75,196.83Zm45.54.94.31-.23c-.07-.06-.15-.18-.22-.17s-.18.11-.27.17ZM259.44,194l-.19,0,.09.68.19,0Zm47.63-1.33.17-.11a.81.81,0,0,0,.12-.29s-.13-.1-.2-.15a1.69,1.69,0,0,0-.13.31C307,192.46,307.06,192.55,307.07,192.63Zm-2.37-.88.14,0a1,1,0,0,0,.1-.27c0-.1-.07-.19-.18-.45Zm-.06,5.48-.21.26a.78.78,0,0,0,.24.09c.06,0,.12-.08.17-.12Zm-9.79-5.91-.24-.23c-.05.06-.13.12-.12.16a.27.27,0,0,0,.13.18S294.74,191.38,294.85,191.32ZM254.76,196c.05-.08.12-.16.11-.16a.79.79,0,0,0-.2-.17s-.08.06-.12.1Zm14.75,2.09c.07-.13.12-.19.11-.23a1.06,1.06,0,0,0-.16-.23s-.11.08-.11.1A2.1,2.1,0,0,0,269.51,198.07Zm29.16-5.79c-.07.08-.16.15-.15.18a.26.26,0,0,0,.16.15c.05,0,.11-.08.16-.13Zm-12.32,4.77c-.06,0-.12-.08-.13-.07a.84.84,0,0,0-.15.18l.1.1Zm-14.93-.62a1.31,1.31,0,0,0-.17.22l.1.1a.9.9,0,0,0,.16-.18S271.46,196.5,271.42,196.43Zm-21.49.65c.09-.12.15-.16.15-.2s-.06-.08-.1-.12-.11.08-.12.14S249.89,197,249.93,197.08Zm12.94-.07c-.07-.06-.12-.12-.15-.11a1,1,0,0,0-.2.11s.07.11.1.11A2.15,2.15,0,0,0,262.87,197Zm-9-3.11a.88.88,0,0,0,0-.16l-.1,0a.83.83,0,0,0,0,.15S253.8,193.88,253.86,193.9Zm-4.53.08c0,.06-.1.11-.09.14s.06.08.1.12.11-.07.1-.11S249.39,194.05,249.33,194Zm49.78,2.52c.05-.06.11-.1.11-.14s-.07-.11-.09-.1a.18.18,0,0,0-.12.1S299.07,196.44,299.11,196.5Zm-7.4.45s-.08-.1-.13-.12-.07.07-.1.1a1.1,1.1,0,0,0,.14.09S291.67,197,291.71,197Zm18.68-4.28c.06-.08.11-.12.12-.17s0-.1-.06-.16-.12,0-.12.06A1.36,1.36,0,0,0,310.39,192.67Zm-56.26.18a.44.44,0,0,0,0,.15s.07.05.1.07a.42.42,0,0,0,0-.16Zm28.54,4.44a1.68,1.68,0,0,0-.09.22s0,.09.05.09.11,0,.13-.06S282.73,197.45,282.67,197.29Zm-24.13-2.15s-.07.06-.06.08,0,.06,0,.09a.39.39,0,0,0,.08-.1S258.56,195.16,258.54,195.14Z"/><path class="cls-23" d="M248.61,149.58c.21-.28.41-.56.63-.83.09-.11.25-.28.34-.26s.28.19.4.32.29.37.44.55c.23-.18.47-.36.69-.55a2.52,2.52,0,0,0,.21-.25,1.39,1.39,0,0,1,.12.32c0,.16-.05.33,0,.48s.07.39.17.43a6.29,6.29,0,0,0,1.12.34c.06,0,.16-.09.24-.15l-.42-.34a1.38,1.38,0,0,1,.5-.11c.33.1.45,0,.53-.33a.38.38,0,0,1,.28-.24,7.78,7.78,0,0,1,.95,0l-.18.76c.4-.26,1-.42,1.05-.72.15-.53.5-.42.73-.34.41.13.85.36.71,1l.15-.6c.05-.16.11-.33.17-.49.14.19.31.37.43.57s0,.18-.09.27a2.4,2.4,0,0,0,.56-.06c.1,0,.24-.23.22-.26-.33-.53.24-.52.42-.74l.53.53.3-.19c.15.82.27.86.93.34a2.64,2.64,0,0,1,2.63-.13c.05,0,0,.44-.11.47-.42.15-.3.37-.13.62a2,2,0,0,0,.19.22c.07-.09.16-.17.22-.26l.63-1a.27.27,0,0,1,.21-.09c.26,0,.57.16.78.08.5-.21.95-.45,1.3.19h.06c.44-.61,1.05.14,1.54-.19.07,0,.25.09.37.14a1.24,1.24,0,0,1-.15.33,3.18,3.18,0,0,1-.33.3,5.65,5.65,0,0,0,.75.35c.05,0,.16-.24.27-.35a2.1,2.1,0,0,1,.5-.38c.52.5,1,.16,1.53,0a2.93,2.93,0,0,1,.6,0l-.54-.5.05-.15c.22.07.49.08.64.22.62.6.74.6,1.48.23.21-.1.54.05.81.05a1.52,1.52,0,0,0,.72-.12.72.72,0,0,1,1.08.11.45.45,0,0,0,.45,0,2.3,2.3,0,0,1,2.49-.17c.28.23.41.21.57-.09a1.4,1.4,0,0,1,1.32-.08c.05.06,0,.21,0,.31a4.58,4.58,0,0,0-.25.56c0,.1.11.23.17.35.08-.08.22-.16.23-.26.06-.35.14-.5.45-.16a1.35,1.35,0,0,0,.42.19c0-.11-.1-.24-.06-.34s.2-.22.26-.2a1.2,1.2,0,0,0,1.46-.25.43.43,0,0,1,.34-.09c.58.07,1.15.17,1.68.24l-.19.62c.29,0,.57.17.78-.25.1-.22.5-.33.79-.41s.47.05.48.13a1.43,1.43,0,0,1-.1.63,3.26,3.26,0,0,1-.18.38,1.36,1.36,0,0,0,.36-.1c.31-.19.83.07,1.09.58l.16-.09-.68-1.2a3.23,3.23,0,0,0,.08-.51,2.38,2.38,0,0,0,0-.46c.13,0,.3,0,.39.1a8.74,8.74,0,0,1,1.22,1.13c.36.46.68.16,1,0s.66-.45.94.09a.25.25,0,0,0,.19,0,3.34,3.34,0,0,0,.17-.44c0-.14.07-.28.11-.43a1.85,1.85,0,0,0,.23.36,4.51,4.51,0,0,0,.51.47,1.5,1.5,0,0,0,1.24.29s.11,0,.12,0c.57-.8.91,0,1.34.19h.07l0-.43c.88,0,.27-.43.22-.7l-.1-.35c.43.3.76.53,1.1.75a1.15,1.15,0,0,0,.33.1,1.07,1.07,0,0,1,.07-.32,8.25,8.25,0,0,1,.57-.84s.24.1.37.15a1.39,1.39,0,0,1-.16.35,3.85,3.85,0,0,1-.35.35c.17.09.35.27.52.26.56-.05,1.12-.16,1.67-.25l.65-.1a1.85,1.85,0,0,1,.05.46c0,.07-.13.13-.21.2a2.26,2.26,0,0,0,.33.13,1.56,1.56,0,0,0,.43,0c.16,0,.43-.1.44-.18a1,1,0,0,0-.16-.53,5.28,5.28,0,0,0-.43-.57c1.31.22,1.44.48,1,1.65a7,7,0,0,1,.7-.4,1.61,1.61,0,0,1,.53-.15,1.53,1.53,0,0,1,.41.07c-.08-.13-.14-.27-.23-.39a1.55,1.55,0,0,0-.23-.21l1.49-.51a.22.22,0,0,1,.18,0c.36.26.72.76,1.07.74.69,0,.92.35,1.23.8.1.15.45.14.69.17a.52.52,0,0,0,.12-.26c-.47-.41-.16-.55.21-.74s.51-.42.79-.59a1.57,1.57,0,0,1,.54-.1,1.62,1.62,0,0,1,.06.48c-.06.48-.22.88-.82.85-.08,0-.24.19-.23.28a1.17,1.17,0,0,0,.23.42,2.09,2.09,0,0,1,.24-.28,4.22,4.22,0,0,1,.88-.71,9.14,9.14,0,0,1,1.51-.56c.07,0,.23.1.29.2.24.35.47.57.89.09a1.76,1.76,0,0,0-.12.53,1,1,0,0,0,.21.4,1.4,1.4,0,0,0,.27-.33,3.7,3.7,0,0,0,.19-.59l0,4.39-.35-.92c-.09.22-.14.39-.22.54s-.22.27-.33.41l-.15-.45c-.08-.26-.07-.61-.53-.51s-.64.07-.43.57c.05.12-.09.33-.17.48s-.14,0-.22,0c0-.15,0-.3.06-.45a.76.76,0,0,0,0-.36c-.06-.13-.2-.21-.31-.32,0,.11,0,.22-.05.33s0,.13,0,.16a1.65,1.65,0,0,1-2-.05c-.09-.13-.14-.3-.24-.42s-.19,0-.28,0,0,.2,0,.22c.5.28.11.49-.06.68a2.41,2.41,0,0,1-.46.37,4.94,4.94,0,0,0-.1-.53,2.76,2.76,0,0,0-.2-.47c-.16.11-.49.28-.47.32.24.63-.18.9-.59,1.19-.11.08-.21.18-.32.27a2.46,2.46,0,0,1,.09-.39c.26-.73,0-1.08-.73-1L304,154c0-.17,0-.47,0-.48-.34-.1-.62-.72-1-.28.18.26.36.49.5.74a1.06,1.06,0,0,1,.09.36l-.65.05a1.26,1.26,0,0,0,0-.28c0-.06,0-.18,0-.19a.24.24,0,0,0-.22,0c-.13.13-.21.3-.33.43a3.36,3.36,0,0,1-.43.31,1,1,0,0,0-.11-.36,1.09,1.09,0,0,0-.38-.36c-.08,0-.23.08-.34.13.06.06.18.12.19.2a1.23,1.23,0,0,1,0,.54c0,.07-.25.12-.35.09a9.83,9.83,0,0,1-.93-.43c-.16-.07-.31-.16-.46-.24.11-.1.23-.19.35-.28l.23-.21c-.28-.12-.52-.31-.74-.3-.56,0-1.12-.41-1.66,0s-.89.19-1.17-.34c0-.07-.25-.08-.38-.07s-.19.18-.23.16c-.64-.26-.49.39-.7.62,0,0,0,.17.05.26l.24-.12.33-.1c0,.14,0,.39,0,.41a1.36,1.36,0,0,1-.73.12,1.92,1.92,0,0,1-1.22-1.23l.05,0,.19-.34-.09-.05a2.75,2.75,0,0,0-.15.36c-.15.06-.41.21-.45.16-.31-.36-.61-.47-1-.11a.47.47,0,0,1-.42.05c-.45-.15-.59.13-.72.46s-1,.79-1.17.66c-.38-.26-1-.08-1.2-.71,0-.09-.27-.12-.41-.18.06.13.12.27.17.4s.09.24.13.37h-.39c-.53,0-.61-.35-.58-.87-.17.09-.24.24-.35.36s-.3.29-.36.26a1.47,1.47,0,0,1-.42-.44,3.5,3.5,0,0,1-.25-.47,3.4,3.4,0,0,0-.29.57c0,.12.08.27.09.4a.92.92,0,0,1-.08.27,1.13,1.13,0,0,1-.29-.15.59.59,0,0,1-.09-.3c0-.27,0-.55,0-.82a5.14,5.14,0,0,0-.78.16,1,1,0,0,0-.47.32,2.29,2.29,0,0,0-.24.58c-.19-.16-.47-.29-.53-.49-.24-.84-.75-.33-1.27-.21,0-.07.09-.15.08-.2a1.33,1.33,0,0,0-.18-.3c-.06.07-.16.14-.16.21s.08.19.26.29a1.58,1.58,0,0,1,.57.66c.06.11,0,.27,0,.41a.38.38,0,0,1-.15,0c0-.12,0-.24-.06-.36s0-.16-.07-.18a1.79,1.79,0,0,0-1.53.62,1.73,1.73,0,0,1-.16.3c-.1-.09-.26-.16-.29-.27-.09-.35.11-.95-.64-.61a.73.73,0,0,0-.11-.23,3.79,3.79,0,0,0-.34-.2,1.66,1.66,0,0,1-.19-.46,1.44,1.44,0,0,1,0-.46,3.53,3.53,0,0,0,.32.21c.11.05.29.13.35.08a1.13,1.13,0,0,0,.37-.47,3.31,3.31,0,0,0,.06-.74,3.63,3.63,0,0,0-1.23.53c-.43.46-1.3,0-1.5.85a.81.81,0,0,1-.45,0c-.12,0-.18-.26-.3-.3-.29-.12-.83-.32-.88-.24-.37.62-.86.57-1.42.39-.16,0-.37-.13-.48-.07a4.75,4.75,0,0,1-2.54.46,2.13,2.13,0,0,1-.46-.13c.17-.08.33-.17.49-.26l.32-.18a1.5,1.5,0,0,0-.25-.19c-.7-.37-1.21.46-1.9.32-.15,0-.31.09-.47-.1s-.24,0-.37-.05c-.06.57-.57.47-.91.62s-.5.27-.34-.24a4.18,4.18,0,0,0,.09-.81c-.65.33-.93.24-1.27-.34a1.42,1.42,0,0,0-.4-.37.25.25,0,0,0-.22,0s0,.14,0,.21c.2.48,0,.76-.52.8-.07,0-.18,0-.21.08-.16.25-.3.51-.44.76l-.16-.07.22-1.13c-.56.42-1.06.68-1.69.3a.65.65,0,0,0-.53,0c-.2.81-.72.27-1.07.25s-.49.13-.5.45v.13a1.6,1.6,0,0,0-.3-.23c-.64-.23-.14-.44,0-.64,0,0,.12,0,.17-.06l.3-.23c-.12-.11-.21-.26-.35-.33s-.24,0-.34.08a7.83,7.83,0,0,0-1.14.62c-.05,0,.15.41.19.63a.52.52,0,0,1-.16.32s-.2,0-.2,0c.1-.64-.77-.42-.76-1.1-.1.22-.14.27-.15.32s0,.29-.06.44c-.14,0-.33,0-.4-.13s0-.26,0-.38a.47.47,0,0,0-.19-.31,5.37,5.37,0,0,0-.56-.21,4.55,4.55,0,0,1-.9-.48c-.67-.55-.41.3-.64.4a1.56,1.56,0,0,1-.27.06l.58.48a1.34,1.34,0,0,1-1.11-.23.89.89,0,0,0-1.33,0c-.42.58-1.13.25-1.6.65-.15.13-.54,0-.58.4a.77.77,0,0,1-.4,0c-.14-.32-.23-.66-.34-1-.05-.16-.13-.33-.19-.49a3.23,3.23,0,0,0-.58.43c-.15.19-.18.5-.36.63a2.74,2.74,0,0,1-.79.28,2.21,2.21,0,0,0-.11-.51c0-.06-.16-.09-.25-.13v-2.38h.28a.71.71,0,0,0,0-.15l-.28,0Zm13.69-.68c-.12.47-1-.12-.82.57.07.34.19.67.29,1l.28,0C261.87,149.88,261.78,149.34,262.3,148.9Zm21.19.77c-.1.07-.19.11-.21.17s0,.18.09.19c.29.09.42.25.28.56a.17.17,0,0,0,.09.14s.14,0,.15,0c.07-.21.21-.47.14-.63S283.69,149.8,283.49,149.67Zm-4.54.2a3.41,3.41,0,0,0-.55-.24c-.06,0-.16.12-.25.18a6.54,6.54,0,0,0,.52.4S278.8,150.05,279,149.87Zm-14.64-.31h-.25c0,.28,0,.57.07.85l.27,0Zm-6.77.23-.24.09.27.74c.07-.05.21-.11.2-.14C257.71,150.25,257.62,150,257.54,149.79Zm22.38.67-.87-.28,0,.16.78.22S279.81,150.54,279.92,150.46Zm-12.47-.89c-.15-.1-.24-.21-.33-.21s-.19.1-.29.16c.09.09.17.23.28.26S267.29,149.67,267.45,149.57ZM284.22,153l.19.05.15-.63-.23-.05Zm-34-2.94.1.14.47-.36s-.1-.12-.11-.12Zm14.55-.69a2.17,2.17,0,0,0-.13.4c0,.05.1.09.16.14s.14-.15.15-.23S264.91,149.48,264.81,149.32Zm39.21.62c-.13-.07-.23-.16-.28-.14a.38.38,0,0,0-.13.23s.12.13.16.12S303.91,150,304,149.94Zm-22.54,3.54.1-.15a.75.75,0,0,0-.23-.07c-.07,0-.13.06-.2.1s.08.14.13.16S281.41,153.5,281.48,153.48Zm28.15-2.68.18-.17c-.06,0-.11-.13-.17-.14s-.12.07-.17.11Zm-35.46-.06c-.05.1-.13.18-.11.21a.25.25,0,0,0,.18.11s.13-.1.12-.14S274.26,150.82,274.17,150.74Zm15.93,2.68c.07-.15.12-.21.12-.28s-.06-.09-.09-.14-.13.09-.14.15S290,153.27,290.1,153.42Zm-10.33-3.65c-.08-.07-.13-.13-.16-.13a1.86,1.86,0,0,0-.2.1s.09.14.13.14S279.67,149.82,279.77,149.77Zm21.17,2.92c-.06.22-.1.3-.08.33s.11.1.17.14Zm5.08,1.52c0-.08,0-.16-.07-.17a.17.17,0,0,0-.14.05.17.17,0,0,0,0,.15S305.94,154.22,306,154.21Zm-35.91-2.85c-.05.06-.1.1-.1.13s.06.09.09.13.11-.07.11-.11S270.16,151.43,270.11,151.36Zm-4.26-1.5-.17-.16s-.08.09-.07.1a1.29,1.29,0,0,0,.17.16Zm-7.18.9-.08-.07-.08.1s.06,0,.09,0S258.65,150.79,258.67,150.76Zm33.95-.13s-.08-.06-.1,0a1.31,1.31,0,0,0-.11.12s.09.07.1.05S292.59,150.67,292.62,150.63Zm-11.16-.17s-.08-.09-.09-.08-.06.06-.09.1.06,0,.09,0S281.43,150.48,281.46,150.46Zm-7-.35c-.06-.06-.09-.11-.13-.13s-.09,0-.09,0,0,.12.05.14S274.42,150.13,274.5,150.11Zm.73,1.2-.1,0,.08.11s.07,0,.08-.07S275.25,151.33,275.23,151.31Z"/><path class="cls-23" d="M261.37,153.43v-.13l.65.3-.53.37a8.24,8.24,0,0,0,.64.6,1.35,1.35,0,0,0,.41.16,1.21,1.21,0,0,0,.08-.44,3.64,3.64,0,0,0-.32-.6,1.93,1.93,0,0,0,.4.08c.52-.1.88,0,.95.62,0,.15.26.28.47.48,0-.24,0-.36,0-.48s.06-.41.1-.61a1.73,1.73,0,0,1,.42.14,2.11,2.11,0,0,0,2,.22c.28-.07.53-.7.58.13.1,0,.23,0,.28,0a5.35,5.35,0,0,0,.4-.48l.51.74.26-.64a4.35,4.35,0,0,0,.36.38,1.54,1.54,0,0,0,.23.14,6.4,6.4,0,0,1-.42.64c.28-.13,1,.08.42-.64a5.9,5.9,0,0,1,0-.6,1.35,1.35,0,0,1,.29.05c.43.2.77.74,1.37.41,0,0,.15.09.16.14.08.58.23.44.46.07.06-.1.2-.15.3-.22v.38c0,.1,0,.21,0,.31a1.12,1.12,0,0,0,.28-.18c.11-.13.16-.31.28-.41s.38-.11.4-.07c.41.74.83.26,1.32,0a3.89,3.89,0,0,0,0,.61,3.07,3.07,0,0,0,.3.78c.05.08.27.07.41.11,0-.19.08-.47,0-.53-.6-.43.08-.66.2-.84a1,1,0,0,1,.86-.26c.84.22,1.65.55,2.47.81.08,0,.32-.13.31-.16-.16-.56.32-.33.57-.41l-.39-.48.88-.34a3.79,3.79,0,0,1,.34.2.73.73,0,0,1,.11.23c.75-.34.55.26.64.61,0,.11.19.18.29.27a1.73,1.73,0,0,0,.16-.3,1.79,1.79,0,0,1,1.53-.62c.05,0,.06.12.07.18s0,.24.06.36a.38.38,0,0,0,.15,0c0-.14.07-.3,0-.41a5.84,5.84,0,0,0-.48-.74c.43,0,.94-.55,1.18.29.06.2.34.33.53.49a2.29,2.29,0,0,1,.24-.58,1,1,0,0,1,.47-.32,5.14,5.14,0,0,1,.78-.16c0,.27,0,.55,0,.82a.59.59,0,0,0,.09.3,1.13,1.13,0,0,0,.29.15.92.92,0,0,0,.08-.27c0-.13-.12-.28-.09-.4a3.4,3.4,0,0,1,.29-.57,3.5,3.5,0,0,0,.25.47,1.47,1.47,0,0,0,.42.44c.06,0,.26-.15.36-.26s.18-.27.35-.36c0,.52,0,.85.58.87h.39c0-.13-.08-.25-.13-.37s-.11-.27-.17-.4c.14.06.38.09.41.18.18.63.82.45,1.2.71.2.13,1.06-.38,1.17-.66s.27-.61.72-.46a.47.47,0,0,0,.42-.05c.39-.36.69-.25,1,.11,0,.05.3-.1.46-.15a1.89,1.89,0,0,0,1.21,1.22,1.36,1.36,0,0,0,.73-.12c.05,0,0-.27,0-.41l-.33.1-.24.12c0-.09-.08-.22-.05-.26.21-.23.06-.88.7-.62,0,0,.15-.15.23-.16s.34,0,.38.07c.28.53.61.75,1.17.34s1.1.05,1.66,0c.22,0,.46.18.74.3L300,154c-.12.09-.24.18-.35.28.15.08.3.17.46.24a9.83,9.83,0,0,0,.93.43c.1,0,.33,0,.35-.09a1.23,1.23,0,0,0,0-.54c0-.08-.13-.14-.19-.2.11-.05.26-.17.34-.13a1.09,1.09,0,0,1,.38.36,1,1,0,0,1,.11.36,3.36,3.36,0,0,0,.43-.31c.12-.13.2-.3.33-.43a.24.24,0,0,1,.22,0s0,.13,0,.19a1.26,1.26,0,0,1,0,.28l.65-.05a1.06,1.06,0,0,0-.09-.36c-.14-.25-.32-.48-.5-.74.33-.44.61.18,1,.28,0,0,0,.31,0,.48l.81-.11c.72-.11,1,.24.73,1a2.46,2.46,0,0,0-.09.39c.11-.09.21-.19.32-.27.41-.29.83-.56.59-1.19,0,0,.31-.21.47-.32a2.76,2.76,0,0,1,.2.47,4.94,4.94,0,0,1,.1.53,2.41,2.41,0,0,0,.46-.37c.17-.19.56-.4.06-.68,0,0,0-.14,0-.22s.24,0,.28,0,.15.29.24.42a1.65,1.65,0,0,0,2,.05s0-.1,0-.16,0-.22.05-.33c.11.11.25.19.31.32a.76.76,0,0,1,0,.36c0,.15,0,.3-.06.45.08,0,.2,0,.22,0s.22-.36.17-.48c-.21-.5.1-.5.43-.57s.45.25.53.51l.15.45c.11-.14.24-.27.33-.41s.13-.32.22-.54l.35.92,0,5.14c-.23-.06-.47-.36-.68.05a.29.29,0,0,1-.25,0c-.24-.32-.48-.39-.79-.08-.07.07-.28,0-.42,0a1.11,1.11,0,0,0-1.32.65c-.27-.5-.46-1.29-1.17-.41,0,0-.24,0-.34-.08a.28.28,0,0,1,0-.25c.37-.49,0-.74-.21-1a4.52,4.52,0,0,1-.44,1.1c-.06.09-.54-.14-.82-.2a2.41,2.41,0,0,0-.38,0l.18.35.23.41c-.18,0-.39,0-.52-.05a2.26,2.26,0,0,0-1.62-.45,1.76,1.76,0,0,1-1.19-.34c-.33-.31-.42-.29-.59.06,0,.08-.17.1-.25.15s.07-.22,0-.27a1.1,1.1,0,0,0-.39-.35c-.08-.05-.22,0-.34,0,.06.12.11.24.17.35.2.34.16.52-.28.57-.69.07-.55-.52-.75-.86l-.65.35.06-.41a1.77,1.77,0,0,0-.33.08c-.15.1-.26.25-.41.34s-.32.12-.36.08c-.38-.43-.52-.24-.63.19,0,.08-.12.15-.19.22,0-.1-.12-.21-.11-.31s.06-.45,0-.67c0-.07-.15-.13-.24-.19s-.13.21-.11.25c.35.51-.4.64-.35,1.05l-.63-.3v-1.38l.35-.18-.35-.08c0-.58,0-1.16,0-1.75,0-.81-.28-1-1.05-.8l-.36.11L284,158.83a7.35,7.35,0,0,0,0-.94c0-.35-.14-.69-.21-1a3.07,3.07,0,0,0-.45.69.73.73,0,0,1-.36.22c-.35-.42-.73-.09-1.09-.06.18-.44.22-.75-.42-.49a1.42,1.42,0,0,1-.36,0l-.34.05a1.76,1.76,0,0,0,.17.37c.06.09.23.13.24.2a2.85,2.85,0,0,1,0,.65c0,.06-.11.11-.17.17-.09-.13-.18-.25-.26-.38-.27-.4-.43-1-1.13-.62-.05,0-.27-.14-.27-.2,0-.61-.39-.21-.41-.15-.33.71-.54.44-.78-.05,0-.09-.2-.12-.3-.17s-.08.17-.06.25c.23,1,.32.93-.85,1.18,0-1.17,0-1.18-1.21-.48l.06-1c-.31.11-.55.29-.74.25-1.07-.23-1.32-.12-1.84.84-.1.19-.36.29-.54.43-.11-.21-.22-.41-.32-.62s-.06-.26-.1-.26c-.41,0-.83,0-1.28,0a3.4,3.4,0,0,1,.2.51s-.2.15-.24.13a2.42,2.42,0,0,1-.31-.33c-.1-.12-.22-.37-.27-.35-.39.11-.89-.87-1.17.12,0,0-.07,0-.11,0l-1.58-.15c-.12,0-.26-.07-.36,0s-.21.52-.48.18c-.1-.13,0-.38-.05-.58a2.55,2.55,0,0,0-.1-.29c-.37.52-1,.77-.82,1.54,0,.1-.32.3-.5.46.05-1.06,0-1.05-.9-1.36a1.71,1.71,0,0,1-.92-.55c-.12-.19,0-.37-.31-.17a3.15,3.15,0,0,1-2.65.58,2.54,2.54,0,0,1-.54-.28l.38-.29-.09-.13-.45.3c-.27.15-.54.39-.81.4-.42,0-.45.09-.27.43.05.09-.07.27-.12.41-.12-.09-.33-.16-.37-.28-.09-.3-.1-.62-.16-.93a.35.35,0,0,0-.13-.24.39.39,0,0,0-.27.05.93.93,0,0,1-.61.85c-.18.1-.28.33-.41.5-.36-.29,0-.5.07-.75a1.51,1.51,0,0,0,0-.43,1.46,1.46,0,0,0-.36.16c-.2.17-.37.39-.58.55a.43.43,0,0,1-.35,0c-.17-.09-.37-.36-.48-.32s-.35.29-.5.46a1.33,1.33,0,0,0-.11.32l-.2-.17q.12-.28.21-.57c0-.13.07-.27.1-.4a1.5,1.5,0,0,0-.42.21c-.38.35-.72.85-1.3.22-.05-.06-.26,0-.4,0a1.43,1.43,0,0,0,.14.47c.05.08.23.07.35.1-.59.3-.79-.07-.93-.51l.17-.14-.14-.08,0,.22a1.38,1.38,0,0,1-1.29.21,1.4,1.4,0,0,0-.61,0,1.06,1.06,0,0,1-1.36-.48l0-1.88a7.72,7.72,0,0,0,.83-.2,1.61,1.61,0,0,0,.36-.24l-.31-.24-.21-.16c.06-.07.11-.21.18-.22.52-.11.93-.26.73-.93,0,0,.26-.2.41-.28s.15.14.15.14c-.47.51,0,.4.29.52s.38.4.58.59a.74.74,0,0,0,.37.17c.78.14,1-.37,1.14-1a2,2,0,0,1,.55.06.49.49,0,0,1,.2.26c-.46.5-.13.83.24,1.14a2.81,2.81,0,0,0,.52.26c-.07-.16-.16-.32-.22-.49s-.21-.46-.14-.57.39-.25.59-.37a.82.82,0,0,0,.24-.25c0-.07,0-.17,0-.25s.25.06.26.11a1,1,0,0,1,0,.52c-.09.37,0,.42.37.35s1-.55,1.27.24c0,0,.14.05.18,0,.26-.18.51-.38.76-.57l.44.38.19-.63c.13.06.26.18.38.18.46,0,.69.12.51.62,0,.05.07.19.11.19s.22,0,.25-.1a1.55,1.55,0,0,0,.14-.43l.06,0v.73l-.19.28.31-.15a3,3,0,0,0,.66-.55c.08-.11,0-.38-.1-.55-.19-.38,0-.28.26-.3A1.25,1.25,0,0,0,261.37,153.43Zm.7,2.65a.74.74,0,0,0-.18-.07.55.55,0,0,0-.17.05.6.6,0,0,0,.15.09s.1,0-.12-.05c-.07-.06-.1-.1-.12-.1a.4.4,0,0,0-.22.05s0,.1,0,.16A3,3,0,0,1,262.07,156.08Zm-6.9.58c-.09,0-.14-.08-.18-.07a.55.55,0,0,0-.17,0,.6.6,0,0,0,.15.09c.05,0,.1,0-.15-.07v-.11l-.65-.07,0,.17Zm12-1.88c.29.17.61.36,1,.53a.72.72,0,0,0,.33,0,1.1,1.1,0,0,0-.11-.29c-.37-.37-.76-.67-1.26-.19-.74-.3-1-.24-1.16.24,0,.07,0,.18,0,.22s.15,0,.21,0C266.48,155.18,266.78,155,267.21,154.78ZM273.6,157c-.11-.13-.16-.23-.22-.25a9.12,9.12,0,0,0-1.05-.13,2.29,2.29,0,0,0-.13.4c.39-.24.54.22.81.26S273.38,157.11,273.6,157Zm-22.5-1.43a1.43,1.43,0,0,0,.22-.49c0-.06-.22-.22-.26-.2a2.25,2.25,0,0,0-.4.36Zm5.78.76a3.24,3.24,0,0,0,.48-.8c0-.1-.21-.29-.32-.42Zm5.67-.83c-.13.23-.27.36-.24.45a2.72,2.72,0,0,0,.28.53c.05,0,.16-.09.15-.12C262.7,156.11,262.64,155.88,262.55,155.5Zm-2.92-.15c-.12.31-.24.47-.23.62s.24.16.37.23c0-.11.13-.22.12-.32A2.2,2.2,0,0,0,259.63,155.35Zm-10.38,1.82.11.23a5.07,5.07,0,0,0,.54-.36s-.07-.21-.11-.31Zm55.07,2.07.43-.32c-.08,0-.16-.14-.23-.12s-.36.13-.54.19Zm5.45-1.06-.15,0c0,.2,0,.4-.05.6a1.23,1.23,0,0,0,.2,0ZM270,155.62c.09-.12.21-.21.19-.25a.55.55,0,0,0-.23-.27s-.14.09-.22.14Zm-9.39.33c0,.16-.11.26-.09.35a.4.4,0,0,0,.21.26c.05,0,.17-.11.26-.17Zm-9,.9.07-.13-.64-.24a.88.88,0,0,0-.07.14Zm-.68-2.64c-.1-.08-.17-.17-.2-.15a1.65,1.65,0,0,0-.27.19c.06.07.14.19.17.18A1.84,1.84,0,0,0,251,154.21Zm18,2.64-.16-.21-.38.39.16.17Zm-3.53-1.73c-.08.12-.17.21-.16.23a2.43,2.43,0,0,0,.26.29c0-.06.1-.13.09-.18A1.78,1.78,0,0,0,265.47,155.12Zm-1.9.58-.17-.09c-.07.14-.13.28-.19.43a1.09,1.09,0,0,0,.14.08Zm-7.35.76-.15-.06c-.06.13-.11.26-.16.39l.14.07Zm17.33-1.36c-.19-.07-.25-.12-.31-.11a.6.6,0,0,0-.22.09c.05.06.09.15.14.15A1.86,1.86,0,0,0,273.55,155.1Zm3.21,1.85,0-.14-.41-.1,0,.13Zm2-.89c-.09-.08-.14-.16-.2-.17s-.14.09-.13.14a.21.21,0,0,0,.13.16S278.68,156.13,278.77,156.06Zm-14.2,1,.16-.07-.14-.33-.14.06Zm40.9,1.8-.05-.1L305,159l.05.11Zm-49-4.51c-.07.1-.14.16-.13.19a.76.76,0,0,0,.13.2c0-.05.09-.1.09-.15A1.07,1.07,0,0,0,256.44,154.39Zm55.87,4.24c-.07-.06-.11-.11-.16-.12s-.07.06-.11.1.08.1.13.12S312.25,158.68,312.31,158.63Zm-35-1.45c0-.07.11-.12.1-.15a.33.33,0,0,0-.1-.14s-.11.07-.11.11S277.24,157.1,277.29,157.18ZM266.09,156c0,.07-.11.12-.11.17s.06.08.1.11.1-.08.11-.13S266.14,156.08,266.09,156Zm-1.93,0s-.08-.09-.09-.08a.78.78,0,0,0-.15.1s.09.09.11.09S264.11,156,264.16,156Zm11.9-.15c-.06,0-.1-.1-.14-.1s-.08.06-.12.1.06.1.1.1S276,155.88,276.06,155.83Zm27,2.41.07-.09-.12-.07s0,.07,0,.1S303,158.22,303.07,158.24ZM255.85,156l-.09-.08a.81.81,0,0,0-.09.1s.06.05.09.05S255.82,156.07,255.85,156Zm16.75-.37-.1,0,0,.1.13-.05Zm-3.14.13s-.06-.06-.08-.06a.5.5,0,0,0-.07.08l.11.08A1,1,0,0,1,269.46,155.8Zm2.32-.39s0-.11-.09-.13-.08,0-.12,0a.58.58,0,0,0,.1.12S271.73,155.42,271.78,155.41Zm37,2.84,0-.1-.09,0a.5.5,0,0,0,.05.13Zm-40-2.57s0-.09,0-.1-.07,0-.1,0l.05.14Zm7.69-.79,0-.1-.1,0,0,.13Z"/><path class="cls-24" d="M312.67,166l-.06,8.4c-.33.05-.65.08-.68.55a1.25,1.25,0,0,1-1.57,1c-.15-.07-.24-.35-.29-.54s.12-.22.19-.34a3.08,3.08,0,0,0,.33.3c.12.07.36.14.37.11a1.27,1.27,0,0,0,.23-.6c0-.1-.24-.23-.39-.3a5.45,5.45,0,0,0-.61-.14l0-.15-.49.36c-.12-.07-.26-.21-.36-.19-.48.14-.95.33-1.43.48a.38.38,0,0,1-.29,0c-.71-.4-1.12-.29-1.69.4-.11.14-.44.1-.66.14,0-.1,0-.21.28-.35s.15-.13.1-.18l-.32.27s.1.12.12.11.22-.15.1-.2c-.34-.06-.5-.26-.54-.23-.35.21-.71.44-.43,1l-.68-.2.38-1.15c-.29.09-.5.23-.65.19-.66-.18-.93.28-1.16.7s-.27.42-.5.11a5.24,5.24,0,0,1-.28-.58c-.25.12-.66.47-1,.43-.6-.06-1.09-.88-1.82-.24,0,0-.12-.11-.19-.13a3.73,3.73,0,0,0-.46-.09,4.88,4.88,0,0,1-1-.18,1.19,1.19,0,0,0-1.4.33L283,170.81l.82-.28c3.84-1.19,7.68-2.37,11.51-3.57a5.61,5.61,0,0,0,1.11-.64,1.54,1.54,0,0,0,.19.17l.45.36c.05-.17.09-.34.15-.51a2.26,2.26,0,0,1,.13-.2.74.74,0,0,0,.21.15,4.75,4.75,0,0,0,.8.28,2.78,2.78,0,0,0,.59,0c-.25-.33-.16-.45.25-.44A6.63,6.63,0,0,0,300,166a.79.79,0,0,1,.51.11c.29.26.47.74,1,.37a.44.44,0,0,1,.23.18c.16.41.51.6.84.42a1.86,1.86,0,0,0,.57-.82c.08-.16.73-.51.88-.38s.06.19,0,.25-.45.33,0,.56c.27.14.49.36.69-.1.08-.19.34-.3.52-.45l.1.08-.15.62,1.82-.69c-.44.48.55.89,0,1.32a3.34,3.34,0,0,0,.52.09c.05,0,.09-.23.16-.24.34,0,.84.2.83-.47.35.11.75-.31,1.09.12.09.12.41.24.45.19a2.33,2.33,0,0,0,.36-.59,2.56,2.56,0,0,1,.22-.35,2.37,2.37,0,0,1,.29-.25l.25-.17a2.48,2.48,0,0,1,.24.53c0,.06-.16.17-.26.24s-.23.09-.26.16a1.69,1.69,0,0,0-.07.45,1.89,1.89,0,0,0,.41,0,.63.63,0,0,0,.59-.6C311.85,166.14,312.08,165.75,312.67,166Zm-12.93,1.3.56-.46c-.17-.11-.34-.3-.53-.31s-.32.17-.49.27Z"/><path class="cls-25" d="M248.55,157.22a1.06,1.06,0,0,0,1.36.48,1.4,1.4,0,0,1,.61,0,1.38,1.38,0,0,0,1.29-.21h0c.14.44.34.81.93.51-.12,0-.3,0-.35-.1a1.43,1.43,0,0,1-.14-.47c.14,0,.35-.07.4,0,.58.63.92.13,1.3-.22a1.5,1.5,0,0,1,.42-.21c0,.13-.06.27-.1.4s-.13.38-.21.57l.2.17a1.33,1.33,0,0,1,.11-.32c.15-.17.31-.4.5-.46s.31.23.48.32a.43.43,0,0,0,.35,0c.21-.16.38-.38.58-.55a1.46,1.46,0,0,1,.36-.16,1.51,1.51,0,0,1,0,.43c-.1.25-.43.46-.07.75.13-.17.23-.4.41-.5a.93.93,0,0,0,.61-.85.39.39,0,0,1,.27-.05.35.35,0,0,1,.13.24c.06.31.07.63.16.93,0,.12.25.19.37.28.05-.14.17-.32.12-.41-.18-.34-.15-.41.27-.43.27,0,.54-.25.81-.4l.45-.3.09.13-.38.29a2.54,2.54,0,0,0,.54.28,3.15,3.15,0,0,0,2.65-.58c.28-.2.19,0,.31.17a1.71,1.71,0,0,0,.92.55c.93.31,1,.3.9,1.36.18-.16.53-.36.5-.46-.21-.77.45-1,.82-1.54a2.55,2.55,0,0,1,.1.29c0,.2,0,.45.05.58.27.34.31-.12.48-.18s.24,0,.36,0l1.58.15s.11,0,.11,0c.28-1,.78,0,1.17-.12.05,0,.17.23.27.35a2.42,2.42,0,0,0,.31.33s.25-.1.24-.13a3.4,3.4,0,0,0-.2-.51c.45,0,.87,0,1.28,0,0,0,.06.18.1.26s.21.41.32.62c.18-.14.44-.24.54-.43.52-1,.77-1.07,1.84-.84.19,0,.43-.14.74-.25l-.06,1c1.18-.7,1.19-.69,1.21.48,1.17-.25,1.08-.19.85-1.18,0-.08,0-.17.06-.25s.26.08.3.17c.24.49.45.76.78.05,0-.06.45-.46.41.15,0,.06.22.23.27.2.7-.36.86.22,1.13.62.08.13.17.25.26.38.06-.06.16-.11.17-.17a2.85,2.85,0,0,0,0-.65c0-.07-.18-.11-.24-.2a1.76,1.76,0,0,1-.17-.37l.34-.05a1.42,1.42,0,0,0,.36,0c.64-.26.6.05.45.5-.06,0-.11,0-.15,0a1.27,1.27,0,0,0-.19.13c.06,0,.14.13.17.11s.1-.11.17-.24c.33,0,.71-.37,1.06.05a.73.73,0,0,0,.36-.22,3.07,3.07,0,0,1,.45-.69c.07.34.17.68.21,1a7.35,7.35,0,0,1,0,.94l-11.54,3.59c-1.5.46-3,.9-4.53,1.35a6.26,6.26,0,0,0-.34-.55c-.11-.15-.24-.29-.32-.38h-1.21a2.28,2.28,0,0,0,.72.38,1.46,1.46,0,0,1,.31.3,1.78,1.78,0,0,1-.5.21c-.14,0-.39,0-.41-.11-.22-.63-.46-.35-.74-.06-.06.07-.2.06-.31.09a1.16,1.16,0,0,1,.05-.28c.28-.69.22-.78-.52-.76,0,.05.1.1.1.15,0,.3,0,.73-.12.86a.46.46,0,0,1-.77-.33c-.1-.52-.51-.35-.77-.26l.3.91-.73-.45,0-.06a.56.56,0,0,0-.91-.15c-.65.72-.85.29-1.05-.32,0,0-.05-.06-.07-.09l0,.19-.85.16c-.32.06-.5.18-.34.55.28.65.18.85-.42,1.09-.49.05.48-1.06-.56-.54,0,0-.11-.13-.1-.2s0-.47.14-.59.12-.38-.07-.55-.25-.28-.31-.34c-.14.19-.24.46-.39.49s-.52-.05-.51-.45c0-.15-.17-.31-.26-.47-.2.15-.53.28-.58.47-.1.44-.37.46-.73.5-.6.05-.91-.35-1.26-.72a4,4,0,0,0-.4-.32l0,.52h0l-.59-.12-.69.66-.1-.1.45-1-.1-.05-.87.78a8.43,8.43,0,0,1,0,.88,1,1,0,0,1-.21.47s-.18,0-.27,0a1.57,1.57,0,0,0,.13-.47,3.1,3.1,0,0,0-.15-.58,3.21,3.21,0,0,0-.48.34c-.06.06,0,.21,0,.39a6,6,0,0,0-.66-.57,1.09,1.09,0,0,0-.45-.08,1.15,1.15,0,0,1-.33-.09,3,3,0,0,1-.46-.33c-.05.18-.09.36-.14.54a1.94,1.94,0,0,1-.06.22l-.56-.28Zm34.87,1.45c-.07,0-.11-.1-.15-.11a.52.52,0,0,0-.16.06c.05,0,.08.12.14.14S283.34,158.71,283.42,158.67Zm-1.72.35c-.07-.06-.11-.11-.15-.12s-.11.08-.1.1a.15.15,0,0,0,.11.11S281.64,159.06,281.7,159Zm.59-1.11-.09.11.24.13s.05,0,.08-.06Z"/><path class="cls-26" d="M309.73,174.64a3,3,0,0,1,.48-.42l0,.15a5.45,5.45,0,0,1,.61.14c.15.07.39.2.39.3a1.27,1.27,0,0,1-.23.6s-.25,0-.37-.11a3.08,3.08,0,0,1-.33-.3c-.07.12-.21.25-.19.34s.14.47.29.54a1.25,1.25,0,0,0,1.57-1c0-.47.35-.5.68-.55l-.07,9.27c-.4.17-.22.34,0,.5v.38a1.2,1.2,0,0,1-.4.16,6.48,6.48,0,0,1-.77-.09c.14-.06.34-.08.42-.19a.5.5,0,0,0,0-.46,2.38,2.38,0,0,0-.51-.49c-.05-.05-.18-.07-.18-.09,0-.17.25-.51-.18-.35a1.56,1.56,0,0,0-.71.66c-.11.2,0,.51,0,.67a7.77,7.77,0,0,1-.93-.06c-.19,0-.49-.17-.5-.27a1.94,1.94,0,0,1,.2-.69c-1,0-1.11.13-.79,1.17-.41-.08-.81-.15-1.21-.24a1.29,1.29,0,0,0-1.11.12c-.09.06-.73-.39-.71-.56.05-.52-.28-.4-.53-.47a1.6,1.6,0,0,1-.49-.18,1.27,1.27,0,0,1-.25-.37c-.08.16-.22.31-.23.48s.12.4.09.59a.77.77,0,0,1-.29.52,3.08,3.08,0,0,1-.88.2.49.49,0,0,0,0-.3c-.08-.17-.28-.42-.38-.4-.66.15-.56-.33-.6-.68a4.42,4.42,0,0,1,0-.52c-.51.64-1.07,1.12-1.72,1a9.35,9.35,0,0,0-2.58-.26,1.39,1.39,0,0,0-.26.1c.07.09.11.23.2.27.24.12.5.2.76.3l0,.2-1.49.2q0-4,0-8a6.76,6.76,0,0,0-.13-1l0-.25h-.28l-.37-.28a1.19,1.19,0,0,1,1.4-.33,4.88,4.88,0,0,0,1,.18,3.73,3.73,0,0,1,.46.09c.07,0,.18.14.19.13.73-.64,1.22.18,1.82.24.37,0,.78-.31,1-.43a5.24,5.24,0,0,0,.28.58c.23.31.33.21.5-.11s.5-.88,1.16-.7c.15,0,.36-.1.65-.19l-.38,1.15.68.2c-.28-.53.08-.76.43-1,0,0,.2.17.3.26l0,.32c.22,0,.55,0,.66-.14.57-.69,1-.8,1.69-.4a.38.38,0,0,0,.29,0c.48-.15.95-.34,1.43-.48.1,0,.24.12.37.25,0,0,0,0-.06,0s-.11.07-.12.11.05.08.08.13A.62.62,0,0,0,309.73,174.64Zm-3.3,8.62c0-.12,0-.21-.08-.23a.93.93,0,0,0-.24,0,1.15,1.15,0,0,0,.29.2l0,.12c.23.07.47.14.7.19,0,0,.06-.12.1-.18l-.58-.07C306.52,183.26,306.46,183.23,306.43,183.26Zm2.07-8.44-.22.26c.22.16.43.33.66.47,0,0,.13-.11.2-.16Zm-10.85.81-.33-.46c-.07.12-.22.25-.19.34a1.29,1.29,0,0,0,.28.42Zm4.74,7.65.64-.73a.9.9,0,0,0-.67.17C302.29,182.79,302.37,183,302.39,183.28Zm-.85-7.51-.23-.28c-.1.12-.28.23-.29.35s.16.24.24.35Zm-2-.3c-.2-.1-.3-.2-.38-.19s-.17.14-.21.23.11.17.15.17A3.16,3.16,0,0,0,299.59,175.47Zm10.75,7.24c.06,0,.11.1.15.1s.09-.07.13-.11a.61.61,0,0,0-.15-.13S310.4,182.65,310.34,182.71Zm-4.72,1c.08-.09.13-.13.13-.17a.58.58,0,0,0-.05-.16c-.05,0-.13,0-.13.06S305.6,183.63,305.62,183.76Z"/><path class="cls-27" d="M296.51,184.51l1.49-.2,0-.2c-.26-.1-.52-.18-.76-.3-.09,0-.13-.18-.2-.27a1.39,1.39,0,0,1,.26-.1,9.35,9.35,0,0,1,2.58.26c.65.08,1.21-.4,1.72-1a4.42,4.42,0,0,0,0,.52c0,.35-.06.83.6.68.1,0,.3.23.38.4a.49.49,0,0,1,0,.3,3.08,3.08,0,0,0,.88-.2.77.77,0,0,0,.29-.52c0-.19-.11-.4-.09-.59s.15-.32.23-.48a1.27,1.27,0,0,0,.25.37,1.6,1.6,0,0,0,.49.18c.25.07.58,0,.53.47,0,.17.62.62.71.56a1.29,1.29,0,0,1,1.11-.12c.4.09.8.16,1.21.24-.32-1-.2-1.21.79-1.17a1.94,1.94,0,0,0-.2.69c0,.1.31.23.5.27a7.77,7.77,0,0,0,.93.06c0-.16-.09-.47,0-.67A1.56,1.56,0,0,1,311,183c.43-.16.19.18.18.35,0,0,.13,0,.18.09a2.38,2.38,0,0,1,.51.49.5.5,0,0,1,0,.46c-.08.11-.28.13-.42.19a6.48,6.48,0,0,0,.77.09,1.2,1.2,0,0,0,.4-.16l-.05,6.39c-.92-.48-.47.61-.64.53l-1.12-.84-.18,1.07c-.14-.2-.22-.27-.23-.36-.06-.5-.36-.49-.72-.35s-.67.24-1,.38-.54.22-.48-.27c0-.27,0-.31-.36-.27a3.31,3.31,0,0,1-1.11-.26c-.08,0-.2-.12-.21-.1-.49.53-1.23.09-1.75.48-.05,0-.13,0-.16.09-.19.3-.13.84-.74.73-.1,0-.23.11-.34.17a3,3,0,0,1-.08-.43c0-.07,0-.15.09-.32a2.37,2.37,0,0,0-.44.2c-.32.26-.53.28-.52-.21s-.17-.33-.39-.19l-1,.62c-.44.27-.72.13-.81-.38a1.31,1.31,0,0,0-.34-.59c-.06-.07-.26,0-.39,0,0,.11.12.22.1.31a1.44,1.44,0,0,1-.18.54c0,.06-.27.06-.36,0-.34-.24-.92-.31-.8-1,0-.06-.19-.23-.28-.22a.49.49,0,0,0-.32.24c-.34.74-.33.74-1,.23a.36.36,0,0,0-.33,0,1.09,1.09,0,0,1-1.53.17,3.06,3.06,0,0,0-1.15-.21c-.1.24.46.86-.35.52,0,0-.08.12-.13.16-.21.12-.51.39-.61.33a1.85,1.85,0,0,1-.54-.68c-.06-.11,0-.3,0-.42a.4.4,0,0,0-.27-.22c-.08,0-.24.13-.24.21s.26.54-.15.58,0-.36-.17-.43a6.79,6.79,0,0,0-.93-.44l.14.66-.78-.21-1.27-.34-.41-.07c0,.11.06.24,0,.33a2.15,2.15,0,0,1-.3.48,2.51,2.51,0,0,0-.37-.27c-.25-.14-.66-.42-.76-.34-.66.55-.63,0-.71-.4l.88-.28.51-.1c-.15.38.2.28.35.37l.26-.54.51-.23.76-.24.63-.22.63-.16,1-.35.76-.23.62-.16,1-.34.88-.25.64-.24.23,0,.77-.73Z"/><path class="cls-28" d="M254,162.65l0-.52a4,4,0,0,1,.4.32c.35.37.66.77,1.26.72.36,0,.63-.06.73-.5.05-.19.38-.32.58-.47.09.16.27.32.26.47,0,.4.24.5.51.45s.25-.3.39-.49c.06.06.18.21.31.34s.31.3.07.55-.12.39-.14.59.1.2.1.2c1-.52.07.59.56.54.6-.24.7-.44.42-1.09-.16-.37,0-.49.34-.55l.85-.16,0-.19s.06.06.07.09c.2.61.4,1,1.05.32a.56.56,0,0,1,.91.15l0,.06.73.45-.3-.91c.26-.09.67-.26.77.26a.46.46,0,0,0,.77.33c.16-.13.1-.56.12-.86,0-.05-.06-.1-.1-.15.74,0,.8.07.52.76a1.16,1.16,0,0,0-.05.28c.11,0,.25,0,.31-.09.28-.29.52-.57.74.06,0,.08.27.13.41.11a1.78,1.78,0,0,0,.5-.21,1.46,1.46,0,0,0-.31-.3,2.28,2.28,0,0,1-.72-.38h1.21c.08.09.21.23.32.38a6.26,6.26,0,0,1,.34.55c-.63.2-1.24.43-1.88.59-1.24.32-1.52.64-1.53,1.91l-.06,5.86-.59,0v.17l.58,0V173a2.71,2.71,0,0,0-1-.11c-.39.1-.68.14-.79-.22s-.23-.34-.49-.14-.3.05-.46.07c0-.11,0-.22,0-.33-.05-.26,0-.67-.18-.73a1.63,1.63,0,0,0-.93,0,1.73,1.73,0,0,0-.56.28l.29.67c-.25,0-.5,0-.74-.09a.31.31,0,0,1-.16-.25c0-.28-.57-.44-.15-.78a2,2,0,0,0-.47-.08s-.06.21-.13.26-.46.32-.7.47c0,0-.12-.1-.11-.11.12-.18.26-.35.39-.53a2.13,2.13,0,0,0,.08-.31c-.48.14-1,.13-1.21.37s-.32.47-.62.11a.25.25,0,0,0-.21-.09,12.41,12.41,0,0,0-1.49.5c-.56.26-.64.24-.63-.39,0-.37,0-.61-.52-.43-.33.12-.81.29-.82-.49l-.76,1a4,4,0,0,1,.64,0s0,.22,0,.33c-.3,0-.68.15-.88,0-.4-.27-.53-.23-.65.21,0,.09-.22.14-.34.21,0-.12-.05-.24-.07-.35a2.51,2.51,0,0,0,0-.27c-.1,0-.24.05-.31.13-.26.26-.47.13-.48-.14,0-.54-.5-.36-.75-.53a1.48,1.48,0,0,0-.16.27,1.38,1.38,0,0,0,0,.35l-.29-.16-.36-.23.05-6.64.36-.27-.36-.36v-1l.56.28a1.94,1.94,0,0,0,.06-.22c.05-.18.09-.36.14-.54a3,3,0,0,0,.46.33,1.15,1.15,0,0,0,.33.09,1.09,1.09,0,0,1,.45.08,6,6,0,0,1,.66.57c0-.18,0-.33,0-.39a3.21,3.21,0,0,1,.48-.34,3.1,3.1,0,0,1,.15.58,1.57,1.57,0,0,1-.13.47c.09,0,.25.08.27,0a1,1,0,0,0,.21-.47,8.43,8.43,0,0,0,0-.88l.87-.78.1.05-.45,1,.1.1.69-.66.59.12.24.44.17-.15Zm.56.92-.05-.26c-.42,0-.84,0-1.25,0a2,2,0,0,0-.55.22c.13.15.3.45.4.43A11.92,11.92,0,0,0,254.59,163.57Zm2.66.16c-.22-.16-.37-.35-.52-.35s-.34.17-.51.27a3.13,3.13,0,0,0,.61.44C256.88,164.12,257.05,163.91,257.25,163.73Zm.72.05-.36-.29c-.05,0-.14.13-.12.16a.62.62,0,0,0,.18.29S257.82,163.87,258,163.78Zm-2.94-.36a1.7,1.7,0,0,0-.16.35s.07.11.11.17a2.26,2.26,0,0,0,.23-.31S255.12,163.52,255,163.42Zm2.22,1.76a1.78,1.78,0,0,0-.34-.19s-.11.08-.17.12a1.06,1.06,0,0,0,.23.24S257.11,165.27,257.25,165.18Zm6.06-1-.32.29c.08.06.15.17.22.17a.26.26,0,0,0,.21-.15C263.44,164.45,263.36,164.35,263.31,164.22Zm-7.22,7c-.18-.09-.24-.15-.28-.14a1,1,0,0,0-.22.14Zm-5.25-6.51c0-.09-.05-.16-.1-.18s-.1,0-.15,0,0,.13.06.16S250.76,164.67,250.84,164.67Zm14.12-.53c0,.05-.1.1-.09.13s.06.08.1.12.1-.07.1-.1S265,164.2,265,164.14Zm-13.3,7.19-.08-.05a.69.69,0,0,0-.13.11s.09.07.1.06S251.62,171.38,251.66,171.33Z"/><path class="cls-29" d="M248.45,171.51l.36.23.29.16a1.38,1.38,0,0,1,0-.35,1.48,1.48,0,0,1,.16-.27c.25.17.73,0,.75.53,0,.27.22.4.48.14.07-.08.21-.09.31-.13a2.51,2.51,0,0,1,0,.27c0,.11,0,.23.07.35.12-.07.32-.12.34-.21.12-.44.25-.48.65-.21.2.14.58,0,.88,0,0-.11,0-.32,0-.33a4,4,0,0,0-.64,0l.76-1c0,.78.49.61.82.49.5-.18.53.06.52.43,0,.63.07.65.63.39a12.41,12.41,0,0,1,1.49-.5.25.25,0,0,1,.21.09c.3.36.36.17.62-.11s.73-.23,1.21-.37a2.13,2.13,0,0,1-.08.31c-.13.18-.27.35-.39.53,0,0,.1.12.11.11.24-.15.48-.3.7-.47s.08-.25.13-.26a2,2,0,0,1,.47.08c-.42.34.16.5.15.78a.31.31,0,0,0,.16.25c.24.05.49.06.74.09l-.29-.67a1.73,1.73,0,0,1,.56-.28,1.63,1.63,0,0,1,.93,0c.14.06.13.47.18.73,0,.11,0,.22,0,.33.16,0,.35,0,.46-.07s.37-.26.49.14.4.32.79.22a2.71,2.71,0,0,1,1,.11c0,.69,0,1.38,0,2.06,0,1.2.19,1.46,1.34,1.84l5.79,1.92a2.29,2.29,0,0,1-.91.26c-.35-.05-.53-.12-.41.33,0,.06,0,.14-.08.21s-.16,0-.19-.09c-.37-.6-.61-.64-1.17-.22a1,1,0,0,1-.43.08,2.54,2.54,0,0,0,.16-.28c0-.07.05-.18,0-.21a3.86,3.86,0,0,0-.38-.3c-.05.14-.11.28-.17.41s-.13.25-.19.38a2.42,2.42,0,0,1-.13-.46c0-.09,0-.2.06-.3-.3.06-.46.27-.67.37s-.64.46-1,0c0-.05-.18-.05-.27,0a4.43,4.43,0,0,1-.81.07c-.05,0-.08-.35-.11-.54s0-.26,0-.37a.19.19,0,0,0-.17-.13.3.3,0,0,0-.17.12c.25.48-.25.45-.42.64s-.2.18-.2.28.08.22.14.33a2.81,2.81,0,0,1-.51-.29c-.2-.2-.35-.34-.62-.07a1,1,0,0,1-.44.2,2.34,2.34,0,0,1-.38,0,2.32,2.32,0,0,1,.21-.38.67.67,0,0,1,.26-.1l0-.23-1.73.2.42.57c-.12,0-.17,0-.2,0-.59-.49-1.19-.88-2-.44a.64.64,0,0,1-.31,0,1.4,1.4,0,0,0-1.36.56.65.65,0,0,1-.49.08,3.38,3.38,0,0,1-.16-.7c0-.19-.1-.37-.15-.55-.16.14-.32.28-.47.43a1.88,1.88,0,0,0-.14.24,1.12,1.12,0,0,1-.17-.21c-.38-.73-.8-.79-1.27-.14a3.63,3.63,0,0,0-.27.52l.48-.25c.09,0,.19-.12.28-.11a2,2,0,0,1,.38.14,2.43,2.43,0,0,0-.32.18,1.54,1.54,0,0,0-.25.32c-.05.07-.07.22-.13.24-.22.07-.92-.47-.9-.69,0-.46-.05-.64-.52-.36-.05,0-.26-.1-.33-.2a.61.61,0,0,0-.84-.3.29.29,0,0,0-.14.19s.08.11.13.16l.76.72-.13.12c-.28-.15-.6-.47-.81-.41-.46.15-.42-.38-.67-.38s-.56.26-.67.17c-.34-.25-.49-.09-.74.11-.1.08-.35,0-.54,0,.12-.81-.44-.69-.92-.66Zm.65,1.75.18.05.18-.78-.16-.06Z"/><path class="cls-30" d="M312.67,166c-.59-.2-.82.19-.86.64a.63.63,0,0,1-.59.6,1.89,1.89,0,0,1-.41,0,1.69,1.69,0,0,1,.07-.45c0-.07.18-.1.26-.16s.28-.18.26-.24a2.48,2.48,0,0,0-.24-.53l-.25.17a2.37,2.37,0,0,0-.29.25,2.56,2.56,0,0,0-.22.35,2.33,2.33,0,0,1-.36.59c0,.05-.36-.07-.45-.19-.34-.43-.74,0-1.09-.12,0,.67-.49.42-.83.47-.07,0-.11.24-.16.24a3.34,3.34,0,0,1-.52-.09c.52-.43-.47-.84,0-1.32l-1.82.69.15-.62-.1-.08c-.18.15-.44.26-.52.45-.2.46-.42.24-.69.1-.43-.23-.1-.37,0-.56s0-.22,0-.25-.8.22-.88.38a1.86,1.86,0,0,1-.57.82c-.33.18-.68,0-.84-.42a.44.44,0,0,0-.23-.18c-.52.37-.7-.11-1-.37A.79.79,0,0,0,300,166a6.63,6.63,0,0,1-.75.15c-.41,0-.5.11-.25.44a2.78,2.78,0,0,1-.59,0,4.75,4.75,0,0,1-.8-.28.74.74,0,0,1-.21-.15,2.26,2.26,0,0,0-.13.2c-.06.17-.1.34-.15.51l-.45-.36a1.54,1.54,0,0,1-.19-.17,7.41,7.41,0,0,0,.18-1c0-1.95.05-3.9.07-5.84l.63.3c-.05-.41.7-.54.35-1.05,0,0,.07-.17.11-.25s.24.12.24.19c0,.22,0,.45,0,.67s.07.21.11.31c.07-.07.17-.14.19-.22.11-.43.25-.62.63-.19,0,0,.25,0,.36-.08s.26-.24.41-.34a1.77,1.77,0,0,1,.33-.08l-.06.41.65-.35c.2.34.06.93.75.86.44,0,.48-.23.28-.57-.06-.11-.11-.23-.17-.35.12,0,.26-.08.34,0a1.1,1.1,0,0,1,.39.35c0,.05,0,.18,0,.27s.21-.07.25-.15c.17-.35.26-.37.59-.06a1.76,1.76,0,0,0,1.19.34,2.26,2.26,0,0,1,1.62.45c.13.08.34,0,.52.05l-.23-.41-.18-.35a2.41,2.41,0,0,1,.38,0c.28.06.76.29.82.2a4.52,4.52,0,0,0,.44-1.1c.23.23.58.48.21,1a.28.28,0,0,0,0,.25c.1.05.3.12.34.08.71-.88.9-.09,1.17.41a1.11,1.11,0,0,1,1.32-.65c.14,0,.35.07.42,0,.31-.31.55-.24.79.08a.29.29,0,0,0,.25,0c.21-.41.45-.11.68-.05Zm-7.82-.7c-.2-.15-.33-.31-.39-.29a1.61,1.61,0,0,0-.39.31c.07.08.16.23.22.22A2.79,2.79,0,0,0,304.85,165.25Zm2.43.4c-.07.11-.15.2-.14.22.14.2.3.38.45.57l.24-.25Zm-7,.17c0-.89,0-.89-.52-.94Zm3.51-.42,0-.23-.49,0a.75.75,0,0,0,0,.2Zm3.6,0c.07-.11.13-.17.13-.23s-.08-.12-.12-.18a1,1,0,0,0-.17.2S307.28,165.33,307.36,165.43Zm-1.15-.3-.27-.18c0,.06-.11.13-.1.18a.29.29,0,0,0,.16.15S306.1,165.21,306.21,165.13Zm-4.87.53a1,1,0,0,0,0,.28s.08.08.12.12.12-.12.12-.17S301.44,165.78,301.34,165.66Zm.59-.26c-.05.06-.11.1-.1.14s.07.08.11.12.1-.08.1-.11S302,165.46,301.93,165.4Zm4.65-.67c-.05.06-.11.11-.11.15s.07.08.1.12.11-.07.11-.11S306.62,164.8,306.58,164.73Z"/><path class="cls-26" d="M248.41,178c.48,0,1-.15.92.66.19,0,.44.12.54,0,.25-.2.4-.36.74-.11.11.09.44-.17.67-.17s.21.53.67.38c.21-.06.53.26.81.41l.13-.12-.76-.72c0-.05-.14-.11-.13-.16a.29.29,0,0,1,.14-.19.61.61,0,0,1,.84.3c.07.1.28.23.33.2.47-.28.56-.1.52.36,0,.22.68.76.9.69.06,0,.08-.17.13-.24a1.54,1.54,0,0,1,.25-.32,2.43,2.43,0,0,1,.32-.18,2,2,0,0,0-.38-.14c-.09,0-.19.07-.28.11l-.48.25a3.63,3.63,0,0,1,.27-.52c.47-.65.89-.59,1.27.14a1.12,1.12,0,0,0,.17.21,1.88,1.88,0,0,1,.14-.24c.15-.15.31-.29.47-.43.05.18.11.36.15.55a3.38,3.38,0,0,0,.16.7.65.65,0,0,0,.49-.08,1.4,1.4,0,0,1,1.36-.56.64.64,0,0,0,.31,0c.8-.44,1.4-.05,2,.44,0,0,.08,0,.2,0l-.42-.57,1.73-.2,0,.23a.67.67,0,0,0-.26.1,2.32,2.32,0,0,0-.21.38,2.34,2.34,0,0,0,.38,0,1,1,0,0,0,.44-.2c.27-.27.42-.13.62.07a2.81,2.81,0,0,0,.51.29c-.06-.11-.15-.23-.14-.33s.12-.19.2-.28.67-.16.42-.64a.3.3,0,0,1,.17-.12.19.19,0,0,1,.17.13c0,.11,0,.25,0,.37s.06.54.11.54a4.43,4.43,0,0,0,.81-.07c.09,0,.24,0,.27,0,.32.47.66.16,1,0s.37-.31.67-.37c0,.1-.08.21-.06.3a2.42,2.42,0,0,0,.13.46c.06-.13.13-.25.19-.38s.12-.27.17-.41a3.86,3.86,0,0,1,.38.3s0,.14,0,.21a2.54,2.54,0,0,1-.16.28,1,1,0,0,0,.43-.08c.56-.42.8-.38,1.17.22,0,.05.12.06.19.09s.1-.15.08-.21c-.12-.45.06-.38.41-.33a2.29,2.29,0,0,0,.91-.26,2.36,2.36,0,0,0,.28.12l6.19,1.94-.77.35-.38.11-.21,0-1,.34-1.16.36-.85.26-.37.13-.76.22-.77.22-.87.29-.74.12c-.41-.51-.74.12-1.11.09l0,.28-.13.13h-.25c0-.36.29-1-.57-.58,0,0-.16,0-.2-.11a.66.66,0,0,0-1.08,0c-.5.68-.79.22-1.1-.11a5.29,5.29,0,0,1-.52-.78,2.27,2.27,0,0,0,0,1c0,.17.07.35.1.53-.13-.15-.25-.3-.39-.44s-.09-.06-.17-.12c-.1.23,0,.8-.48.37,0,0-.18.06-.25.11-.39.29-.78.22-.92-.23s-.26-.38-.55-.25l-.79.34c-.63.28-.91.14-1-.47-.06-.41-.45-.6-.75-.31s-.32.1-.46-.12a1.36,1.36,0,0,0-.5-.43c-.32.28-.79.59-.82.93-.07.65-.1.78-.79.65-.23,0-.5-.18-.55.24a1.57,1.57,0,0,1-.38,0,1.09,1.09,0,0,1,0-.32,1.58,1.58,0,0,0,.23-.65c.3.12.57.24.85.33a.24.24,0,0,0,.22-.11,1.63,1.63,0,0,0,0-.49s-.18-.07-.27-.05a3.3,3.3,0,0,0-.84.32.81.81,0,0,1-.43.29.77.77,0,0,1-.36,0c-.06-.43-.38-.31-.62-.25s-.65.26-.62-.33c0-.06-.2-.19-.3-.18a2.12,2.12,0,0,0-.54.17c.09.12.19.23.28.36s.12.16.1.2c-.11.23-.25.45-.4.7l-.17-.58a3.73,3.73,0,0,1-.41.39,1.49,1.49,0,0,1-.44.1c0-.13-.08-.32,0-.38.3-.29,0-.39-.16-.49a5.56,5.56,0,0,0-1-.44c-.05,0-.24.25-.3.41a2.22,2.22,0,0,0,0,.58,7,7,0,0,0-.57-.5c-.18-.11-.43-.27-.58-.22s-.2.35-.29.54-.12.41-.26.51a.53.53,0,0,1-.46-.17c-.06-.15.05-.36.09-.54s0-.15,0-.08l-1-.37,0-2.88.28,0-.28-.15v-.62l.45-.17-.45-.33Zm10.69,1.44c-.19-.13-.35-.31-.42-.28a.6.6,0,0,0-.34.36c0,.1.13.25.2.38Zm4.65,3.68.18.17.6-.75-.17-.14Zm8-3.14-.15-.21c-.06-.05-.17-.14-.2-.12a5,5,0,0,0-.42.38c.1.06.2.18.28.16A1.91,1.91,0,0,0,271.79,180Zm-18.58,1.5-.2.11c.1.16.19.32.3.47a.91.91,0,0,0,.13-.08C253.37,181.84,253.29,181.67,253.21,181.51Zm12.75.71c-.1.08-.21.16-.2.17a2.44,2.44,0,0,0,.23.33c.05-.05.15-.11.14-.15A1.58,1.58,0,0,0,266,182.22Zm-11.59-.9,0,.23.48-.13s0-.15,0-.14A3.73,3.73,0,0,0,254.37,181.32Zm7.37-1.14a1.83,1.83,0,0,0-.34-.26s-.1.08-.16.12a1,1,0,0,0,.21.24C261.5,180.31,261.6,180.23,261.74,180.18Zm-.16,2.55.17-.13-.34-.38-.13.11Zm.93-1.38-.17.21c.05,0,.12.13.16.12a.31.31,0,0,0,.16-.16S262.58,181.43,262.51,181.35Zm-8.13-1.08-.13-.22c-.06,0-.17.09-.17.13a.9.9,0,0,0,.12.24ZM269.46,182a.59.59,0,0,0-.17-.18s-.11.06-.11.11a.45.45,0,0,0,.05.19Zm-9.71-2.54c.09-.08.17-.12.2-.18s0-.12-.06-.18a1.14,1.14,0,0,0-.16.15S259.74,179.32,259.75,179.42Zm-7.87,2.82c.17.07.25.13.31.11s.09-.1.13-.15a.47.47,0,0,0-.15-.06A1.08,1.08,0,0,0,251.88,182.24Zm-1.3-1c-.06,0-.11-.1-.14-.1a.2.2,0,0,0-.11.11.17.17,0,0,0,.1.1S250.51,181.3,250.58,181.25Zm15.21-1.51-.07-.12a.52.52,0,0,0-.11.1s0,.09.05.09A.33.33,0,0,0,265.79,179.74Zm-4.61,3.42c.06.05.11.11.14.11a.15.15,0,0,0,.1-.12s-.06-.1-.1-.1S261.24,183.11,261.18,183.16Z"/><path class="cls-31" d="M256.89,183.1c-.1.2-.22.4-.32.6a1.09,1.09,0,0,0,0,.32,1.57,1.57,0,0,0,.38,0c.05-.42.32-.28.55-.24.69.13.72,0,.79-.65,0-.34.5-.65.82-.93a1.36,1.36,0,0,1,.5.43c.14.22.15.42.46.12s.69-.1.75.31c.09.61.37.75,1,.47l.79-.34c.29-.13.45-.08.55.25s.53.52.92.23c.07,0,.21-.14.25-.11.52.43.38-.14.48-.37.08.06.14.08.17.12s.26.29.39.44c0-.18-.06-.36-.1-.53a2.27,2.27,0,0,1,0-1,5.29,5.29,0,0,0,.52.78c.31.33.6.79,1.1.11a.66.66,0,0,1,1.08,0c0,.06.16.13.2.11.86-.45.56.22.57.58l-3.14,1a1.37,1.37,0,0,0-1.14,1.55c0,1.19,0,2.37-.05,3.56l-.72-.86-.17.86c-.32-1-.83-.53-1.19-.38-.74.29-.81.29-1.16-.46a1.51,1.51,0,0,0-.39-.41c-.08.08-.24.18-.23.25a1.48,1.48,0,0,0,.22.52,7.8,7.8,0,0,1,.5.77c0,.07-.17.25-.26.38a1.31,1.31,0,0,1-.26-.27,2.52,2.52,0,0,1-.13-.47c-.09-.36-.23-.52-.59-.22a.45.45,0,0,1-.45,0c-.54-.5.21-.47.34-.74l-.76-.55-.33,1.25a.92.92,0,0,0-1.18.48c-.1.16-.44.2-.68.23-.08,0-.18-.19-.27-.28l.52-.33.25-.13c-.06-.1-.11-.27-.18-.28-.26,0-.61-.12-.78,0-.42.33-.69.4-.85-.21-.67.47.17.73.12,1.11-.69-.13-.69-.13-.69-.81a.34.34,0,0,0-.21-.26.37.37,0,0,0-.31.08,4.88,4.88,0,0,0-.54.48.28.28,0,0,0-.08.21s.13.11.17.09c.56-.26.5.17.6.5a2,2,0,0,1-.58-.06c-.4-.18-.92-.32-1.14-.64s-.09-.54-.53-.43c-.09,0-.22-.08-.33-.13,0,.16,0,.31,0,.47s0,.43,0,.65c-.29-.09-.74-.1-.82-.28-.17-.37-.3-.45-.68-.34a3.25,3.25,0,0,1-.87-.06s-.11.09-.11.13c0,.51-.28.26-.48.23s-.47-.14-.71-.21l.05-7,1,.37c0-.07,0,0,0,.08s-.15.39-.09.54a.53.53,0,0,0,.46.17c.14-.1.17-.34.26-.51s.15-.49.29-.54.4.11.58.22a7,7,0,0,1,.57.5,2.22,2.22,0,0,1,0-.58c.06-.16.25-.42.3-.41a5.56,5.56,0,0,1,1,.44c.19.1.46.2.16.49-.06.06,0,.25,0,.38a1.49,1.49,0,0,0,.44-.1,3.73,3.73,0,0,0,.41-.39l.17.58c.15-.25.29-.47.4-.7,0,0-.06-.14-.1-.2s-.19-.24-.28-.36a2.12,2.12,0,0,1,.54-.17c.1,0,.31.12.3.18,0,.59.29.41.62.33s.56-.18.62.25a.77.77,0,0,0,.36,0A4.9,4.9,0,0,0,256.89,183.1Z"/><path class="cls-22" d="M248.32,189.81c.24.07.47.16.71.21s.52.28.48-.23c0,0,.07-.13.11-.13a3.25,3.25,0,0,0,.87.06c.38-.11.51,0,.68.34.08.18.53.19.82.28,0-.22,0-.43,0-.65s0-.31,0-.47c.11.05.24.15.33.13.44-.11.37.2.53.43s.74.46,1.14.64a2,2,0,0,0,.58.06c-.1-.33,0-.76-.6-.5,0,0-.17,0-.17-.09a.28.28,0,0,1,.08-.21,4.88,4.88,0,0,1,.54-.48.37.37,0,0,1,.31-.08.34.34,0,0,1,.21.26c0,.68,0,.68.69.81,0-.38-.79-.64-.12-1.11.16.61.43.54.85.21.17-.13.52,0,.78,0,.07,0,.12.18.18.28l-.25.13-.52.33c.09.09.19.28.27.28.24,0,.58-.07.68-.23a.92.92,0,0,1,1.18-.48l.33-1.25.76.55c-.13.27-.88.24-.34.74a.45.45,0,0,0,.45,0c.36-.3.5-.14.59.22a2.52,2.52,0,0,0,.13.47,1.31,1.31,0,0,0,.26.27c.09-.13.29-.31.26-.38a7.8,7.8,0,0,0-.5-.77,1.48,1.48,0,0,1-.22-.52c0-.07.15-.17.23-.25a1.51,1.51,0,0,1,.39.41c.35.75.42.75,1.16.46.36-.15.87-.62,1.19.38l.17-.86.72.86v.12c-.07,0-.22.06-.22.08,0,.54-.32.42-.67.29l-.06.22.95.54,0,1.88c-.27.36-.54.73-.82,1.09l-.16.22c-.07-.09-.18-.17-.19-.26,0-.26,0-.53,0-.8-.08,0-.14,0-.16,0a3.9,3.9,0,0,1-1.12.6,1.3,1.3,0,0,0-.48.11c-.35.18-.5.1-.6-.28,0-.16-.28-.27-.43-.4l0,.52a1.52,1.52,0,0,0,0,.21c-.44-.25-.84-.49-1.26-.72a.29.29,0,0,0-.27,0c-.25.28-.47.58-.72.86a.28.28,0,0,1-.2.12s-.13-.12-.12-.17c.07-.82-.47-.67-.95-.58s-.55,0-.51-.4c0-.11-.15-.23-.24-.34-.21.21-.83-.34-.75.4-.18,0-.5-.08-.52-.17-.17-.78-.89-.36-1.28-.63,0,0-.09,0-.1,0-.25.55-.6.78-1.17.43,0,0-.14.06-.13.09.09.76-.88.65-1,1.23,0,0-.21.07-.24,0a4.34,4.34,0,0,1-.35-.49l.53-.21c-.36-.26-.6-.54-.21-.93a.27.27,0,0,0,0-.21.71.71,0,0,0-.29-.05l-1.08,0-.47,0a4,4,0,0,0,.43.56c.06,0,.26-.06.36,0a2.55,2.55,0,0,1,.43.3l-.29.2c-.6.4-1.18,0-1.76-.05Zm13.66.8c.25-.08.51-.16.76-.26.09,0,.15-.15.22-.22-.09-.06-.19-.17-.28-.16C262.27,190,261.89,190.09,262,190.61Zm-2.71-.52c-.07,0-.11-.09-.16-.09s-.07.06-.1.1.08.09.12.1S259.21,190.14,259.27,190.09Z"/><path class="cls-23" d="M253,153.45c0,.67-.22,1.18-1,1a.74.74,0,0,1-.37-.17c-.2-.19-.35-.49-.58-.59s-.76,0-.29-.52c0,0-.13-.15-.15-.14s-.43.23-.41.28c.2.67-.21.82-.73.93-.07,0-.12.15-.18.22l.21.16.31.24a1.61,1.61,0,0,1-.36.24,7.72,7.72,0,0,1-.83.2l0-2.63c.09,0,.23.07.25.13a2.21,2.21,0,0,1,.11.51,2.74,2.74,0,0,0,.79-.28c.18-.13.21-.44.36-.63a3.23,3.23,0,0,1,.58-.43c.06.16.14.33.19.49.11.33.2.67.34,1a.77.77,0,0,0,.4,0c0-.41.43-.27.58-.4.47-.4,1.18-.07,1.6-.65a.89.89,0,0,1,1.33,0c.38.31.72.26,1.36,0l-.25.26c.14.12.33.35.4.32a2.69,2.69,0,0,0,.56-.46c-.12-.11-.25-.21-.71-.12a.8.8,0,0,1-.83-.22,1.56,1.56,0,0,0,.27-.06c.23-.1,0-.95.64-.4a4.55,4.55,0,0,0,.9.48,5.37,5.37,0,0,1,.56.21.47.47,0,0,1,.19.31c0,.12-.08.31,0,.38s.26.09.4.13c0-.15,0-.3.06-.44s.05-.1.15-.32c0,.68.86.46.76,1.1,0,0,.18.06.2,0a.52.52,0,0,0,.16-.32c0-.22-.24-.59-.19-.63a7.83,7.83,0,0,1,1.14-.62c.1-.05.26-.12.34-.08s.23.22.35.33l-.3.23c-.05,0-.14,0-.17.06-.16.2-.66.41,0,.64a1.6,1.6,0,0,1,.3.23,1.25,1.25,0,0,1-.45.22c-.22,0-.45-.08-.26.3.08.17.18.44.1.55a3,3,0,0,1-.66.55l-.12-.13v-.73l-.06,0a1.55,1.55,0,0,1-.14.43c0,.06-.16.1-.25.1s-.13-.14-.11-.19c.18-.5-.05-.63-.51-.62-.12,0-.25-.12-.38-.18l-.19.63-.44-.38c-.25.19-.5.39-.76.57,0,0-.17,0-.18,0-.29-.79-.86-.3-1.27-.24s-.46,0-.37-.35a1,1,0,0,0,0-.52c0-.05-.17-.08-.26-.11s0,.18,0,.25a.82.82,0,0,1-.24.25c-.2.12-.48.19-.59.37s.08.38.14.57.15.33.22.49a2.81,2.81,0,0,1-.52-.26c-.37-.31-.7-.64-.24-1.14a.49.49,0,0,0-.2-.26,6.28,6.28,0,0,0-.69-.11c-.12,0-.08.07,0,.13l.5-.3-.06-.13C253.16,153.24,253,153.32,253,153.45Zm2.13-.74-.26-.16-.52.93.18.11Zm-.8,0c-.08,0-.13-.12-.17-.11a.94.94,0,0,0-.18.12s.09.12.13.12S254.19,152.73,254.28,152.67Zm-3.62,0c-.08-.07-.13-.15-.16-.14a.72.72,0,0,0-.19.11s.07.12.11.12S250.55,152.71,250.66,152.67Z"/><path class="cls-25" d="M248.5,164.24l.36.36-.36.27Z"/><path class="cls-27" d="M312.48,192l-.41,0c.06-.12.11-.25.18-.36s.16-.19.24-.29Z"/><path class="cls-20" d="M312.44,197.91l-.46-.14.07-.18.39.2Z"/><path class="cls-29" d="M248.4,178.66l.45.33-.45.17Z"/><path class="cls-27" d="M312.54,184.12c-.22-.16-.4-.33,0-.5Z"/><path class="cls-21" d="M248.6,150.2l.28,0a.71.71,0,0,1,0,.15h-.28Z"/><path class="cls-29" d="M248.39,179.78l.28.15-.28,0Z"/><path class="cls-32" d="M264.34,190.05v-.12c0-1.19,0-2.37.05-3.56a1.37,1.37,0,0,1,1.14-1.55l3.14-1h.25a3.33,3.33,0,0,0,.58.33c.54.18,1.1.33,1.65.5l3.08,1c1.54.48,3.09.95,4.63,1.44,1.05.33,2.09.69,3.14,1,1.45.44,2.92.85,4.36,1.3.18.06.3.31.44.47l-.88.28L275,193.51l-9.37,2.9-.36.11c-.67.17-.94,0-.95-.71,0-.92,0-1.83,0-2.75l0-1.88Z"/><path class="cls-22" d="M255.87,195a5.39,5.39,0,0,0-.68-.8,4.16,4.16,0,0,0-.83-.36c.2-.51.2-.51.71-.14a.72.72,0,0,0,.15.11C255.88,194.13,255.88,194.13,255.87,195Z"/><path class="cls-20" d="M272,197c.15.48,0,.83-.6,1-.12,0-.29-.08-.43-.13a1.59,1.59,0,0,1,.32-.5A3.61,3.61,0,0,1,272,197Z"/><path class="cls-20" d="M308.36,197.64a1.6,1.6,0,0,1-.59-.06,1.07,1.07,0,0,1-.33-.44.28.28,0,0,1,0-.25.29.29,0,0,1,.27,0c.23.17.44.36.66.54Z"/><path class="cls-20" d="M310.32,197.48c.17-.06.37-.2.46-.15a.64.64,0,0,1,.3.44c0,.16-.17.32-.26.48Z"/><path class="cls-20" d="M303.25,198l-1-.6s0-.15,0-.17.17-.08.22,0c.31.2.6.41.9.61Z"/><path class="cls-20" d="M252.91,197l.52.65-.18.14-.34-.79Z"/><path class="cls-27" d="M306.79,191.25c-.21.12-.33.25-.43.23s-.21-.17-.31-.26c.1-.08.2-.21.31-.21S306.59,191.12,306.79,191.25Z"/><path class="cls-22" d="M256.73,194.71c0-.11-.13-.23-.11-.33a.57.57,0,0,1,.24-.29s.24.13.24.2-.11.21-.17.32Z"/><path class="cls-20" d="M252.91,197h-.77l.45-.48.32.49Z"/><path class="cls-20" d="M262.25,196.75a1.8,1.8,0,0,1-.41.14c-.06,0-.11-.14-.16-.21a1.45,1.45,0,0,1,.34-.2S262.13,196.61,262.25,196.75Z"/><path class="cls-20" d="M278.42,197.87a4.44,4.44,0,0,1-.27-.44s.07-.1.11-.15a2.52,2.52,0,0,1,.35.3A3.43,3.43,0,0,1,278.42,197.87Z"/><path class="cls-27" d="M289.53,191.26c.09.16.2.27.19.36s-.16.13-.25.19a1,1,0,0,1-.14-.29C289.33,191.45,289.44,191.38,289.53,191.26Z"/><path class="cls-20" d="M259.28,197c.16-.11.25-.21.35-.22s.15.09.23.15c-.09.07-.16.18-.26.21S259.44,197,259.28,197Z"/><path class="cls-20" d="M270.76,197.11a1.85,1.85,0,0,1-.32.22s-.16-.12-.15-.14a.67.67,0,0,1,.21-.26S270.63,197,270.76,197.11Z"/><path class="cls-20" d="M254.75,196.83a1.4,1.4,0,0,1,.14.38c0,.07-.1.14-.16.2a1.12,1.12,0,0,1-.16-.28C254.56,197.06,254.66,197,254.75,196.83Z"/><path class="cls-20" d="M300.29,197.77l-.18-.23c.09-.06.17-.16.27-.17s.15.11.22.17Z"/><path class="cls-22" d="M259.44,194l.09.68-.19,0-.09-.68Z"/><path class="cls-27" d="M307.07,192.63c0-.08-.06-.17,0-.24a1.69,1.69,0,0,1,.13-.31c.07,0,.2.1.2.15a.81.81,0,0,1-.12.29Z"/><path class="cls-27" d="M304.7,191.75l.06-.7c.11.26.18.35.18.45a1,1,0,0,1-.1.27Z"/><path class="cls-20" d="M304.64,197.23l.2.23s-.11.12-.17.12a.78.78,0,0,1-.24-.09Z"/><path class="cls-27" d="M294.85,191.32c-.11.06-.19.12-.23.11a.27.27,0,0,1-.13-.18s.07-.1.12-.16Z"/><path class="cls-22" d="M254.76,196l-.21-.23s.1-.11.12-.1a.79.79,0,0,1,.2.17S254.81,195.9,254.76,196Z"/><path class="cls-20" d="M269.51,198.07a2.1,2.1,0,0,1-.16-.36s.07-.06.11-.1a1.06,1.06,0,0,1,.16.23S269.58,197.94,269.51,198.07Z"/><path class="cls-27" d="M298.67,192.28l.17.2c0,.05-.11.13-.16.13a.26.26,0,0,1-.16-.15S298.6,192.36,298.67,192.28Z"/><path class="cls-20" d="M286.35,197.05l-.18.21-.1-.1a.84.84,0,0,1,.15-.18S286.29,197,286.35,197.05Z"/><path class="cls-20" d="M271.42,196.43c0,.07.1.13.09.14a.9.9,0,0,1-.16.18l-.1-.1A1.31,1.31,0,0,1,271.42,196.43Z"/><path class="cls-20" d="M249.93,197.08c0-.08-.09-.14-.07-.18s.08-.1.12-.14.1.08.1.12S250,197,249.93,197.08Z"/><path class="cls-20" d="M262.87,197a2.15,2.15,0,0,1-.25.11s-.06-.07-.1-.11a1,1,0,0,1,.2-.11S262.8,197,262.87,197Z"/><path class="cls-22" d="M253.86,193.9c-.06,0-.12,0-.12-.05a.83.83,0,0,1,0-.15l.1,0A.88.88,0,0,1,253.86,193.9Z"/><path class="cls-22" d="M249.33,194c.06.07.11.11.11.15s-.06.07-.1.11-.09-.08-.1-.12S249.29,194,249.33,194Z"/><path class="cls-20" d="M299.11,196.5c0-.06-.1-.1-.1-.14a.18.18,0,0,1,.12-.1s.1.06.09.1S299.16,196.44,299.11,196.5Z"/><path class="cls-20" d="M291.71,197s-.07.08-.09.07a1.1,1.1,0,0,1-.14-.09s.08-.1.1-.1S291.66,196.9,291.71,197Z"/><path class="cls-27" d="M310.39,192.67a1.36,1.36,0,0,1-.06-.27s.08,0,.12-.06.06.11.06.16S310.45,192.59,310.39,192.67Z"/><path class="cls-22" d="M254.13,192.85l.09.06a.42.42,0,0,1,0,.16s-.1,0-.1-.07A.44.44,0,0,1,254.13,192.85Z"/><path class="cls-20" d="M282.67,197.29c.06.16.11.22.09.25s-.08.05-.13.06-.06-.06-.05-.09A1.68,1.68,0,0,1,282.67,197.29Z"/><path class="cls-22" d="M258.54,195.14s.08.06.07.07a.39.39,0,0,1-.08.1s0-.06,0-.09S258.51,195.17,258.54,195.14Z"/><path class="cls-23" d="M279.79,153.56l-.88.34.39.48c-.25.08-.73-.15-.57.41,0,0-.23.19-.31.16-.82-.26-1.63-.59-2.47-.81a1,1,0,0,0-.86.26c-.12.18-.8.41-.2.84.09.06,0,.34,0,.53-.14,0-.36,0-.41-.11a3.07,3.07,0,0,1-.3-.78,3.89,3.89,0,0,1,0-.61c-.49.25-.91.73-1.32,0,0,0-.3,0-.4.07s-.17.28-.28.41a1.12,1.12,0,0,1-.28.18c0-.1,0-.21,0-.31v-.38c-.1.07-.24.12-.3.22-.23.37-.38.51-.46-.07,0,0-.14-.15-.16-.14-.6.33-.94-.21-1.37-.41a1.35,1.35,0,0,0-.29-.05l0,.58a.78.78,0,0,1-.22-.12,4.35,4.35,0,0,1-.36-.38l-.26.64-.51-.74a5.35,5.35,0,0,1-.4.48c-.05,0-.18,0-.28,0-.05-.83-.3-.2-.58-.13a2.11,2.11,0,0,1-2-.22,1.73,1.73,0,0,0-.42-.14c0,.2-.08.41-.1.61s0,.24,0,.48c-.21-.2-.46-.33-.47-.48-.07-.63-.43-.72-.95-.62a1.93,1.93,0,0,1-.4-.08,3.64,3.64,0,0,1,.32.6,1.21,1.21,0,0,1-.08.44,1.35,1.35,0,0,1-.41-.16,8.24,8.24,0,0,1-.64-.6l.53-.37-.65-.3c0-.32.11-.47.5-.45s.87.56,1.07-.25a.65.65,0,0,1,.53,0c.63.38,1.13.12,1.69-.3l-.22,1.13.16.07c.14-.25.28-.51.44-.76,0,0,.14-.07.21-.08.54,0,.72-.32.52-.8,0-.07,0-.19,0-.21a.25.25,0,0,1,.22,0,1.42,1.42,0,0,1,.4.37c.34.58.62.67,1.27.34a4.18,4.18,0,0,1-.09.81c-.16.51.07.37.34.24s.85-.05.91-.62c.13,0,.31,0,.37.05s.32.07.47.1c.69.14,1.2-.69,1.9-.32a1.5,1.5,0,0,1,.25.19l-.32.18c-.16.09-.32.18-.49.26a2.13,2.13,0,0,0,.46.13,4.75,4.75,0,0,0,2.54-.46c.11-.06.32,0,.48.07.56.18,1,.23,1.42-.39.05-.08.59.12.88.24.12,0,.18.25.3.3a.81.81,0,0,0,.45,0c.2-.81,1.07-.39,1.5-.85a3.63,3.63,0,0,1,1.23-.53,3.31,3.31,0,0,1-.06.74,1.13,1.13,0,0,1-.37.47c-.06,0-.24,0-.35-.08a3.53,3.53,0,0,1-.32-.21,1.44,1.44,0,0,0,0,.46A1.66,1.66,0,0,0,279.79,153.56Zm-12.21.24-.53-1C266.8,153.13,266.8,153.13,267.58,153.8Zm9.89,0-.06-.09-.09.1s.06.06.08.06S277.45,153.79,277.47,153.76Z"/><path class="cls-21" d="M262.3,148.9c-.52.44-.43,1-.25,1.55l-.28,0c-.1-.33-.22-.66-.29-1C261.34,148.78,262.18,149.37,262.3,148.9Z"/><path class="cls-21" d="M283.49,149.67c.2.13.47.22.54.39s-.07.42-.14.63c0,0-.11.06-.15,0a.17.17,0,0,1-.09-.14c.14-.31,0-.47-.28-.56-.05,0-.11-.14-.09-.19S283.39,149.74,283.49,149.67Z"/><path class="cls-21" d="M279,149.87c-.15.18-.27.34-.28.34a6.54,6.54,0,0,1-.52-.4c.09-.06.19-.19.25-.18A3.41,3.41,0,0,1,279,149.87Z"/><path class="cls-21" d="M264.31,149.56l.09.84-.27,0c0-.28-.05-.57-.07-.85Z"/><path class="cls-21" d="M257.54,149.79c.08.23.17.46.23.69,0,0-.13.09-.2.14l-.27-.74Z"/><path class="cls-21" d="M279.92,150.46c-.11.08-.12.11-.13.1l-.78-.22,0-.16Z"/><path class="cls-21" d="M267.45,149.57c-.16.1-.28.23-.34.21s-.19-.17-.28-.26c.1-.06.19-.16.29-.16S267.3,149.47,267.45,149.57Z"/><path class="cls-23" d="M284.22,153l.11-.63.23.05-.15.63Z"/><path class="cls-21" d="M250.26,150l.46-.34s.07.08.11.12l-.47.36Z"/><path class="cls-23" d="M282.48,153.49c-.08-.18-.16-.27-.16-.37s.1-.14.16-.21a1.33,1.33,0,0,1,.18.3S282.58,153.34,282.48,153.49Z"/><path class="cls-21" d="M264.81,149.32c.1.16.18.24.18.31s-.1.15-.15.23-.16-.09-.16-.14A2.17,2.17,0,0,1,264.81,149.32Z"/><path class="cls-21" d="M304,149.94c-.11.1-.17.18-.25.21s-.17-.09-.16-.12a.38.38,0,0,1,.13-.23C303.79,149.78,303.89,149.87,304,149.94Z"/><path class="cls-23" d="M281.48,153.48c-.07,0-.15.06-.2,0s-.08-.11-.13-.16.13-.1.2-.1a.75.75,0,0,1,.23.07Z"/><path class="cls-21" d="M309.63,150.8l-.16-.2s.12-.11.17-.11.11.09.17.14Z"/><path class="cls-21" d="M274.17,150.74c.09.08.18.12.19.18s-.08.15-.12.14a.25.25,0,0,1-.18-.11S274.12,150.84,274.17,150.74Z"/><path class="cls-23" d="M290.1,153.42c-.06-.15-.13-.22-.11-.27s.09-.1.14-.15.1.1.09.14S290.17,153.27,290.1,153.42Z"/><path class="cls-21" d="M279.77,149.77c-.1,0-.17.11-.23.11s-.09-.09-.13-.14a1.86,1.86,0,0,1,.2-.1S279.69,149.7,279.77,149.77Z"/><path class="cls-23" d="M300.94,152.69l.09.47c-.06,0-.14-.08-.17-.14S300.88,152.91,300.94,152.69Z"/><path class="cls-23" d="M306,154.21c-.08,0-.15,0-.17,0a.17.17,0,0,1,0-.15A.17.17,0,0,1,306,154S306,154.13,306,154.21Z"/><path class="cls-21" d="M270.11,151.36c.05.07.11.11.1.15s-.07.08-.11.11-.08-.08-.09-.13S270.06,151.42,270.11,151.36Z"/><path class="cls-21" d="M265.85,149.86l-.07.1a1.29,1.29,0,0,1-.17-.16s.05-.07.07-.1Z"/><path class="cls-21" d="M258.67,150.76s0,.07-.07.07-.06,0-.09,0l.08-.1Z"/><path class="cls-21" d="M292.62,150.63s-.06.1-.11.12-.07,0-.1-.05a1.31,1.31,0,0,1,.11-.12S292.58,150.61,292.62,150.63Z"/><path class="cls-21" d="M281.46,150.46s-.06.06-.09.06-.06,0-.09,0,.05-.08.09-.1S281.42,150.42,281.46,150.46Z"/><path class="cls-23" d="M293.94,153.15l.16-.36.09.05-.19.34Z"/><path class="cls-21" d="M274.5,150.11c-.08,0-.14.07-.17,0s-.05-.09-.05-.14.07-.05.09,0S274.44,150.05,274.5,150.11Z"/><path class="cls-21" d="M275.23,151.31s.07.06.06.08-.05.05-.08.07l-.08-.11Z"/><path class="cls-33" d="M278.07,180.88l-6.19-1.94a2.36,2.36,0,0,1-.28-.12l-5.79-1.92c-1.15-.38-1.35-.64-1.34-1.84,0-.68,0-1.37,0-2.06v-.87l.06-5.86c0-1.27.29-1.59,1.53-1.91.64-.16,1.25-.39,1.88-.59,1.51-.45,3-.89,4.53-1.35L284,158.83l11.27-3.46.36-.11c.77-.21,1,0,1.05.8,0,.59,0,1.17,0,1.75v1.64c0,1.94,0,3.89-.07,5.84a7.41,7.41,0,0,1-.18,1,5.61,5.61,0,0,1-1.11.64c-3.83,1.2-7.67,2.38-11.51,3.57l-.82.28L295.81,175l.37.28.23.26a6.76,6.76,0,0,1,.13,1q0,4,0,8l-.15,1.88a2.57,2.57,0,0,1-.93.11c-4.68-1.5-9.35-3-14-4.56Z"/><path class="cls-25" d="M273.6,157c-.22.11-.43.3-.59.28s-.42-.5-.81-.26a2.29,2.29,0,0,1,.13-.4,9.12,9.12,0,0,1,1.05.13C273.44,156.77,273.49,156.87,273.6,157Z"/><path class="cls-23" d="M267.21,154.78c.41-.41.8-.11,1.17.26a1.1,1.1,0,0,1,.11.29.72.72,0,0,1-.33,0C267.82,155.14,267.5,155,267.21,154.78Z"/><path class="cls-23" d="M267.12,154.85c-.34.17-.64.33-.94.47-.06,0-.18,0-.21,0s0-.15,0-.22C266.11,154.61,266.38,154.55,267.12,154.85Z"/><path class="cls-23" d="M251.1,155.57l-.44-.33a2.25,2.25,0,0,1,.4-.36s.27.14.26.2A1.43,1.43,0,0,1,251.1,155.57Z"/><path class="cls-23" d="M256.88,156.33l.16-1.22c.11.13.36.32.32.42A3.24,3.24,0,0,1,256.88,156.33Z"/><path class="cls-25" d="M262.55,155.5c.09.38.15.61.19.86,0,0-.1.08-.15.12a2.72,2.72,0,0,1-.28-.53C262.28,155.86,262.42,155.73,262.55,155.5Z"/><path class="cls-25" d="M259.63,155.35a2.2,2.2,0,0,1,.26.53c0,.1-.08.21-.12.32-.13-.07-.36-.14-.37-.23S259.51,155.66,259.63,155.35Z"/><path class="cls-25" d="M249.25,157.17l.54-.44c0,.1.14.28.11.31a5.07,5.07,0,0,1-.54.36Z"/><path class="cls-30" d="M304.32,159.24,304,159c.18-.06.36-.15.54-.19s.15.08.23.12Z"/><path class="cls-23" d="M269.29,154.39c.61.71-.16.5-.44.63Z"/><path class="cls-30" d="M309.77,158.18v.61a1.23,1.23,0,0,1-.2,0c0-.2,0-.4.05-.6Z"/><path class="cls-23" d="M270,155.62l-.26-.38c.08-.05.19-.16.22-.14a.55.55,0,0,1,.23.27S270.1,155.5,270,155.62Z"/><path class="cls-25" d="M260.62,156l.38.44c-.09.06-.21.2-.26.17a.4.4,0,0,1-.21-.26C260.51,156.21,260.58,156.11,260.62,156Z"/><path class="cls-25" d="M251.66,156.85l-.64-.23a.88.88,0,0,1,.07-.14l.64.24Z"/><path class="cls-23" d="M251,154.21a1.84,1.84,0,0,1-.3.22s-.11-.11-.17-.18a1.65,1.65,0,0,1,.27-.19S250.88,154.13,251,154.21Z"/><path class="cls-25" d="M269,156.85l-.38.35-.16-.17.38-.39Z"/><path class="cls-23" d="M265.47,155.12a1.78,1.78,0,0,1,.19.34s-.06.12-.09.18a2.43,2.43,0,0,1-.26-.29S265.39,155.24,265.47,155.12Z"/><path class="cls-23" d="M263.57,155.7l-.22.42a1.09,1.09,0,0,1-.14-.08c.06-.15.12-.29.19-.43Z"/><path class="cls-25" d="M254.82,156.66h-.66l0-.17.65.07Z"/><path class="cls-25" d="M256.22,156.46l-.17.4-.14-.07c.05-.13.1-.26.16-.39Z"/><path class="cls-23" d="M273.55,155.1a1.86,1.86,0,0,1-.39.13c-.05,0-.09-.09-.14-.15a.6.6,0,0,1,.22-.09C273.3,155,273.36,155,273.55,155.1Z"/><path class="cls-25" d="M276.76,157l-.41-.11,0-.13.41.1Z"/><path class="cls-25" d="M278.77,156.06c-.09.07-.16.15-.2.13a.21.21,0,0,1-.13-.16c0-.05.09-.15.13-.14S278.68,156,278.77,156.06Z"/><path class="cls-25" d="M264.57,157.1l-.12-.34.14-.06.14.33Z"/><path class="cls-30" d="M305.47,158.9l-.39.18L305,159l.39-.17Z"/><path class="cls-30" d="M296.7,158.07v-.26l.35.08Z"/><path class="cls-23" d="M256.44,154.39a1.07,1.07,0,0,1,.09.24c0,.05-.06.1-.09.15a.76.76,0,0,1-.13-.2S256.37,154.49,256.44,154.39Z"/><path class="cls-30" d="M312.31,158.63c-.06.05-.11.11-.14.1s-.09-.08-.13-.12.08-.11.11-.1S312.24,158.57,312.31,158.63Z"/><path class="cls-25" d="M260,154.92l.12.13-.31.15Z"/><path class="cls-25" d="M277.29,157.18c-.05-.08-.11-.13-.11-.18s.07-.08.11-.11a.33.33,0,0,1,.1.14S277.34,157.11,277.29,157.18Z"/><path class="cls-25" d="M266.09,156c.05.06.11.11.1.15s-.07.09-.11.13-.11-.08-.1-.11S266,156.09,266.09,156Z"/><path class="cls-25" d="M261.75,156.1l-.32.11c0-.06,0-.15,0-.16a.4.4,0,0,1,.22-.05S261.68,156,261.75,156.1Z"/><path class="cls-25" d="M264.16,156c-.05,0-.08.09-.13.11s-.07-.06-.11-.09a.78.78,0,0,1,.15-.1S264.12,155.94,264.16,156Z"/><path class="cls-23" d="M276.06,155.83c-.07,0-.12.1-.16.1s-.07-.07-.1-.1.08-.1.12-.1S276,155.79,276.06,155.83Z"/><path class="cls-30" d="M303.07,158.24s-.08,0-.08-.06,0-.07,0-.1l.12.07Z"/><path class="cls-25" d="M255.85,156s-.06.07-.09.07-.06,0-.09-.05a.81.81,0,0,1,.09-.1Z"/><path class="cls-23" d="M262.07,156.08c-.1,0-.16.08-.2.07a.6.6,0,0,1-.15-.09.55.55,0,0,1,.17-.05A.74.74,0,0,1,262.07,156.08Z"/><path class="cls-25" d="M255.17,156.66a.68.68,0,0,1-.2.07.6.6,0,0,1-.15-.09.55.55,0,0,1,.17,0S255.08,156.62,255.17,156.66Z"/><path class="cls-23" d="M272.6,155.67l.07.09-.13.05,0-.1Z"/><path class="cls-23" d="M269.46,155.8a1,1,0,0,0,0,.1l-.11-.08a.5.5,0,0,1,.07-.08S269.43,155.78,269.46,155.8Z"/><path class="cls-25" d="M251.81,157.5l0-.22.14.08-.17.14Z"/><path class="cls-23" d="M271.78,155.41s-.09,0-.11,0a.58.58,0,0,1-.1-.12s.1-.05.12,0S271.75,155.36,271.78,155.41Z"/><path class="cls-30" d="M308.8,158.25l-.08.07a.5.5,0,0,1-.05-.13l.09,0Z"/><path class="cls-23" d="M268.8,155.68l-.08.06-.05-.14s.08,0,.1,0S268.79,155.64,268.8,155.68Z"/><path class="cls-23" d="M276.49,154.89l-.09.07,0-.13.1,0Z"/><path class="cls-30" d="M299.74,167.25l-.46-.5c.17-.1.34-.28.49-.27s.36.2.53.31Z"/><path class="cls-26" d="M305.8,175l-.33.23s-.08-.07-.12-.11l.32-.27Z"/><path class="cls-23" d="M282,157.72c-.1.13-.14.21-.2.24s-.11-.07-.17-.11a1.27,1.27,0,0,1,.19-.13S281.86,157.72,282,157.72Z"/><path class="cls-23" d="M283.42,158.67c-.08,0-.14.1-.17.09s-.09-.09-.14-.14a.52.52,0,0,1,.16-.06S283.35,158.62,283.42,158.67Z"/><path class="cls-23" d="M281.7,159c-.06,0-.11.1-.14.09a.15.15,0,0,1-.11-.11s.07-.1.1-.1S281.63,159,281.7,159Z"/><path class="cls-23" d="M282.29,157.91l.23.18s-.06.07-.08.06l-.24-.13Z"/><path class="cls-24" d="M308.5,174.82l.64.57c-.07.05-.17.17-.2.16-.23-.14-.44-.31-.66-.47Z"/><path class="cls-24" d="M297.65,175.63l-.24.3a1.29,1.29,0,0,1-.28-.42c0-.09.12-.22.19-.34Z"/><path class="cls-27" d="M302.39,183.28c0-.26-.1-.49,0-.56a.9.9,0,0,1,.67-.17Z"/><path class="cls-24" d="M301.54,175.77l-.28.42c-.08-.11-.25-.24-.24-.35s.19-.23.29-.35Z"/><path class="cls-27" d="M306.4,183.21l.18.06.58.07c0,.06-.08.19-.1.18-.23-.05-.47-.12-.7-.19Z"/><path class="cls-24" d="M299.59,175.47a3.16,3.16,0,0,1-.44.21s-.16-.14-.15-.17.12-.21.21-.23S299.39,175.37,299.59,175.47Z"/><path class="cls-27" d="M310.34,182.71c.06-.06.11-.14.13-.14a.61.61,0,0,1,.15.13s-.08.1-.13.11S310.4,182.75,310.34,182.71Z"/><path class="cls-27" d="M305.62,183.76c0-.13-.05-.2-.05-.27s.08,0,.13-.06a.58.58,0,0,1,.05.16S305.7,183.67,305.62,183.76Z"/><path class="cls-27" d="M306.43,183.26l-.32-.25a.93.93,0,0,1,.24,0S306.39,183.14,306.43,183.26Z"/><path class="cls-24" d="M296.41,175.49l-.23-.26h.28Z"/><path class="cls-24" d="M309.74,174.69l-.11.14c0-.05-.09-.1-.08-.13s.07-.07.12-.11Z"/><path class="cls-34" d="M286.8,189.83c-.14-.16-.26-.41-.44-.47-1.44-.45-2.91-.86-4.36-1.3-1.05-.32-2.09-.68-3.14-1-1.54-.49-3.09-1-4.63-1.44l-3.08-1c-.55-.17-1.11-.32-1.65-.5a3.33,3.33,0,0,1-.58-.33l.13-.13,1-.24c.75.24,1.48.51,2.23.73,2.47.74,5,1.46,7.42,2.21s4.88,1.48,7.31,2.26a10.87,10.87,0,0,1,1.42.68l-.51.23-.61.17Z"/><path class="cls-35" d="M274.54,182.08l1.16-.36c.14.11.26.27.42.32l5.84,1.81c.38.11.74.25,1.12.36,1.45.42,2.91.82,4.35,1.26s3.05.94,4.56,1.43c.63.21,1.23.48,1.85.73l-1,.34c-.13-.11-.23-.29-.38-.34-1.06-.33-2.13-.63-3.2-.95L285,185.37c-.6-.18-1.2-.34-1.79-.53l-4.67-1.54C277.19,182.88,275.86,182.49,274.54,182.08Z"/><path class="cls-36" d="M293.84,187.63c-.62-.25-1.22-.52-1.85-.73-1.51-.49-3-1-4.56-1.43s-2.9-.84-4.35-1.26c-.38-.11-.74-.25-1.12-.36L276.12,182c-.16,0-.28-.21-.42-.32l1-.34a1.88,1.88,0,0,0,.44.37c.53.22,1.07.41,1.61.59.8.27,1.61.55,2.42.79,1.66.5,3.34,1,5,1.45,2.27.68,4.53,1.36,6.78,2.07.6.19,1.17.48,1.76.73Z"/><path class="cls-37" d="M278.07,180.88l3.33,1.06c4.68,1.52,9.35,3.06,14,4.56a2.57,2.57,0,0,0,.93-.11l-.77.73a1.77,1.77,0,0,0-.41-.26c-1.25-.42-2.5-.85-3.77-1.23-.84-.26-1.71-.45-2.57-.67a4.56,4.56,0,0,0-.58-.3c-1.1-.34-2.2-.68-3.3-1-1.37-.39-2.75-.76-4.12-1.14a2.77,2.77,0,0,0-.37-.22l-3.17-1.07Z"/><path class="cls-38" d="M271.79,182.91l.77-.22a2.75,2.75,0,0,0,.56.35c2.77.87,5.54,1.74,8.32,2.59,2.11.64,4.22,1.25,6.33,1.88.76.23,1.51.46,2.25.74.18.06.29.3.43.46l-.63.16c-.15-.13-.29-.32-.46-.38-1.32-.44-2.64-.87-4-1.28L278,185c-1.35-.41-2.71-.78-4-1.21C273.23,183.53,272.51,183.2,271.79,182.91Z"/><path class="cls-39" d="M271.79,182.91c.72.29,1.44.62,2.18.86,1.34.43,2.7.8,4,1.21l7.38,2.23c1.32.41,2.64.84,4,1.28.17.06.31.25.46.38l-.63.22a2.07,2.07,0,0,0-.41-.27c-1.46-.47-2.92-.94-4.39-1.39l-6.14-1.84c-.91-.27-1.82-.57-2.73-.86l-4.6-1.53Z"/><path class="cls-40" d="M273.32,182.47l.37-.13,1.3.4c1.53.48,3.05,1,4.58,1.42.91.27,1.83.5,2.74.79,1.39.43,2.77.91,4.16,1.34,1.63.5,3.27,1,4.9,1.47a6.92,6.92,0,0,1,.84.37l-.76.23a2.1,2.1,0,0,0-.5-.34q-3.78-1.17-7.58-2.3c-2.85-.85-5.71-1.67-8.55-2.53A10.29,10.29,0,0,1,273.32,182.47Z"/><path class="cls-41" d="M292.21,188.13a6.92,6.92,0,0,0-.84-.37c-1.63-.5-3.27-1-4.9-1.47-1.39-.43-2.77-.91-4.16-1.34-.91-.29-1.83-.52-2.74-.79-1.53-.46-3.05-.94-4.58-1.42l-1.3-.4.85-.26c1.32.41,2.65.8,4,1.22l4.67,1.54c.59.19,1.19.35,1.79.53l4.28,1.31c1.07.32,2.14.62,3.2.95.15.05.25.23.38.34Z"/><path class="cls-42" d="M273.32,182.47a10.29,10.29,0,0,0,1.5.72c2.84.86,5.7,1.68,8.55,2.53q3.79,1.13,7.58,2.3a2.1,2.1,0,0,1,.5.34l-1,.35c-.14-.16-.25-.4-.43-.46-.74-.28-1.49-.51-2.25-.74-2.11-.63-4.22-1.24-6.33-1.88-2.78-.85-5.55-1.72-8.32-2.59a2.75,2.75,0,0,1-.56-.35Z"/><path class="cls-34" d="M270.92,183.2l4.6,1.53c.91.29,1.82.59,2.73.86l6.14,1.84c1.47.45,2.93.92,4.39,1.39a2.07,2.07,0,0,1,.41.27l-.76.24a10.87,10.87,0,0,0-1.42-.68c-2.43-.78-4.87-1.52-7.31-2.26s-4.95-1.47-7.42-2.21c-.75-.22-1.48-.49-2.23-.73l.13-.13Z"/><path class="cls-43" d="M294.72,187.38c-.59-.25-1.16-.54-1.76-.73-2.25-.71-4.51-1.39-6.78-2.07-1.66-.5-3.34-1-5-1.45-.81-.24-1.62-.52-2.42-.79-.54-.18-1.08-.37-1.61-.59a1.88,1.88,0,0,1-.44-.37l.21,0,3.92,1.18a9.19,9.19,0,0,0,1.11.5c1.65.53,3.31,1,5,1.53.63.19,1.28.28,1.91.41a7.65,7.65,0,0,0,1.05.49c1.82.58,3.65,1.13,5.47,1.69Z"/><path class="cls-44" d="M295.36,187.14c-1.82-.56-3.65-1.11-5.47-1.69a7.65,7.65,0,0,1-1.05-.49c.86.22,1.73.41,2.57.67,1.27.38,2.52.81,3.77,1.23a1.77,1.77,0,0,1,.41.26Z"/><path class="cls-22" d="M287.31,189.73l.61-.17-.26.54C287.51,190,287.16,190.11,287.31,189.73Z"/><path class="cls-25" d="M254.59,163.57a11.92,11.92,0,0,1-1.45.39c-.1,0-.27-.28-.4-.43a2,2,0,0,1,.55-.22c.41,0,.83,0,1.25,0Z"/><path class="cls-25" d="M257.25,163.73c-.2.18-.37.39-.42.36a3.13,3.13,0,0,1-.61-.44c.17-.1.34-.27.51-.27S257,163.57,257.25,163.73Z"/><path class="cls-25" d="M258,163.78c-.15.09-.28.18-.3.16a.62.62,0,0,1-.18-.29s.07-.11.12-.16Z"/><path class="cls-25" d="M254,162.65l.41.29-.17.15-.24-.44Z"/><path class="cls-25" d="M255,163.42c.09.1.19.18.18.21a2.26,2.26,0,0,1-.23.31c0-.06-.12-.12-.11-.17A1.7,1.7,0,0,1,255,163.42Z"/><path class="cls-25" d="M257.25,165.18c-.14.09-.24.19-.28.17a1.06,1.06,0,0,1-.23-.24c.06,0,.13-.13.17-.12A1.78,1.78,0,0,1,257.25,165.18Z"/><path class="cls-25" d="M263.31,164.22c.05.13.13.23.11.31a.26.26,0,0,1-.21.15c-.07,0-.14-.11-.22-.17Z"/><path class="cls-29" d="M264.47,172.13v.25l-.58,0v-.17Z"/><path class="cls-29" d="M256.09,171.18h-.5a1,1,0,0,1,.22-.14S255.91,171.09,256.09,171.18Z"/><path class="cls-25" d="M250.84,164.67c-.08,0-.16,0-.19,0s0-.1-.06-.16.12,0,.15,0S250.8,164.58,250.84,164.67Z"/><path class="cls-25" d="M265,164.14c.05.06.11.1.11.15s-.06.07-.1.1-.1-.07-.1-.12S264.92,164.19,265,164.14Z"/><path class="cls-29" d="M251.66,171.33s-.06.1-.11.12-.06,0-.1-.06a.69.69,0,0,1,.13-.11Z"/><path class="cls-28" d="M249.1,173.26l.2-.79.16.06-.18.78Z"/><path class="cls-24" d="M304.85,165.25a2.79,2.79,0,0,1-.56.24c-.06,0-.15-.14-.22-.22a1.61,1.61,0,0,1,.39-.31C304.52,164.94,304.65,165.1,304.85,165.25Z"/><path class="cls-24" d="M307.28,165.65l.55.54-.24.25c-.15-.19-.31-.37-.45-.57C307.13,165.85,307.21,165.76,307.28,165.65Z"/><path class="cls-24" d="M300.25,165.82l-.52-.94C300.22,164.93,300.22,164.93,300.25,165.82Z"/><path class="cls-24" d="M303.76,165.4l-.49-.05a.75.75,0,0,1,0-.2l.49,0Z"/><path class="cls-24" d="M307.36,165.43c-.08-.1-.17-.17-.16-.21a1,1,0,0,1,.17-.2c0,.06.11.12.12.18S307.43,165.32,307.36,165.43Z"/><path class="cls-24" d="M306.21,165.13c-.11.08-.17.16-.21.15a.29.29,0,0,1-.16-.15s.06-.12.1-.18Z"/><path class="cls-24" d="M301.34,165.66c.1.12.18.17.19.23s-.08.11-.12.17-.11-.08-.12-.12A1,1,0,0,1,301.34,165.66Z"/><path class="cls-24" d="M301.93,165.4c.05.06.11.1.11.15s-.07.07-.1.11-.1-.08-.11-.12S301.88,165.46,301.93,165.4Z"/><path class="cls-24" d="M306.58,164.73c0,.07.1.12.1.16s-.07.07-.11.11-.09-.08-.1-.12S306.53,164.79,306.58,164.73Z"/><path class="cls-44" d="M280.84,182.52l-3.92-1.18.38-.11,3.17,1.07A2.77,2.77,0,0,1,280.84,182.52Z"/><path class="cls-31" d="M256.71,183c.41-.12.67-.21.93-.27.09,0,.27,0,.27.05a1.63,1.63,0,0,1,0,.49.24.24,0,0,1-.22.11C257.37,183.29,257.1,183.17,256.71,183Z"/><path class="cls-29" d="M259.1,179.47l-.56.46c-.07-.13-.23-.28-.2-.38a.6.6,0,0,1,.34-.36C258.75,179.16,258.91,179.34,259.1,179.47Z"/><path class="cls-31" d="M270.18,183.32l-.13.13-1,.24,0-.28C269.44,183.44,269.77,182.81,270.18,183.32Z"/><path class="cls-31" d="M263.75,183.15l.61-.72.17.14-.6.75Z"/><path class="cls-29" d="M271.79,180a1.91,1.91,0,0,1-.49.21c-.08,0-.18-.1-.28-.16a5,5,0,0,1,.42-.38s.14.07.2.12Z"/><path class="cls-31" d="M253.21,181.51c.08.16.16.33.23.5a.91.91,0,0,1-.13.08c-.11-.15-.2-.31-.3-.47Z"/><path class="cls-31" d="M266,182.22a1.58,1.58,0,0,1,.17.35s-.09.1-.14.15a2.44,2.44,0,0,1-.23-.33S265.86,182.3,266,182.22Z"/><path class="cls-31" d="M254.37,181.32a3.73,3.73,0,0,1,.47,0s0,.09,0,.14l-.48.13Z"/><path class="cls-29" d="M261.74,180.18c-.14,0-.24.13-.29.1a1,1,0,0,1-.21-.24c.06,0,.12-.13.16-.12A1.83,1.83,0,0,1,261.74,180.18Z"/><path class="cls-31" d="M261.58,182.73l-.3-.4.13-.11.34.38Z"/><path class="cls-31" d="M262.51,181.35c.07.08.16.15.15.17a.31.31,0,0,1-.16.16s-.11-.08-.16-.12Z"/><path class="cls-29" d="M254.38,180.27l-.18.15a.9.9,0,0,1-.12-.24s.11-.08.17-.13Z"/><path class="cls-31" d="M269.46,182l-.23.12a.45.45,0,0,1-.05-.19s.09-.12.11-.11A.59.59,0,0,1,269.46,182Z"/><path class="cls-29" d="M259.75,179.42c0-.1,0-.17,0-.21a1.14,1.14,0,0,1,.16-.15c0,.06.08.14.06.18S259.84,179.34,259.75,179.42Z"/><path class="cls-31" d="M251.88,182.24a1.08,1.08,0,0,1,.29-.1.47.47,0,0,1,.15.06c0,.05-.08.14-.13.15S252.05,182.31,251.88,182.24Z"/><path class="cls-31" d="M250.58,181.25c-.07.05-.11.11-.15.11a.17.17,0,0,1-.1-.1.2.2,0,0,1,.11-.11S250.52,181.21,250.58,181.25Z"/><path class="cls-29" d="M265.79,179.74a.33.33,0,0,1-.13.07s-.06-.08-.05-.09a.52.52,0,0,1,.11-.1Z"/><path class="cls-31" d="M261.18,183.16c.06,0,.1-.11.14-.11s.11.07.1.1a.15.15,0,0,1-.1.12S261.24,183.21,261.18,183.16Z"/><path class="cls-31" d="M264.34,190.05v1.13l-.95-.54.06-.22c.35.13.69.25.67-.29C264.12,190.11,264.27,190.08,264.34,190.05Z"/><path class="cls-31" d="M262,190.61c-.09-.52.29-.61.7-.64.09,0,.19.1.28.16-.07.07-.13.18-.22.22C262.49,190.45,262.23,190.53,262,190.61Z"/><path class="cls-31" d="M259.27,190.09c-.06,0-.1.11-.14.11s-.08-.07-.12-.1.07-.1.1-.1S259.2,190.05,259.27,190.09Z"/><path class="cls-23" d="M256.73,152.12l.46.38a2.69,2.69,0,0,1-.56.46c-.07,0-.26-.2-.4-.32Z"/><path class="cls-23" d="M255.08,152.71l-.6.88-.18-.11.52-.93Z"/><path class="cls-23" d="M252.8,153.4l.54-.25.06.13-.5.3Z"/><path class="cls-23" d="M254.28,152.67c-.09.06-.15.13-.22.13s-.09-.08-.13-.12a.94.94,0,0,1,.18-.12S254.2,152.62,254.28,152.67Z"/><path class="cls-23" d="M250.66,152.67c-.11,0-.17.09-.24.09s-.08-.08-.11-.12a.72.72,0,0,1,.19-.11S250.58,152.6,250.66,152.67Z"/><path class="cls-23" d="M267.58,153.8c-.78-.67-.78-.67-.53-1Z"/><path class="cls-23" d="M277.47,153.76s0,.07-.07.07,0,0-.08-.06l.09-.1Z"/><path class="cls-44" d="M288.84,185c-.63-.13-1.28-.22-1.91-.41-1.67-.48-3.33-1-5-1.53a9.19,9.19,0,0,1-1.11-.5c1.37.38,2.75.75,4.12,1.14,1.1.32,2.2.66,3.3,1A4.56,4.56,0,0,1,288.84,185Z"/></g><g id="slack"><path class="cls-45" d="M90.72,147.74a5.71,5.71,0,1,0-10.87,3.53l14.78,45.48a5.72,5.72,0,0,0,10.87-3.53L90.72,147.74"/><path class="cls-46" d="M67.82,155.18a5.72,5.72,0,0,0-10.88,3.53l14.78,45.48a5.72,5.72,0,0,0,10.87-3.53L67.82,155.18"/><path class="cls-47" d="M109.33,185.41a5.72,5.72,0,0,0-3.54-10.88L60.31,189.31a5.72,5.72,0,0,0,3.54,10.87l45.48-14.77"/><path class="cls-48" d="M69.79,198.25l10.87-3.53-3.53-10.87-10.87,3.53,3.53,10.87"/><path class="cls-49" d="M92.7,190.81l10.87-3.53L100,176.4l-10.87,3.54,3.54,10.87"/><path class="cls-50" d="M101.88,162.5a5.71,5.71,0,0,0-3.53-10.87L52.87,166.41a5.72,5.72,0,0,0,3.53,10.87l45.48-14.78"/><path class="cls-51" d="M62.35,175.35l10.87-3.54c-1.33-4.11-2.58-7.92-3.53-10.87l-10.87,3.54,3.53,10.87"/><path class="cls-52" d="M85.25,167.91l10.88-3.54L92.59,153.5,81.72,157l3.53,10.88"/></g><g id="replit"><path class="cls-53" d="M394.91,164.93c2.09,31.66-31.27,27.31-31.27,27.31,22.91.32,32.57-43.09-4.6-47.65a32.5,32.5,0,0,1,5.82-.55A32.06,32.06,0,0,1,394.91,164.93Z"/><path class="cls-53" d="M380.67,178s7.88-33.15-27.58-31.67a31.67,31.67,0,0,0-20,34.13c7.46-37.51,50-25.36,47.56-2.46Z"/><path class="cls-53" d="M334.9,187.75c-.51-36.25,32.79-27,32.79-27-22.86-3.32-37.06,38.38.3,47.28-1,.1-2.09.16-3.15.16h-.17a33.17,33.17,0,0,1-4.22-.33l-1.24-.19a32.11,32.11,0,0,1-4-.94l-.45-.16h0l-.34-.12a34.2,34.2,0,0,1-3.21-1.3L351,205c-.28-.12-.55-.26-.83-.4a31.75,31.75,0,0,1-3.51-2.08l-.26-.2h0l-.22-.16a32.88,32.88,0,0,1-3-2.48l-.17-.15h0l-.25-.22A32.24,32.24,0,0,1,334.9,187.75Z"/><path class="cls-53" d="M376.06,206.07c-35.77-.28-26.85-33.1-26.85-33.1-3.64,22.75,38.16,37.3,47.61.16.09,1,.15,2,.15,3,0,.12,0,.24,0,.36h0c0,.11,0,.21,0,.32,0,.87,0,1.74-.13,2.59a32,32,0,0,1-20.74,26.72Z"/><path class="cls-54" d="M373.85,176.08a9,9,0,0,1-5.55,8.29,9,9,0,0,1-9.8-2,9,9,0,0,1,1.37-13.81,9,9,0,0,1,14,7.47Z"/><path class="cls-55" d="M467.46,189.65h3.07V161h-3.07v28.61Zm-49.8-17.71v-3.06h-.21a7.78,7.78,0,0,0-7.56,5.36v-5h-3.06v20.43h3.06v-9a9.54,9.54,0,0,1,2-6.05,6.58,6.58,0,0,1,5.42-2.66Z"/><path class="cls-55" d="M429.69,187.26a6.22,6.22,0,0,0,6-3.47h3.39a9.91,9.91,0,0,1-3.43,4.54,9.63,9.63,0,0,1-6,1.73,10,10,0,0,1-7.59-3.09,10.58,10.58,0,0,1-2.84-7.55,10.7,10.7,0,0,1,2.72-7.54,10.65,10.65,0,0,1,15,0,10.7,10.7,0,0,1,2.72,7.54v1.24H422.39a7.49,7.49,0,0,0,2.27,4.7,7,7,0,0,0,5,1.9Zm-.16-15.6a6.78,6.78,0,0,0-4.75,1.76,7.27,7.27,0,0,0-2.21,4.38h13.91a7.27,7.27,0,0,0-2.21-4.38,6.77,6.77,0,0,0-4.74-1.76Zm16.67.84a8.43,8.43,0,0,1,7.37-3.6,9.15,9.15,0,0,1,7.16,3.07,11.59,11.59,0,0,1,0,15,9.39,9.39,0,0,1-7.37,3.07c-3.08,0-7.1-3.64-7.1-3.64v11.38h-3.06V169.22h3v3.28Zm7-.81a6.47,6.47,0,0,0-5.24,2.29,9.08,9.08,0,0,0,0,11,6.48,6.48,0,0,0,5.24,2.3,6.81,6.81,0,0,0,5.32-2.3,8.78,8.78,0,0,0,0-11,6.81,6.81,0,0,0-5.32-2.3Z"/><path class="cls-55" d="M484.7,169.22h3.06v20.43H484.7V169.22Zm3.2-3.41v-4h-3.34v4Zm7.42,23.91V171.94h-4.15v-2.72h4.15v-7.36h3.07v7.36h4.7v2.72h-4.7v17.78Zm-21.05-10.83H478v3.75h-3.75Zm3.75,7.49v-3.74h3.75v3.74Zm0,0v3.75h-3.75v-3.75Z"/></g><g id="terminal"><rect x="138.95" y="144.32" width="77.18" height="63.1" rx="1.51" ry="1.51"/><path class="cls-13" d="M147.46,150.89a1.25,1.25,0,0,0-.93-.39,1.31,1.31,0,0,0-1.32,1.32,1.31,1.31,0,0,0,.38.94l4,4.05-4,4.05a1.32,1.32,0,0,0-.4.94,1.35,1.35,0,0,0,.39.93,1.33,1.33,0,0,0,1.88,0l4.5-4.51a1.76,1.76,0,0,0,0-2.83Zm17.66,10a2.41,2.41,0,0,0-1-.39h-8.71a1.33,1.33,0,0,0-1.33,1.37,1.28,1.28,0,0,0,.37.87,1.26,1.26,0,0,0,1,.42h8.68v0a1.3,1.3,0,0,0,1-.39,1.3,1.3,0,0,0,0-1.88Z"/></g><g id="codepen"><path class="cls-56" d="M126.25,256.64a16.24,16.24,0,0,1,10.49,3.83l3.86-4.61a22.34,22.34,0,1,0,0,34.22l-3.87-4.61a16.33,16.33,0,1,1-10.49-28.83ZM250,251.94H238a3,3,0,0,0-3,3v36.14a3,3,0,0,0,3,3h11.89a21.08,21.08,0,1,0,.16-42.16ZM250,288h-9V257.92h9A15,15,0,1,1,250,288Zm37.43-33.05V291.1a3,3,0,0,0,3,3h25.06V288H293.37V276h14v-6h-14.1V257.92h22.08v-6h-25s-3,1.32-3.06,3h.15Zm91,0v36a3,3,0,0,0,3,3h25.06v-6H384.4V276h14.1v-6H384.4V257.92h22.08v-6H381.36s-3,1.33-3.09,3h.15Zm-28.72-3h-13a3,3,0,0,0-3,3V294.1h6V276h10a12,12,0,1,0,0-24.07Zm-.06,17.95h-10v-12h10a6,6,0,0,1,0,12Zm103.85-17.95v30.83L428.75,253a3,3,0,0,0-5.32,1.93V294.1h6V263.27L454.16,293a3,3,0,0,0,5.31-1.93V251.94ZM217.82,262.76c0-.07,0-.15,0-.23l0-.13c0-.07,0-.14-.07-.2l-.07-.14a1.51,1.51,0,0,0-.09-.18l-.08-.12a2.07,2.07,0,0,0-.34-.44l-.12-.11-.15-.13-.13-.1,0,0-29.3-19.55a2.73,2.73,0,0,0-3.05,0L155,261l-.05,0-.12.1a1.55,1.55,0,0,0-.27.24,2.86,2.86,0,0,0-.35.43.57.57,0,0,1-.08.13l-.1.2-.08.2a.56.56,0,0,0,0,.12.65.65,0,0,0,0,.13,1.55,1.55,0,0,0-.05.23.5.5,0,0,0,0,.12,2.19,2.19,0,0,0,0,.36V282.8a2.19,2.19,0,0,0,0,.36.6.6,0,0,0,0,.12c0,.07,0,.15.05.23s0,.09,0,.13a1.72,1.72,0,0,0,.07.21l.06.12a2,2,0,0,0,.29.48l.1.12.13.15s.07.08.12.1l.15.13s.09.06.12.1l.05,0,29.29,19.56a2.65,2.65,0,0,0,1.52.47,2.68,2.68,0,0,0,1.53-.47l29.3-19.55.05,0,.12-.1.16-.13.1-.09.18-.21c.09-.12.18-.25.26-.38l.09-.17.06-.14c0-.06.05-.13.07-.2l0-.13a1.89,1.89,0,0,0,0-.23.5.5,0,0,0,0-.12,2.19,2.19,0,0,0,0-.36V263.24a2.19,2.19,0,0,0,0-.36.7.7,0,0,0,0-.12Zm-32,16.74L176,273l9.75-6.52,9.75,6.52ZM183,261.62l-12,8-9.65-6.45L183,248.76v12.86ZM166.07,273l-6.9,4.62v-9.23l6.9,4.61Zm4.93,3.27,12,8v12.88l-21.63-14.42,9.66-6.46Zm17.52,8,12-8,9.65,6.45-21.61,14.41ZM205.47,273l6.84-4.57v9.15L205.47,273Zm-5-3.32-12-8V248.8l21.61,14.41-9.65,6.45Z"/></g></g></g></g></svg>