<svg xmlns="http://www.w3.org/2000/svg" xmlns:xlink="http://www.w3.org/1999/xlink" viewBox="0 0 1491.5 808.21"><defs><style>.cls-1{fill:#fbfcf5;stroke:#3c3f2d;stroke-miterlimit:10;stroke-width:11.38px;}.cls-2{fill:#ccc;}.cls-3{fill:#a6120d;}.cls-4{fill:#b3b3b3;}.cls-5{fill:#dd1b16;}.cls-6{fill:#f2f2f2;}.cls-7{fill:#563d7c;}.cls-8{fill:#fff;}.cls-9{fill:#1a1918;}.cls-10{fill:#21609b;}.cls-11{fill:url(#linear-gradient);}.cls-12{fill:url(#linear-gradient-2);}.cls-13{fill:#63a714;}.cls-14{fill:#89ce17;}.cls-15{fill:#eaeaea;}.cls-16{fill:#fefefe;}.cls-17{fill:#e34d26;}.cls-18{fill:#f06529;}.cls-19{fill:#0070b9;}.cls-20{fill:#29a7df;}</style><linearGradient id="linear-gradient" x1="1700.02" y1="-5930.88" x2="1700.08" y2="-5930.94" gradientTransform="matrix(1849.27, 0, 0, -1853.39, -3142740.08, -10992135.37)" gradientUnits="userSpaceOnUse"><stop offset="0" stop-color="#387eb8"/><stop offset="1" stop-color="#366994"/></linearGradient><linearGradient id="linear-gradient-2" x1="1699.7" y1="-5930.58" x2="1699.77" y2="-5930.64" gradientTransform="matrix(1849.27, 0, 0, -1853.39, -3142095.11, -10991508.88)" gradientUnits="userSpaceOnUse"><stop offset="0" stop-color="#ffe052"/><stop offset="1" stop-color="#ffc331"/></linearGradient></defs><title>skills-languages-landscape</title><g id="Layer_2" data-name="Layer 2"><g id="Skills"><g id="skills-languages-landscape"><path id="speech-bubble" class="cls-1" d="M5.69,137V671.17A131.34,131.34,0,0,0,137,802.52h1042.5a131.35,131.35,0,0,0,131.35-131.35V582.51c12.39,2.29,25.6,4.19,39.58,5.5A454,454,0,0,0,1471,583.09a401,401,0,0,1-160.13-118.68V137A131.35,131.35,0,0,0,1179.54,5.69H137A131.35,131.35,0,0,0,5.69,137Z"/><g id="AngularJS"><path class="cls-2" d="M286,696V608.5h11.34L351,679.06V608.5h10.55V696H350.51L296.9,624.88V696H286Zm162.75-3.36a62.88,62.88,0,0,1-22.79,4q-47.6,0-47.6-45.63,0-43.2,45.94-43.19c8.79,0,24.79,3.68,24.79,3.68v9.8s-15.6-4.29-23.56-4.29q-35.84,0-35.83,34,0,36.44,35.29,36.45A60.7,60.7,0,0,0,437.52,686V656.17h11.24v36.47Zm18.05-30.35V608.5H478v53.78q0,25.23,25.2,25.24t25.2-25.24V608.5h11.23v53.79q0,34.46-36.43,34.45t-36.43-34.45ZM571.34,608.5v78.31h46V696H560.1V608.5ZM633.49,696H621.74l43.56-99.19L708.87,696H696.31L685,668.42H656l3.12-9.19h22.07L664.82,619.5,633.49,696Zm87.32,0V608.5h37.33q25,0,25,21,0,17.07-24.42,25.27l30,41.24H773.91L746,656.57v-7.41q25.14-4,25.14-19.32,0-12.15-14-12.15H732.05V696Zm110.32-87.5v62.36q0,25.23-29.62,25.24v-9.19q18.39,0,18.39-16V608.5Zm20.43,84.76V682.77a87.61,87.61,0,0,0,29.75,4.94q22.59,0,22.6-16.67,0-14.17-16.66-14.19H876q-27.48,0-27.48-24.07,0-25.31,35.21-25.31a104.7,104.7,0,0,1,28.46,3.71v10.49a80.44,80.44,0,0,0-28.46-4.94q-23.88,0-23.88,16Q859.83,647,876,647h11.27q28,0,28,24.07,0,25.92-33.92,25.93a114.25,114.25,0,0,1-29.75-3.71Z"/><path d="M289.07,693.21V605.77h12.27L354.1,676V605.77h10.56v87.17H353.37L299.63,622v71.26H289.07Zm162.76-3.43a64.76,64.76,0,0,1-23,4q-47.59,0-47.6-45.64,0-43.18,45.95-43.19c8.78,0,24.29,3.68,24.29,3.68v9.86a64.23,64.23,0,0,0-23.09-4.29q-35.55,0-35.55,34,0,36.43,35,36.45a58.67,58.67,0,0,0,12.4-1.48V653.44h11.58Zm18-30.22V605.77h11.24v53.79q0,25.23,25.2,25.24t25.19-25.24V605.77h11.24v53.79q0,34.44-36.44,34.43T469.87,659.56Zm104.19-53.79v78.32h46v9.19h-57.2V605.77Zm62.31,87.51H624.6l43.57-99.2,43.57,99.2H699.18L687.84,665.7h-29l3.13-9.19h22.06l-16.36-39.73-31.32,76.5Zm87.51,0V605.77h37q24.78,0,24.78,21,0,17.07-24.23,25.27l29.82,41.25H777.17l-28.1-39.43v-7.43q25.32-4,25.33-19.32,0-12.14-14.09-12.13h-25.2v78.31Z"/><path class="cls-3" d="M834.2,605.43V667.8q0,25.25-29.63,25.23v-9.18q18.39,0,18.39-16.06V605.43Zm20.09,85.08V680A87.56,87.56,0,0,0,884,685q22.59,0,22.59-16.66,0-14.17-16.66-14.19H878.71q-27.48,0-27.49-24.06,0-25.29,35.21-25.29a104.65,104.65,0,0,1,28.46,3.71V619A80.44,80.44,0,0,0,886.43,614q-23.88,0-23.88,16,0,14.19,16.16,14.19H890q28,0,28,24.06,0,25.91-33.91,25.91a114.19,114.19,0,0,1-29.75-3.71Z"/><path class="cls-4" d="M169.88,538.14l-102.31,36,16.17,134L170,755.59l86.69-48.05,16.16-134-103-35.37Z"/><path class="cls-3" d="M262.55,581.26l-93-31.72V744.27l77.93-43.14,15.06-119.87Z"/><path class="cls-5" d="M79,581.84,92.84,701.7l76.72,42.55V549.56L79,581.84Z"/><path class="cls-6" d="M195.24,653.05l-25.6,12h-27L130,696.74l-23.59.44,63.26-140.72Zm-2.48-6-22.95-45.44L151,646.29h18.66l23.12.78Z"/><path class="cls-4" d="M169.56,556.74v45l21.61,44.56H169.9v19.07h29.45l13.88,32,22.57.42-66.17-141Z"/></g><g id="Bootstrap"><path class="cls-7" d="M740,279.74a28,28,0,0,0,28,28H929.45a28,28,0,0,0,28-28V118.37a28,28,0,0,0-28-28H768.08a28,28,0,0,0-28,28V279.74Z"/><path class="cls-8" d="M830.24,186.53V155.74h27.1a42.29,42.29,0,0,1,7.47.65,18.51,18.51,0,0,1,6.36,2.3,12.35,12.35,0,0,1,4.43,4.61,15.39,15.39,0,0,1,1.65,7.56q0,8.29-5,12t-12.73,3.69Zm-29-53.32V264.9h63.82a67.53,67.53,0,0,0,17.24-2.21,46,46,0,0,0,14.94-6.83A33.54,33.54,0,0,0,907.69,244a36.18,36.18,0,0,0,3.88-17.25q0-12.36-6-21.12t-18.16-12.26q8.85-4.25,13.37-10.88t4.52-16.6q0-9.23-3-15.49a25.39,25.39,0,0,0-8.57-10.06,37.15,37.15,0,0,0-13.28-5.44,82.51,82.51,0,0,0-17.16-1.66Zm29,109.25V206.28h31.57q9.41,0,15.13,4.33t5.73,14.5a18.13,18.13,0,0,1-1.76,8.49,13.94,13.94,0,0,1-4.7,5.26,19.94,19.94,0,0,1-6.83,2.77,39,39,0,0,1-8.13.83Z"/></g><g id="jQuery"><path class="cls-9" d="M1225.86,380.71l30.07.16L1195.29,463c-1.49,2-3.75,4.16-4.89,6.84-2.9,6.74-5.87,21.52-5.87,21.52l-27.53.14s4.3-15.42,4.12-23.64c-.16-7.18-3.82-14.35-5.88-21.54s-4.89-21.55-4.89-21.55h28.35l3.91,15.64,43.16-59.78"/><path class="cls-9" d="M1168.72,396.63c5.56,3.35,9,21.84,9,21.84l-44.92.29h-13.68l-16.62,72.35h-25.39s15.8-78.51,19.53-92.75c1.21-4.61,8.28-3.82,20.22-3.82h19.1c12.33,0,26.73-1.57,32.79,2.08M1050.43,432s.8-4.65-2.68-10c-3-4.58-5.72-5.65-13.54-5.9-22.07-.69-21.64,15.67-21.64,15.67Zm24.09-18.84c3.23,11.67-2.93,39.1-2.93,39.1s-32.21-.54-49.84,0c-5.49.16-12-.6-13.69,1.95-2.29,3.58.84,9.08,3.5,11.4,3.06,2.68,9,3,11.16,3.26,14.32,1.82,44.28.47,44.28.47l-5.19,23s-42.34,2.12-63.52-2.93a21.63,21.63,0,0,1-10.75-5.86,34.19,34.19,0,0,1-2-2.77,25,25,0,0,1-2.85-5.05c-4.84-12.89.56-37.59,5.86-50.82.61-1.53,1.39-3.48,2.2-5.13,1-2.06,1.87-4.39,2.69-5.62.54-.85,1.22-1.4,1.78-2.2s1.42-1.86,2.12-2.68a40.76,40.76,0,0,1,6.85-5.87c8.82-6.6,24.79-11.73,44-9.77,7.22.74,18.13,3.32,23.46,10.75,1.42,2,2.13,5.92,2.93,8.8Zm-116.75-18.6,24.72-.14s-13.75,65.21-20.75,97H933.46c-19.85,0-37.52,2.46-45-11.75-7.3-13.8-.34-36.49,2.93-51.9,2.31-10.91,7.18-33.21,7.18-33.21l25.55-.23s-7.22,34.64-10.22,51.94c-1.07,6.2-3.29,12-1,16.61,2.19,4.36,5.27,4.68,14.65,4.89,3,.07,12.71,0,12.71,0l17.59-73.29m-115.32,47c2.58-9.17,6.35-19.11,5.87-27.37-.52-8.83-7.93-16.87-12.71-18.56-14.39-5.09-27.87,2-33.22,7.81-6.93,7.51-9.28,16.28-11.73,28.35-1.83,9-3.32,18.41,0,25.4,5.88,12.36,24.22,9.66,44,9.78,2.93-7.86,5.35-16.68,7.81-25.41Zm34.21-36.16c2.81,20.46-8,43.05-15.42,62.69,7.58.68,14.23-.11,14.7.46.5.73-5.08,23.44-7,23.5-6,.16-26,.32-34.28.32-27.14,0-52.53,1.77-65.48-11.72-5.26-5.48-8.89-14.89-9.77-21.5-1.47-11.05.37-23.2,2.93-33.23,2.32-9,5.28-17.59,9.77-25.41,11.41-19.9,31.24-34.68,64.5-31.27a61.92,61.92,0,0,1,21.5,6.84c.4.24,1.8,1.35,2.12,1.55,7.82,5,14.94,16.84,16.45,27.77ZM756.58,394.66c-1.63,7.44-3.27,15.88-5,23.23H724.35c2.11-8.15,3.72-16.25,5.84-23.35,8.71,0,26.37.12,26.37.12m-33.15,30.15h26.27c-3.45,19.1-10.28,49.9-15.63,71.34-3.35,13.42-5.59,23.21-14.66,30.3-.81.63-1.28.33-2,1-1.67,1.6-9.4,3.44-13.68,3.91-7,.76-14.82.1-23.37-.08,2.23-8.17,4.77-18,6.76-25.33,20.85,2.53,21.37-17.18,25.41-36.15,2.33-11,9.41-40.56,10.75-45"/><path class="cls-10" d="M661.73,474.63l-.57,1.47c-9.63,18.76-26.7,30.27-51.06,30.78A71.29,71.29,0,0,1,580.78,501a75.67,75.67,0,0,1-35.17-33.23c-10.08-19.51-11.9-46.66,9-66.94.33,0-2.54,4.4-2.21,4.4l-.58,1.88c-15.1,47.26,31.42,87.77,76.63,83.14,10.87-1.11,24.73-7.07,33.23-15.64"/><path class="cls-10" d="M634.37,455.09c11.37.08,23.26-5.24,30.29-12.71-6.15,15.63-24,25.68-47.88,22.48-20-2.68-39.08-22.82-41-43-1.43-14.69,3.69-23.45,12.12-34.08-2.93,5.56-4,9.85-4.3,12.58-3.2,31.77,25.38,54.56,50.82,54.73"/><path class="cls-10" d="M663.52,415.63c-1.77,4.05-11.95,11.71-16.45,12.67-17.8,3.79-29.21-4.65-35.18-14.26a42.91,42.91,0,0,1-2.82-6.35c-2.32-7.87-1.25-19.79,5.66-25.95-2.09,5.86-2.39,12.67-1.29,17.1a37.77,37.77,0,0,0,4.71,10.29c3.68,5.35,6,6.65,10.75,9.5a29,29,0,0,0,5.4,2.59c4.49,1.32,14,4.8,29.22-5.59"/></g><g id="Python"><path class="cls-11" d="M1133.92,90.33c-55.48,0-52,24.06-52,24.06l.06,25h53v7.45h-74s-35.51-4-35.51,51.95,31,54,31,54H1075v-26s-1-31,30.49-31h52.44s29.51.48,29.51-28.51V119.34S1191.9,90.33,1133.92,90.33Zm-19.68,26.28h0a9.5,9.5,0,0,1-9.5,9.5h0a9.51,9.51,0,0,1-9.52-9.51h0a9.5,9.5,0,0,1,9.5-9.5h0A9.51,9.51,0,0,1,1114.24,116.61Z"/><path class="cls-12" d="M1135.47,307.78c55.5,0,52-24.06,52-24.06l-.06-24.93h-53v-7.53h74s35.53,4,35.53-52-31-54-31-54h-18.5v26.07s1,31-30.5,31H1111.5s-29.51-.48-29.51,28.5v47.92s-4.48,29,53.51,29ZM1164.72,291a9.53,9.53,0,0,1-9.55-9.51h0a9.5,9.5,0,0,1,9.5-9.51h0a9.51,9.51,0,0,1,9.51,9.51h0a9.49,9.49,0,0,1-9.49,9.5Z"/></g><g id="JavaScript"><path class="cls-13" d="M672.09,116.51c-1.35,3.84-1.12,7.89-1.49,11.83-1.83,19.25-3.5,38.51-5.21,57.77q-2.24,25.08-4.42,50.16c-1.46,16.46-3,32.91-4.36,49.37-.18,2.17-1,3-3.12,3.6q-32.76,8.94-65.46,18.14a10,10,0,0,1-5.62,0q-32.83-9.19-65.71-18.24c-1.58-.43-2.41-1-2.58-2.9-2.84-32.65-5.82-65.29-8.73-97.94-2.21-24.77-4.33-49.55-6.6-74.32-.22-2.34.39-2.7,2.55-2.7q83.79.09,167.59,0c1.05,0,2.1-.06,3.16-.09ZM585,247.45c-7.82-1.57-15.41-4.06-23.17-5.9-1.18-.28-1.13-1.13-1.2-2-.36-4.29-.8-8.57-1.08-12.86-.13-2-.65-2.92-2.94-2.84-5.62.19-11.25.1-16.87,0-1.62,0-2.33.23-2.16,2.15Q539,241.24,540,256.48c.11,1.62.83,2.07,2.11,2.41q6.24,1.64,12.45,3.35,15.2,4.22,30.4,8.48c0,6.69,0,13.37,0,20.06,0,1.53.25,2.33,2.11,1.81q27.07-7.57,54.19-15c1.1-.3,1.66-.7,1.76-1.88.49-5.83,1.08-11.66,1.56-17.5.59-7,1-14,1.66-20.93.79-8.79,1.77-17.56,2.55-26.35.64-7.15,1-14.31,1.67-21.46,1-10.7,2.15-21.39,3.07-32.1.84-9.75,1.49-19.52,2.66-29.25.22-1.8-.15-2.68-2.32-2.68q-33.25.12-66.52,0c-1.82,0-2.45.52-2.42,2.39.1,6.42,0,12.84,0,19.27-1,0-2.1.11-3.16.11-16.27,0-32.54,0-48.81,0-2,0-2.56.49-2.37,2.49.62,6.38,1.06,12.78,1.57,19.17.9.83,2,.44,3,.45,15.48,0,31,.07,46.43-.05,2.6,0,3.41.55,3.4,3.31C585,197.51,585,222.48,585,247.45Z"/><path d="M605,75.25c4.21,3.31,7.76,6.24,11.46,9a4,4,0,0,1,1.86,4,63.17,63.17,0,0,0,0,6.6c.06,1.29-.41,1.61-1.65,1.61q-13.86-.08-27.7,0c-1.16,0-1.8-.18-1.76-1.56.09-2.55.1-5.1,0-7.65,0-1.4.63-1.57,1.76-1.56,3.6,0,7.2,0,10.78,0,.27-1.11-.65-1.25-1.11-1.63-1.34-1.14-2.77-2.16-4.16-3.24-7.84-6.06-7.8-6.06-7.28-16,.07-1.33.51-1.58,1.7-1.58q14,.06,28,0c1.18,0,1.48.37,1.45,1.5q-.1,4.48,0,9c0,1.26-.36,1.66-1.63,1.63C613,75.2,609.42,75.25,605,75.25Z"/><path d="M582.25,79.82c0,4.83-.06,9.67,0,14.5,0,1.62-.41,2.1-2.06,2.08-8.88-.08-17.76-.06-26.63,0-1.4,0-2.08-.22-2-1.84.12-2.72.13-5.45,0-8.17-.09-1.63.63-1.86,2-1.83,4.4.06,8.8-.07,13.19.06,1.9.06,2.34-.59,2.3-2.38-.1-5.71,0-11.43-.07-17.14,0-1.44.29-2,1.85-1.93,3.16.12,6.33.1,9.49,0,1.48,0,2,.37,1.93,1.89C582.19,70,582.25,74.9,582.25,79.82Z"/><path class="cls-14" d="M585,147.1c0-6.43.07-12.85,0-19.27,0-1.87.6-2.39,2.42-2.39q33.25.09,66.52,0c2.17,0,2.54.88,2.32,2.68-1.17,9.73-1.82,19.5-2.66,29.25-.92,10.71-2.11,21.4-3.07,32.1-.65,7.15-1,14.31-1.67,21.46-.78,8.79-1.76,17.56-2.55,26.35-.63,7-1.07,14-1.66,20.93-.48,5.84-1.07,11.67-1.56,17.5-.1,1.18-.66,1.58-1.76,1.88q-27.12,7.44-54.19,15c-1.86.52-2.12-.28-2.11-1.81,0-6.69,0-13.37,0-20.06l1.12-.54q21.2-5.79,42.41-11.55c1.15-.31,1.25-1,1.33-1.9q1.85-20.88,3.73-41.75c1.13-12.51,2.33-25,3.44-37.53.84-9.54,1.61-19.09,2.4-28.63.86-2.45-1.12-1.61-2-1.61Q611.18,147.1,585,147.1Z"/><path class="cls-14" d="M585,247.45c0-25,0-49.94.07-74.91,0-2.76-.8-3.33-3.4-3.31-15.48.12-30.95.07-46.43.05-1,0-2.12.38-3-.45l52.78-.09c1,0,1.93.11,2.89.11,8.7,0,17.39,0,26.09,0,1.49,0,2.12.14,1.93,2q-3.37,33.92-6.5,67.86c-.19,2.09-1,2.79-2.83,3.26-6.88,1.78-13.71,3.7-20.56,5.57Z"/><path class="cls-15" d="M585,247.45l1,.09a2.55,2.55,0,0,0-1.07,2.23c0,6.14,0,12.27,0,18.41,0,.88-.12,1.83,1.13,2l-1.12.54q-15.21-4.25-30.4-8.48-6.21-1.73-12.45-3.35c-1.28-.34-2-.79-2.11-2.41q-1-15.24-2.45-30.46c-.17-1.92.54-2.17,2.16-2.15,5.62.07,11.25.16,16.87,0,2.29-.08,2.81.87,2.94,2.84.28,4.29.72,8.57,1.08,12.86.07.88,0,1.73,1.2,2C569.59,243.39,577.18,245.88,585,247.45Z"/><path class="cls-15" d="M585,168.74l-52.78.09c-.51-6.39-1-12.79-1.57-19.17-.19-2,.37-2.5,2.37-2.49,16.27.08,32.54.05,48.81,0,1.06,0,2.11-.07,3.16-.11q26.21,0,52.4.11c.91,0,2.89-.84,2,1.61-.24-1.39-1.33-1.14-2.27-1.15-16.6,0-33.2,0-49.81,0-1.83,0-2.43.54-2.4,2.39C585,156.26,585,162.5,585,168.74Z"/><path class="cls-16" d="M585,168.74c0-6.24,0-12.48-.06-18.71,0-1.85.57-2.4,2.4-2.39,16.61.06,33.21,0,49.81,0,.94,0,2-.24,2.27,1.15-.79,9.54-1.56,19.09-2.4,28.63-1.11,12.51-2.31,25-3.44,37.53q-1.89,20.88-3.73,41.75c-.08.92-.18,1.59-1.33,1.9q-21.22,5.73-42.41,11.55c-1.25-.17-1.13-1.12-1.13-2,0-6.14,0-12.27,0-18.41a2.55,2.55,0,0,1,1.07-2.23c6.85-1.87,13.68-3.79,20.56-5.57,1.85-.47,2.64-1.17,2.83-3.26q3.09-33.94,6.5-67.86c.19-1.87-.44-2-1.93-2-8.7,0-17.39,0-26.09,0C586.93,168.85,586,168.78,585,168.74Z"/></g><g id="HTML"><path class="cls-17" d="M54.74,111.43c1.14,0,2.28.08,3.42.08q83.55,0,167.09-.06c2.74,0,3.11.82,2.88,3.25-2.35,25.52-4.59,51-6.88,76.56q-4.09,45.62-8.24,91.24c-.54,5.92-.56,5.92-6.15,7.47q-31.43,8.71-62.84,17.45a8.55,8.55,0,0,1-4.86,0q-32.93-9.21-65.87-18.3c-1.89-.52-2.62-1.25-2.79-3.3-1.59-18.89-3.34-37.76-5-56.64q-2.23-25-4.42-50.09T56.55,129c-.41-4.54-.79-9.09-1.23-13.63-.07-.63.29-1.46-.58-1.86Zm86.36,136.1c-7.45-1.95-14.89-3.94-22.36-5.84-1.31-.33-1.26-1.2-1.35-2.17-.41-4.54-.9-9.07-1.25-13.62-.12-1.56-.71-2-2.28-2-5.79.1-11.58.11-17.37,0-1.86,0-2.43.49-2.25,2.38,1,10.13,1.82,20.26,2.68,30.39a1.9,1.9,0,0,0,1.65,2q21.35,5.88,42.66,11.87a2.46,2.46,0,0,1,.51.15q0,9.62,0,19.23c0,3.07,0,3.11,3,2.31s6.06-1.71,9.09-2.56q21.85-6.06,43.72-12.1c1-.27,1.54-.67,1.61-1.72q.23-3.27.54-6.52.69-7.17,1.18-14.35c.47-7.05,1.32-14.06,2-21.09.42-4.61.74-9.22,1.16-13.83.64-6.86,1.38-13.7,2-20.56s1.08-13.57,1.67-20.35c.64-7.38,1.36-14.76,2-22.14.41-4.52.78-9,1.2-13.56.46-5.12.93-10.24,1.45-15.36.18-1.81-.48-2.42-2.35-2.42q-32.94.09-65.88,0c-2.06,0-2.51.71-2.47,2.6.1,5.44-.07,10.89.09,16.33.06,2.27-.73,2.77-2.86,2.76-16.16-.08-32.32,0-48.49,0-1,0-2.12-.38-3,.48,0,1.23,0,2.46.1,3.68q1.83,20.82,3.71,41.64c.62,6.72,1.33,13.42,2,20.14.89.86,2,.47,3,.47,14.22,0,28.44.06,42.66,0,2.1,0,2.91.45,2.88,2.74-.13,9.48,0,19-.07,28.44C141.72,245.77,142.05,246.81,141.1,247.53Z"/><path d="M168.87,81.34l-7.05,10.83-7.14-10.88-.55.13c0,4.24-.1,8.48,0,12.72.07,1.94-.42,2.67-2.46,2.48a42.87,42.87,0,0,0-6.31,0c-1.52.08-2.14-.21-2.13-2,.1-9.84.08-19.67,0-29.51,0-1.43.45-1.89,1.78-1.69h.26c3.16,0,6.84-.92,9.31.4s3.42,4.89,5.05,7.49l2.23,3.57c2.1-3.43,4.11-6.56,6-9.78A3,3,0,0,1,171,63.42c2.63.12,5.27.09,7.9,0,1.26,0,1.65.34,1.65,1.62q-.08,14.9,0,29.77c0,1.38-.42,1.84-1.81,1.79-3-.13-6.78,1-8.71-.46s-.43-5.43-.57-8.3c-.1-2.13,0-4.27,0-6.4Z"/><path d="M71.09,79.89c0-4.83.08-9.66,0-14.49,0-1.7.49-2.07,2.06-2a67.45,67.45,0,0,0,7.11,0c1.55-.08,2.21.23,2.08,2-.17,2.36,0,4.74-.07,7.11-.06,1.45.33,2,1.89,2,2.19-.13,4.39-.09,6.58,0,1.15,0,1.54-.34,1.51-1.49-.07-2.64,0-5.27,0-7.91,0-1.22.27-1.69,1.59-1.64,2.71.1,5.44.09,8.16,0,1.18,0,1.46.38,1.46,1.5q-.06,15,0,30c0,1.26-.39,1.8-1.65,1.61a2.25,2.25,0,0,0-.26,0c-3,0-6.86,1-8.67-.44s-.52-5.58-.55-8.53c0-1.55-.28-2.23-2-2-2.58.29-6.06-1.1-7.55.55-1.28,1.41-.57,4.84-.37,7.35s-.46,3.51-3.1,3.15a20.06,20.06,0,0,0-5.25,0c-2.57.35-3-.77-2.92-3C71.2,89,71.09,84.46,71.09,79.89Z"/><path d="M123.31,63.45c4.48,0,8.95.07,13.43,0,1.5,0,1.94.41,1.87,1.89-.12,2.54-.1,5.09,0,7.63.05,1.27-.34,1.67-1.61,1.61-2.1-.1-4.21.07-6.31-.06-1.5-.09-1.92.39-1.89,1.89.09,6,0,11.93.07,17.9,0,1.81-.44,2.52-2.32,2.32-2.84-.29-6.57,1.2-8.32-.57s-.41-5.34-.46-8.13c-.07-3.6-.18-7.21,0-10.79.15-2.31-.66-2.84-2.76-2.62-1.74.18-3.51,0-5.26.05-1.25.06-1.91-.14-1.82-1.66.13-2.63.11-5.27,0-7.9,0-1.34.48-1.57,1.67-1.55C114.19,63.49,118.75,63.45,123.31,63.45Z"/><path d="M185.94,80.06c0-4.91.05-9.83,0-14.75,0-1.48.38-2,1.88-1.89,2.45.12,4.92.12,7.37,0,1.54-.08,1.91.45,1.89,1.92-.08,6,.07,12-.09,17.91-.06,2.06.58,2.47,2.48,2.39,3.77-.15,7.55,0,11.32-.08,1.39,0,1.82.37,1.75,1.76-.14,3,1,6.87-.47,8.68s-5.6.5-8.55.55c-5.18.1-10.36,0-15.54.07-1.66,0-2.07-.47-2-2.07C186,89.72,185.94,84.89,185.94,80.06Z"/><path class="cls-18" d="M87.43,147.77c.89-.86,2-.47,3-.48,16.17,0,32.33,0,48.49,0,2.13,0,2.92-.49,2.86-2.76-.16-5.44,0-10.89-.09-16.33,0-1.89.41-2.61,2.47-2.6q32.94.11,65.88,0c1.87,0,2.53.61,2.35,2.42-.52,5.12-1,10.24-1.45,15.36-.42,4.52-.79,9-1.2,13.56-.68,7.38-1.4,14.76-2,22.14-.59,6.78-1.06,13.57-1.67,20.35s-1.35,13.7-2,20.56c-.42,4.61-.74,9.22-1.16,13.83-.65,7-1.5,14-2,21.09q-.48,7.19-1.18,14.35-.31,3.25-.54,6.52c-.07,1.05-.62,1.45-1.61,1.72q-21.87,6-43.72,12.1c-3,.85-6.05,1.76-9.09,2.56s-3,.76-3-2.31q0-9.61,0-19.23a9,9,0,0,1,1.21-.48c13.51-3.74,27-7.53,40.55-11.15,2.1-.56,2.8-1.57,2.91-3.55.2-3.5.53-7,.84-10.5,1.52-16.86,3-33.72,4.61-50.57.22-2.33-.35-2.91-2.72-2.89-15.8.09-31.61,0-47.41,0v-22c16.66,0,33.32-.09,50,0,1.78,0,2.44-.47,2.57-2.25.41-5.68.86-11.36,1.53-17,.25-2.05-.21-2.54-2.23-2.53-12.81.09-25.61,0-38.42,0-4.64,0-9.29.09-13.93.13Z"/><path class="cls-15" d="M87.43,147.77l53.8.09q0,10.74,0,21.47c-9.21,0-18.43.12-27.65,0-1.93,0-2.6.36-2.37,2.45.65,5.75,1.14,11.52,1.57,17.29.13,1.81.63,2.53,2.64,2.5,8.61-.09,17.21,0,25.81,0q0,10.74,0,21.47l-48,.1c-.67-6.72-1.38-13.42-2-20.14q-1.9-20.82-3.71-41.64C87.42,150.23,87.46,149,87.43,147.77Z"/><path class="cls-16" d="M141.23,213.13q0-10.74,0-21.47l.51-.18c15.8,0,31.61.12,47.41,0,2.37,0,2.94.56,2.72,2.89-1.6,16.85-3.09,33.71-4.61,50.57-.31,3.5-.64,7-.84,10.5-.11,2-.81,3-2.91,3.55-13.54,3.62-27,7.41-40.55,11.15a9,9,0,0,0-1.21.48,2.46,2.46,0,0,0-.51-.15V248c7.51-2.05,15-4.13,22.53-6.11,1.38-.36,2.06-.85,2.19-2.38.62-7.86,1.28-15.71,2.12-23.54.24-2.34-.54-2.73-2.67-2.71C157.35,213.3,149.29,213.18,141.23,213.13Z"/><path class="cls-15" d="M141.23,248V270.5q-21.33-6-42.66-11.87a1.9,1.9,0,0,1-1.65-2c-.86-10.13-1.72-20.26-2.68-30.39-.18-1.89.39-2.41,2.25-2.38,5.79.11,11.58.1,17.37,0,1.57,0,2.16.44,2.28,2,.35,4.55.84,9.08,1.25,13.62.09,1,0,1.84,1.35,2.17,7.47,1.9,14.91,3.89,22.36,5.84C141.15,247.67,141.19,247.81,141.23,248Z"/><path class="cls-18" d="M141.23,248c0-.15-.08-.29-.13-.43,1-.72.62-1.76.62-2.68,0-9.48-.06-19,.07-28.44,0-2.29-.78-2.75-2.88-2.74-14.22.09-28.44.06-42.66,0-1,0-2.12.39-3-.47l48-.1c8.06.05,16.12.17,24.17.09,2.13,0,2.91.37,2.67,2.71-.84,7.83-1.5,15.68-2.12,23.54-.13,1.53-.81,2-2.19,2.38C156.24,243.83,148.74,245.91,141.23,248Z"/><path class="cls-16" d="M141.22,169.33q0-10.74,0-21.47c4.64,0,9.29-.12,13.93-.13,12.81,0,25.61,0,38.42,0,2,0,2.48.48,2.23,2.53-.67,5.65-1.12,11.33-1.53,17-.13,1.78-.79,2.25-2.57,2.25-16.66-.05-33.32,0-50,0Z"/><path class="cls-17" d="M141.22,169.33l.51.18v22l-.51.18c-8.6,0-17.2-.13-25.81,0-2,0-2.51-.69-2.64-2.5-.43-5.77-.92-11.54-1.57-17.29-.23-2.09.44-2.46,2.37-2.45C122.79,169.45,132,169.36,141.22,169.33Z"/></g><g id="CSS"><path class="cls-19" d="M363.62,111.3c28,0,55.93,0,83.89,0,2.28,0,2.7.55,2.49,2.78-1.79,19-3.43,38-5.13,57s-3.43,37.79-5.12,56.69q-2.24,25.06-4.41,50.14c-.26,2.88-.65,5.76-.78,8.66-.07,1.55-.82,2-2.15,2.4q-33.75,9.28-67.47,18.66a5.31,5.31,0,0,1-3.06,0q-33.72-9.37-67.47-18.68a2.37,2.37,0,0,1-2.08-2.46q-3.9-44.88-7.94-89.77-3.69-41.47-7.45-82.94c-.19-2.08.29-2.47,2.27-2.46Q321.4,111.35,363.62,111.3ZM313,191.4q.84,10.77,1.66,21.54c.77,1.12,1.93.58,2.9.58q21.45.06,42.91,0c1.48,0,2.71-.14,2.69,2.08-.09,9.73,0,19.47,0,29.21,0,.87.15,1.83-1.09,2-7-1.86-14.05-3.81-21.12-5.52-2-.48-2.43-1.51-2.56-3.25-.31-4.38-.8-8.75-1.08-13.13-.09-1.45-.51-1.95-2-1.93-6.33.07-12.66.05-19,0-1.24,0-1.65.3-1.52,1.64,1,10.22,2,20.45,2.78,30.68.16,2.05.93,2.72,2.8,3.23,14.27,3.92,28.51,8,42.75,12,0,6.6.07,13.19,0,19.78,0,2.07.48,2.56,2.6,2q26.79-7.54,53.66-14.85c1.66-.45,1.69-1.39,1.78-2.68.34-4.89.71-9.77,1.14-14.65.64-7.23,1.36-14.45,2-21.67.42-4.61.75-9.24,1.18-13.85.64-7,1.35-13.92,2-20.88.61-6.71,1.1-13.42,1.69-20.13.65-7.31,1.36-14.62,2-21.93.41-4.53.75-9.06,1.17-13.59q1-10.18,2-20.35c.17-1.72-.45-2.29-2.19-2.28q-33.22.06-66.45,0c-2,0-2.6.71-2.58,2.63.08,6.5,0,13,0,19.51-17,0-34.09.13-51.13,0-2.57,0-2.86.85-2.61,3,.59,5,1,9.95,1.44,14.94.32,3.66.27,3.66,4.05,3.66l48.23.07c0,6.23-.07,12.47.1,18.69.06,2.33-.61,3-2.94,3-14.75-.11-29.49-.07-44.24,0C315,190.93,313.89,190.5,313,191.4Z"/><path d="M360.54,85.08c-3.71-2.87-7.38-5.78-11.15-8.58a3.4,3.4,0,0,1-1.63-3.24c.13-2.72.11-5.45,0-8.16-.05-1.43.27-1.95,1.83-1.94q13.7.12,27.4,0c1.53,0,1.94.45,1.88,1.93-.12,2.71-.14,5.44,0,8.16.09,1.7-.54,2.07-2.11,2-3.5-.1-7,0-11.23,0,3.93,3.11,7.32,5.91,10.85,8.53,1.76,1.3,2.82,2.64,2.5,5s1,5.59-.49,7.1-4.66.44-7.08.46c-7.12.06-14.23,0-21.34.06-1.65,0-2.36-.32-2.22-2.13a34.21,34.21,0,0,0,0-6.32c-.23-2.15.71-2.43,2.53-2.36,3.36.13,6.73,0,10.1,0Z"/><path d="M396.15,85c-3.76-2.89-7.48-5.82-11.28-8.65a3.31,3.31,0,0,1-1.5-3.09c.1-2.71.1-5.44,0-8.16-.05-1.39.23-2,1.83-2q13.69.12,27.4,0c1.31,0,1.84.27,1.78,1.72-.11,2.8-.14,5.62,0,8.42.1,1.76-.63,2-2.14,2-3.47-.1-6.94,0-11.14,0,4.25,3.35,7.9,6.28,11.63,9.12a3.5,3.5,0,0,1,1.65,3.26c-.14,2.37-.1,4.74,0,7.11.05,1.27-.39,1.64-1.65,1.64q-13.83-.07-27.66,0c-1.24,0-1.73-.34-1.69-1.63.08-2.45.09-4.92,0-7.37-.06-1.41.44-1.81,1.81-1.79,3.64.08,7.27,0,10.91,0Z"/><path d="M312.44,79.61c0-4.74.07-9.49,0-14.24,0-1.61.25-2.24,2.09-2.22,8.79.11,17.58.09,26.37,0,1.61,0,2.35.24,2.22,2.09a60.86,60.86,0,0,0,0,7.64c.09,1.69-.36,2.27-2.14,2.22-4.39-.13-8.79,0-13.19-.08-1.63,0-2.16.46-2.06,2.09.18,2.7-.85,6.22.5,7.9s5.09.46,7.77.57a65,65,0,0,0,7.12,0c1.71-.11,2.09.52,2,2.1a60.21,60.21,0,0,0,0,6.85c.09,1.57-.54,1.86-2,1.85q-13.32-.09-26.64,0c-1.58,0-2.12-.33-2.08-2C312.52,89.46,312.44,84.54,312.44,79.61Z"/><path class="cls-20" d="M363.11,147.61c0-6.5.07-13,0-19.51,0-1.92.6-2.64,2.58-2.63q33.22.07,66.45,0c1.74,0,2.36.56,2.19,2.28q-1.05,10.17-2,20.35c-.42,4.53-.76,9.06-1.17,13.59-.66,7.31-1.37,14.62-2,21.93-.59,6.71-1.08,13.42-1.69,20.13-.62,7-1.33,13.92-2,20.88-.43,4.61-.76,9.24-1.18,13.85-.65,7.22-1.37,14.44-2,21.67-.43,4.88-.8,9.76-1.14,14.65-.09,1.29-.12,2.23-1.78,2.68q-26.87,7.32-53.66,14.85c-2.12.6-2.62.11-2.6-2,.07-6.59,0-13.18,0-19.78l1.11-.51c14.11-3.88,28.22-7.77,42.36-11.58,1.27-.34,1.38-1,1.46-2.06.34-4.11.72-8.22,1.09-12.33q2.06-22.94,4.11-45.88,1.27-14.41,2.46-28.84c.59-7.08,1.12-14.16,1.69-21.24-.76-1-1.8-.46-2.69-.47Q388.91,147.6,363.11,147.61Z"/><path class="cls-15" d="M364.2,270.08l-1.1.51c-14.24-4-28.48-8.07-42.75-12-1.87-.51-2.64-1.18-2.8-3.23-.8-10.23-1.79-20.46-2.78-30.68-.13-1.34.28-1.65,1.52-1.64,6.33,0,12.66.06,19,0,1.49,0,1.91.48,2,1.93.28,4.38.77,8.75,1.08,13.13.13,1.74.59,2.77,2.56,3.25C348,243.06,355,245,362,246.87c.43.49,1,.41,1.59.48q0,10,0,20C363.63,268.29,363.29,269.33,364.2,270.08Z"/><path class="cls-15" d="M363.11,147.61q25.8,0,51.58.07c.89,0,1.93-.48,2.69.47-17,0-34.06,0-51.09,0-2,0-2.78.44-2.72,2.62.15,6.14.06,12.28.07,18.43l-.54.16-48.24-.07c-3.78,0-3.73,0-4.05-3.66-.43-5-.85-10-1.44-14.94-.25-2.17,0-3,2.61-3C329,147.74,346.07,147.64,363.11,147.61Z"/><path class="cls-15" d="M314.67,212.94q-.82-10.77-1.66-21.54l50.62,0V213Z"/><path class="cls-20" d="M314.67,212.94l49,.07c1,0,1.93.11,2.89.11q10.67,0,21.34,0c1.22,0,2.24-.12,2,1.72-.85,7.85-1.7,15.7-2.32,23.57-.16,2-.95,2.63-2.67,3.09-7.11,1.89-14.19,3.9-21.27,5.86-.56-.07-1.16,0-1.59-.48,1.24-.21,1.09-1.17,1.09-2,0-9.74-.05-19.48,0-29.21,0-2.22-1.21-2.08-2.69-2.08q-21.45,0-42.91,0C316.6,213.52,315.44,214.06,314.67,212.94Z"/><path class="cls-20" d="M363.63,191.45l-50.62,0c.88-.9,2-.47,3-.48,14.75,0,29.49-.07,44.24,0,2.33,0,3-.62,2.94-3-.17-6.22-.08-12.46-.1-18.69l.55-.16c9.21,0,18.43.11,27.65.05,2.1,0,3.08.07,2.64,2.77a131.21,131.21,0,0,0-1.64,16c-.12,3-1.2,3.52-3.91,3.47C380.13,191.25,371.88,191.41,363.63,191.45Z"/><path class="cls-16" d="M363.63,191.45c8.25,0,16.5-.2,24.75,0,2.71,0,3.79-.47,3.91-3.47a131.21,131.21,0,0,1,1.64-16c.44-2.7-.54-2.78-2.64-2.77-9.22.06-18.44,0-27.65-.05,0-6.15.08-12.29-.07-18.43-.06-2.18.72-2.62,2.72-2.62,17,.07,34.06,0,51.09,0-.57,7.08-1.1,14.16-1.69,21.24q-1.2,14.42-2.46,28.84-2,22.94-4.11,45.88c-.37,4.11-.75,8.22-1.09,12.33-.08,1-.19,1.72-1.46,2.06-14.14,3.81-28.25,7.7-42.36,11.58-.92-.75-.58-1.79-.58-2.71q0-10,0-20c7.08-2,14.16-4,21.27-5.86,1.72-.46,2.51-1.12,2.67-3.09.62-7.87,1.47-15.72,2.32-23.57.21-1.84-.81-1.72-2-1.72q-10.67,0-21.34,0c-1,0-1.93-.07-2.89-.11Z"/></g></g></g></g></svg>