<svg xmlns="http://www.w3.org/2000/svg" viewBox="0 0 657.84 662"><defs><style>.cls-1{fill:#069;}</style></defs><title>LinkedIn</title><g id="Layer_2" data-name="Layer 2"><g id="Layer_1-2" data-name="Layer 1"><path class="cls-1" d="M609.22,0H48.62C21.78,0,0,21.25,0,47.42V614.59C0,640.77,21.78,662,48.62,662h560.6c26.85,0,48.62-21.23,48.62-47.41V47.42C657.84,21.25,636.07,0,609.22,0ZM199.42,554.16H100.06V255.23h99.36ZM149.75,214.42h-.65c-33.35,0-54.9-22.95-54.9-51.64,0-29.33,22.21-51.65,56.21-51.65s54.9,22.32,55.55,51.65C206,191.47,184.4,214.42,149.75,214.42Zm408,339.74H458.34V394.26c0-40.19-14.38-67.6-50.33-67.6-27.45,0-43.8,18.48-51,36.34-2.62,6.38-3.27,15.32-3.27,24.24V554.16H254.41c0-2,1.3-271,0-298.92h99.35v42.32c13.2-20.37,36.84-49.34,89.55-49.34,65.36,0,114.38,42.73,114.38,134.54Z"/></g></g></svg>